<svg xmlns="http://www.w3.org/2000/svg" xmlns:xlink="http://www.w3.org/1999/xlink" width="666.546" height="198.885" viewBox="0 0 666.546 198.885">
  <defs>
    <filter id="Trazado_716" x="0" y="0" width="198.884" height="198.884" filterUnits="userSpaceOnUse">
      <feOffset dy="3" input="SourceAlpha"/>
      <feGaussianBlur stdDeviation="3" result="blur"/>
      <feFlood flood-opacity="0.161"/>
      <feComposite operator="in" in2="blur"/>
      <feComposite in="SourceGraphic"/>
    </filter>
    <filter id="Trazado_717" x="227.662" y="0.001" width="198.884" height="198.884" filterUnits="userSpaceOnUse">
      <feOffset dy="3" input="SourceAlpha"/>
      <feGaussianBlur stdDeviation="3" result="blur-2"/>
      <feFlood flood-opacity="0.161"/>
      <feComposite operator="in" in2="blur-2"/>
      <feComposite in="SourceGraphic"/>
    </filter>
    <filter id="Trazado_718" x="467.662" y="0.001" width="198.884" height="198.884" filterUnits="userSpaceOnUse">
      <feOffset dy="3" input="SourceAlpha"/>
      <feGaussianBlur stdDeviation="3" result="blur-3"/>
      <feFlood flood-opacity="0.161"/>
      <feComposite operator="in" in2="blur-3"/>
      <feComposite in="SourceGraphic"/>
    </filter>
    <clipPath id="clip-path">
      <rect id="Rectángulo_421" data-name="Rectángulo 421" width="120.477" height="120.369" fill="none"/>
    </clipPath>
  </defs>
  <g id="Grupo_593" data-name="Grupo 593" transform="translate(-381.338 -1793.999)">
    <g transform="matrix(1, 0, 0, 1, 381.34, 1794)" filter="url(#Trazado_716)">
      <path id="Trazado_716-2" data-name="Trazado 716" d="M90.442,0A90.442,90.442,0,1,1,0,90.442,90.442,90.442,0,0,1,90.442,0Z" transform="translate(9 6)" fill="#fff"/>
    </g>
    <g transform="matrix(1, 0, 0, 1, 381.34, 1794)" filter="url(#Trazado_717)">
      <path id="Trazado_717-2" data-name="Trazado 717" d="M90.442,0A90.442,90.442,0,1,1,0,90.442,90.442,90.442,0,0,1,90.442,0Z" transform="translate(236.66 6)" fill="#fff"/>
    </g>
    <g transform="matrix(1, 0, 0, 1, 381.34, 1794)" filter="url(#Trazado_718)">
      <path id="Trazado_718-2" data-name="Trazado 718" d="M90.442,0A90.442,90.442,0,1,1,0,90.442,90.442,90.442,0,0,1,90.442,0Z" transform="translate(476.66 6)" fill="#fff"/>
    </g>
    <g id="Grupo_590" data-name="Grupo 590" transform="translate(420.542 1827.702)">
      <g id="Grupo_570" data-name="Grupo 570" transform="translate(0)" clip-path="url(#clip-path)">
        <path id="Trazado_617" data-name="Trazado 617" d="M0,60.106C-.066,26.757,27.323-.077,60.363,0A60.185,60.185,0,1,1,0,60.106m2.718,0A57.523,57.523,0,1,0,60.37,2.707C28.619,2.654,2.612,28.367,2.718,60.1" transform="translate(0 0)" fill="#020202"/>
        <path id="Trazado_618" data-name="Trazado 618" d="M112.491,155.892a43.282,43.282,0,1,1,43.477-43.269,43.277,43.277,0,0,1-43.477,43.269M81.836,97.964c-1.336.916-1.416,2.244-1.165,3.654a2.725,2.725,0,0,0,1.872,2.278c-1.739-3.536-1.79-4.082-.542-5.747a1.764,1.764,0,0,1,1.438,0,.539.539,0,0,1-.011.657c-1.434,1.89-1.432,2.053-.126,4.08l.124.152c.115-.1.076-.175-.043-.234.021-.817.474-.9,1.014-.492.763.576,1.361.736,1.7-.537a4.059,4.059,0,0,1,.885,2.885c-.18,1.4.087,2.277,1.689,2.28.236,0,.519.06.519.383a.522.522,0,0,1-.458.5c-1.673.249-1.308,1.265-.909,2.318.108.285.359.547.187.976a2.17,2.17,0,0,1-1.616-1.6,7.838,7.838,0,0,0-.365-1.154c-.139-.335-.342-.736-.786-.573a.889.889,0,0,0-.651,1.035,2.668,2.668,0,0,0,.4.874,1.385,1.385,0,0,1,.167,1.372,2.691,2.691,0,0,0,.529,3.239c.33.311.222.753.234,1.154.033,1.114.435,1.381,1.43.815a2.009,2.009,0,0,1,1.83-.174,3.945,3.945,0,0,0,3.068-.234c.733-.346,1.526-1.255,1.977.3.031.106.265.168.415.222a5.573,5.573,0,0,0,5.911-2.04c.3-.471.216-1.1.714-1.552.148.164.274.312.408.451a1.413,1.413,0,0,0,1.515.525c.717-.243.551-.91.579-1.451.06-1.192-.952-1.809-1.469-2.7-1.445-2.474-2.78-5-2.208-8.03a1.761,1.761,0,0,0-.275-1.5c-1.152-1.4-1.534-3.178-2.336-4.75a2.982,2.982,0,0,0-3.309-1.818A5.884,5.884,0,0,1,91.9,93.47c-2.756-.582-4.419.291-5.568,2.822-.134.295-.289.58-.422.875-.776,1.736-.774,1.737-2.306.791a1.193,1.193,0,0,0-1.771.006m16.789,30.409c.2,0,.4,0,.6,0,1.375,0,2.75,0,4.125.006.291,0,.614.025.6.417s-.362.392-.631.365c-.44-.045-.872-.174-1.312-.219-1.283-.13-2.593-.39-3.725.531-.254.207-.49.465-.346.827.108.274.4.269.632.236a4.81,4.81,0,0,1,3.142.637,1.411,1.411,0,0,0,1.29-.056c.662-.3,1.019-.06,1.282.609a19.361,19.361,0,0,1,1.2,4.8c.136,1.137.039,2.439,1.152,3.191,1.129.763,1.352,1.957,1.715,3.1.06.191.1.445-.094.556-.255.145-.445-.067-.621-.238a2.082,2.082,0,0,1-.422-1.119,2.711,2.711,0,0,0-.8-1.6,5.1,5.1,0,0,1-1.758-3.35,15.307,15.307,0,0,0-1.027-4.583c-.221-.441-2.419-.879-2.718-.535a.353.353,0,0,0-.053.232c.108,1.77-.395,3.588.159,5.308,2.39,7.419,7.334,11.9,15.178,12.953a2.794,2.794,0,0,0,2.879-1.1c-3.672.869-7.947-.493-8.207-2.185.462-.123.739.25,1.076.422a8.194,8.194,0,0,0,4.193.977c2.154-.108,5.022-1.793,5.525-3.389a34.975,34.975,0,0,0,1.08-5.69c.393-2.79-.98-5.51-.161-8.289.165-.56-.362-.511-.7-.569-.359-.062-.674-.008-.627.466.265,2.667-.287,5.3-.341,7.955a6.273,6.273,0,0,1-1.142,3.929c.308-2.22,1.313-4.429-.228-6.658.761-.028.59.67,1.133.615.191-2.1,0-4.187.006-6.273,0-.121.021-.243.012-.363a.818.818,0,0,0-.191-.384c-.738-1.113-2.015-1.5-3.013-2.249a2.863,2.863,0,0,0-2.887-.256,15.826,15.826,0,0,0-2.66,1.412c-1.507.966-2.32.757-3.113-.688a3.475,3.475,0,0,0,2.893-.126,6.894,6.894,0,0,1,7.336-.284c.671.378,3.349-.911,3.632-1.61a4.425,4.425,0,0,0-1.81-5.08,9.942,9.942,0,0,0-1.809-.675c-1.39-.42-2.826-.712-3.795-1.972a1.644,1.644,0,0,0-1.22-.452,4.863,4.863,0,0,0-3.222.834,4.026,4.026,0,0,1-2.516.69c-3.3-.146-7.761,3.539-8.406,6.969a5.148,5.148,0,0,1,4.01.248,1.293,1.293,0,0,0,1.412-.178c1.258-.871,2.647-.332,3.271,1.164-.612.127-.847-.489-1.314-.668-1.106-.425-2.062.171-2.037,1.215a24.24,24.24,0,0,0,2.671,9.468c.717,1.561,1.67,3.026,2.276,4.712.7,1.941,2.786,2.471,4.466,3.29,2.654,1.295,4.419.212,4.639-2.723l-.015.017.491-.011c-.069.6-.1,1.2-.213,1.791a2.69,2.69,0,0,1-2.649,2.352c-3.558.294-7.632-3.02-8.065-6.575-.05-.413-.078-.794-.487-1.038a2.982,2.982,0,0,1-1.33-2.341,8.741,8.741,0,0,0-1.012-2.943,9.9,9.9,0,0,1-1.113-4.291,2.407,2.407,0,0,0-1.093-2.15c-2.052-1.318-3.193-1.216-5.184.621-.055.041-.257.032-.053.159l.03-.176M130,117.439c.059.327.115.577.586.432,1-.308,1.3-1.084.889-2.43-.35.17-.25.769-.76.8.146-.678.042-1.5.989-1.718l.141.309.089-.31a24.873,24.873,0,0,1,4.667-3.23,6.968,6.968,0,0,0,3.725-5.252,12.5,12.5,0,0,0-.879-6.418c-.136-.337-.662-.759-.182-1.047.543-.327.873.22,1.1.656a9.21,9.21,0,0,1,.607,1.45,17.636,17.636,0,0,1,.62,7.191c-.106.982-.189,1.97,1.227,2.147a1.737,1.737,0,0,1,1.034.586c.718.9,1.172.408,1.7-.193,1.558-1.765,1.521-3.692,1.009-5.889-.961-4.126-3.747-7.4-5.035-11.356a1.647,1.647,0,0,0-1.422-1.015c-.92-.12-1.839-.25-2.758-.379a.611.611,0,0,0-.763.577c-.057.312-.066.769-.471.713-.484-.067-.343-.583-.34-.912a2.738,2.738,0,0,0-1.237-2.326c-.051.941.5,1.725.153,2.672a3.633,3.633,0,0,1-.668-.462c-.647-.75-1.136-.625-1.694.146-.64.884-1.322,1.733-1.882,2.677-.942,1.588-1.836,3.219-2.926,4.7a8.813,8.813,0,0,0-1.976,5.077,21.4,21.4,0,0,1-.969,6.315c-.149.435-.112,1.164-.906,1.153-.045-.515.291-.912.423-1.372.4-1.394.973-2.83.376-4.25a9.294,9.294,0,0,1,.063-7.392c.438-1.083.918-2.15,1.347-3.236.58-1.47,1.181-2.918-.5-4.176a2.419,2.419,0,0,1-.758-1.862c-.055-1.187.39-1.507,1.452-.928.815.444,1.563,1.01,2.348,1.51.3.19.6.5.988.25a3.415,3.415,0,0,1,2-.363c.707.011.847-.264.551-.887a4.139,4.139,0,0,1-.309-2.139c.078-.993.558-1.263,1.328-.624a17.594,17.594,0,0,1,2.478,2.487,2.623,2.623,0,0,0,1.917,1.084,19.722,19.722,0,0,1,4.918,1.281,21.172,21.172,0,0,0,4.435,1.6c-2.861-9.1-19.278-19.291-31.286-19.915C95.859,72.154,82.748,84.086,77.828,94.054a17.235,17.235,0,0,1,1.765.391c1.885.623,3.68.856,5.144-.9a.678.678,0,0,1,.423-.222c1.6-.126,3.034-.93,4.711-.973A48.975,48.975,0,0,1,95.387,93a3,3,0,0,1,2.537,2.017c.223.555.626,1.034.884,1.578a.655.655,0,0,0,.745.451,11.3,11.3,0,0,1,4.259.761c1.57.423,1.788,1.169.778,2.531-.324-.743-2.716-1.828-3.444-1.534a2.362,2.362,0,0,0-.539.436c.743.656.227,1.633.6,2.367.221.435.652.408,1.059.2a4.711,4.711,0,0,1,1.386-.725l.1.1a5.621,5.621,0,0,1-2.242,1.364.92.92,0,0,0-.673,1.214c.625,2.385,1.273,4.752,2.985,6.663,1.472,1.643,1.627,3.733.1,5.122-1.441,1.314-2.987,2.632-5.088,2.932a6.471,6.471,0,0,0-3.908,1.415c-2.191,2.108-4.906,2.508-7.784,2.157-2.65-.323-3.617.2-4.584,2.628a15.681,15.681,0,0,1-4.1,6.221.849.849,0,0,0-.194,1.323c.88,1.307,1.68,2.673,2.614,3.939a39.13,39.13,0,0,0,13.133,11.31c.4.215.872.761,1.245-.115A21.144,21.144,0,0,1,98,143.205a9.9,9.9,0,0,0,2.07-4.186,16.9,16.9,0,0,0,.219-5.432c-.408-2.627.35-2.179-2.3-2.706-1.488-.3-1.635-.712-.77-2,.5-.738,1.4-1.143,1.668-2.037a11.081,11.081,0,0,1,1.887-3.353c1.593-2.151,3.294-4.23,6.191-4.423a11.033,11.033,0,0,0,4.876-1.61,3.277,3.277,0,0,1,4.141.467,6.13,6.13,0,0,0,3.547,1.907,22.668,22.668,0,0,1,2.223.577,2.3,2.3,0,0,1,1.7,2.491,8.1,8.1,0,0,0,.193,1.921c.133.779.411,1.2,1.269,1.287a5.559,5.559,0,0,1,3.153,1.682c.792.736.678,1.291-.257,1.815-.335-1.742-1.171-2.7-2.568-2.9a4.9,4.9,0,0,0-3.123.739,2.027,2.027,0,0,0-.771,2.047c.045.707.834.737,1.424.835a12.6,12.6,0,0,0,4.324-.257c-.682.807-1.649.686-2.539.729-1.562.075-1.872.444-1.447,2a28.091,28.091,0,0,1,.848,5.363,23.743,23.743,0,0,0,2.459,8.54c.813,1.691,2.186,2.064,3.853,1.211a39.774,39.774,0,0,0,19.16-20.895,4.953,4.953,0,0,0,.248-3.628c-.652-1.938-.869-4.061-2.111-5.747-1.149-1.559-2.584-2.909-3.722-4.475-1.077-1.482-2.331-1.558-3.926-1.125-1.493.405-2.8,1.333-4.33,1.539a2.854,2.854,0,0,0-2.714,2.469,4.17,4.17,0,0,1-3.01,3.049,7.6,7.6,0,0,1-4.075.2c-1.426-.287-2.911-.9-3.27-2.517a5.225,5.225,0,0,1,.929-4.218c.156.466-.118.86-.239,1.27a2.966,2.966,0,0,0,1.259,3.462c1.823,1.388,3.673,1.011,5.541.129" transform="translate(-52.364 -52.436)" fill="#020202"/>
        <path id="Trazado_619" data-name="Trazado 619" d="M385.856,95.728c-.535-.239-.543-.562-.385-1,.444-1.24-.279-2.085-1.6-1.876a.953.953,0,0,1-.858-.288c-2.729-2.371-2.734-2.365-.183-4.924a5.178,5.178,0,0,1,.518-.511c.274-.205.459-.821.941-.281.444.5-.1.714-.342.97q-.874.927-1.813,1.791c-.38.35-.37.595-.024.995,1.3,1.5,1.285,1.515,3.125.864.645-.228,1.312-.4,1.942-.66a.749.749,0,0,1,.96.209c.316.332.108.589-.045.864q-.947,1.691-1.9,3.375c-.095.167-.218.319-.328.479m.456-2.364,1.069-1.848c-.835.339-1.482.421-1.8.788-.252.292.362.607.729,1.061" transform="translate(-288.118 -65.519)" fill="#020202"/>
        <path id="Trazado_620" data-name="Trazado 620" d="M299.349,38.263q-.726.891-1.451,1.782c-.177.216-.324.477-.688.326a.648.648,0,0,1-.409-.674c0-.929,0-1.859,0-3.055a10.171,10.171,0,0,0-1.014,2.575c-.122.316-.177.661-.632.517-.5-.157-.26-.483-.163-.783.346-1.072.7-2.143,1.015-3.223.113-.384.219-.692.717-.592.434.087.763.238.757.766-.012,1,0,2.008,0,3.211a8.521,8.521,0,0,0,1.929-2.275c.35-.46.643-.78,1.281-.489.712.325.213.776.125,1.118-.26,1.015-.606,2.008-.923,3.008-.1.317-.216.666-.652.522-.472-.157-.244-.5-.158-.8.165-.58.316-1.165.471-1.748.081-.1.132-.218-.011-.3-.032-.018-.125.072-.19.113" transform="translate(-223.006 -26.56)" fill="#020202"/>
        <path id="Trazado_621" data-name="Trazado 621" d="M431.5,292.362a7.907,7.907,0,0,0-1.751-1.486c-.226-.191-.449-.355-.323-.7a.63.63,0,0,1,.665-.418h2.736a4.816,4.816,0,0,0-2.165-.982c-.371-.131-.741-.22-.544-.716s.538-.161.811-.08q1.562.46,3.114.951c.317.1.794.056.675.629-.1.474-.312.841-.864.844-1.009.005-2.018,0-3.217,0,.5.771,1.224,1,1.7,1.492s1.683.641,1.106,1.672c-.485.868-1.221.034-1.82-.065a14.776,14.776,0,0,1-2.314-.681c-.231-.079-.625-.1-.524-.516s.4-.417.762-.307a3.9,3.9,0,0,0,1.951.357m.19.068-.094.07c.025.03.047.081.075.085s.062-.041.093-.064l-.074-.09" transform="translate(-324.295 -217.675)" fill="#020202"/>
        <path id="Trazado_622" data-name="Trazado 622" d="M135.44,419.652q.578-1.023,1.156-2.046c.168-.3.341-.585.744-.327.348.222.169.47.026.722-.578,1.017-1.143,2.041-1.725,3.055-.151.263-.26.647-.7.476a.781.781,0,0,1-.508-.747,15.983,15.983,0,0,0-.235-3.086c-.71.476-.843,1.233-1.267,1.775-.194.248-.23.82-.755.495-.47-.292-.114-.648.043-.939q.772-1.439,1.592-2.852c.144-.251.2-.682.669-.511a.815.815,0,0,1,.569.836c0,1.024,0,2.049,0,3.073l.4.074" transform="translate(-99.789 -314.356)" fill="#020202"/>
        <path id="Trazado_623" data-name="Trazado 623" d="M250.938,447.055c.044.764.091,1.529.131,2.294.015.279.07.615-.322.67-.458.064-.505-.274-.524-.623-.06-1.13-.13-2.26-.191-3.39-.018-.323-.059-.67.382-.768a.749.749,0,0,1,.816.39,12.577,12.577,0,0,0,1.932,2.32c0-.706,0-1.411,0-2.117,0-.312-.093-.725.364-.766.559-.05.486.43.5.772.056,1.13.084,2.262.14,3.393.015.293.077.591-.285.7a.7.7,0,0,1-.834-.323c-.614-.886-1.245-1.76-1.869-2.638l-.245.089" transform="translate(-189.101 -336.616)" fill="#020202"/>
        <path id="Trazado_624" data-name="Trazado 624" d="M405.592,119.066c.645-.417,1.286-.839,1.935-1.247.194-.122.419-.312.63-.037a.455.455,0,0,1-.145.721q-1.6,1.1-3.209,2.191c-.165.112-.335.24-.528.038a.807.807,0,0,1-.212-.893c.253-.638.555-1.256.805-1.895.139-.355.482-.663.28-1.246-.667.44-1.29.858-1.92,1.264-.252.163-.528.5-.8.06-.243-.389.086-.594.348-.775.932-.643,1.873-1.274,2.812-1.908.266-.18.535-.429.859-.123s.258.613.085.987c-.406.879-.762,1.782-1.137,2.675-.015.092-.03.183-.046.275l.247-.088" transform="translate(-304.304 -87.034)" fill="#020202"/>
        <path id="Trazado_625" data-name="Trazado 625" d="M340.313,59.589a11.448,11.448,0,0,0-2.057-.936,1.947,1.947,0,0,1-1.216-2.271,2.8,2.8,0,0,1,2.2-2.461,2.327,2.327,0,0,1,2.369,1.157,2.144,2.144,0,0,1,.247.921c.021.216.012.541-.309.557a.462.462,0,0,1-.491-.443c-.09-.978-.623-1.54-1.594-1.383a2,2,0,0,0-1.575,1.934c-.131.929.415,1.435,1.316,1.546a.8.8,0,0,0,.848-.358c.2-.359-.134-.486-.352-.647-.192-.142-.453-.272-.263-.562.177-.269.4-.124.634-.025,1.346.575,1.389.7.659,2.01-.173.311-.463.576-.429.979Z" transform="translate(-254.899 -40.765)" fill="#020202"/>
        <path id="Trazado_626" data-name="Trazado 626" d="M112.937,71.041q-.687-.912-1.374-1.824c-.192-.253-.493-.507-.126-.82.382-.326.581.039.77.278.7.886,1.4,1.776,2.071,2.685.165.223.568.439.239.812a.86.86,0,0,1-1.005.194c-.935-.335-1.864-.687-3.026-1.118A8.549,8.549,0,0,0,111.9,73.41c.168.262.487.487.043.787-.35.236-.522-.017-.691-.233q-1.117-1.431-2.212-2.878c-.158-.209-.43-.418-.15-.727a.671.671,0,0,1,.844-.229c1,.4,2.025.739,3.039,1.1l.159-.193" transform="translate(-82.27 -51.634)" fill="#020202"/>
        <path id="Trazado_627" data-name="Trazado 627" d="M45.515,165.323c-.733-.269-1.464-.544-2.2-.8-.336-.117-.624-.252-.456-.68.161-.41.464-.209.713-.124,1.071.366,2.141.737,3.2,1.123.279.1.7.09.674.551-.032.483-.369.663-.809.754a14.024,14.024,0,0,0-3.022.9c.791.276,1.586.542,2.371.835.246.092.583.175.4.585-.149.341-.375.328-.691.216-1.1-.394-2.22-.739-3.316-1.147-.251-.093-.713-.073-.635-.569a.846.846,0,0,1,.734-.708l3-.693.027-.244" transform="translate(-31.571 -123.731)" fill="#020202"/>
        <path id="Trazado_628" data-name="Trazado 628" d="M439.743,253.215c-1.819.369-.931-1.267-1.108-1.92A1.939,1.939,0,0,1,440,249.011a2.8,2.8,0,0,1,3.276.865,2.33,2.33,0,0,1-.036,2.727,1.85,1.85,0,0,1-.636.54c-.206.119-.5.176-.655-.066s-.022-.464.213-.608a1.323,1.323,0,0,0,.511-2.051,2.245,2.245,0,0,0-2.664-.458,1.363,1.363,0,0,0-.665,1.553.864.864,0,0,0,.685.765c.522.1.441-.331.515-.616.053-.2.115-.41.372-.384s.266.243.3.45c.189,1.248-.086,1.551-1.472,1.488" transform="translate(-331.708 -188.183)" fill="#020202"/>
        <path id="Trazado_629" data-name="Trazado 629" d="M252.308,32.542c-1.683-.069-1.682-.069-1.591-1.683.047-.844.079-1.688.146-2.53.024-.3-.009-.645.422-.768a5.152,5.152,0,0,1,3.169.8,2.983,2.983,0,0,1,.19,3.091,2.012,2.012,0,0,1-2.336,1.093m.167-4.147c-.395-.027-.816.022-.74.527.143.951-.6,1.938.132,2.851.019.024.075.024.115.026.6.029,1.259.136,1.683-.419a2.208,2.208,0,0,0,.3-2.18c-.247-.676-.854-.79-1.488-.805" transform="translate(-189.603 -20.818)" fill="#020202"/>
        <path id="Trazado_630" data-name="Trazado 630" d="M211.191,447.136c.124-1.023.256-2.062.373-3.1.083-.74.313-1.233,1.215-.937a7.847,7.847,0,0,0,1.079.148c1.628.289,2.011.978,1.219,2.4-.359.643.33,1.155.037,1.729-.151.3.346.906-.4.9-.619-.005-.524-.484-.491-.884.046-.564-.021-1.041-.668-1.251-1.037-.337-1.5.06-1.521,1.109-.006.317,0,.706-.5.622-.42-.069-.52-.336-.34-.73m2-3.258c-.825-.185-.755.484-.772.9-.038.929.786.561,1.234.672a.719.719,0,0,0,.964-.771c-.092-.8-.877-.661-1.425-.8" transform="translate(-159.667 -335.064)" fill="#020202"/>
        <path id="Trazado_631" data-name="Trazado 631" d="M58.414,140.619a7.488,7.488,0,0,1-1.08,2.436c-.2.343-.493.122-.739,0a14.4,14.4,0,0,1-2.138-1.12c-.5-.367-1.677-.169-1.386-1.255.494-1.849,1.593-2.72,2.915-2.5a2.8,2.8,0,0,1,2.427,2.439m-.885-.012c.029-.624-.4-1.012-.972-1.3a1.6,1.6,0,0,0-1.809-.007c-.94.706-.872,1.375.188,1.925q.48.249.963.49c1.06.529,1.617.176,1.629-1.113" transform="translate(-40.106 -104.485)" fill="#020202"/>
        <path id="Trazado_632" data-name="Trazado 632" d="M183.463,34.714c.945.017,1.628.508,1.478,1.135-.243,1.015.478,1.594.653,2.392.065.3.638.612.084.9-.63.326-.743-.251-.87-.655a1,1,0,0,0-1.353-.794c-.847.178-1.051.579-.813,1.353.1.334.509.806-.183.954-.508.109-.528-.348-.627-.7-.272-.97-.543-1.941-.857-2.9-.224-.681-.066-1.066.67-1.215.671-.136,1.327-.34,1.818-.47m-.27.841c-.358.263-1.265-.118-1.255.8,0,.322.009,1.051.7.856.561-.159,1.406-.057,1.441-.992.019-.5-.281-.728-.885-.664" transform="translate(-136.807 -26.255)" fill="#020202"/>
        <path id="Trazado_633" data-name="Trazado 633" d="M234.308,450.037c-2.226-.052-2.226-.052-2.052-1.977.018-.2.018-.4.044-.6.1-.744-.357-1.8.271-2.169.794-.472,1.881-.069,2.841-.061a.388.388,0,0,1,.431.458c-.033.226-.227.315-.446.318a5.18,5.18,0,0,0-.845,0c-.475.086-1.279-.382-1.286.582-.006.872.76.449,1.195.574a2.217,2.217,0,0,0,.241.008c.328.054.849-.138.863.388.015.557-.5.375-.832.388s-.645,0-.967-.018c-.546-.026-.673.285-.681.761-.009.511.282.6.693.6s.806.01,1.209.03c.31.015.727-.053.728.414,0,.5-.413.38-.72.363s-.642-.056-.688-.06" transform="translate(-175.612 -336.615)" fill="#020202"/>
        <path id="Trazado_634" data-name="Trazado 634" d="M225.454,27.625a2.134,2.134,0,0,1,1.3.379c.315.241.744.561.425.976-.3.39-.631.075-.884-.227a1.089,1.089,0,0,0-1.113-.293.566.566,0,0,0-.526.431.528.528,0,0,0,.392.658c.5.142,1.025.225,1.531.361a1.261,1.261,0,0,1,1.04,1.185,1.386,1.386,0,0,1-.793,1.387,2.265,2.265,0,0,1-2.942-.54c-.136-.246-.317-.534-.018-.756.27-.2.529-.078.722.189a1.619,1.619,0,0,0,.386.453,1.352,1.352,0,0,0,1.387.015.564.564,0,0,0,.331-.6c-.087-.585-.607-.566-1.016-.69a2.956,2.956,0,0,0-.475-.1c-.9-.118-1.588-.477-1.48-1.528s.962-1.166,1.726-1.306" transform="translate(-169.2 -20.894)" fill="#020202"/>
        <path id="Trazado_635" data-name="Trazado 635" d="M437.8,210.323a1.749,1.749,0,0,1,.731-1.574c.229-.154.505-.367.745-.072a.466.466,0,0,1-.157.725,1.214,1.214,0,0,0-.516,1.371.762.762,0,0,0,.667.753c.443.036.622-.3.687-.693.073-.437.138-.876.2-1.315a1.214,1.214,0,0,1,1.111-1.106,1.327,1.327,0,0,1,1.387.77,2.182,2.182,0,0,1-.33,2.567c-.229.169-.489.358-.734.05a.419.419,0,0,1,.078-.635,1.167,1.167,0,0,0,.3-1.614.456.456,0,0,0-.509-.244c-.486.134-.507.572-.588.963a3.506,3.506,0,0,0-.049.359c-.1.993-.332,1.893-1.616,1.8-.841-.062-1.418-.962-1.408-2.1" transform="translate(-331.124 -157.62)" fill="#020202"/>
        <path id="Trazado_636" data-name="Trazado 636" d="M290.474,444.266a2.328,2.328,0,0,1-.712-.247c-.35-.233-.9-.554-.6-1.016.287-.443.672-.069.98.232a1.128,1.128,0,0,0,1.252.157c.364-.13.676-.3.655-.751-.022-.489-.387-.572-.763-.6-.443-.032-.891-.006-1.334-.047a1.254,1.254,0,0,1-1.256-.956,1.324,1.324,0,0,1,.713-1.534,2.046,2.046,0,0,1,2.394.011c.216.163.622.406.309.769a.522.522,0,0,1-.765,0,1.544,1.544,0,0,0-.372-.3,1.1,1.1,0,0,0-1.142.175.5.5,0,0,0-.188.64c.189.4.577.385.942.4.121,0,.243.008.364,0,1.018-.04,1.919.153,2.039,1.374.086.877-1.118,1.721-2.512,1.694" transform="translate(-218.316 -332.125)" fill="#020202"/>
        <path id="Trazado_637" data-name="Trazado 637" d="M46.211,304.356c-.062-.678-.1-1.5.848-1.793a1.42,1.42,0,0,1,1.783.655,2.179,2.179,0,0,1,.06,2.7c-.165.2-.394.524-.688.288a.486.486,0,0,1-.026-.82,1.116,1.116,0,0,0,.144-1.539c-.186-.322-.433-.639-.863-.494a.7.7,0,0,0-.428.79c.032.443.081.885.1,1.329a1.231,1.231,0,0,1-.879,1.412,1.338,1.338,0,0,1-1.577-.61,2.02,2.02,0,0,1-.192-2.375c.145-.226.371-.511.686-.306a.456.456,0,0,1,.086.731,1.188,1.188,0,0,0-.216.289,1.107,1.107,0,0,0,.293,1.217.463.463,0,0,0,.646.125c.363-.255.252-.645.253-1,0-.162-.016-.323-.031-.6" transform="translate(-33.421 -228.772)" fill="#020202"/>
        <path id="Trazado_638" data-name="Trazado 638" d="M40.867,282.771a2.3,2.3,0,0,1,2.426,2.315,2.635,2.635,0,0,1-2.657,2.469,2.362,2.362,0,0,1-2.482-2.411,2.573,2.573,0,0,1,2.713-2.373m-.66,3.89c1.384-.013,2.335-.76,2.338-1.631a1.442,1.442,0,0,0-1.654-1.366c-1.187.036-2.066.751-1.986,1.668a1.317,1.317,0,0,0,1.3,1.328" transform="translate(-28.857 -213.87)" fill="#020202"/>
        <path id="Trazado_639" data-name="Trazado 639" d="M148.41,52.265c-.016,1.01-1.878,2.7-2.832,2.56-.347-.049-.4-.364-.529-.606-.388-.755-.774-1.511-1.141-2.276-.714-1.486-.984-1.192.731-2.047a2.442,2.442,0,0,1,3.771,2.367m-2.62-2.07c-.289.431-1.5-.036-1.189,1.117a12.449,12.449,0,0,0,1.06,2.172c.122.245.284.4.572.258.7-.338,1.51-.684,1.317-1.638a2.044,2.044,0,0,0-1.76-1.909" transform="translate(-108.424 -37.461)" fill="#020202"/>
        <path id="Trazado_640" data-name="Trazado 640" d="M165.548,39.818c.513-.139.615.058.678.242.081.238-.086.373-.285.454-.45.184-.9.379-1.356.533-.477.16-.63.41-.45.912.2.548.527.366.869.238.379-.142.759-.283,1.133-.439.251-.1.484-.131.61.154s-.075.442-.318.536q-.566.219-1.138.424c-.414.148-.723.287-.483.865.229.549.5.657,1.014.413.438-.207.9-.359,1.358-.525.256-.093.487-.068.573.239a.361.361,0,0,1-.27.463c-.829.323-1.658.644-2.483.975-.428.172-.558-.064-.689-.415-.408-1.1-.848-2.188-1.269-3.282-.1-.258-.286-.593.056-.753.878-.41,1.785-.758,2.45-1.035" transform="translate(-123.208 -30.08)" fill="#020202"/>
        <path id="Trazado_641" data-name="Trazado 641" d="M416.99,135.275c-.358.208-.886.217-.612.92.229.589,1.192,1.359.575,1.711-.723.411-.758-.827-1.143-1.3-.295-.36-.509-.43-.9-.225-.438.229-.591.5-.32.959s.509.915.763,1.373a.373.373,0,0,1-.191.585c-.251.126-.377-.027-.479-.208-.435-.771-.87-1.543-1.29-2.323-.2-.379.023-.6.336-.769.53-.291,1.056-.59,1.584-.883,2.226-1.231,2.83-.975,3.631,1.516.081.25.165.463-.14.6s-.457-.056-.581-.274c-.22-.385-.416-.783-.635-1.169-.134-.236-.236-.525-.6-.513" transform="translate(-312.604 -101.651)" fill="#020202"/>
        <path id="Trazado_642" data-name="Trazado 642" d="M83.99,102.34c.861.031,1.211-.546,1.419-1.24a.829.829,0,0,0-.354-.852c-.252-.2-.4.128-.576.276-.2.173-.362.508-.694.225-.365-.31-.009-.506.17-.662.353-.307.547-1.049,1.006-.911a3.821,3.821,0,0,1,1.688,1.333c.06.072.037.32.034.32-.981.109-.667,1.149-1.174,1.627a2.368,2.368,0,0,1-2.995.344,2.679,2.679,0,0,1-1.349-2.978,2.344,2.344,0,0,1,2.3-1.623c.282.029.638.045.654.373a.487.487,0,0,1-.552.505,1.311,1.311,0,0,0-1.707,1.435c-.016.87,1.208,1.838,2.123,1.829" transform="translate(-61.318 -74.264)" fill="#020202"/>
        <path id="Trazado_643" data-name="Trazado 643" d="M274.138,30.916c-.251-.048-.607-.119-.964-.181-.411-.071-.82-.146-.935.439-.109.554.207.709.666.769.36.048.717.116,1.074.184.269.051.634.052.545.464-.084.383-.427.287-.7.249-.32-.045-.636-.119-.956-.156-.38-.044-.81-.235-.914.42-.1.62.125.9.731.965.4.04.8.12,1.2.188.3.051.567.144.484.535-.073.35-.345.252-.576.236-.04,0-.08-.013-.12-.016-2.82-.246-2.82-.246-2.44-3.042.318-2.347.318-2.347,2.677-1.9.158.03.317.061.474.1.288.063.75-.044.665.462-.078.464-.493.285-.906.285" transform="translate(-205.006 -22.569)" fill="#020202"/>
        <path id="Trazado_644" data-name="Trazado 644" d="M351.664,414.948a1.311,1.311,0,0,0-1.14,2.014c.162.314.666.667.108,1.015s-.667-.256-.849-.551c-.573-.926-1.105-1.877-1.652-2.819-.156-.269-.432-.545.007-.8.406-.239.59.047.75.343.348.645.643,1.152,1.55.585.755-.472.964-.854.41-1.59-.182-.242-.574-.6-.017-.886.425-.221.57.141.73.409.6,1,1.19,2.013,1.785,3.019.172.29.349.572-.084.8-.453.24-.53-.156-.718-.4-.3-.392-.358-1-.88-1.137" transform="translate(-263.131 -311.751)" fill="#020202"/>
        <path id="Trazado_645" data-name="Trazado 645" d="M441.852,226.852a2.371,2.371,0,0,1,2.508,2.375,2.569,2.569,0,0,1-5.128-.1,2.424,2.424,0,0,1,2.62-2.277m-.17,3.843c1.1.03,2.01-.65,1.947-1.524-.072-.989-.738-1.348-1.65-1.382-1.2-.045-2,.513-2.007,1.41a1.589,1.589,0,0,0,1.711,1.5" transform="translate(-332.206 -171.576)" fill="#020202"/>
        <path id="Trazado_646" data-name="Trazado 646" d="M425.42,152.518a12.3,12.3,0,0,1,.122,1.446,1.31,1.31,0,0,1-1.551,1.287,2.3,2.3,0,0,1-1.3-3.31c.167-.215.365-.533.678-.355.343.195.319.535.067.823a1.176,1.176,0,0,0,.008,1.557c.176.276.422.523.8.395a.716.716,0,0,0,.486-.865c-.065-.479-.153-.956-.2-1.437a1.189,1.189,0,0,1,.846-1.313,1.234,1.234,0,0,1,1.415.424,2.071,2.071,0,0,1,.484,2.442c-.117.247-.334.559-.635.436a.485.485,0,0,1-.187-.8.944.944,0,0,0,.21-.9c-.125-.405-.347-.808-.814-.762-.542.054-.513.522-.429.936" transform="translate(-319.455 -113.951)" fill="#020202"/>
        <path id="Trazado_647" data-name="Trazado 647" d="M201.752,32.637a2.161,2.161,0,0,1,2.27-2.391,2.411,2.411,0,0,1,2.394,2.617,2.3,2.3,0,0,1-2.371,2.479,2.412,2.412,0,0,1-2.293-2.7m3.837.326a1.847,1.847,0,0,0-1.549-1.992c-1.033-.013-1.422.66-1.487,1.552-.079,1.079.739,2.13,1.59,2.079,1-.061,1.345-.755,1.446-1.639" transform="translate(-152.592 -22.876)" fill="#020202"/>
        <path id="Trazado_648" data-name="Trazado 648" d="M39.507,185.01a2.611,2.611,0,0,1,2.729,2.363,2.409,2.409,0,0,1-2.366,2.414,2.574,2.574,0,0,1-2.756-2.444,2.284,2.284,0,0,1,2.393-2.333m-.052.916a1.33,1.33,0,0,0-1.607,1.273c-.1.883.824,1.662,1.961,1.7a1.43,1.43,0,0,0,1.671-1.359c.087-.844-.8-1.548-2.024-1.612" transform="translate(-28.071 -139.93)" fill="#020202"/>
        <path id="Trazado_649" data-name="Trazado 649" d="M67.284,123.77c.306.01.4-.191.509-.347.251-.366.461-.761.726-1.115.184-.247.252-.8.773-.441.441.306.037.564-.1.806-1.443,2.471-1.446,2.469-3.856.91-1.827-1.183-1.827-1.183-.659-2.988.154-.237.3-.476.457-.714.133-.206.265-.433.561-.244a.406.406,0,0,1,.119.624c-.258.41-.518.818-.79,1.219-.287.423-.2.719.231.993.489.31.595-.1.846-.344.411-.4.489-1.547,1.241-1.084.467.288-.426.938-.627,1.461-.094.243-.444.46-.168.743a4.4,4.4,0,0,0,.743.521" transform="translate(-48.304 -90.431)" fill="#020202"/>
        <path id="Trazado_650" data-name="Trazado 650" d="M387.625,391.6c.534-.421,1.031-.831,1.548-1.213.186-.137.342-.536.667-.167.272.309.066.5-.164.694-.588.489-1.2.952-1.756,1.477-.452.427-.757.287-1.086-.122-.732-.91-1.478-1.808-2.206-2.721a1.3,1.3,0,0,1-.247-.519,14.219,14.219,0,0,1,2.555-2.146.536.536,0,0,1,.279.2.35.35,0,0,1-.076.526c-.4.335-.815.657-1.2,1-.235.209-.689.343-.255.819.341.374.609.623,1.069.177.346-.335.729-.633,1.1-.937a.3.3,0,0,1,.495.1c.116.184.182.338-.042.51-.415.318-.807.666-1.217.991-.259.206-.372.424-.109.7.208.219.281.59.644.629" transform="translate(-290.723 -292.615)" fill="#020202"/>
        <path id="Trazado_651" data-name="Trazado 651" d="M332.672,425.51a2.356,2.356,0,0,0,.5,1.341,1.427,1.427,0,0,0,1.566.667,1.108,1.108,0,0,0,.919-1.241c-.029-.445.167-.779.583-.71.387.064.3.521.283.827a1.969,1.969,0,0,1-1.276,1.767,2.184,2.184,0,0,1-2.56-.508,2.806,2.806,0,0,1-.65-3.121,2.319,2.319,0,0,1,2.429-1.24,1.391,1.391,0,0,1,1.025.566c.119.155.052.291-.094.4-.376.291-.651,0-.987-.122a1.287,1.287,0,0,0-1.737,1.37" transform="translate(-250.952 -320.14)" fill="#020202"/>
        <path id="Trazado_652" data-name="Trazado 652" d="M36.159,265.656c.8-.012,1.6-.147,1.9-1a1.149,1.149,0,0,0-.862-1.68c-.388-.091-.614-.288-.5-.662.143-.462.523-.266.808-.159a2.4,2.4,0,0,1,.727.418,2.285,2.285,0,0,1,.188,3.077,2.858,2.858,0,0,1-3.834.367,2.362,2.362,0,0,1-.381-3.076c.218-.282.5-.678.878-.434.421.269.165.622-.118.895a1.239,1.239,0,0,0-.246,1.554,1.4,1.4,0,0,0,1.441.7" transform="translate(-25.563 -198.179)" fill="#020202"/>
        <path id="Trazado_653" data-name="Trazado 653" d="M320.892,47.215c-.056,1.008-.106,2.016-.172,3.023-.017.261.041.622-.4.589-.343-.026-.427-.278-.481-.589-.259-1.495-1.086-1.875-2.3-1.049-.307.209-.608.336-.85.028s.106-.506.288-.693q1.226-1.259,2.477-2.494c.272-.267.492-.658,1.014-.427.485.214.473.594.456,1.007-.008.2,0,.4,0,.606h-.035m-.934-.374c-.453.35-1.081.564-1.032,1.19.018.232.568.484.8.341.567-.353.245-.981.233-1.53" transform="translate(-239.465 -34.438)" fill="#020202"/>
        <path id="Trazado_654" data-name="Trazado 654" d="M35.018,219.2a2.416,2.416,0,0,1-2.353-3.488,1.61,1.61,0,0,1,.843-.832c.225-.089.5-.174.663.067a.432.432,0,0,1-.151.632c-.842.48-1.207,1.152-.623,2a2.068,2.068,0,0,0,2.422.612,1.269,1.269,0,0,0,.937-1.02,1.063,1.063,0,0,0-.531-1.244c-.377-.213-.819-.461-.493-.892s.743.024,1.028.232a2.013,2.013,0,0,1,.636,2.405,2.334,2.334,0,0,1-2.379,1.532" transform="translate(-24.501 -162.453)" fill="#020202"/>
        <path id="Trazado_655" data-name="Trazado 655" d="M118.482,410.148a2.593,2.593,0,0,1-2.329-1.193,1.684,1.684,0,0,1,.108-1.935c.459-.712.953-1.4,1.435-2.1.161-.234.315-.5.668-.276.394.255.229.532.034.817q-.686,1-1.365,2a1.04,1.04,0,0,0,.235,1.584.976.976,0,0,0,1.554-.264c.528-.714,1.021-1.454,1.532-2.18.147-.209.308-.373.59-.176.218.152.4.317.2.585a16.5,16.5,0,0,1-2.09,2.811,1.637,1.637,0,0,1-.573.326" transform="translate(-87.655 -305.983)" fill="#020202"/>
        <path id="Trazado_656" data-name="Trazado 656" d="M53.8,321.43c-.56.077-.865-.023-1.065-.411s.037-.607.256-.842c.881-.942,1.758-1.889,2.659-2.812.15-.153.285-.611.635-.229.2.222.3.545.04.759a1.188,1.188,0,0,0-.308,1.666,1.213,1.213,0,0,0,1.448.734.471.471,0,0,1,.556.494c.008.367-.332.277-.538.3-1.282.13-2.566.241-3.684.342m1.761-.935c.042-.518-.165-1.077-.462-1.08-.583-.007-.842.611-1.392,1.2l1.853-.121" transform="translate(-39.827 -239.75)" fill="#020202"/>
        <path id="Trazado_657" data-name="Trazado 657" d="M37.02,234.84a.749.749,0,0,1-.422.672c-1.212.788-1.193,1.748.058,2.522.269.167.467.336.373.662-.131.453-.447.215-.68.131-1.211-.436-2.416-.892-3.625-1.337-.321-.118-.561-.27-.575-.672a.685.685,0,0,1,.53-.707c1.233-.492,2.467-.981,3.7-1.476.352-.142.632-.175.643.205m-3.7,1.989c.6.092,1.061.827,1.7.374a.962.962,0,0,0-.04-.874c-.6-.32-1.082.239-1.658.5" transform="translate(-24.315 -177.388)" fill="#020202"/>
        <path id="Trazado_658" data-name="Trazado 658" d="M98.333,85.19l1.854.886c.69.33,1.383.652,2.066.995.223.112.644.138.487.529a.544.544,0,0,1-.823.247,1.122,1.122,0,0,0-1.587.257c-.449.448-.734.827-.317,1.423.269.385.166.751-.234.886-.449.152-.437-.35-.543-.592-.513-1.179-.968-2.383-1.49-3.558-.292-.659.122-.838.586-1.073m.394,1.243c.044-.13.019-.19-.128-.127l.149.109a9.091,9.091,0,0,0,.339,1c.086.187.144.549.454.424a1.4,1.4,0,0,0,.605-.551c.194-.313-.145-.4-.333-.492-.342-.171-.638-.507-1.087-.365" transform="translate(-73.856 -64.432)" fill="#020202"/>
        <path id="Trazado_659" data-name="Trazado 659" d="M131.98,64.623c.16.386.129.78-.313.879-.606.136-.44-.453-.506-.735-.27-1.139-.476-2.293-.727-3.437-.079-.361-.22-.693.181-.97s.68-.089.986.133c1.014.737,2.035,1.463,3.04,2.212.193.144.621.244.361.617a.539.539,0,0,1-.92.058.891.891,0,0,0-1.37-.077c-.448.351-1.03.572-.732,1.32m-.695-3.2c.241.547-.122,1.294.547,1.584.157.068.738-.324.732-.49-.027-.7-.751-.792-1.279-1.094" transform="translate(-98.584 -45.551)" fill="#020202"/>
        <path id="Trazado_660" data-name="Trazado 660" d="M193.93,445.375c0-.023.069.231-.237.218a.617.617,0,0,1-.687-.5c-.392-1.42-1.473-1.677-2.487-.615-.263.275-.535.415-.833.2-.363-.261,0-.493.133-.7.693-1.035,1.4-2.062,2.108-3.087.206-.3.41-.589.871-.489.487.105.473.478.525.83.193,1.309.384,2.617.608,4.142m-1.427-3.866c-.394.56-1,.922-.8,1.588.074.247.711.343.86.166.426-.508.2-1.092-.063-1.754" transform="translate(-143.347 -333.078)" fill="#020202"/>
        <path id="Trazado_661" data-name="Trazado 661" d="M167.077,435.5c0,.6.015,1.21-.006,1.814-.009.252.127.643-.284.676-.359.029-.537-.226-.619-.6-.319-1.461-1.119-1.738-2.367-.82-.267.2-.5.288-.746.057-.321-.305.016-.511.18-.7.82-.943,1.658-1.869,2.488-2.8.246-.277.464-.532.917-.328.431.193.439.52.436.892,0,.6,0,1.209,0,1.814m-.905-1.535c-.465.391-1.069.685-.938,1.365.026.135.578.339.724.248.637-.4.247-1.038.214-1.613" transform="translate(-123.224 -327.28)" fill="#020202"/>
        <path id="Trazado_662" data-name="Trazado 662" d="M270.926,447.867c.285-1.26.581-2.518.844-3.782a.735.735,0,0,1,.578-.676c.4-.1.594.117.767.422q.958,1.687,1.929,3.366c.144.249.339.522-.017.724-.284.161-.506.019-.722-.233-1.029-1.2-1.789-1.067-2.544.448a.524.524,0,0,1-.678.337c-.347-.106-.184-.382-.157-.606m1.528-3.185c.1.567-.678,1.142-.024,1.608.21.149.826.074.86-.154.09-.6-.347-1.052-.836-1.454" transform="translate(-204.865 -335.349)" fill="#020202"/>
        <path id="Trazado_663" data-name="Trazado 663" d="M424.949,313.814c-1.124,0-2.249.012-3.372-.011-.232,0-.646.163-.646-.289,0-.34.227-.69.611-.574.851.258,1.071-.242,1.4-.869.375-.72.106-1.111-.409-1.521a.463.463,0,0,1-.018-.74c.306-.317.5.027.684.2.813.78,1.629,1.558,2.409,2.37.3.315.885.524.6,1.165-.268.6-.794.415-1.258.266m.24-.687c-.507-.56-.757-1.157-1.426-1.117-.15.009-.458.681-.372.788.42.522,1.044.254,1.8.329" transform="translate(-318.366 -234.223)" fill="#020202"/>
        <path id="Trazado_664" data-name="Trazado 664" d="M434.549,190.859c1.249.173,2.486.342,3.723.515a.732.732,0,0,1,.673.6.591.591,0,0,1-.321.7c-1.149.755-2.284,1.529-3.438,2.277-.155.1-.394.4-.574,0a.581.581,0,0,1,.123-.748c1.134-1.175.967-1.948-.542-2.6-.259-.112-.462-.26-.418-.5.092-.506.518-.168.774-.248m3.26,1.25c-.2-.014-.393-.016-.586-.046s-.383-.1-.578-.134c-.636-.094-.984.642-.435.973.681.41,1.043-.43,1.6-.793" transform="translate(-328.076 -144.326)" fill="#020202"/>
        <path id="Trazado_665" data-name="Trazado 665" d="M103.821,395.5a1.448,1.448,0,0,1-.789,1.4,1.334,1.334,0,0,1-1.582-.111c-.757-.62-1.476-1.211-2.1.138-.1.207-.287.383-.567.136-.243-.213-.369-.378-.115-.687.869-1.055,1.714-2.129,2.575-3.19a.427.427,0,0,1,.286-.156,5.218,5.218,0,0,1,2.3,2.473m-2.112-1.371c-.337.332-.9.647-.828,1.079a1.454,1.454,0,0,0,1.322,1.037.735.735,0,0,0,.782-.856c-.114-.631-.72-.9-1.275-1.26" transform="translate(-74.517 -297.259)" fill="#020202"/>
        <path id="Trazado_666" data-name="Trazado 666" d="M350.475,69.15a31.564,31.564,0,0,0,3.675-2.289c.33-.2.606-.529,1.078-.222.491.32.263.685.168,1.061-.3,1.168-.577,2.34-.9,3.5-.062.228-.022.656-.45.571-.291-.058-.412-.3-.411-.64,0-1.655-.631-2.1-2.113-1.509-.541.217-.821-.055-1.036-.492l-.016.019m4.053-1.519c-.489.345-1.263.4-1.3,1.11-.011.24.52.622.724.5.558-.331.431-1.029.572-1.611" transform="translate(-265.077 -50.307)" fill="#020202"/>
        <path id="Trazado_667" data-name="Trazado 667" d="M436.9,270.048c.115-.647-.326-.783-.655-.988a.551.551,0,0,1-.221-.825c.25-.366.491.016.694.136,1.04.615,2.067,1.252,3.093,1.891.3.187.652.341.565.82-.095.519-.469.551-.888.624-1.147.2-2.282.463-3.429.658-.264.045-.691.235-.786-.259-.083-.427.254-.606.579-.608,1.136-.008.828-.965,1.049-1.449m2.29.792c-.546-.206-.891-.98-1.6-.624a.833.833,0,0,0-.1.762c.533.427,1.1.128,1.693-.138" transform="translate(-329.204 -202.759)" fill="#020202"/>
        <path id="Trazado_668" data-name="Trazado 668" d="M158.872,426.129c-.051.467-.31.516-.6.326-.869-.572-1.172-.061-1.448.672-.242.641-.564,1.253-.867,1.87-.145.3-.168.825-.7.606-.6-.249-.215-.674-.075-1.015.23-.561.484-1.113.749-1.659.337-.694.838-1.4-.4-1.735a.348.348,0,0,1-.259-.47.335.335,0,0,1,.474-.239c.993.449,1.978.917,2.959,1.392.087.042.126.186.167.25" transform="translate(-117.181 -321.029)" fill="#020202"/>
        <path id="Trazado_669" data-name="Trazado 669" d="M372.1,75.679c-.224.316-.328.479-.449.629-.276.346-.558.689-.84,1.03-.41.5-1.053.938-1.176,1.5-.154.7.828.838,1.187,1.341.148.207.513.345.172.673-.229.22-.436.117-.64-.043-.063-.05-.125-.1-.19-.149-2.068-1.532-2.068-1.532-.38-3.506q.668-.781,1.339-1.558c.136-.157.285-.287.513-.157.141.079.286.151.462.243" transform="translate(-278.757 -57.015)" fill="#020202"/>
        <path id="Trazado_670" data-name="Trazado 670" d="M372,403.573c.3-.018.421.209.56.4.285.39.547.8.83,1.189,1.081,1.493,1.086,1.5,2.682.541.248-.149.468-.38.717-.053s-.046.479-.254.668c-2.006,1.826-2.089,1.82-3.636-.343-.375-.525-.746-1.053-1.134-1.568-.3-.4-.194-.654.236-.833" transform="translate(-281.053 -305.236)" fill="#020202"/>
        <path id="Trazado_671" data-name="Trazado 671" d="M36.281,254.924c.24-.012.481-.021.721-.036.289-.017.589-.04.634.354.042.368-.2.5-.513.522-1.279.106-2.558.2-3.837.3-.282.023-.477-.072-.5-.368-.031-.35.172-.5.5-.533q1.5-.13,2.994-.265l0,.02" transform="translate(-24.793 -192.776)" fill="#020202"/>
        <path id="Trazado_672" data-name="Trazado 672" d="M365.559,407.733c.321-.047.4.233.524.417q1.019,1.506,2.008,3.033c.137.212.416.444.049.715s-.578.109-.785-.209c-.685-1.05-1.361-2.105-2.08-3.131-.326-.465-.069-.639.283-.825" transform="translate(-276.159 -308.38)" fill="#020202"/>
        <path id="Trazado_673" data-name="Trazado 673" d="M35.907,206.372c1,.166,2.069.359,3.143.513.363.052.639.086.534.563-.084.38-.31.392-.63.335-1.069-.187-2.15-.313-3.207-.551-.34-.077-1.059.191-.962-.564.1-.8.687-.2,1.121-.3" transform="translate(-26.303 -155.992)" fill="#020202"/>
        <path id="Trazado_674" data-name="Trazado 674" d="M316.472,444.061c-.375.052-.59-.219-.524-.391.249-.646.959-.553,1.471-.776a.332.332,0,0,1,.463.366c-.225.689-1,.5-1.41.8" transform="translate(-238.954 -334.956)" fill="#020202"/>
        <path id="Trazado_675" data-name="Trazado 675" d="M427.915,337.871a1.9,1.9,0,0,0,1.249.7.368.368,0,0,1,.255.564.389.389,0,0,1-.579.231,1.278,1.278,0,0,1-.925-1.5" transform="translate(-323.636 -255.545)" fill="#020202"/>
        <path id="Trazado_676" data-name="Trazado 676" d="M445.665,181.909c-.674-.344-.95.061-1.311.278-.221.132-.461.163-.6-.131s-.134-.523.232-.661c.578-.218,1.129-.4,1.677.514" transform="translate(-335.568 -137.062)" fill="#020202"/>
        <path id="Trazado_677" data-name="Trazado 677" d="M430.506,333.472c.421.267.672.569,1.126.526a.379.379,0,0,1,.409.556.425.425,0,0,1-.675.243c-.468-.249-.934-.491-.861-1.325" transform="translate(-325.602 -252.217)" fill="#020202"/>
        <path id="Trazado_678" data-name="Trazado 678" d="M444.183,176.444c-.492.1-.911.066-1.221.42a.412.412,0,0,1-.69-.182c-.136-.359.106-.535.391-.625a1.267,1.267,0,0,1,1.519.387" transform="translate(-334.478 -133.081)" fill="#020202"/>
        <path id="Trazado_679" data-name="Trazado 679" d="M33.6,188.588c-.775-.48-1.23-.753-.841-1.565a2.568,2.568,0,0,1,.841,1.565" transform="translate(-24.666 -141.452)" fill="#020202"/>
        <path id="Trazado_680" data-name="Trazado 680" d="M325.817,254.794l-.089.31-.141-.309-.011.015h.255Z" transform="translate(-246.246 -192.71)" fill="#777"/>
        <path id="Trazado_681" data-name="Trazado 681" d="M189.485,311.646l-.03.177c-.2-.126,0-.118.053-.159l-.023-.018" transform="translate(-143.225 -235.71)" fill="#777"/>
        <path id="Trazado_682" data-name="Trazado 682" d="M127.051,206.725c.118.059.158.132.043.234l-.124-.151.081-.082" transform="translate(-96.032 -156.354)" fill="#777"/>
        <path id="Trazado_683" data-name="Trazado 683" d="M313.314,47.669c.065-.04.158-.131.191-.113.143.08.091.195.011.3l-.2-.186" transform="translate(-236.971 -35.966)" fill="#777"/>
        <path id="Trazado_684" data-name="Trazado 684" d="M440.459,306.8l.074.09c-.031.023-.065.068-.093.064s-.05-.054-.075-.085l.094-.07" transform="translate(-333.065 -232.041)" fill="#777"/>
        <path id="Trazado_685" data-name="Trazado 685" d="M414.924,130.88l-.247.088c.016-.091.031-.183.046-.275l.2.187" transform="translate(-313.636 -98.848)" fill="#777"/>
        <path id="Trazado_686" data-name="Trazado 686" d="M101.7,89.8l-.149-.109c.147-.063.172,0,.128.127l.021-.018" transform="translate(-76.806 -67.818)" fill="#777"/>
        <path id="Trazado_687" data-name="Trazado 687" d="M306.6,317.154a.876.876,0,0,1,.747-.5c0,.531-.346.561-.747.5" transform="translate(-231.889 -239.497)" fill="#020202"/>
        <path id="Trazado_688" data-name="Trazado 688" d="M291.884,244.828c.247.335.037.439-.253.5-.007-.214-.039-.44.253-.5" transform="translate(-220.568 -185.173)" fill="#020202"/>
        <path id="Trazado_689" data-name="Trazado 689" d="M210.494,199.343l.238-.092-.134.187-.1-.1" transform="translate(-159.204 -150.701)" fill="#020202"/>
        <path id="Trazado_690" data-name="Trazado 690" d="M307.378,245.881a1.45,1.45,0,0,1-.451-1.794c.091-.228.2-.444.06-.682s-.655-.394-.247-.751a1.006,1.006,0,0,1,1.145-.053,2.394,2.394,0,0,1,1.393,2.457c-.029.333-.046.692-.359.843-.355.171-.437-.227-.618-.419-.688-.731-.526.389-.923.4" transform="translate(-231.882 -183.372)" fill="#020202"/>
        <path id="Trazado_691" data-name="Trazado 691" d="M304.46,199.959c-.722,2.752-1.834,5.369-2.739,8.107a.617.617,0,0,1-.163-.7,35.491,35.491,0,0,1,2.706-7.312c.027-.05.136-.056.207-.083Z" transform="translate(-228.047 -151.236)" fill="#020202"/>
        <path id="Trazado_692" data-name="Trazado 692" d="M334.016,185.831l-1.409.363a1.773,1.773,0,0,1,.647-1.994c.175-.11.709.2.981.427.577.489-.075.824-.233,1.219Z" transform="translate(-251.52 -139.3)" fill="#020202"/>
        <path id="Trazado_693" data-name="Trazado 693" d="M335.21,200.34a6.522,6.522,0,0,1-1.832,3.466,7.466,7.466,0,0,1,1.832-3.466" transform="translate(-252.146 -151.525)" fill="#020202"/>
        <path id="Trazado_694" data-name="Trazado 694" d="M320.858,177.682c.541,1.117,1.907,1.569,1.284,2.985-.128-1.052-1.611-1.448-1.284-2.985" transform="translate(-242.641 -134.388)" fill="#020202"/>
        <path id="Trazado_695" data-name="Trazado 695" d="M316.607,239.328a2.208,2.208,0,0,1,.587,2.757,11.161,11.161,0,0,0-.78-2.581l.193-.176" transform="translate(-239.316 -181.013)" fill="#020202"/>
        <path id="Trazado_696" data-name="Trazado 696" d="M338.507,190.979l.29.1-.129.144-.146-.261-.015.016" transform="translate(-256.025 -144.432)" fill="#020202"/>
        <path id="Trazado_697" data-name="Trazado 697" d="M319.748,263.777c.14.281.033.438-.253.505-.067-.245-.029-.436.253-.505" transform="translate(-241.624 -199.504)" fill="#020202"/>
        <path id="Trazado_698" data-name="Trazado 698" d="M320.786,261.784c.141.281.084.463-.254.5-.029-.225-.049-.445.254-.5" transform="translate(-242.419 -197.997)" fill="#020202"/>
        <path id="Trazado_699" data-name="Trazado 699" d="M325.522,253.574h-.255c-.2-.188-.065-.408.083-.414.255-.01.176.245.172.415" transform="translate(-245.936 -191.473)" fill="#020202"/>
        <path id="Trazado_700" data-name="Trazado 700" d="M315.842,238.588c-.16-.13-.267-.271-.1-.471l.3.3-.193.175" transform="translate(-238.743 -180.097)" fill="#020202"/>
        <path id="Trazado_701" data-name="Trazado 701" d="M313.618,198.783l.081-.392c.031.02.083.034.09.06a.232.232,0,0,1-.184.322l.012.01" transform="translate(-237.192 -150.05)" fill="#020202"/>
        <path id="Trazado_702" data-name="Trazado 702" d="M318.836,265.767c.015.188-.018.327-.259.257,0-.177.062-.283.259-.257" transform="translate(-240.951 -201.007)" fill="#020202"/>
        <path id="Trazado_703" data-name="Trazado 703" d="M150.724,203.545a4.667,4.667,0,0,0-2.666-.8.731.731,0,0,1-.826-.715c.009-.424.4-.573.761-.653a7.064,7.064,0,0,1,.723-.087c.328-.381-.744-.788-.03-1.058.445-.168.657.375.831.719.372.736.7,1.494,1.206,2.591" transform="translate(-111.357 -151.421)" fill="#020202"/>
        <path id="Trazado_704" data-name="Trazado 704" d="M187.84,244.718a1,1,0,0,1-1.136.762,1.516,1.516,0,0,1-1.459-1.189c-.059-.245.367-.626.558-.466.6.5,1.711-.128,2.037.893" transform="translate(-140.103 -184.385)" fill="#020202"/>
        <path id="Trazado_705" data-name="Trazado 705" d="M187.592,209.388c.92,2.17,1.656,4.427,2.755,6.538-1.7-1.85-2.087-4.247-2.755-6.538" transform="translate(-141.883 -158.368)" fill="#020202"/>
        <path id="Trazado_706" data-name="Trazado 706" d="M255.988,356.174c-2.078.439-4.158.894-6.053-.536.879-.015,1.646.543,2.533.519.376-.011.851.192,1.078-.3a.935.935,0,0,0-.241-1.1,1.456,1.456,0,0,1-.385-.736c-.111-.825-.591-1.069-1.351-1.027-.532.03-1.094.015-1.289-.634a.748.748,0,0,1,.352-.944,1.18,1.18,0,0,1,1.555.238c1.14,1.679,2.274,2.244,3.655.27a.32.32,0,0,1,.524-.008.637.637,0,0,1-.239.945c-.957.465-1.171,1.5-1.819,2.191-.219.234-.334.492-.165.753s.432.107.662.04c.463-.136.957-.363,1.17.347l.015-.017" transform="translate(-189.035 -265.653)" fill="#020202"/>
        <path id="Trazado_707" data-name="Trazado 707" d="M250.28,340.545a6.954,6.954,0,0,0-7.175,2.267c.384-1.584,1.643-2.178,2.92-2.678a4.126,4.126,0,0,1,4.256.411" transform="translate(-183.869 -256.955)" fill="#020202"/>
        <path id="Trazado_708" data-name="Trazado 708" d="M222.164,313.264c-.006.35.03.769-.352.684-.62-.138-1.3-.424-1.425-1.113a.843.843,0,0,1,.822-.985c.778.092.755.906.954,1.415" transform="translate(-166.68 -235.86)" fill="#020202"/>
        <path id="Trazado_709" data-name="Trazado 709" d="M228.461,324.4c-.976-.712-1.034-1.849-1.31-2.877-.149-.552-.246-1.1-1.064-1.115.72-.124.889-.9,1.759-1.222-1.087,1.462-.156,2.581.117,3.766.116.5.553.9.482,1.465l.016-.017" transform="translate(-170.998 -241.415)" fill="#020202"/>
        <path id="Trazado_710" data-name="Trazado 710" d="M230.51,308.673c.254.083.415.213.25.5-.2-.111-.5-.17-.25-.5" transform="translate(-174.27 -233.461)" fill="#020202"/>
        <path id="Trazado_711" data-name="Trazado 711" d="M236.784,341.624l.016-.016Z" transform="translate(-179.089 -258.372)" fill="#020202"/>
        <path id="Trazado_712" data-name="Trazado 712" d="M236.028,340.837l-.248-.249-.016.017.249.247.016-.015" transform="translate(-178.317 -257.599)" fill="#020202"/>
        <path id="Trazado_713" data-name="Trazado 713" d="M288.8,309.61c-1.137-.219-1.214-.726-1.041-1.326.3-1.043,1.12-1.452,2.782-1.324a5.46,5.46,0,0,0-1.917.8c-.577.55-.627,1.082.176,1.854" transform="translate(-217.592 -232.148)" fill="#020202"/>
      </g>
    </g>
    <text id="AGT_Asociación_de_Ganaderos_de_Tierra_del_Fuego." data-name="AGT 
Asociación de Ganaderos
de Tierra del Fuego." transform="translate(709 1887)" fill="#1f1f1f" font-size="20" font-family="Roboto-Bold, Roboto" font-weight="700" letter-spacing="0.02em"><tspan x="-24.04" y="0">AGT</tspan><tspan y="0" font-size="30" font-family="Roboto-Regular, Roboto" font-weight="400"> </tspan><tspan font-size="10" font-family="Roboto-Light, Roboto" font-weight="300"><tspan x="-57.913" y="16">Asociación de Ganaderos</tspan><tspan x="-44.783" y="32">de Tierra del Fuego.</tspan></tspan></text>
    <g id="Grupo_592" data-name="Grupo 592" transform="translate(822.268 -3798.747)">
      <rect id="Rectángulo_438" data-name="Rectángulo 438" width="49.424" height="4.691" transform="translate(-121.206 5730.794)" fill="#121113"/>
      <rect id="Rectángulo_439" data-name="Rectángulo 439" width="49.424" height="4.691" transform="translate(-121.206 5643.747)" fill="#121113"/>
      <rect id="Rectángulo_440" data-name="Rectángulo 440" width="34.051" height="4.691" transform="translate(-155.268 5730.794)" fill="#121113"/>
      <rect id="Rectángulo_441" data-name="Rectángulo 441" width="34.051" height="4.691" transform="translate(-155.268 5643.747)" fill="#121113"/>
    </g>
    <text id="AGTP_Asociación_de_Ganaderos_de_Torres_del_Payne." data-name="AGTP 
Asociación de Ganaderos
de Torres del Payne." transform="translate(948 1887)" fill="#1f1f1f" font-size="20" font-family="Roboto-Bold, Roboto" font-weight="700" letter-spacing="0.02em"><tspan x="-30.69" y="0">AGTP</tspan><tspan y="0" font-size="30" font-family="Roboto-Regular, Roboto" font-weight="400"> </tspan><tspan font-size="10" font-family="Roboto-Light, Roboto" font-weight="300"><tspan x="-57.913" y="16">Asociación de Ganaderos</tspan><tspan x="-45.945" y="32">de Torres del Payne.</tspan></tspan></text>
    <g id="Grupo_591" data-name="Grupo 591" transform="translate(822.792 -3798.747)">
      <rect id="Rectángulo_442" data-name="Rectángulo 442" width="49.424" height="4.691" transform="translate(118.27 5730.794)" fill="#121113"/>
      <rect id="Rectángulo_443" data-name="Rectángulo 443" width="49.424" height="4.691" transform="translate(118.27 5643.747)" fill="#121113"/>
      <rect id="Rectángulo_444" data-name="Rectángulo 444" width="34.051" height="4.691" transform="translate(84.208 5730.794)" fill="#121113"/>
      <rect id="Rectángulo_445" data-name="Rectángulo 445" width="34.051" height="4.691" transform="translate(84.208 5643.747)" fill="#121113"/>
    </g>
  </g>
</svg>
