<svg xmlns="http://www.w3.org/2000/svg" xmlns:xlink="http://www.w3.org/1999/xlink" width="326.77" height="100" viewBox="0 0 326.77 100"><defs><clipPath id="a"><rect width="326.77" height="100" fill="none"/></clipPath><clipPath id="b"><path d="M50.025,0a50,50,0,1,0,50,50A50,50,0,0,0,50.025,0Z" transform="translate(-0.026)" fill="none"/></clipPath></defs><g transform="translate(0 0)"><g transform="translate(0 0)"><g clip-path="url(#a)"><path d="M83.053,27.577V5.791h4.016a4.627,4.627,0,0,1,3.282.979,4.571,4.571,0,0,1,1.109,3.225q.058,1.742.057,3.145t-.057,2.9a4.571,4.571,0,0,1-1.109,3.225,4.65,4.65,0,0,1-3.3.979H85.543v7.333a1.245,1.245,0,1,1-2.49,0M85.543,18h1.512a1.906,1.906,0,0,0,1.4-.446,2.025,2.025,0,0,0,.49-1.383q.043-1.035.057-2.1t0-2.116q-.013-1.05-.057-2.087a2.043,2.043,0,0,0-.483-1.382,1.881,1.881,0,0,0-1.389-.446H85.543Z" transform="translate(35.603 2.483)" fill="#937651"/><path d="M90.489,27.577V5.791h4.016a4.627,4.627,0,0,1,3.282.979A4.572,4.572,0,0,1,98.9,9.994q.043,1.151.057,2.159t0,1.964q-.015.958-.057,1.966a5.611,5.611,0,0,1-.526,2.433,2.857,2.857,0,0,1-1.476,1.339l2,7.4a1.246,1.246,0,0,1-1.2,1.57h-.093a1.247,1.247,0,0,1-1.209-.944l-1.894-7.606H92.979v7.3a1.245,1.245,0,1,1-2.49,0m2.49-9.551h1.512a1.906,1.906,0,0,0,1.4-.446,2.025,2.025,0,0,0,.49-1.383q.043-1.022.057-2.094t0-2.137q-.015-1.065-.057-2.1a2.04,2.04,0,0,0-.483-1.382,1.881,1.881,0,0,0-1.389-.447H92.979Z" transform="translate(38.79 2.483)" fill="#937651"/><path d="M102.448,29.12a4.6,4.6,0,0,1-3.3-.993,4.56,4.56,0,0,1-1.059-3.267q-.03-1.9-.05-3.765t-.021-3.727q0-1.867.021-3.722t.05-3.772a4.531,4.531,0,0,1,1.059-3.26,6.034,6.034,0,0,1,6.606,0,4.622,4.622,0,0,1,1.059,3.26q.043,1.929.064,3.793t.021,3.722q0,1.856-.021,3.713t-.064,3.757a4.652,4.652,0,0,1-1.059,3.267,4.573,4.573,0,0,1-3.3.993m0-2.116a2,2,0,0,0,1.4-.4,1.783,1.783,0,0,0,.447-1.324q.071-1.957.093-3.952t.021-3.995q0-2-.029-3.98t-.086-3.893a1.771,1.771,0,0,0-.454-1.317,1.982,1.982,0,0,0-1.389-.41,1.957,1.957,0,0,0-1.374.41,1.816,1.816,0,0,0-.469,1.317q-.058,1.914-.093,3.893t-.029,3.98q.006,2,.043,3.995t.079,3.952a1.81,1.81,0,0,0,.469,1.324,1.985,1.985,0,0,0,1.374.4" transform="translate(42.016 2.414)" fill="#937651"/><path d="M110.388,29.122a6,6,0,0,1-2.5-.439,2.764,2.764,0,0,1-1.382-1.39,6.2,6.2,0,0,1-.469-2.462q-.058-1.8-.071-3.67t-.014-3.757q0-1.884.014-3.735t.071-3.635a6.382,6.382,0,0,1,.483-2.556,2.817,2.817,0,0,1,1.389-1.41,5.841,5.841,0,0,1,2.462-.44,4.361,4.361,0,0,1,3.174.994,4.881,4.881,0,0,1,1.116,3.3q.043.994.043,2.037c0,.274,0,.547-.007.817a1.26,1.26,0,0,1-2.52-.049c.006-.32.007-.646.007-.977q0-1.181-.043-2.246a1.932,1.932,0,0,0-.481-1.346,1.786,1.786,0,0,0-1.289-.426,1.873,1.873,0,0,0-1.346.426,1.939,1.939,0,0,0-.483,1.346q-.058,1.944-.086,3.907t-.029,3.952q0,1.987.029,3.959t.086,3.915a1.837,1.837,0,0,0,.461,1.34,1.925,1.925,0,0,0,1.382.431,2.038,2.038,0,0,0,1.4-.431,1.79,1.79,0,0,0,.511-1.34c.02-.44.031-.9.036-1.382s.006-.961,0-1.446-.016-.949-.036-1.39h-.719a1.108,1.108,0,1,1,0-2.216h3.18q.043,1.151.029,2.663t-.057,3.367a4.778,4.778,0,0,1-1.094,3.283,4.463,4.463,0,0,1-3.253,1.007" transform="translate(45.42 2.413)" fill="#937651"/><path d="M113.854,27.577V5.791h4.016a4.626,4.626,0,0,1,3.282.979,4.571,4.571,0,0,1,1.109,3.225q.043,1.151.057,2.159t0,1.964q-.015.958-.057,1.966a5.611,5.611,0,0,1-.526,2.433,2.857,2.857,0,0,1-1.476,1.339l2,7.4a1.246,1.246,0,0,1-1.2,1.57h-.093a1.247,1.247,0,0,1-1.209-.944l-1.894-7.606h-1.512v7.3a1.245,1.245,0,1,1-2.49,0m2.49-9.551h1.512a1.906,1.906,0,0,0,1.4-.446,2.025,2.025,0,0,0,.49-1.383q.043-1.022.057-2.094t0-2.137q-.015-1.065-.057-2.1a2.04,2.04,0,0,0-.483-1.382,1.881,1.881,0,0,0-1.389-.447h-1.526Z" transform="translate(48.806 2.483)" fill="#937651"/><path d="M121.012,27.418l2.224-19.453a2.453,2.453,0,0,1,4.875,0l2.237,19.453a1.262,1.262,0,0,1-1.253,1.406h-.01a1.261,1.261,0,0,1-1.256-1.147l-.457-5.072h-3.383l-.47,5.075a1.26,1.26,0,1,1-2.507-.26m3.222-7.06h2.893l-.474-5.052-.576-7.271h-.807l-.546,7.285Z" transform="translate(51.871 2.483)" fill="#937651"/><path d="M129.047,27.57V8.145A2.355,2.355,0,0,1,131.4,5.791h0a2.354,2.354,0,0,1,2.324,1.974l1.189,7.266.763,11.474h.619l.734-11.474,1.224-7.276a2.355,2.355,0,0,1,4.677.39V27.57a1.253,1.253,0,0,1-1.253,1.253h-.013a1.254,1.254,0,0,1-1.253-1.253V22.014l.46-13.978H140.2l-1.454,14.122-1.076,5.795a.974.974,0,0,1-.959.8h-1.457a.974.974,0,0,1-.959-.8l-1.063-5.793L131.782,8.035h-.661l.431,13.978V27.57a1.252,1.252,0,1,1-2.5,0" transform="translate(55.319 2.483)" fill="#937651"/><path d="M140.266,27.418,142.49,7.965a2.453,2.453,0,0,1,4.875,0L149.6,27.417a1.262,1.262,0,0,1-1.253,1.406h-.01a1.261,1.261,0,0,1-1.256-1.147l-.459-5.072h-3.383l-.469,5.075a1.26,1.26,0,1,1-2.507-.26m3.222-7.06h2.893l-.476-5.052-.574-7.271h-.807l-.546,7.285Z" transform="translate(60.124 2.483)" fill="#937651"/><path d="M152.543,28.823V5.791h4.217a4.593,4.593,0,0,1,3.317,1.014,4.674,4.674,0,0,1,1.073,3.333q.043,2.561.057,4.857t0,4.6q-.013,2.3-.057,4.852a4.72,4.72,0,0,1-1.073,3.362,4.616,4.616,0,0,1-3.332,1.014Zm2.49-2.246h1.713a1.936,1.936,0,0,0,1.417-.453,1.958,1.958,0,0,0,.469-1.4q.043-1.856.064-3.713t.021-3.715q0-1.856-.021-3.706t-.064-3.722a1.908,1.908,0,0,0-.469-1.382,1.932,1.932,0,0,0-1.4-.446h-1.727Z" transform="translate(65.391 2.483)" fill="#937651"/><path d="M160.482,28.822V5.79h6.233a1.123,1.123,0,0,1,0,2.246h-3.743v8.032h3.455a1.123,1.123,0,0,1,0,2.246h-3.455v8.262h3.743a1.123,1.123,0,0,1,0,2.246Z" transform="translate(68.794 2.482)" fill="#937651"/><path d="M87.814,50.3a5.128,5.128,0,0,1-3.729-1.116A5.26,5.26,0,0,1,82.919,45.5q-.028-1.612-.043-3.383t-.014-3.6q0-1.828.014-3.606t.043-3.39a5.071,5.071,0,0,1,1.18-3.512,4.848,4.848,0,0,1,3.7-1.239,5.171,5.171,0,0,1,3.685,1.1,5.116,5.116,0,0,1,1.194,3.663c.01.346.017.75.023,1.21s0,.919-.009,1.374v.014a1.216,1.216,0,0,1-1.214,1.189H90.8a1.213,1.213,0,0,1-1.214-1.237c0-.054,0-.11,0-.167.01-.5.013-1.013.007-1.526s-.011-.986-.021-1.417a1.653,1.653,0,0,0-.446-1.246,1.916,1.916,0,0,0-1.324-.4,1.9,1.9,0,0,0-1.3.4,1.676,1.676,0,0,0-.467,1.246q-.045,1.841-.066,3.735t-.021,3.815q0,1.922.021,3.815t.066,3.707a1.725,1.725,0,0,0,.467,1.259,1.864,1.864,0,0,0,1.317.411,2.037,2.037,0,0,0,1.4-.411,1.653,1.653,0,0,0,.469-1.259q.013-.647.021-1.447c0-.533,0-1.063-.007-1.59l0-.219a1.213,1.213,0,0,1,1.214-1.236h.7a1.216,1.216,0,0,1,1.216,1.2c0,.257.007.517.009.781q.009,1.014-.036,1.964a5.111,5.111,0,0,1-1.216,3.677A5.3,5.3,0,0,1,87.814,50.3" transform="translate(35.521 11.478)" fill="#5f5527"/><path d="M96.31,50.286a5.274,5.274,0,0,1-3.727-1.1,5.074,5.074,0,0,1-1.21-3.665q-.028-1.727-.043-3.483t-.014-3.519q0-1.764.014-3.513t.043-3.49a5.046,5.046,0,0,1,1.21-3.649,5.267,5.267,0,0,1,3.727-1.1,5.207,5.207,0,0,1,3.729,1.1,5.18,5.18,0,0,1,1.194,3.649q.043,1.755.064,3.512t.021,3.506q0,1.749-.021,3.5t-.064,3.483a5.209,5.209,0,0,1-1.194,3.665,5.214,5.214,0,0,1-3.729,1.1m0-2.576a1.976,1.976,0,0,0,1.367-.4,1.653,1.653,0,0,0,.447-1.246q.056-1.783.079-3.706t.021-3.88q0-1.957-.029-3.857t-.071-3.656a1.6,1.6,0,0,0-.461-1.239,2.018,2.018,0,0,0-1.353-.389,1.994,1.994,0,0,0-1.339.389,1.64,1.64,0,0,0-.474,1.239q-.058,1.757-.087,3.656t-.029,3.857q0,1.959.029,3.88t.087,3.706a1.662,1.662,0,0,0,.474,1.246,1.964,1.964,0,0,0,1.339.4" transform="translate(39.144 11.474)" fill="#5f5527"/><path d="M100.061,48.414V29.777a2.839,2.839,0,0,1,5.633-.506l1.219,6.735.647,11.155h.663l.6-11.155,1.243-6.746a2.835,2.835,0,0,1,5.623.513V48.414a1.554,1.554,0,0,1-3.109,0v-5.34l.59-13.372h-.72l-1.367,13.56L109.86,49a1.171,1.171,0,0,1-1.144.924h-1.689a1.171,1.171,0,0,1-1.144-.93l-1.2-5.735L103.314,29.7h-.706l.561,13.372v5.34a1.554,1.554,0,0,1-3.109,0" transform="translate(42.893 11.547)" fill="#5f5527"/><path d="M112.876,48.414V26.937h6.838a1.382,1.382,0,0,1,0,2.764h-3.729v7.226h3.44a1.382,1.382,0,1,1,0,2.763h-3.44v7.515h3.729a1.382,1.382,0,0,1,0,2.763H114.43a1.554,1.554,0,0,1-1.554-1.554" transform="translate(48.387 11.547)" fill="#5f5527"/><path d="M120.02,48.414V26.937h4.533a5.347,5.347,0,0,1,3.736,1.087,4.979,4.979,0,0,1,1.246,3.577q.043,1.05.057,1.922t0,1.712c-.01.563-.029,1.154-.057,1.779a6.492,6.492,0,0,1-.561,2.642,3.182,3.182,0,0,1-1.57,1.5l1.953,6.828a1.554,1.554,0,0,1-1.494,1.982h-.049a1.555,1.555,0,0,1-1.5-1.162l-1.856-7.115h-1.324v6.722a1.554,1.554,0,0,1-3.109,0m3.109-9.486h1.41a1.932,1.932,0,0,0,1.39-.439,1.893,1.893,0,0,0,.5-1.317q.043-.921.059-1.893t0-1.943q-.015-.973-.059-1.893a1.864,1.864,0,0,0-.5-1.31,1.929,1.929,0,0,0-1.376-.433h-1.424Z" transform="translate(51.449 11.547)" fill="#5f5527"/><path d="M133.163,50.3a5.128,5.128,0,0,1-3.729-1.116,5.26,5.26,0,0,1-1.166-3.677q-.028-1.612-.043-3.383t-.014-3.6q0-1.828.014-3.606t.043-3.39a5.064,5.064,0,0,1,1.182-3.512,4.842,4.842,0,0,1,3.7-1.239,5.169,5.169,0,0,1,3.685,1.1,5.109,5.109,0,0,1,1.194,3.663c.01.346.017.75.023,1.21s0,.919-.007,1.374v.014a1.215,1.215,0,0,1-1.214,1.189h-.681a1.214,1.214,0,0,1-1.216-1.237c0-.056,0-.111,0-.167.01-.5.013-1.013.007-1.526s-.011-.986-.021-1.417a1.653,1.653,0,0,0-.446-1.246,1.916,1.916,0,0,0-1.324-.4,1.9,1.9,0,0,0-1.3.4,1.676,1.676,0,0,0-.467,1.246q-.043,1.841-.066,3.735t-.021,3.815q0,1.922.021,3.815t.066,3.707a1.725,1.725,0,0,0,.467,1.259,1.864,1.864,0,0,0,1.317.411,2.037,2.037,0,0,0,1.4-.411,1.653,1.653,0,0,0,.469-1.259c.01-.431.016-.914.021-1.447s0-1.063-.007-1.59l0-.217a1.215,1.215,0,0,1,1.216-1.237h.694a1.215,1.215,0,0,1,1.216,1.2c0,.257.007.517.009.781q.009,1.014-.036,1.964a5.1,5.1,0,0,1-1.216,3.677,5.3,5.3,0,0,1-3.765,1.116" transform="translate(54.961 11.478)" fill="#5f5527"/><path d="M136.785,48.414V28.491a1.554,1.554,0,0,1,3.109,0V48.414a1.554,1.554,0,0,1-3.109,0" transform="translate(58.636 11.547)" fill="#5f5527"/><path d="M140.375,48.219l2.292-18.71a2.928,2.928,0,0,1,5.812,0l2.293,18.71a1.56,1.56,0,1,1-3.1.337l-.413-4.33h-3.367l-.4,4.327a1.561,1.561,0,0,1-1.554,1.416h-.01a1.56,1.56,0,0,1-1.549-1.75m3.816-6.772h2.764l-.476-5.053-.5-6.693h-.806l-.489,6.708Z" transform="translate(60.17 11.547)" fill="#5f5527"/><path d="M149.057,49.969V28.319a1.382,1.382,0,0,1,1.382-1.382h.346a1.382,1.382,0,0,1,1.382,1.382V47.2h3.757a1.382,1.382,0,0,1,0,2.764Z" transform="translate(63.897 11.547)" fill="#5f5527"/><path d="M156.019,48.414V28.491a1.554,1.554,0,0,1,3.109,0V48.414a1.554,1.554,0,0,1-3.109,0" transform="translate(66.881 11.547)" fill="#5f5527"/><path d="M159.475,49.969V47.393L165.463,29.7h-4.275a1.382,1.382,0,0,1,0-2.763h7.6v2.634L162.6,47.2h4.333a1.382,1.382,0,0,1,0,2.764Z" transform="translate(68.363 11.547)" fill="#5f5527"/><path d="M166.551,48.219l2.292-18.71a2.928,2.928,0,0,1,5.813,0l2.292,18.71a1.56,1.56,0,1,1-3.1.337l-.413-4.33h-3.369l-.4,4.327a1.561,1.561,0,0,1-1.554,1.416h-.01a1.56,1.56,0,0,1-1.549-1.75m3.816-6.772h2.764l-.476-5.053-.5-6.693h-.806l-.489,6.708Z" transform="translate(71.391 11.547)" fill="#5f5527"/><path d="M179.9,50.3a5.128,5.128,0,0,1-3.729-1.116,5.26,5.26,0,0,1-1.166-3.677q-.028-1.612-.043-3.383t-.014-3.6q0-1.828.014-3.606t.043-3.39a5.071,5.071,0,0,1,1.18-3.512,4.848,4.848,0,0,1,3.7-1.239,5.169,5.169,0,0,1,3.685,1.1,5.116,5.116,0,0,1,1.194,3.663c.01.346.017.75.021,1.21s0,.919-.006,1.374v.014a1.215,1.215,0,0,1-1.214,1.189h-.681a1.214,1.214,0,0,1-1.216-1.237c0-.056,0-.111,0-.167.01-.5.013-1.013.007-1.526s-.011-.986-.021-1.417a1.658,1.658,0,0,0-.446-1.246,1.916,1.916,0,0,0-1.324-.4,1.9,1.9,0,0,0-1.3.4,1.676,1.676,0,0,0-.467,1.246q-.045,1.841-.066,3.735t-.021,3.815q0,1.922.021,3.815t.066,3.707a1.725,1.725,0,0,0,.467,1.259,1.864,1.864,0,0,0,1.317.411,2.037,2.037,0,0,0,1.4-.411,1.654,1.654,0,0,0,.469-1.259q.013-.647.021-1.447c0-.533,0-1.063-.007-1.59l0-.219A1.214,1.214,0,0,1,183,41.559h.694a1.216,1.216,0,0,1,1.216,1.2c0,.257.007.517.009.781q.009,1.014-.036,1.964a5.111,5.111,0,0,1-1.216,3.677A5.3,5.3,0,0,1,179.9,50.3" transform="translate(74.997 11.478)" fill="#5f5527"/><path d="M183.525,48.414V28.491a1.554,1.554,0,1,1,3.109,0V48.414a1.554,1.554,0,1,1-3.109,0" transform="translate(78.672 11.547)" fill="#5f5527"/><path d="M192.45,51.651a5.271,5.271,0,0,1-3.729-1.1,5.067,5.067,0,0,1-1.21-3.663q-.028-1.727-.043-3.483t-.014-3.519q0-1.764.014-3.513t.043-3.49a5.052,5.052,0,0,1,1.21-3.65,5.278,5.278,0,0,1,3.729-1.1,5.216,5.216,0,0,1,3.729,1.1,5.18,5.18,0,0,1,1.193,3.65q.045,1.755.067,3.512t.021,3.5q0,1.751-.021,3.506t-.067,3.483a5.2,5.2,0,0,1-1.193,3.663,5.209,5.209,0,0,1-3.729,1.1m0-2.576a1.981,1.981,0,0,0,1.367-.4,1.661,1.661,0,0,0,.447-1.246q.056-1.785.077-3.706t.021-3.88c0-1.3-.007-2.59-.029-3.857s-.043-2.486-.07-3.656A1.6,1.6,0,0,0,193.8,31.1a2.013,2.013,0,0,0-1.352-.389,1.991,1.991,0,0,0-1.339.389,1.635,1.635,0,0,0-.474,1.239q-.06,1.755-.089,3.656t-.029,3.857q0,1.959.029,3.88t.089,3.706a1.659,1.659,0,0,0,.474,1.246,1.961,1.961,0,0,0,1.339.4m-.033-23.153,1.3-1.963a.837.837,0,0,1,.7-.377h.056a.838.838,0,0,1,.69,1.314l-1.349,1.963a.839.839,0,0,1-1.392-.937" transform="translate(80.356 10.109)" fill="#5f5527"/><path d="M196.2,48.486V29.309a2.371,2.371,0,0,1,2.37-2.372h.446a2.372,2.372,0,0,1,2.323,1.9l1.109,5.418,1.77,12.955h.691l-.561-11.258-.191-7.489a1.483,1.483,0,0,1,1.483-1.522h.017a1.484,1.484,0,0,1,1.484,1.483V47.6a2.371,2.371,0,0,1-2.372,2.37h-.653a2.372,2.372,0,0,1-2.324-1.9l-1.2-6-1.41-12.379h-.749l.533,11.558.2,7.2a1.483,1.483,0,1,1-2.966.041" transform="translate(84.106 11.547)" fill="#5f5527"/><path d="M82.983,71.116V48.084h4.765a5.277,5.277,0,0,1,3.777,1.129,5.234,5.234,0,0,1,1.217,3.736q.043,2.374.057,4.513t0,4.267q-.015,2.13-.057,4.492a5.263,5.263,0,0,1-1.223,3.757,5.294,5.294,0,0,1-3.787,1.137Zm3.109-2.764h1.64a1.98,1.98,0,0,0,1.412-.439,1.8,1.8,0,0,0,.476-1.332q.043-1.757.057-3.5t.014-3.49q0-1.749-.014-3.5t-.057-3.506a1.76,1.76,0,0,0-.476-1.31,1.982,1.982,0,0,0-1.4-.431H86.092Z" transform="translate(35.573 20.613)" fill="#5f5527"/><path d="M91.6,71.115V48.083h6.838a1.382,1.382,0,0,1,0,2.763H94.706v7.226h3.44a1.382,1.382,0,1,1,0,2.764h-3.44V68.35h3.729a1.382,1.382,0,0,1,0,2.764Z" transform="translate(39.265 20.612)" fill="#5f5527"/><path d="M103.043,71.115V49.465a1.382,1.382,0,0,1,1.382-1.382h.346a1.382,1.382,0,0,1,1.382,1.382V68.35h3.757a1.382,1.382,0,0,1,0,2.764Z" transform="translate(44.172 20.612)" fill="#5f5527"/><path d="M109.544,69.366l2.292-18.71a2.928,2.928,0,0,1,5.812,0l2.293,18.71a1.56,1.56,0,1,1-3.1.337l-.413-4.33h-3.367l-.4,4.327a1.561,1.561,0,0,1-1.554,1.416h-.01a1.56,1.56,0,0,1-1.549-1.75m3.816-6.772h2.764l-.476-5.053-.5-6.693h-.806l-.489,6.708Z" transform="translate(46.953 20.613)" fill="#5f5527"/><path d="M118.226,69.632V50.7a2.616,2.616,0,0,1,5.179-.524l1.069,5.222,1.77,12.955h.691l-.561-11.258-.191-7.489a1.483,1.483,0,0,1,1.483-1.522h.017a1.484,1.484,0,0,1,1.484,1.483V68.5a2.616,2.616,0,0,1-2.616,2.616h-.207a2.616,2.616,0,0,1-2.564-2.1l-1.163-5.8-1.41-12.379h-.749l.533,11.558.2,7.2a1.483,1.483,0,1,1-2.966.041" transform="translate(50.68 20.612)" fill="#5f5527"/><path d="M127.3,69.366l2.292-18.71a2.928,2.928,0,0,1,5.812,0l2.293,18.71a1.56,1.56,0,1,1-3.1.337l-.413-4.33H130.81l-.4,4.326a1.562,1.562,0,0,1-1.554,1.417h-.01a1.56,1.56,0,0,1-1.549-1.75m3.816-6.772h2.764L133.4,57.54l-.5-6.693h-.806l-.489,6.708Z" transform="translate(54.563 20.613)" fill="#5f5527"/><path d="M140.281,69.56V50.919a2.836,2.836,0,0,1,2.836-2.836h.007a2.836,2.836,0,0,1,2.79,2.332l1.219,6.738.649,11.155h.661l.6-11.155L150.29,50.4a2.835,2.835,0,0,1,5.623.514V69.56a1.554,1.554,0,0,1-3.109,0V64.22l.59-13.372h-.72l-1.367,13.56L150.09,70.1a1.228,1.228,0,0,1-1.2.97h-1.6a1.226,1.226,0,0,1-1.2-.976L144.9,64.407l-1.367-13.56h-.7l.56,13.372v5.34a1.554,1.554,0,1,1-3.109,0" transform="translate(60.135 20.612)" fill="#5f5527"/><path d="M152.626,69.477l2.306-18.821a2.928,2.928,0,0,1,5.813,0l2.3,18.821a1.461,1.461,0,0,1-1.45,1.639h-.2a1.461,1.461,0,0,1-1.454-1.323l-.421-4.42h-3.367l-.41,4.417a1.462,1.462,0,0,1-1.454,1.326h-.214a1.462,1.462,0,0,1-1.45-1.639m3.83-6.883h2.764l-.476-5.053-.5-6.693h-.806l-.489,6.708Z" transform="translate(65.422 20.613)" fill="#5f5527"/><path d="M166.032,71.433a6.927,6.927,0,0,1-2.822-.481,3.041,3.041,0,0,1-1.554-1.542,7.043,7.043,0,0,1-.533-2.756q-.058-1.6-.071-3.362t-.014-3.569q0-1.807.014-3.549t.071-3.312a7.591,7.591,0,0,1,.561-2.893,3.094,3.094,0,0,1,1.562-1.576,6.743,6.743,0,0,1,2.772-.483,5.026,5.026,0,0,1,3.6,1.1,5.3,5.3,0,0,1,1.253,3.663q.043.894.043,1.886c0,.124,0,.246,0,.367a1.549,1.549,0,1,1-3.1-.037c0-.194,0-.393,0-.6q0-1.187-.043-2.166a1.75,1.75,0,0,0-.474-1.239,1.819,1.819,0,0,0-1.282-.4,1.868,1.868,0,0,0-1.3.4,1.729,1.729,0,0,0-.481,1.239q-.073,1.8-.1,3.7t-.029,3.829q0,1.929.029,3.829t.1,3.715a1.706,1.706,0,0,0,.467,1.244,1.886,1.886,0,0,0,1.332.411,2.082,2.082,0,0,0,1.389-.411,1.663,1.663,0,0,0,.526-1.244q.015-.561.021-1.232t0-1.332c0-.441-.011-.839-.021-1.194h-.389a1.367,1.367,0,1,1,0-2.734h3.412q.058,1.209.05,2.734t-.064,3.21a5.261,5.261,0,0,1-1.246,3.663,5.122,5.122,0,0,1-3.677,1.116" transform="translate(69.032 20.538)" fill="#5f5527"/><path d="M169.12,69.366l2.292-18.71a2.928,2.928,0,0,1,5.813,0l2.292,18.71a1.56,1.56,0,1,1-3.1.337L176,65.372h-3.369l-.4,4.327a1.561,1.561,0,0,1-1.554,1.416h-.01a1.56,1.56,0,0,1-1.549-1.75m3.816-6.772H175.7l-.476-5.053-.5-6.693h-.806l-.489,6.708Z" transform="translate(72.492 20.613)" fill="#5f5527"/><path d="M177.8,71.115V49.465a1.382,1.382,0,0,1,1.382-1.382h.346a1.382,1.382,0,0,1,1.382,1.382V68.35h3.757a1.382,1.382,0,0,1,0,2.764Z" transform="translate(76.219 20.612)" fill="#5f5527"/><path d="M184.764,71.115V49.465a1.382,1.382,0,0,1,1.382-1.382h.346a1.382,1.382,0,0,1,1.382,1.382V68.35h3.757a1.382,1.382,0,0,1,0,2.764Z" transform="translate(79.203 20.612)" fill="#5f5527"/><path d="M191.266,70.8l2.292-18.71a2.928,2.928,0,0,1,5.813,0l2.292,18.71a1.56,1.56,0,1,1-3.1.339l-.413-4.332h-3.369l-.4,4.327a1.561,1.561,0,0,1-1.554,1.416h-.01a1.56,1.56,0,0,1-1.549-1.75m3.816-6.772h2.764l-.476-5.052-.5-6.695h-.807l-.489,6.709Zm1.334-16.963,1.3-1.963a.839.839,0,0,1,.7-.377h.056a.838.838,0,0,1,.69,1.314l-1.35,1.963a.839.839,0,0,1-1.392-.937" transform="translate(81.985 19.174)" fill="#5f5527"/><path d="M199.948,69.632V50.7a2.616,2.616,0,0,1,5.179-.524L206.2,55.4l1.77,12.955h.691L208.1,57.094l-.191-7.481a1.492,1.492,0,1,1,2.984-.037V68.5a2.616,2.616,0,0,1-2.616,2.616h-.207a2.615,2.615,0,0,1-2.564-2.1l-1.163-5.8-1.41-12.379h-.749l.533,11.558.2,7.2a1.483,1.483,0,1,1-2.966.041" transform="translate(85.712 20.612)" fill="#5f5527"/><path d="M209.479,69.56V49.637a1.554,1.554,0,1,1,3.109,0V69.56a1.554,1.554,0,1,1-3.109,0" transform="translate(89.798 20.612)" fill="#5f5527"/><path d="M218.36,71.443a5.128,5.128,0,0,1-3.729-1.116,5.26,5.26,0,0,1-1.166-3.677q-.028-1.612-.043-3.383t-.014-3.6q0-1.828.014-3.606t.043-3.389a5.072,5.072,0,0,1,1.18-3.513,4.848,4.848,0,0,1,3.7-1.239,5.169,5.169,0,0,1,3.685,1.1,5.116,5.116,0,0,1,1.194,3.663c.01.346.017.75.023,1.21s0,.919-.007,1.374v.014a1.215,1.215,0,0,1-1.214,1.189h-.681a1.214,1.214,0,0,1-1.216-1.237c0-.056,0-.111,0-.167.01-.5.013-1.013.007-1.526s-.011-.986-.021-1.417a1.658,1.658,0,0,0-.446-1.246,1.916,1.916,0,0,0-1.324-.4,1.9,1.9,0,0,0-1.3.4,1.676,1.676,0,0,0-.467,1.246q-.045,1.841-.066,3.735t-.021,3.815q0,1.922.021,3.815t.066,3.707a1.725,1.725,0,0,0,.467,1.259,1.864,1.864,0,0,0,1.317.411,2.037,2.037,0,0,0,1.4-.411,1.653,1.653,0,0,0,.469-1.259q.013-.647.021-1.447c0-.533,0-1.063-.007-1.59l0-.219a1.214,1.214,0,0,1,1.216-1.236h.694a1.216,1.216,0,0,1,1.216,1.2c0,.257.007.517.009.781q.009,1.014-.036,1.964a5.111,5.111,0,0,1-1.216,3.677,5.3,5.3,0,0,1-3.765,1.116" transform="translate(91.482 20.543)" fill="#5f5527"/><path d="M221.442,69.366l2.292-18.71a2.928,2.928,0,0,1,5.813,0l2.292,18.71a1.56,1.56,0,1,1-3.1.337l-.413-4.33h-3.369l-.4,4.327A1.562,1.562,0,0,1,223,71.116h-.01a1.56,1.56,0,0,1-1.549-1.75m3.816-6.772h2.764l-.476-5.053-.5-6.693h-.806l-.489,6.708Z" transform="translate(94.921 20.613)" fill="#5f5527"/><line x1="0.717" transform="translate(252.222 22.084)" fill="#937651"/><path d="M100.026,50a50,50,0,1,0-50,50,50,50,0,0,0,50-50" transform="translate(0.011 0)" fill="#cdc0b3"/></g></g><g transform="translate(0.037 0)"><g clip-path="url(#b)"><path d="M.074,33.966a17.741,17.741,0,0,1,2.809,1.552,28.189,28.189,0,0,1,2.573,1.914c.41.343.816.693,1.207,1.057s.779.734,1.154,1.114a25.289,25.289,0,0,1,2.124,2.4c1.312,1.693,2.39,3.546,3.517,5.338s2.264,3.582,3.339,5.422a39.831,39.831,0,0,1,2.83,5.738c.211.491.394.993.577,1.494s.37,1,.539,1.51.32,1.02.476,1.532c.077.257.156.513.223.77l.193.779c.123.52.25,1.039.366,1.56s.2,1.05.286,1.577.191,1.049.253,1.58l.189,1.589c.074.527.1,1.06.136,1.592s.066,1.063.09,1.594c.033,1.063.016,2.129-.017,3.19l-.151.01c-.23-1.04-.4-2.08-.6-3.115-.23-1.029-.394-2.064-.633-3.086l-.34-1.533c-.1-.513-.237-1.017-.36-1.524s-.247-1.014-.371-1.52c-.143-.5-.273-1.006-.41-1.509l-.194-.757c-.066-.251-.15-.5-.217-.75-.144-.5-.289-1-.423-1.5s-.309-.994-.463-1.493l-.231-.747c-.074-.25-.17-.491-.254-.739l-.517-1.477c-.181-.489-.379-.971-.556-1.464s-.371-.977-.564-1.464l-.29-.731c-.094-.244-.193-.489-.3-.726-.214-.479-.421-.963-.643-1.439s-.473-.939-.717-1.4-.516-.916-.787-1.366l-.414-.67c-.144-.22-.3-.433-.446-.65a42.784,42.784,0,0,0-4.07-4.789l-2.13-2.284c-.36-.377-.713-.76-1.083-1.126s-.734-.737-1.1-1.107c-.746-.727-1.5-1.447-2.276-2.153S.82,34.763,0,34.1Z" transform="translate(-0.037 14.56)" fill="#937651"/><path d="M.435,39.559a8.863,8.863,0,0,1,2.039,1c.311.211.623.429.929.651s.583.479.87.724a10.092,10.092,0,0,1,.823.777c.263.27.53.537.784.814s.481.577.713.874c.116.149.231.3.341.449l.167.227.15.239c.389.644.773,1.289,1.114,1.954s.661,1.34,1.033,1.98c.666,1.324,1.476,2.564,2.2,3.863l.567.966.283.484.246.5c.326.669.63,1.349.936,2.03.324.673.56,1.379.827,2.074s.506,1.4.737,2.109c.2.719.376,1.442.541,2.167s.337,1.447.466,2.18c.217,1.473.41,2.949.487,4.437l-.149.03c-.581-1.382-1.049-2.777-1.492-4.175-.5-1.382-.967-2.763-1.394-4.157-.243-.686-.479-1.374-.69-2.072l-.32-1.046c-.1-.353-.224-.693-.349-1.036-.507-1.364-.924-2.769-1.446-4.14A20.306,20.306,0,0,0,8.977,49.5c-.407-.609-.857-1.192-1.307-1.767-.11-.146-.233-.283-.356-.419L6.95,46.9c-.24-.274-.477-.551-.709-.83s-.479-.541-.7-.823-.456-.559-.677-.843l-.7-.817-.347-.414c-.116-.14-.244-.264-.363-.4l-.726-.8c-.253-.256-.5-.519-.75-.786-.521-.5-1.033-1.027-1.6-1.493Z" transform="translate(0.121 16.958)" fill="#937651"/><path d="M.436,29.544a21.258,21.258,0,0,1,3.475,1.817l.826.531.8.563c.269.189.526.389.79.583s.521.4.773.606a38.5,38.5,0,0,1,2.939,2.6c.471.456.919.934,1.37,1.409q.651.735,1.277,1.492a66.754,66.754,0,0,1,4.395,6.47c1.379,2.2,2.72,4.419,4.006,6.688.6,1.153,1.253,2.29,1.78,3.485.573,1.176,1.032,2.4,1.517,3.613A58.046,58.046,0,0,1,26.679,66.9l.216.956c.073.319.149.636.2.959.113.643.227,1.286.331,1.93l.16.966.121.971.221,1.943c.089.644.1,1.3.149,1.947s.077,1.3.109,1.95c.03,1.3.02,2.6-.011,3.9l-.151.009c-.231-1.282-.413-2.56-.607-3.835-.241-1.27-.423-2.543-.666-3.806l-.373-1.89-.179-.946-.213-.939c-.146-.624-.281-1.25-.417-1.876s-.309-1.243-.46-1.864c-.593-2.49-1.293-4.95-2.069-7.392-.423-1.207-.821-2.426-1.29-3.619l-.334-.9c-.1-.3-.226-.6-.346-.9l-.723-1.789a40.347,40.347,0,0,0-3.672-6.785c-.373-.526-.741-1.054-1.136-1.562s-.807-1-1.22-1.5l-1.277-1.443-1.306-1.41A72.106,72.106,0,0,0,.369,29.68Z" transform="translate(0.121 12.665)" fill="#937651"/><path d="M1.189,26.021A38.772,38.772,0,0,1,8.9,30.54a53.979,53.979,0,0,1,6.739,5.932,56.237,56.237,0,0,1,5.7,6.965c.214.309.441.609.644.924l.6.951.6.951c.2.314.38.647.571.971l.563.976c.186.327.381.647.549.984l1.039,2c.333.673.627,1.364.943,2.046.153.343.316.681.46,1.029l.419,1.046.419,1.046c.139.349.283.694.4,1.052.246.709.5,1.416.736,2.127a68.014,68.014,0,0,1,2.2,8.712,75.884,75.884,0,0,1,1.163,17.824A105.978,105.978,0,0,0,30.33,68.49a74.567,74.567,0,0,0-5.773-16.627,64.8,64.8,0,0,0-4.4-7.622,62.644,62.644,0,0,0-5.383-6.969A62.24,62.24,0,0,0,8.442,31.12a47.086,47.086,0,0,0-7.253-5.1" transform="translate(0.473 11.154)" fill="#937651"/><path d="M5.144,40.516c2.369-.816,4.687-1.707,6.959-2.694.284-.124.57-.243.853-.37l.844-.386c.569-.244,1.119-.527,1.682-.783s1.107-.55,1.667-.813,1.1-.556,1.664-.821a47.55,47.55,0,0,0,6.482-3.67,34.352,34.352,0,0,0,5.56-4.957l1.216-1.41.3-.353c.1-.117.191-.243.289-.364l.577-.726c.191-.243.384-.484.58-.721s.369-.5.554-.741c.361-.5.743-.984,1.094-1.49a63.737,63.737,0,0,0,3.8-6.323c.287-.543.54-1.1.82-1.652l.413-.827c.133-.277.25-.561.376-.843l.743-1.694c.237-.569.447-1.15.673-1.726s.467-1.149.646-1.743.393-1.176.6-1.764.367-1.19.549-1.787.361-1.2.554-1.8l.149.026q-.1.936-.216,1.876c-.089.623-.141,1.256-.286,1.87-.123.619-.25,1.237-.386,1.856-.117.623-.3,1.227-.476,1.836s-.341,1.222-.54,1.824l-.654,1.787c-.114.3-.211.6-.337.891l-.389.87c-.26.58-.516,1.163-.8,1.733a37.72,37.72,0,0,1-1.9,3.307l-.517.8-.259.4-.28.386L36.621,21.06c-.387.5-.8.989-1.2,1.479-.206.241-.4.493-.613.727s-.433.464-.65.694c-.847.943-1.8,1.784-2.719,2.647-1.9,1.667-3.863,3.233-5.855,4.763a65.869,65.869,0,0,1-6.166,4.385c-.549.316-1.1.633-1.659.923s-1.13.569-1.709.823c-1.153.521-2.326,1-3.52,1.412A36.627,36.627,0,0,1,8.9,40a25.322,25.322,0,0,1-3.729.664Z" transform="translate(2.168 0.025)" fill="#937651"/><path d="M8.441,44.319q3.838-1.226,7.5-2.8c.3-.131.613-.254.916-.393l.907-.411c.306-.131.606-.271.9-.417l.9-.423L21.36,39c.59-.3,1.18-.607,1.779-.9a47.538,47.538,0,0,0,6.882-4.065,35.75,35.75,0,0,0,5.828-5.476l1.266-1.546c.213-.253.4-.533.6-.8l.6-.8.3-.4c.1-.131.2-.261.293-.4l.563-.819.566-.816c.093-.137.193-.269.28-.409l.261-.423,1.04-1.689c.331-.571.637-1.157.957-1.736l.474-.869.431-.893c.286-.594.59-1.18.87-1.779.264-.606.523-1.213.794-1.816.13-.3.277-.6.394-.91l.354-.927L46.6,9.685l.624-1.892.317-.946c.107-.316.183-.64.276-.96.177-.641.361-1.283.549-1.924l.14-.483.116-.487.233-.977q.238-.975.5-1.956l.15.021c-.043.671-.1,1.344-.154,2.019l-.093,1.01-.05.506-.08.5q-.159,1-.333,2.006c-.061.333-.106.671-.181,1l-.239.989-.486,1.982c-.2.649-.413,1.3-.62,1.944l-.313.973c-.109.323-.247.634-.37.953-.249.634-.51,1.264-.767,1.9-.13.316-.294.616-.44.924l-.451.919-.459.914c-.166.3-.344.59-.516.884-.35.586-.686,1.18-1.047,1.759l-1.144,1.694-.287.423c-.1.14-.2.273-.306.409l-.621.811-.624.809c-.2.273-.441.517-.663.776-.453.507-.893,1.026-1.366,1.512L36.45,29.131c-1.972,1.863-4.025,3.609-6.132,5.295A62.765,62.765,0,0,1,23.752,39.2c-.586.341-1.176.679-1.774,1-.607.3-1.214.611-1.832.891-1.237.561-2.494,1.076-3.777,1.52-.636.237-1.287.429-1.934.63s-1.3.377-1.963.53a26.55,26.55,0,0,1-4,.691Z" transform="translate(3.581 0.026)" fill="#937651"/><path d="M1.176,36.78c2.152-.864,4.273-1.749,6.37-2.676q1.571-.7,3.125-1.432l3.107-1.464a53.868,53.868,0,0,0,6.136-3.145,33.955,33.955,0,0,0,5.393-4.287A54.14,54.14,0,0,0,33.9,13.208l.449-.72.226-.36c.073-.121.139-.247.209-.37.273-.5.547-.991.83-1.483.149-.243.26-.5.389-.757l.373-.764.383-.763c.123-.256.224-.521.339-.783.22-.524.451-1.046.681-1.57q.289-.806.594-1.61l.3-.806.257-.823q.261-.823.546-1.649l.149.027q-.092.866-.209,1.736l-.12.869c-.053.287-.121.571-.183.857-.124.571-.251,1.144-.389,1.714-.17.56-.339,1.123-.52,1.682-.091.28-.171.563-.274.839l-.324.82-.333.819c-.113.271-.213.55-.349.811-.253.531-.516,1.059-.779,1.587-.067.131-.13.266-.2.4l-.223.381-.447.761-.456.76c-.151.251-.326.49-.493.733-.34.481-.67.97-1.026,1.439L32.2,18.357l-.277.343-.3.327-.591.653-.591.653c-.2.214-.413.417-.62.624l-.627.617c-.209.206-.414.414-.64.6q-.66.581-1.33,1.146c-.451.373-.921.721-1.379,1.083-1.863,1.406-3.76,2.739-5.663,4.066s-3.8,2.7-5.828,3.857c-.5.3-1.022.564-1.543.826s-1.052.506-1.584.743-1.073.457-1.612.68-1.093.41-1.639.616-1.1.38-1.659.551L5.485,36l-.844.229a26.806,26.806,0,0,1-3.429.7Z" transform="translate(0.467 0.322)" fill="#937651"/><path d="M32.514,2.03A28.283,28.283,0,0,1,30.464,6.9c-.207.39-.423.774-.637,1.16s-.457.754-.693,1.129-.463.751-.729,1.1-.526.71-.8,1.056c-.553.689-1.157,1.336-1.757,1.983-.617.633-1.213,1.277-1.814,1.916-1.179,1.3-2.332,2.614-3.5,3.935-.586.66-1.187,1.307-1.816,1.929s-1.29,1.209-1.97,1.774a37.324,37.324,0,0,1-4.26,3.167c-.753.469-1.52.914-2.309,1.319s-1.587.791-2.4,1.14c-.407.176-.819.339-1.234.493-.207.077-.414.157-.623.23l-.63.209a17.5,17.5,0,0,1-2.579.644l-.043-.144A82.345,82.345,0,0,0,11.61,24.7c1.432-.95,2.863-1.9,4.249-2.93.7-.507,1.369-1.047,2.059-1.569q.508-.4,1.026-.8c.346-.263.676-.544,1.016-.816a25.055,25.055,0,0,0,3.706-3.657,24.435,24.435,0,0,0,1.529-2.113c.24-.361.463-.737.694-1.1s.473-.727.693-1.1c.457-.736.951-1.442,1.427-2.162.237-.36.493-.71.727-1.072s.471-.724.716-1.082l.366-.537.351-.547c.236-.363.48-.723.726-1.083.483-.724.951-1.462,1.484-2.17Z" transform="translate(1.107 0.842)" fill="#937651"/><path d="M11.1,47.917c.7-.164,1.384-.346,2.066-.553s1.363-.414,2.034-.646c1.344-.461,2.68-.946,3.983-1.506a61.332,61.332,0,0,0,7.6-3.775A55.552,55.552,0,0,0,39.9,30.893c.464-.526.949-1.036,1.4-1.574l1.324-1.64c.229-.267.427-.557.633-.843l.616-.854.617-.856.571-.887.574-.884.287-.443.144-.221.13-.229,1.046-1.836.263-.459c.086-.153.159-.314.239-.471l.47-.946.476-.944.24-.473.21-.484A72.552,72.552,0,0,0,54.131.609a56.233,56.233,0,0,1-3.909,16.707,49.412,49.412,0,0,1-9.208,14.6,52.807,52.807,0,0,1-6.382,5.869l-1.746,1.284-1.8,1.209c-.607.39-1.227.761-1.842,1.137s-1.262.7-1.89,1.053-1.284.653-1.926.981c-.649.311-1.3.607-1.96.9-.667.27-1.327.557-2,.814s-1.34.517-2.024.739q-2.038.7-4.127,1.216a34.269,34.269,0,0,1-4.217.8" transform="translate(4.723 0.261)" fill="#937651"/><path d="M13.656,51.859c.729-.193,1.45-.4,2.163-.64s1.424-.471,2.127-.733c1.407-.521,2.8-1.066,4.165-1.686a67.913,67.913,0,0,0,7.941-4.135A62.173,62.173,0,0,0,43.812,33.413a54.916,54.916,0,0,0,5.48-7.006c.4-.623.82-1.239,1.217-1.866l1.117-1.93c.181-.324.386-.636.544-.973l.5-.994.513-.993c.169-.331.349-.657.491-1A76.966,76.966,0,0,0,59.181,1.6a60.317,60.317,0,0,1-4.423,17.537c-.133.357-.3.7-.461,1.042l-.483,1.033c-.326.687-.641,1.38-1.023,2.039l-1.1,2c-.391.653-.8,1.294-1.2,1.943-.2.32-.394.651-.614.961l-.663.931-.664.93-.331.466-.356.447-1.423,1.789c-.5.579-1.006,1.146-1.51,1.717a59.175,59.175,0,0,1-6.693,6.209l-1.823,1.373-1.877,1.3c-.634.419-1.28.82-1.922,1.226s-1.316.761-1.972,1.143-1.34.714-2.009,1.072-1.362.669-2.046.994c-.7.3-1.384.619-2.084.907s-1.4.579-2.114.83q-2.128.791-4.315,1.4a37.217,37.217,0,0,1-4.417.976" transform="translate(5.817 0.684)" fill="#937651"/><path d="M40.918,33.036c1.364-2.393,2.787-4.722,4.1-7.1a75.552,75.552,0,0,0,3.542-7.285A59.789,59.789,0,0,0,51.143,11c.687-2.616,1.187-5.283,1.629-8a33.933,33.933,0,0,1-.476,8.255,37.6,37.6,0,0,1-2.346,7.979,43.011,43.011,0,0,1-3.93,7.313,51.336,51.336,0,0,1-5.1,6.49" transform="translate(17.503 1.285)" fill="#937651"/><path d="M15.626,41.865c1.556-.511,3.06-1.036,4.553-1.592s2.963-1.129,4.41-1.764,2.892-1.28,4.309-2c.354-.181.724-.336,1.073-.53s.709-.367,1.069-.547c.724-.353,1.417-.76,2.173-1.1-.274.3-.563.593-.854.881a11.827,11.827,0,0,1-.9.831c-.314.26-.633.519-.956.771l-.241.191-.251.174-.507.349a25.046,25.046,0,0,1-4.312,2.36,25.373,25.373,0,0,1-4.676,1.513,17.61,17.61,0,0,1-4.885.454" transform="translate(6.661 14.72)" fill="#937651"/><path d="M46.91,15.579a36.121,36.121,0,0,0,3.085,2.477,38.389,38.389,0,0,0,3.28,2.13,32,32,0,0,0,7.09,3.055,29.677,29.677,0,0,0,3.765.794,30.373,30.373,0,0,0,3.853.26,36.468,36.468,0,0,0,7.781-.983,22.111,22.111,0,0,1-7.726,2.17c-.676.037-1.354.1-2.036.076-.339-.007-.681.01-1.02-.024l-1.019-.074c-.34-.029-.676-.086-1.014-.129-.169-.024-.339-.043-.506-.073l-.5-.1c-.671-.12-1.33-.3-1.99-.469a25.09,25.09,0,0,1-7.312-3.507,25.855,25.855,0,0,1-3.117-2.563c-.483-.467-.949-.95-1.384-1.459a15.239,15.239,0,0,1-1.226-1.586" transform="translate(20.072 6.678)" fill="#937651"/><path d="M44.541,18.707c1.229.987,2.436,1.953,3.667,2.882.154.114.309.231.46.349l.464.343c.3.234.62.453.929.681.624.447,1.246.894,1.862,1.357a27.306,27.306,0,0,0,3.843,2.6,16.934,16.934,0,0,0,4.382,1.523c.377.084.761.139,1.139.21s.76.121,1.14.176c.756.129,1.516.2,2.272.3a44.946,44.946,0,0,0,4.556.116,53.733,53.733,0,0,0,9.164-1.1l.053.141q-.525.276-1.063.534a11.374,11.374,0,0,1-1.09.481,19.917,19.917,0,0,1-2.266.764c-.386.1-.77.22-1.162.3l-1.182.221a11.136,11.136,0,0,1-1.193.164l-.6.061c-.2.017-.4.043-.6.044a22.7,22.7,0,0,1-9.408-1.62c-1.479-.589-2.906-1.25-4.352-1.874a45.657,45.657,0,0,1-4.325-1.99,16.357,16.357,0,0,1-1.977-1.334c-.314-.244-.624-.493-.924-.754s-.6-.523-.886-.8a19.348,19.348,0,0,1-1.632-1.739A13.291,13.291,0,0,1,44.424,18.8Z" transform="translate(19.006 8.019)" fill="#937651"/><path d="M47.807,11.261c.886.709,1.786,1.373,2.706,2s1.853,1.229,2.806,1.786a37.354,37.354,0,0,0,5.93,2.837c.254.1.516.183.773.274s.516.177.779.251.52.167.783.239l.791.21a29.752,29.752,0,0,0,3.217.626c.271.044.544.07.817.1s.547.064.821.083c.55.029,1.1.083,1.656.083,1.113.05,2.226-.016,3.363-.054a17.584,17.584,0,0,1-3.319.8c-.567.094-1.139.126-1.713.169-.287.023-.574.014-.863.02s-.576.011-.864-.01l-.864-.044c-.287-.027-.573-.061-.86-.093s-.574-.07-.857-.121-.573-.09-.854-.154a23.359,23.359,0,0,1-3.329-.953,25.2,25.2,0,0,1-6.059-3.266,24.988,24.988,0,0,1-2.623-2.2c-.409-.4-.806-.806-1.18-1.236a13.969,13.969,0,0,1-1.057-1.337" transform="translate(20.456 4.827)" fill="#937651"/><path d="M48.934,6.7c.78.55,1.5,1.1,2.214,1.663s1.429,1.1,2.1,1.707q.249.231.487.483c.157.169.331.317.5.479a7.1,7.1,0,0,0,1.063.883,8.735,8.735,0,0,0,1.2.674c.423.183.861.33,1.3.474s.894.23,1.327.369c.219.063.434.133.649.206s.436.123.654.186c.436.12.871.239,1.3.37.441.1.877.211,1.309.339.216.067.433.129.646.2s.437.116.654.18c.436.12.871.253,1.307.4a27.844,27.844,0,0,1,2.659.871l-.013.151a13.536,13.536,0,0,1-1.42.14c-.237.014-.476.026-.713.031l-.357.006c-.119,0-.236-.014-.354-.021-.473-.034-.944-.079-1.416-.137-.236-.029-.473-.053-.706-.1s-.463-.106-.694-.159c-.46-.116-.919-.241-1.37-.389-.443-.173-.881-.357-1.32-.54-.217-.093-.439-.177-.653-.277s-.423-.217-.63-.336-.413-.234-.616-.359-.407-.241-.6-.384c-.391-.271-.78-.539-1.183-.773s-.791-.5-1.21-.7-.837-.421-1.277-.609c-.216-.1-.441-.189-.651-.3s-.421-.224-.626-.347a5.712,5.712,0,0,1-.594-.394c-.187-.146-.367-.3-.546-.457a11.406,11.406,0,0,1-1.01-1.009c-.16-.176-.3-.367-.453-.554l-.214-.286-.2-.3a6.689,6.689,0,0,1-.366-.621,4.832,4.832,0,0,1-.293-.669Z" transform="translate(20.887 2.872)" fill="#937651"/><path d="M54.956,24.961c-.817,1.232-1.57,2.447-2.257,3.686a29.564,29.564,0,0,0-1.793,3.793,20.028,20.028,0,0,0-.657,1.97c-.05.166-.1.333-.134.5s-.087.336-.124.506c-.069.339-.149.679-.2,1.023a23.764,23.764,0,0,0-.311,4.267,10.007,10.007,0,0,1-.871-4.376,11.781,11.781,0,0,1,.249-2.257c.071-.373.174-.737.273-1.1.116-.36.229-.723.367-1.074a15.348,15.348,0,0,1,2.217-3.906,12.982,12.982,0,0,1,3.245-3.03" transform="translate(20.798 10.7)" fill="#937651"/><path d="M59.727,26.472A13.445,13.445,0,0,0,58,28.638,20.9,20.9,0,0,0,56.662,31a26.874,26.874,0,0,0-1.8,5.092c-.1.44-.227.876-.32,1.319l-.25,1.34c-.041.224-.094.446-.127.671l-.09.679c-.06.453-.127.906-.2,1.359s-.086.914-.139,1.373l-.151,1.382c-.057.924-.124,1.854-.246,2.8-.206-.919-.357-1.85-.5-2.789-.041-.469-.07-.94-.1-1.413l-.037-.71c-.006-.237-.036-.476-.019-.711q.021-.711.057-1.426l.037-.713c.019-.237.059-.473.087-.71l.2-1.42c.09-.469.213-.934.32-1.4a18.131,18.131,0,0,1,2.236-5.3,13.926,13.926,0,0,1,1.8-2.252,9.837,9.837,0,0,1,1.079-.949,6.667,6.667,0,0,1,1.216-.747" transform="translate(22.546 11.348)" fill="#937651"/><path d="M63.763,27.136c-.579,1.14-1.123,2.256-1.646,3.38-.264.56-.513,1.126-.77,1.687s-.5,1.129-.777,1.686a24.4,24.4,0,0,0-1.556,3.422,14.912,14.912,0,0,0-.646,3.7l-.151,3.746C58.194,46,58.2,47.242,58.2,48.484c-.021,1.242-.011,2.484-.02,3.739-.006.627.013,1.254-.007,1.889,0,.631,0,1.266-.037,1.912l-.15.024c-.22-.6-.413-1.219-.58-1.839s-.306-1.247-.416-1.879-.219-1.266-.271-1.906c-.069-.639-.121-1.28-.134-1.923a25.888,25.888,0,0,1,.207-3.849,22.358,22.358,0,0,1,.761-3.776c.363-1.234.706-2.454.992-3.695s.469-2.524.856-3.76c.091-.31.21-.61.329-.91s.261-.59.4-.881a17.33,17.33,0,0,1,.959-1.684,13.918,13.918,0,0,1,1.154-1.56,8.81,8.81,0,0,1,1.407-1.35Z" transform="translate(24.214 11.589)" fill="#937651"/><path d="M68.727,25.943A39.1,39.1,0,0,0,66.789,30c-.581,1.376-1.092,2.776-1.559,4.187a62.442,62.442,0,0,0-2.122,8.641c-.07.364-.117.733-.177,1.1s-.116.733-.159,1.1l-.146,1.1-.117,1.107c-.044.37-.076.74-.1,1.11l-.093,1.112-.064,1.114-.037.557-.02.559c-.114,2.979-.056,5.972.076,9a41.987,41.987,0,0,1-1.256-9c-.046-.761-.027-1.523-.031-2.284.01-.381.023-.761.039-1.143s.03-.761.061-1.142a44.667,44.667,0,0,1,.537-4.546,41.571,41.571,0,0,1,2.509-8.792,35.851,35.851,0,0,1,2-4.107c.386-.657.777-1.309,1.212-1.934a17.306,17.306,0,0,1,1.39-1.8" transform="translate(26.104 11.121)" fill="#937651"/><path d="M66.845,59.976A28.85,28.85,0,0,1,65.927,56c-.214-1.346-.377-2.7-.459-4.065a44.206,44.206,0,0,1,.217-8.189,38.43,38.43,0,0,1,1.816-8c.11-.324.22-.647.347-.966s.241-.64.371-.957l.414-.939.207-.469.227-.46.464-.911c.169-.3.331-.6.5-.89.33-.6.723-1.157,1.1-1.722-.116.321-.241.636-.36.953l-.189.47-.169.477c-.111.319-.231.633-.347.947l-.314.957-.163.476-.147.48-.291.959c-.166.649-.374,1.282-.523,1.933a63.385,63.385,0,0,0-1.444,7.848c-.323,2.642-.483,5.3-.544,7.981-.019,1.337-.021,2.679.019,4.022s.094,2.69.184,4.046" transform="translate(27.986 12.186)" fill="#937651"/><path d="M53.068,25.187c-.194-1.472-1.016-.706-1.983-1.512s-.606-.949-1.876-.567-1.656-.29-1.656-.29c-.327-1.313-.841-1.647-2.184-1.374a2.154,2.154,0,0,1-1.524-.01c-.713-.386-3.855,1.062-3.855,1.062-2.113,1.947-7.428,2.639-7.428,2.639-2.17-.236-3.783-.407-3.783-.407.25-.281-.036-.454-.309-.461a9.734,9.734,0,0,1-4.246-1.557,14.755,14.755,0,0,0-8.175-1.323,6.165,6.165,0,0,0-2.61.683c-1.013.574-1.144,1.333-.356,2.26.224.264.434.543.637.824.239.334.48.713.214,1.122a36.137,36.137,0,0,1,3.943,3.153,13.291,13.291,0,0,0,6.5,2.446,5.509,5.509,0,0,1,3.323.993,4.147,4.147,0,0,1,.17,3.106,107.324,107.324,0,0,0-4.455,10.259,4.065,4.065,0,0,0,.671,2.23l.987,1.366c-.194-.22-.307-.341-.307-.341.074.193-.3-.331-.68-1.024l-.373.47c.359.219.741.416.68.941a8.687,8.687,0,0,0,.343,3.175,3.132,3.132,0,0,0,1.683,2.142,6.025,6.025,0,0,0,3.077.753,22.708,22.708,0,0,1,1.639,3.447c-.006.066-.011.13-.016.194-.134,1.846.53,3.65.287,5.493-.131,1,.23,1.974.11,2.942-.246,1.992-.61,3.969-.943,5.949a32.2,32.2,0,0,0-.5,7.345,7.856,7.856,0,0,0,.324,2.444,12.183,12.183,0,0,1,.93,5.313s25.309,8.195,46.643-11.005a42.823,42.823,0,0,0,9.276-10.971c.57-.962.359-.257.127-2.57S84.233,61.6,84.233,61.6c-2.032,1.1-2.94-6.655-4.2-7.469-1.142-.74-2.054-1.816-3.63-1.209-.413.159-1.017-.05-1.092-.417-.271-1.333-1.523-1.586-2.376-2.173-1.227-.844-2.377-1.809-3.679-2.547a.435.435,0,0,1-.267-.51c.064-.24.264-.3.486-.319.277-.02.553-.043.83-.064a9.6,9.6,0,0,1-3.192-2.74,2.768,2.768,0,0,1-.673-1.73,2.1,2.1,0,0,0-.874-1.812c-.177-.113-.356-.286-.291-.516.36-1.312-.506-2.163-1.151-3.093-.137-.2-.447-.421-.271-.619.8-.9-.139-1.13-.53-1.622a17.971,17.971,0,0,1-1.862-2.457.726.726,0,0,1,.049-.866c.911-1.27,2.23-2.29,2.812-3.752a3.5,3.5,0,0,0,.047-2.309,4.953,4.953,0,0,1-.179-.744c-.181-1.182-1.18-1.623-2.17-2a9.206,9.206,0,0,0-6.056.074c-1.219.374-1.979,1.587-2.9,2.474" transform="translate(5.353 9.134)" fill="#fff"/><path d="M43.717,90.325c.6-.206.58-.7.534-1.212-.03-.326-.516-.62-.154-.95a7.189,7.189,0,0,1,1.482-1.093c.257-.134.731.136.806-.393a1.349,1.349,0,0,0-.31-1.27,3.137,3.137,0,0,1-.58-.589.8.8,0,0,1,.113-.974.5.5,0,0,1,.746-.039c.21.151.444.5.7.177a.673.673,0,0,0-.177-.939c-1.032-.429-.6-1.03-.324-1.679.3-.7.039-1.083-.737-1.07-.48.007-1.044-.046-1.057-.591-.013-.579.563-.689,1.073-.759.647-.09,1.28-.307,1.893.149.573.426.886.81.35,1.537-.571.78.344,1.137.666,1.629a.446.446,0,0,0,.833-.079c.251-.524,1.193-1.024.28-1.646-.836-.569-.976-1.709-1.936-2.13-.221-.1-.417-.353-.627-.356-.951-.011-1.262-.5-1.437-1.39-.133-.677-.793-.82-1.437-.46-.47.263-.7.149-.544-.384.163-.56-.311-1.519.9-1.486.307.009.329-.307.237-.57s-.27-.419-.561-.31c-.261.1-.507.236-.764.343-.48.2-.791.084-.683-.486s-.063-.721-.633-.681c-.356.026-.921-.017-.961-.447-.066-.734.8-.63,1.177-1.009.309-.31.534.063.706.341.144.236.273.544.491.657.413.211,1.032.633,1.314.274.329-.416-.357-.609-.656-.864a1.493,1.493,0,0,1-.5-1.319c.03-.374.006-.879.419-1,.59-.174.336.571.666.761.421-.2.293-.561.271-.9-.019-.3-.317-.747.4-.627.307.051.233-.274.187-.463-.071-.287-.236-.613-.566-.429-.489.276-1.05.327-1.532.647a1.783,1.783,0,0,1-2.092.229c-1.259-.587-2.71-1.587-4.327-.749a.733.733,0,0,1-.707.05.719.719,0,0,1-.347-.351c-.06-.223.164-.291.333-.291a1.347,1.347,0,0,0,1.35-1.094c.111-.336.389-.583.72-.319.477.379.909.121,1.336-.034.06.119.119.18.114.237-.027.453-.961.547-.57,1.044.324.413.807-.179,1.246-.216.731-.061,1.38-.283,1.582-1.114.379-.047.779-.033,1-.449.226-.431.379-1.007-.046-1.232-.517-.273-.453.436-.656.7a1.759,1.759,0,0,0-.284.993,6.08,6.08,0,0,1-1.669-1.624c-.274-.461-.6-.824-1.143-.289-.643.636-1.42-.474-2.176.506.15-.934.25-1.51.334-2.09.029-.2.054-.454-.23-.5-.2-.029-.279.171-.353.327a.636.636,0,0,0-.109.291c.139,1.513-1.07,1.594-2.042,1.924-.247.084-.547.3-.71-.1a.424.424,0,0,1,.324-.57c1.176-.324,1.366-1.539,1.99-2.317.507-.634-.031-1.58-.553-2.267-.241-.319-.671-.567-.391-1.074l-.009.009a8.617,8.617,0,0,1-.379-2.149.353.353,0,0,0-.331-.444c-1.266-.043-1.469-1.1-1.869-1.953-.246-.53-.457-1.076-.75-1.772-.386.549-.7.891-1.293.936-.734.057-1.184.686-1.7,1.147-2.133,1.916-4.022,2.159-6.512.92a3.129,3.129,0,0,1-1.683-2.142,8.684,8.684,0,0,1-.343-3.175c.061-.526-.321-.723-.68-.941l-.436-.689c.063-.217-.029-.613.289-.587a4.079,4.079,0,0,0,2.832-.989c.386-.286.931-.251,1.4-.483a9.709,9.709,0,0,0,2.377-1.42c.3-.271.729-.153,1.11-.127,2.019.137,2.676.679,3.219,2.629.067.241.217.463-.044.656-1.186.866-2.242,1.983-3.865,2.02a4.678,4.678,0,0,0-.52.07c-.189.026-.373.123-.373.307a.322.322,0,0,0,.463.274c.907-.329,1.722.166,2.553.314a2.244,2.244,0,0,0,2.412-1.036,7.351,7.351,0,0,1,.479-.687c.319-.343.361-1.11,1.086-.856.4.139.53,1.794.157,2.113-.4.343-.671.673-.289,1.133a.96.96,0,0,0,1.413.061,4.245,4.245,0,0,1,2.132-.791.74.74,0,0,0,.66-.474c.26-.48.5-.98.773-1.456.464-.8.264-1.283-.581-1.629-.58-.237-1.144-.466-.269-1.212.776-.66-.357-.794-.543-1.227a.886.886,0,0,1,.079-.124,1.363,1.363,0,0,0,2-.833c.114-.241.354-.181.546-.239.1.04.129.007.093-.091.059-.2.056-.461.186-.583,1.1-1.02,1.777-2.4,2.866-3.422.111-.1.317-.11.48-.161l.006-.006a1.208,1.208,0,0,1,.179-.9,6.761,6.761,0,0,0,1.509-5.128c-.449-.089-.449.343-.591.569a3.878,3.878,0,0,1-3.19,2.189c-.354.014-.53.056-.759-.259a.991.991,0,0,0-1.809.073c-.489.843-1.507.964-2,1.754-.151.241-.556.136-.747-.09-.293-.347-.883-.5-.744-1.146a3.125,3.125,0,0,1,1.46-2.15,5.632,5.632,0,0,0,2.764-3.009c.2-.586.754-.617,1.179-.751a5.694,5.694,0,0,1,3.363-.2c1.932.6,2.733.107,2.677-1.917-.007-.294-.169-.687.277-.78.347-.074.443.256.564.509.173.36.2,1.119.517,1.007a3.013,3.013,0,0,0,1.347-1.187c.783-1.176,1.426-2.446,2.2-3.63a2.237,2.237,0,0,1,1.833-1.076,21.844,21.844,0,0,1,4.792.016c.351.064.58.141.417.5-.456,1.006-.544,2.234-1.7,2.823a1.084,1.084,0,0,0-.44,1.727.814.814,0,0,1-.289,1.3,2.452,2.452,0,0,0-.981,1.774c-.1.124-.206.247-.31.371-1.009-.383-1.994.006-2.985.11-.5.053-.4.357-.2.676a1.436,1.436,0,0,0,1.163.621c1,.091,1.256.876,1.537,1.59a.843.843,0,0,1-.574,1.237c-.48.163-1.05.42-.207.933.161.1.293.276.113.424-.509.414-.136.647.157.9.5.421.454.714-.219.73s-.966.457-1.25.953a.46.46,0,0,0-.073.473c.439,1.006.421,1.021-.77.979a3.394,3.394,0,0,0-.416.056,2.648,2.648,0,0,0,1.694.891c.853.124,1.554.876,2.467,1.04.2.036.426.25.581.2,1.5-.48,1.959,1.166,3.062,1.5.171.051.254.394.377.6a1.469,1.469,0,0,0-1.219-.009c-.286.181-.74.419-.4.793.757.824.391,1.212-.646,1.449L59.4,48.863a4.544,4.544,0,0,1-.581-3.793.978.978,0,0,1,1.264.606c-.94.04-.949.371-.564,1.152s1.214,1.546.554,2.584c-.046.071.046.289.134.376.677.67.651,1-.391,1.164-.527.083-.64.8-.633,1.213.006.376.589.211.906.179.537-.056,1.1-.15,1.456.324.409.541-.363.816-.419,1.309.921.3,1.963-.09,2.833.491-.183.26-.43.06-.6.149-.246.124-.929-.179-.654.417.15.326-.32,1.2.733,1.039.829-.123,1.589.416,2.377.659a5.807,5.807,0,0,0,2.633.536c-.159.559-.536.494-.871.509a1.962,1.962,0,0,0-1.5,1.739.471.471,0,0,0,.549.38c.357-.017.814.124.943-.421.076-.323,0-.773.51-.769s.546.447.681.806.159.344,1.567.977c-.543.444-1.156.207-1.7.3-.4.066-.969-.033-.616.691.071.149.06.29-.087.354-1.542.68-.216.88.219,1.24-.07.383-.441.239-.653.363-.251.149-.546,1.573-.313,1.723.389.25.634.023.636-.359.006-.78.6-1.054,1.113-1.4a.84.84,0,0,1,1.067.1c.217.18.367.463-.029.519-1.359.191-.339.623-.086.9a1.162,1.162,0,0,0,1.317.411c.151-.054.341-.207.44.041a.32.32,0,0,1-.3.45c-.559.074-.96.581-1.569.527a.376.376,0,0,0-.421.379c0,.3.256.249.461.277a3.675,3.675,0,0,0,2.336-.1.856.856,0,0,1,1.279.669c.1.55.487.823.73,1.227l0,0a5.332,5.332,0,0,1-1.742-.636c-.19-.073-.417-.17-.543.079-.09.179.059.323.177.45a8.387,8.387,0,0,0,1.53,1.392,8.274,8.274,0,0,1,.874.759c-.523.171-.8-.139-1.137-.157l-.02.019c.231.646.094,1.039-.864.843.533.861,1.343.9,1.919,1.283-.053.106-.069.2-.114.219-.311.126-.9-.254-.911.363-.007.461.536.51.893.563.523.074,1.046-.109,1.059.813,0,.343,1.233,1.193.886,1.65C62.009,90.348,43.717,90.325,43.717,90.325M36.594,58.567c.054-.073.167-.2.156-.21-.15-.164-.2.006-.271.1-.036.113,0,.15.116.113m25.165.569c.21.336.447.629.9.469a.277.277,0,0,0,.079-.257c-.246-.437-.619-.327-.99-.2-.21-.637-.649-.861-1.532-.851a4.472,4.472,0,0,0,1.539.841m-14.5-6.925.006-.006c.454.621.907,1.244,1.382,1.894a.8.8,0,0,0-.266-1.357c-.354-.209-.746-.356-1.122-.531m7.566,8.819.006,0a2.365,2.365,0,0,0,1.562,1.283c.349-1.232.3-1.3-.94-1.329-.209,0-.419.033-.627.05M72.069,76.763c-.036-.057-.07-.114-.1-.171l-.1.1.176.1c-.42.956-1.116-.39-1.666.314.671.391.5.723-.094,1.143-.333.234.037.56.31.713a2.051,2.051,0,0,0,1.224.161c.426-.04,1.183.04,1.109-.453-.1-.65.584-1.823-.859-1.9M50.835,42.121l-.27-.257-.056.07.316.2c.11.36.423.547.677.784l-.1.109-1.729-.3c.484.51-.491,1.456.607,1.479.774.016,1.39-.073,1.782.749a.533.533,0,0,0,.731.154c.064-.341-.443-.494-.2-.97a6.947,6.947,0,0,1,1.78.946c.277.171.32.616-.1.564a4.942,4.942,0,0,0-2.386.547c-.221.081-.6-.2-.693.2-.08.356.233.577.5.727.819.456,1.656.877,2.487,1.313l.017-.019c.076-.231.247-.48.209-.693-.183-1.027.569-1.556,1.1-2.207.189-.229.759-.127.64-.546a.975.975,0,0,0-.973-.671,1.02,1.02,0,0,1-1.023-.737,2.01,2.01,0,0,0-1.476-1.079c-.6-.177-1.232-.247-1.85-.364M44.514,40.2c-.463.181-.754-.293-1.166-.306-.29-.009-.637-.04-.723.269-.129.464.314.314.541.389.3.1.6.186.893.3,1.286.5,1.313.5,1.634-.811a.867.867,0,0,1,.329-.51A.315.315,0,0,0,46.066,39c-.293-.336-1.833-.724-2.064-.457-.626.723.2,1,.493,1.437.033.047.014.131.02.22m6.07-1.639c.337-.023.369-.266.336-.581a6.334,6.334,0,0,0-2.242-2.61c-.536-.137-.8.351-1.2.519-.187.079-.141.284-.07.457a10.794,10.794,0,0,0,3.175,2.216M67.892,78.538c-.074.041-.227.079-.236.139-.084.564-.5,1.149-.111,1.7a3.158,3.158,0,0,0,1.924,1.313c.063.014.231-.137.221-.16-.193-.491.487-.97.016-1.462-.543-.569-.943-1.3-1.814-1.526M47.5,70.561c.339-.173,1.256.093.929-.829A13.221,13.221,0,0,0,47.2,67.568a.445.445,0,0,0-.521-.249.49.49,0,0,0-.394.541c.083.753.3,1.482.319,2.253.009.387.4.523.89.447M67.8,73.254c.743.677.45,1.839,1.653,1.812.981-.02,1.1-1.069,1.859-1.4-1.174.391-2.129-.56-3.512-.41m-25.89-30.9c-.034.424.056.8.546.821.366.017.38-.337.417-.6a.705.705,0,0,0-.556-.86c-.524-.1-.289.411-.407.641m21.043,19.32c-.311-.777-1.3-1.229-1.769-.96a.314.314,0,0,0-.134.241c.016.21.19.284.37.276a3.471,3.471,0,0,1,1.533.443M70.7,69.285c.111-1.124-.266-1.644-1.079-1.634-.183,0-.364.027-.43.213-.076.216.1.333.267.361.583.1.884.564,1.242,1.06m-47.166-18.4a3.129,3.129,0,0,1-.569-.317c-.43-.387-.7.031-1.013.187a.27.27,0,0,0-.109.437.8.8,0,0,0,.974.059c.216-.106.429-.219.716-.366M69.755,70.139a1.079,1.079,0,0,0-.97-.387c-.18-.006-.381.086-.276.309a.924.924,0,0,0,.846.493.36.36,0,0,0,.4-.414M56.46,53.184c-.46-.534-.46-.534-.951-.41a.721.721,0,0,0,.951.41M43.333,41.806c.324.35.556.573,1.086.49a.764.764,0,0,0-1.086-.49m1.8,29.284-.081-.057L45,71.179c.033,0,.074.013.1,0s.024-.059.036-.089" transform="translate(8.415 9.652)" fill="#5f5527"/></g></g></g></svg>