<svg xmlns="http://www.w3.org/2000/svg" xmlns:xlink="http://www.w3.org/1999/xlink" width="266.822" height="81.654" viewBox="0 0 266.822 81.654"><defs><clipPath id="a"><rect width="266.822" height="81.654" fill="none"/></clipPath><clipPath id="b"><circle cx="40.827" cy="40.827" r="40.827" fill="none"/></clipPath></defs><g clip-path="url(#a)"><path d="M77.126,23.167V5.378h3.28a3.779,3.779,0,0,1,2.68.8,3.737,3.737,0,0,1,.906,2.633q.045,1.421.046,2.568t-.046,2.369a3.734,3.734,0,0,1-.906,2.632,3.794,3.794,0,0,1-2.692.8H79.16v5.988a1.017,1.017,0,0,1-2.034,0m2.034-7.822h1.234a1.558,1.558,0,0,0,1.141-.364,1.655,1.655,0,0,0,.4-1.128q.036-.848.048-1.716t0-1.729q-.013-.857-.048-1.7a1.675,1.675,0,0,0-.393-1.128,1.54,1.54,0,0,0-1.134-.364H79.16Z" transform="translate(19.761 1.378)" fill="#fff"/><path d="M84.031,23.166V5.377h3.28a3.779,3.779,0,0,1,2.68.8,3.731,3.731,0,0,1,.9,2.633q.036.94.048,1.762t0,1.605q-.013.78-.048,1.6a4.566,4.566,0,0,1-.428,1.986,2.338,2.338,0,0,1-1.2,1.093L90.891,22.9a1.017,1.017,0,0,1-.982,1.281h-.075a1.018,1.018,0,0,1-.987-.77L87.3,17.2H86.065v5.965a1.017,1.017,0,0,1-2.034,0m2.034-7.8H87.3A1.558,1.558,0,0,0,88.439,15a1.655,1.655,0,0,0,.4-1.128q.036-.835.046-1.711t0-1.745q-.011-.871-.046-1.716a1.67,1.67,0,0,0-.393-1.128,1.535,1.535,0,0,0-1.134-.366H86.065Z" transform="translate(21.53 1.378)" fill="#fff"/><path d="M94.641,24.411a3.757,3.757,0,0,1-2.7-.812,3.726,3.726,0,0,1-.864-2.668q-.025-1.553-.041-3.074t-.018-3.044q0-1.523.018-3.039T91.08,8.7a3.706,3.706,0,0,1,.864-2.663,4.92,4.92,0,0,1,5.394,0A3.775,3.775,0,0,1,98.2,8.7q.036,1.575.053,3.1t.018,3.039q0,1.515-.018,3.033T98.2,20.931a3.8,3.8,0,0,1-.864,2.668,3.733,3.733,0,0,1-2.7.812m0-1.729a1.639,1.639,0,0,0,1.141-.329,1.463,1.463,0,0,0,.364-1.082q.058-1.6.075-3.226t.018-3.262q0-1.634-.023-3.25t-.07-3.179a1.451,1.451,0,0,0-.371-1.075,2.067,2.067,0,0,0-2.257,0,1.485,1.485,0,0,0-.382,1.075q-.047,1.564-.075,3.179t-.024,3.25q.006,1.634.035,3.262t.064,3.226a1.482,1.482,0,0,0,.382,1.082,1.623,1.623,0,0,0,1.123.329" transform="translate(23.321 1.339)" fill="#fff"/><path d="M102.013,24.41a4.88,4.88,0,0,1-2.039-.358,2.261,2.261,0,0,1-1.128-1.134,5.049,5.049,0,0,1-.383-2.01q-.047-1.47-.058-3t-.013-3.068q0-1.539.013-3.051t.058-2.967a5.2,5.2,0,0,1,.394-2.087,2.3,2.3,0,0,1,1.134-1.152A4.771,4.771,0,0,1,102,5.228a3.559,3.559,0,0,1,2.592.812A3.989,3.989,0,0,1,105.5,8.73q.036.812.035,1.663c0,.225,0,.447-.005.668a1.029,1.029,0,0,1-2.058-.04q.006-.392.006-.8,0-.963-.035-1.833a1.585,1.585,0,0,0-.394-1.1A1.454,1.454,0,0,0,102,6.944a1.528,1.528,0,0,0-1.1.347,1.585,1.585,0,0,0-.394,1.1q-.047,1.587-.07,3.191t-.023,3.227q0,1.621.023,3.232t.07,3.2a1.5,1.5,0,0,0,.377,1.093,1.571,1.571,0,0,0,1.128.352,1.665,1.665,0,0,0,1.146-.352,1.458,1.458,0,0,0,.417-1.093q.025-.541.03-1.129c0-.391,0-.785,0-1.181s-.014-.774-.03-1.134h-.587a.905.905,0,1,1,0-1.81h2.6q.034.94.023,2.175t-.046,2.751a3.91,3.91,0,0,1-.893,2.68,3.644,3.644,0,0,1-2.657.823" transform="translate(25.21 1.34)" fill="#fff"/><path d="M105.729,23.166V5.377h3.28a3.779,3.779,0,0,1,2.68.8,3.732,3.732,0,0,1,.9,2.633q.036.94.048,1.762t0,1.605q-.013.78-.048,1.6a4.566,4.566,0,0,1-.428,1.986,2.338,2.338,0,0,1-1.2,1.093l1.629,6.041a1.017,1.017,0,0,1-.982,1.281h-.075a1.018,1.018,0,0,1-.987-.77L109,17.2h-1.234v5.965a1.017,1.017,0,0,1-2.034,0m2.034-7.8H109A1.558,1.558,0,0,0,110.137,15a1.655,1.655,0,0,0,.4-1.128q.036-.835.046-1.711t0-1.745q-.011-.871-.046-1.716a1.67,1.67,0,0,0-.393-1.128,1.535,1.535,0,0,0-1.134-.366h-1.246Z" transform="translate(27.09 1.378)" fill="#fff"/><path d="M112.375,23.037l1.816-15.884a2,2,0,0,1,3.98,0L120,23.037a1.029,1.029,0,0,1-1.023,1.147h-.009a1.03,1.03,0,0,1-1.025-.937l-.373-4.141h-2.762l-.383,4.143a1.029,1.029,0,1,1-2.048-.212m2.631-5.765h2.362l-.387-4.125-.47-5.936h-.658l-.447,5.947Z" transform="translate(28.791 1.378)" fill="#fff"/><path d="M119.838,23.161V7.3a1.922,1.922,0,0,1,1.923-1.922h0a1.923,1.923,0,0,1,1.9,1.612l.971,5.934.623,9.368h.505l.6-9.368,1-5.942a1.923,1.923,0,0,1,3.819.318V23.161a1.022,1.022,0,0,1-1.023,1.023h-.011a1.022,1.022,0,0,1-1.023-1.023V18.625L129.5,7.211h-.551l-1.187,11.531-.879,4.732a.8.8,0,0,1-.783.651h-1.19a.8.8,0,0,1-.784-.652l-.867-4.731L122.072,7.211h-.541l.353,11.414v4.536a1.023,1.023,0,0,1-2.045,0" transform="translate(30.705 1.378)" fill="#fff"/><path d="M130.255,23.037l1.816-15.884a2,2,0,0,1,3.98,0l1.827,15.885a1.029,1.029,0,0,1-1.023,1.147h-.009a1.03,1.03,0,0,1-1.025-.937l-.373-4.141h-2.762l-.384,4.143a1.029,1.029,0,1,1-2.046-.212m2.631-5.765h2.362l-.387-4.125-.47-5.936h-.658l-.447,5.947Z" transform="translate(33.372 1.378)" fill="#fff"/><path d="M141.657,24.184V5.377H145.1a3.748,3.748,0,0,1,2.708.829,3.811,3.811,0,0,1,.876,2.721q.036,2.092.048,3.967t0,3.755q-.011,1.881-.048,3.961a3.849,3.849,0,0,1-.876,2.745,3.767,3.767,0,0,1-2.721.829Zm2.034-1.834h1.4a1.58,1.58,0,0,0,1.158-.371,1.6,1.6,0,0,0,.382-1.146q.036-1.517.053-3.033t.018-3.033q0-1.517-.018-3.026T146.629,8.7a1.559,1.559,0,0,0-.382-1.128,1.576,1.576,0,0,0-1.146-.364h-1.411Z" transform="translate(36.295 1.378)" fill="#fff"/><path d="M149.031,24.184V5.377h5.088a.917.917,0,1,1,0,1.834h-3.055V13.77h2.821a.917.917,0,0,1,0,1.834h-2.821V22.35h3.055a.917.917,0,1,1,0,1.834Z" transform="translate(38.185 1.378)" fill="#fff"/><path d="M80.993,44.071a4.2,4.2,0,0,1-3.046-.911,4.3,4.3,0,0,1-.951-3q-.023-1.315-.036-2.762t-.01-2.938q0-1.492.01-2.943T77,28.744a4.136,4.136,0,0,1,.965-2.868,3.957,3.957,0,0,1,3.021-1.011,4.216,4.216,0,0,1,3.007.9,4.176,4.176,0,0,1,.975,2.991c.01.283.014.612.019.987s0,.751-.005,1.123v.011a.992.992,0,0,1-.992.97h-.558a.99.99,0,0,1-.991-1.009c0-.045,0-.09,0-.137.009-.411.01-.827.008-1.246s-.013-.805-.019-1.157a1.362,1.362,0,0,0-.364-1.018,1.562,1.562,0,0,0-1.08-.323,1.544,1.544,0,0,0-1.064.323,1.368,1.368,0,0,0-.383,1.018q-.034,1.5-.053,3.05t-.018,3.114q0,1.57.018,3.115t.053,3.026a1.409,1.409,0,0,0,.383,1.029,1.525,1.525,0,0,0,1.075.334,1.669,1.669,0,0,0,1.144-.334,1.346,1.346,0,0,0,.382-1.029c.008-.353.015-.746.018-1.182s0-.867,0-1.3l0-.178a.99.99,0,0,1,.991-1.009h.568a.994.994,0,0,1,.994.977l.006.638q.008.829-.029,1.6a4.171,4.171,0,0,1-.992,3,4.335,4.335,0,0,1-3.074.911" transform="translate(19.716 6.371)" fill="#fff"/><path d="M88.877,44.062a4.3,4.3,0,0,1-3.044-.9,4.143,4.143,0,0,1-.987-2.991q-.025-1.411-.035-2.845T84.8,34.454q0-1.44.013-2.868t.035-2.85a4.126,4.126,0,0,1,.987-2.98,4.3,4.3,0,0,1,3.044-.9,4.256,4.256,0,0,1,3.045.9,4.233,4.233,0,0,1,.975,2.98q.036,1.434.053,2.868t.018,2.862q0,1.428-.018,2.862T92.9,40.172a4.251,4.251,0,0,1-.975,2.991,4.256,4.256,0,0,1-3.045.9m0-2.1a1.62,1.62,0,0,0,1.117-.323,1.352,1.352,0,0,0,.364-1.018q.047-1.457.064-3.026t.018-3.168q0-1.6-.023-3.149t-.059-2.986a1.307,1.307,0,0,0-.376-1.011,1.652,1.652,0,0,0-1.105-.317,1.626,1.626,0,0,0-1.093.317,1.339,1.339,0,0,0-.388,1.011q-.047,1.434-.07,2.986T87.3,34.423q0,1.6.024,3.168t.07,3.026a1.361,1.361,0,0,0,.388,1.018,1.606,1.606,0,0,0,1.093.323" transform="translate(21.727 6.369)" fill="#fff"/><path d="M92.92,42.552V27.334a2.319,2.319,0,0,1,4.6-.413l.995,5.5.529,9.109h.54l.494-9.109,1.015-5.51a2.315,2.315,0,0,1,4.591.42V42.552a1.269,1.269,0,1,1-2.539,0v-4.36l.482-10.92h-.588l-1.117,11.072-1,4.687a.955.955,0,0,1-.933.756H98.608a.957.957,0,0,1-.935-.76l-.98-4.683L95.577,27.271H95l.459,10.92v4.36a1.269,1.269,0,1,1-2.539,0" transform="translate(23.808 6.409)" fill="#fff"/><path d="M104.822,42.552V25.015H110.4a1.128,1.128,0,1,1,0,2.256h-3.044v5.9h2.809A1.128,1.128,0,0,1,111.3,34.3h0a1.128,1.128,0,0,1-1.128,1.128h-2.809v6.135H110.4a1.129,1.129,0,1,1,0,2.257h-4.313a1.27,1.27,0,0,1-1.27-1.27" transform="translate(26.857 6.409)" fill="#fff"/><path d="M111.455,42.552V25.015h3.7a4.37,4.37,0,0,1,3.05.887,4.068,4.068,0,0,1,1.018,2.922q.034.857.046,1.569t0,1.4c-.008.459-.024.942-.046,1.452a5.292,5.292,0,0,1-.459,2.156,2.6,2.6,0,0,1-1.281,1.229l1.594,5.575a1.27,1.27,0,0,1-1.221,1.619h-.039a1.27,1.27,0,0,1-1.229-.95l-1.515-5.809h-1.082v5.488a1.269,1.269,0,1,1-2.539,0m2.539-7.746h1.152a1.58,1.58,0,0,0,1.134-.358,1.552,1.552,0,0,0,.406-1.077q.034-.752.046-1.545t0-1.587q-.011-.793-.046-1.545a1.526,1.526,0,0,0-.406-1.07,1.578,1.578,0,0,0-1.123-.353h-1.163Z" transform="translate(28.557 6.409)" fill="#fff"/><path d="M123.106,44.071a4.189,4.189,0,0,1-3.044-.911,4.291,4.291,0,0,1-.952-3q-.024-1.315-.035-2.762t-.013-2.938q0-1.492.013-2.943t.035-2.769a4.135,4.135,0,0,1,.964-2.868,3.961,3.961,0,0,1,3.021-1.011,4.219,4.219,0,0,1,3.009.9,4.17,4.17,0,0,1,.975,2.991c.009.283.014.612.019.987s0,.751-.006,1.123v.011a.992.992,0,0,1-.992.97h-.557a.99.99,0,0,1-.992-1.01c0-.044,0-.09,0-.136q.011-.616.006-1.246c-.005-.42-.01-.805-.019-1.157a1.352,1.352,0,0,0-.364-1.018,1.56,1.56,0,0,0-1.08-.323,1.544,1.544,0,0,0-1.064.323,1.368,1.368,0,0,0-.382,1.018q-.036,1.5-.053,3.05t-.018,3.114q0,1.57.018,3.115t.053,3.026a1.409,1.409,0,0,0,.382,1.029,1.527,1.527,0,0,0,1.075.334,1.671,1.671,0,0,0,1.146-.334,1.35,1.35,0,0,0,.382-1.029c.009-.353.014-.746.018-1.182s0-.867-.005-1.3l0-.178a.991.991,0,0,1,.992-1.009h.567a.992.992,0,0,1,.994.977c0,.211.006.423.008.638q.006.829-.03,1.6a4.166,4.166,0,0,1-.992,3,4.331,4.331,0,0,1-3.074.911" transform="translate(30.506 6.371)" fill="#fff"/><path d="M127.024,42.552V26.284a1.269,1.269,0,0,1,2.539,0V42.552a1.269,1.269,0,1,1-2.539,0" transform="translate(32.546 6.409)" fill="#fff"/><path d="M130.356,42.393l1.872-15.278a2.391,2.391,0,0,1,4.746,0l1.872,15.278a1.274,1.274,0,1,1-2.533.275l-.337-3.536h-2.75l-.328,3.534a1.275,1.275,0,0,1-1.269,1.156h-.009a1.274,1.274,0,0,1-1.265-1.428m3.117-5.53h2.257l-.388-4.125-.412-5.466h-.658l-.4,5.477Z" transform="translate(33.397 6.409)" fill="#fff"/><path d="M138.42,43.821V26.143a1.129,1.129,0,0,1,1.128-1.129h.283a1.129,1.129,0,0,1,1.128,1.129v15.42h3.068a1.129,1.129,0,0,1,0,2.257Z" transform="translate(35.466 6.409)" fill="#fff"/><path d="M144.886,42.552V26.284a1.269,1.269,0,0,1,2.539,0V42.552a1.269,1.269,0,1,1-2.539,0" transform="translate(37.123 6.409)" fill="#fff"/><path d="M148.1,43.821v-2.1l4.889-14.445h-3.491a1.129,1.129,0,0,1,0-2.257H155.7v2.152l-5.055,14.4h3.539a1.129,1.129,0,0,1,0,2.257Z" transform="translate(37.945 6.409)" fill="#fff"/><path d="M154.665,42.393l1.871-15.278a2.391,2.391,0,0,1,4.746,0l1.872,15.278a1.274,1.274,0,1,1-2.533.275l-.337-3.536h-2.751l-.327,3.534a1.275,1.275,0,0,1-1.269,1.156h-.009a1.273,1.273,0,0,1-1.264-1.428m3.115-5.53h2.257l-.388-4.125-.412-5.466h-.658l-.4,5.477Z" transform="translate(39.626 6.409)" fill="#fff"/><path d="M166.51,44.071a4.194,4.194,0,0,1-3.045-.911,4.291,4.291,0,0,1-.951-3q-.024-1.315-.035-2.762t-.013-2.938q0-1.492.013-2.943t.035-2.769a4.135,4.135,0,0,1,.964-2.868,3.959,3.959,0,0,1,3.021-1.011,4.219,4.219,0,0,1,3.009.9,4.176,4.176,0,0,1,.975,2.991c.009.283.014.612.018.987s0,.751-.005,1.123v.011a.992.992,0,0,1-.992.97h-.557a.99.99,0,0,1-.992-1.01c0-.044,0-.09,0-.136.008-.411.01-.827.005-1.246s-.01-.805-.018-1.157a1.352,1.352,0,0,0-.364-1.018,1.56,1.56,0,0,0-1.08-.323,1.544,1.544,0,0,0-1.064.323,1.368,1.368,0,0,0-.382,1.018q-.036,1.5-.054,3.05t-.018,3.114q0,1.57.018,3.115t.054,3.026a1.409,1.409,0,0,0,.382,1.029,1.527,1.527,0,0,0,1.075.334,1.671,1.671,0,0,0,1.146-.334,1.35,1.35,0,0,0,.382-1.029c.008-.353.014-.746.018-1.182s0-.867-.005-1.3l0-.178a.991.991,0,0,1,.992-1.009h.567a.992.992,0,0,1,.994.977c0,.211.005.423.008.638q.006.829-.03,1.6a4.171,4.171,0,0,1-.992,3,4.331,4.331,0,0,1-3.074.911" transform="translate(41.627 6.371)" fill="#fff"/><path d="M170.429,42.552V26.284a1.269,1.269,0,0,1,2.539,0V42.552a1.269,1.269,0,1,1-2.539,0" transform="translate(43.667 6.409)" fill="#fff"/><path d="M178.157,44.819a4.306,4.306,0,0,1-3.045-.9,4.143,4.143,0,0,1-.987-2.991q-.023-1.409-.035-2.844t-.011-2.874q0-1.44.011-2.868t.035-2.85a4.126,4.126,0,0,1,.987-2.98,4.306,4.306,0,0,1,3.045-.9,4.25,4.25,0,0,1,3.044.9,4.233,4.233,0,0,1,.976,2.98q.034,1.434.053,2.868t.018,2.862q0,1.428-.018,2.863t-.053,2.844a4.251,4.251,0,0,1-.976,2.991,4.25,4.25,0,0,1-3.044.9m0-2.1a1.618,1.618,0,0,0,1.117-.323,1.349,1.349,0,0,0,.363-1.016q.049-1.458.065-3.027t.018-3.167q0-1.6-.024-3.151t-.059-2.985a1.305,1.305,0,0,0-.376-1.011,2.06,2.06,0,0,0-2.2,0,1.337,1.337,0,0,0-.387,1.011q-.047,1.434-.07,2.985t-.024,3.151q0,1.6.024,3.167t.07,3.027a1.357,1.357,0,0,0,.387,1.016,1.606,1.606,0,0,0,1.094.323m-.028-18.9,1.058-1.6a.686.686,0,0,1,.573-.308h.044a.685.685,0,0,1,.564,1.073l-1.1,1.6a.686.686,0,0,1-1.137-.766" transform="translate(44.602 5.611)" fill="#fff"/><path d="M182.2,42.61V26.95a1.935,1.935,0,0,1,1.936-1.935h.363a1.935,1.935,0,0,1,1.9,1.546l.906,4.424,1.446,10.579h.564l-.459-9.192-.157-6.117a1.21,1.21,0,0,1,1.211-1.241h.015a1.211,1.211,0,0,1,1.211,1.211V41.885a1.936,1.936,0,0,1-1.936,1.936h-.533a1.935,1.935,0,0,1-1.9-1.555l-.981-4.9L184.632,27.26h-.612l.436,9.438.165,5.878a1.211,1.211,0,1,1-2.422.034" transform="translate(46.683 6.409)" fill="#fff"/><path d="M77.061,63.459V44.652h3.891a4.314,4.314,0,0,1,3.085.922,4.274,4.274,0,0,1,.994,3.05q.034,1.941.046,3.686t0,3.485q-.011,1.739-.046,3.667a4.289,4.289,0,0,1-1,3.068,4.312,4.312,0,0,1-3.092.93ZM79.6,61.2h1.339a1.622,1.622,0,0,0,1.153-.358,1.475,1.475,0,0,0,.387-1.088q.036-1.434.048-2.855t.011-2.85q0-1.428-.011-2.857t-.048-2.862a1.435,1.435,0,0,0-.387-1.07,1.619,1.619,0,0,0-1.141-.353H79.6Z" transform="translate(19.745 11.441)" fill="#fff"/><path d="M85.061,63.459V44.652h5.584a1.129,1.129,0,0,1,0,2.257H87.6v5.9h2.809a1.128,1.128,0,1,1,0,2.256H87.6V61.2h3.045a1.129,1.129,0,0,1,0,2.257Z" transform="translate(21.794 11.441)" fill="#fff"/><path d="M95.69,63.459V45.781a1.129,1.129,0,0,1,1.128-1.129H97.1a1.129,1.129,0,0,1,1.128,1.129V61.2H101.3a1.129,1.129,0,0,1,0,2.257Z" transform="translate(24.518 11.441)" fill="#fff"/><path d="M101.725,62.031,103.6,46.752a2.391,2.391,0,0,1,4.746,0l1.872,15.278a1.274,1.274,0,1,1-2.533.275l-.337-3.536H104.6l-.328,3.534A1.275,1.275,0,0,1,103,63.459h-.009a1.274,1.274,0,0,1-1.265-1.428m3.117-5.53H107.1l-.388-4.125-.412-5.466h-.658l-.4,5.477Z" transform="translate(26.061 11.441)" fill="#fff"/><path d="M109.79,62.248V46.789a2.136,2.136,0,0,1,4.228-.428l.873,4.264L116.337,61.2h.564l-.459-9.192-.156-6.117a1.209,1.209,0,0,1,1.21-1.241h.015a1.211,1.211,0,0,1,1.211,1.211V61.323a2.135,2.135,0,0,1-2.136,2.136h-.168a2.135,2.135,0,0,1-2.094-1.716l-.95-4.737L112.223,46.9h-.612l.436,9.438.165,5.878a1.211,1.211,0,1,1-2.422.034" transform="translate(28.13 11.441)" fill="#fff"/><path d="M118.211,62.031l1.872-15.278a2.391,2.391,0,0,1,4.746,0L126.7,62.031a1.274,1.274,0,1,1-2.533.275l-.337-3.536H121.08l-.327,3.534a1.275,1.275,0,0,1-1.269,1.156h-.009a1.274,1.274,0,0,1-1.265-1.428m3.117-5.53h2.257l-.388-4.125-.412-5.466h-.658l-.4,5.477Z" transform="translate(30.286 11.441)" fill="#fff"/><path d="M130.271,62.189V46.967a2.315,2.315,0,0,1,2.315-2.315h.006a2.314,2.314,0,0,1,2.278,1.9l1,5.5.529,9.109h.54l.494-9.109,1.015-5.51a2.315,2.315,0,0,1,4.591.42V62.189a1.269,1.269,0,1,1-2.539,0v-4.36l.482-10.92h-.588L139.274,57.98l-.994,4.651a1,1,0,0,1-.98.793H136a1,1,0,0,1-.981-.8l-.972-4.646-1.117-11.072h-.577l.459,10.92v4.36a1.269,1.269,0,1,1-2.539,0" transform="translate(33.378 11.441)" fill="#fff"/><path d="M141.734,62.121l1.882-15.369a2.391,2.391,0,0,1,4.746,0l1.883,15.369a1.193,1.193,0,0,1-1.185,1.338H148.9a1.192,1.192,0,0,1-1.187-1.079l-.344-3.61h-2.75l-.335,3.607a1.192,1.192,0,0,1-1.187,1.083h-.175a1.192,1.192,0,0,1-1.183-1.338m3.127-5.62h2.257l-.388-4.125-.412-5.466h-.658l-.4,5.477Z" transform="translate(36.313 11.441)" fill="#fff"/><path d="M153.624,63.7a5.655,5.655,0,0,1-2.3-.393,2.481,2.481,0,0,1-1.269-1.259,5.731,5.731,0,0,1-.436-2.25q-.047-1.306-.058-2.745t-.013-2.916q0-1.474.013-2.9t.058-2.7a6.2,6.2,0,0,1,.459-2.363,2.527,2.527,0,0,1,1.275-1.286,5.508,5.508,0,0,1,2.264-.394,4.1,4.1,0,0,1,2.938.9,4.329,4.329,0,0,1,1.023,2.991q.036.729.035,1.54c0,.1,0,.2,0,.3a1.264,1.264,0,1,1-2.529-.029c0-.16,0-.322,0-.487q0-.97-.035-1.769a1.43,1.43,0,0,0-.387-1.011,1.489,1.489,0,0,0-1.046-.329,1.526,1.526,0,0,0-1.064.329,1.417,1.417,0,0,0-.394,1.011q-.058,1.47-.082,3.02t-.024,3.127q0,1.575.024,3.127t.082,3.033a1.4,1.4,0,0,0,.383,1.018,1.546,1.546,0,0,0,1.087.334,1.71,1.71,0,0,0,1.134-.334,1.357,1.357,0,0,0,.428-1.018c.009-.305.014-.641.018-1s.005-.726,0-1.087-.009-.686-.018-.976h-.317a1.117,1.117,0,0,1,0-2.234h2.785q.047.987.041,2.234t-.053,2.622a4.3,4.3,0,0,1-1.016,2.991,4.189,4.189,0,0,1-3,.911" transform="translate(38.316 11.4)" fill="#fff"/><path d="M157.051,62.031l1.871-15.278a2.391,2.391,0,0,1,4.746,0l1.872,15.278a1.274,1.274,0,1,1-2.533.275l-.337-3.536h-2.751l-.327,3.534a1.275,1.275,0,0,1-1.269,1.156h-.009a1.273,1.273,0,0,1-1.264-1.428m3.115-5.53h2.257l-.388-4.125-.412-5.466h-.658l-.4,5.477Z" transform="translate(40.237 11.441)" fill="#fff"/><path d="M165.114,63.459V45.781a1.129,1.129,0,0,1,1.128-1.129h.283a1.129,1.129,0,0,1,1.128,1.129V61.2h3.068a1.129,1.129,0,0,1,0,2.257Z" transform="translate(42.305 11.441)" fill="#fff"/><path d="M171.58,63.459V45.781a1.129,1.129,0,0,1,1.128-1.129h.283a1.129,1.129,0,0,1,1.128,1.129V61.2h3.068a1.129,1.129,0,0,1,0,2.257Z" transform="translate(43.962 11.441)" fill="#fff"/><path d="M177.615,62.829l1.872-15.278a2.391,2.391,0,0,1,4.746,0L186.1,62.829a1.274,1.274,0,1,1-2.533.275l-.337-3.536h-2.751l-.328,3.534a1.273,1.273,0,0,1-1.268,1.156h-.009a1.274,1.274,0,0,1-1.265-1.428m3.117-5.53h2.256l-.388-4.125-.411-5.466h-.658l-.4,5.477Zm1.089-13.851,1.058-1.6a.686.686,0,0,1,.573-.308h.044a.685.685,0,0,1,.564,1.073l-1.1,1.6a.686.686,0,0,1-1.137-.766" transform="translate(45.506 10.643)" fill="#fff"/><path d="M185.68,62.248V46.789a2.136,2.136,0,0,1,4.228-.428l.872,4.264L192.226,61.2h.564l-.459-9.192-.157-6.109a1.219,1.219,0,1,1,2.437-.03V61.323a2.135,2.135,0,0,1-2.136,2.136h-.17a2.136,2.136,0,0,1-2.094-1.716l-.948-4.737L188.113,46.9H187.5l.436,9.438.163,5.878a1.211,1.211,0,1,1-2.421.034" transform="translate(47.575 11.441)" fill="#fff"/><path d="M194.531,62.189V45.921a1.269,1.269,0,0,1,2.539,0V62.189a1.269,1.269,0,1,1-2.539,0" transform="translate(49.843 11.441)" fill="#fff"/><path d="M202.223,63.708a4.194,4.194,0,0,1-3.045-.911,4.291,4.291,0,0,1-.951-3q-.024-1.315-.035-2.762t-.013-2.938q0-1.492.013-2.943t.035-2.769a4.135,4.135,0,0,1,.964-2.868,3.959,3.959,0,0,1,3.021-1.011,4.219,4.219,0,0,1,3.009.9,4.176,4.176,0,0,1,.975,2.991c.009.283.014.612.018.987s0,.751-.005,1.123v.011a.992.992,0,0,1-.992.97h-.556a.99.99,0,0,1-.992-1.01c0-.044,0-.09,0-.136.008-.411.01-.827.005-1.246s-.01-.805-.018-1.158a1.351,1.351,0,0,0-.364-1.016,1.942,1.942,0,0,0-2.144,0,1.367,1.367,0,0,0-.382,1.016q-.036,1.506-.054,3.051t-.018,3.114q0,1.57.018,3.115t.054,3.026a1.409,1.409,0,0,0,.382,1.029,1.527,1.527,0,0,0,1.075.334,1.671,1.671,0,0,0,1.146-.334,1.35,1.35,0,0,0,.382-1.029c.008-.353.014-.746.018-1.182s0-.867-.005-1.3l0-.178a.991.991,0,0,1,.992-1.009h.567a.993.993,0,0,1,.994.977c0,.211.005.423.008.638q.006.829-.03,1.6a4.171,4.171,0,0,1-.992,3,4.331,4.331,0,0,1-3.074.911" transform="translate(50.777 11.402)" fill="#fff"/><path d="M205.638,62.031l1.87-15.278a2.391,2.391,0,0,1,4.746,0l1.872,15.278a1.274,1.274,0,1,1-2.533.275l-.337-3.536h-2.751l-.327,3.534a1.275,1.275,0,0,1-1.269,1.156H206.9a1.273,1.273,0,0,1-1.264-1.428m3.115-5.53h2.257l-.388-4.125-.412-5.466h-.658l-.4,5.477Z" transform="translate(52.686 11.441)" fill="#fff"/><line x1="0.585" transform="translate(205.951 18.032)" fill="#fff"/><path d="M81.678,40.827A40.827,40.827,0,1,0,40.851,81.654,40.828,40.828,0,0,0,81.678,40.827" transform="translate(0.006)" fill="#282725"/></g><g transform="translate(0.03)"><g clip-path="url(#b)"><path d="M.062,31.542a14.477,14.477,0,0,1,2.291,1.266,23.188,23.188,0,0,1,2.1,1.564c.335.28.666.567.986.863s.636.6.943.91a20.882,20.882,0,0,1,1.734,1.962c1.072,1.383,1.952,2.9,2.872,4.359s1.849,2.924,2.727,4.427a32.492,32.492,0,0,1,2.31,4.684c.173.4.323.812.471,1.221s.3.819.441,1.234.261.833.388,1.25c.063.21.127.418.182.629l.157.636c.1.425.2.848.3,1.274s.161.857.234,1.286.156.858.206,1.291l.155,1.3c.06.431.083.867.111,1.3s.053.868.073,1.3c.026.868.013,1.739-.014,2.605l-.123.009c-.188-.85-.33-1.7-.49-2.544-.188-.84-.323-1.686-.518-2.52L17.321,60.6c-.079-.42-.193-.832-.294-1.245s-.2-.828-.3-1.241c-.117-.411-.224-.822-.334-1.232l-.161-.618c-.053-.206-.121-.407-.177-.613-.117-.408-.235-.817-.344-1.227s-.252-.813-.378-1.22l-.188-.609c-.062-.2-.139-.4-.207-.6l-.422-1.206c-.149-.4-.31-.793-.455-1.2s-.3-.8-.461-1.2l-.236-.6c-.078-.2-.158-.4-.247-.593-.175-.391-.343-.785-.524-1.175S12.2,45.257,12,44.878s-.421-.747-.642-1.114l-.338-.548c-.118-.18-.242-.354-.366-.53a34.739,34.739,0,0,0-3.323-3.912l-1.74-1.865c-.294-.307-.582-.619-.884-.918s-.6-.6-.9-.9C3.2,34.492,2.584,33.9,1.951,33.328S.671,32.193,0,31.649Z" transform="translate(-0.03 8.082)" fill="#fff"/><path d="M.4,36.737a7.225,7.225,0,0,1,1.666.818c.254.173.508.349.758.533s.476.391.711.592a8.413,8.413,0,0,1,.671.633c.215.221.433.438.641.666s.393.471.582.714c.094.122.188.242.279.367l.137.185.122.195c.318.526.632,1.053.911,1.6s.539,1.094.843,1.617c.544,1.082,1.206,2.094,1.8,3.154l.464.789.231.4.2.408c.268.546.515,1.1.764,1.658.266.55.459,1.127.676,1.695s.413,1.144.6,1.722c.162.585.307,1.176.441,1.768s.276,1.183.382,1.781c.176,1.2.334,2.408.4,3.624l-.121.024c-.476-1.128-.857-2.267-1.219-3.408-.407-1.128-.79-2.257-1.139-3.4-.2-.56-.391-1.122-.563-1.692l-.261-.853c-.08-.288-.183-.567-.285-.847-.415-1.113-.755-2.26-1.18-3.379a16.6,16.6,0,0,0-1.533-3.242c-.334-.5-.7-.974-1.069-1.443-.089-.119-.19-.231-.289-.342l-.3-.335c-.195-.225-.388-.45-.578-.677s-.391-.442-.575-.672-.372-.456-.553-.688l-.575-.667-.284-.339c-.094-.113-.2-.216-.3-.327l-.593-.654c-.207-.209-.41-.423-.613-.642-.425-.4-.843-.838-1.306-1.219Z" transform="translate(0.058 9.413)" fill="#fff"/><path d="M.4,27.436A17.465,17.465,0,0,1,3.235,28.92l.673.435.656.46c.22.153.43.318.646.476s.425.324.631.494a31.867,31.867,0,0,1,2.4,2.127c.383.372.75.763,1.118,1.151s.7.805,1.043,1.217a54.273,54.273,0,0,1,3.588,5.284c1.127,1.8,2.221,3.608,3.272,5.461.494.941,1.023,1.871,1.452,2.845.469.96.843,1.958,1.24,2.95a47.538,47.538,0,0,1,1.872,6.118l.177.78c.059.26.121.52.162.784.092.525.185,1.05.27,1.577l.131.788.1.793.181,1.587c.072.526.083,1.062.122,1.592s.063,1.06.088,1.59c.024,1.063.016,2.127-.01,3.186l-.123.006c-.188-1.045-.338-2.089-.495-3.131-.2-1.036-.345-2.077-.545-3.108l-.3-1.544-.144-.771-.175-.766c-.119-.51-.23-1.021-.34-1.533s-.252-1.014-.376-1.523c-.484-2.033-1.056-4.041-1.69-6.035-.345-.986-.671-1.981-1.053-2.956l-.274-.737c-.084-.247-.183-.49-.283-.732l-.589-1.461a32.944,32.944,0,0,0-3-5.54c-.3-.43-.605-.861-.928-1.276s-.658-.819-.995-1.221l-1.044-1.178L9.623,35.953A58.818,58.818,0,0,0,.342,27.547Z" transform="translate(0.057 7.03)" fill="#fff"/><path d="M1.1,24.164a31.724,31.724,0,0,1,6.3,3.69A44.166,44.166,0,0,1,12.9,32.7a46.171,46.171,0,0,1,4.654,5.687c.175.253.361.5.525.755l.494.778.494.776c.167.256.31.529.466.793l.46.8c.152.266.312.528.448.8l.848,1.634c.271.549.513,1.114.77,1.671.124.28.258.556.376.839l.342.854.342.853c.113.285.231.568.327.859.2.579.406,1.156.6,1.737a55.514,55.514,0,0,1,1.794,7.114,62.005,62.005,0,0,1,.95,14.553A86.708,86.708,0,0,0,24.9,58.842a60.948,60.948,0,0,0-4.715-13.577,52.873,52.873,0,0,0-3.59-6.223,51.031,51.031,0,0,0-4.4-5.691,50.732,50.732,0,0,0-5.172-5.022A38.447,38.447,0,0,0,1.1,24.164" transform="translate(0.253 6.191)" fill="#fff"/><path d="M4.777,33.09c1.933-.666,3.826-1.393,5.683-2.2.232-.1.465-.2.7-.3l.69-.315c.464-.2.913-.43,1.373-.639s.9-.448,1.36-.663.9-.453,1.359-.671a38.717,38.717,0,0,0,5.292-3,28.048,28.048,0,0,0,4.541-4.048l.992-1.152.246-.288c.082-.1.157-.2.235-.3l.472-.593c.156-.2.313-.394.474-.589s.3-.4.452-.605c.3-.408.607-.8.894-1.216a52.186,52.186,0,0,0,3.1-5.163c.235-.443.441-.9.67-1.349l.337-.675c.109-.226.2-.46.307-.688l.608-1.383c.193-.466.364-.94.549-1.411s.381-.937.528-1.422.32-.961.487-1.441.3-.971.447-1.46.3-.977.452-1.467l.122.023c-.052.51-.112,1.02-.176,1.531s-.116,1.025-.234,1.526c-.1.505-.2,1.011-.314,1.515-.1.51-.247,1-.389,1.5s-.279,1-.441,1.49L35.054,9.1c-.092.242-.171.491-.275.729l-.317.71c-.212.474-.422.95-.651,1.416-.5.912-.965,1.842-1.551,2.7l-.422.654-.211.327-.229.315-.92,1.255c-.317.411-.652.806-.981,1.207-.167.2-.325.4-.5.593s-.353.381-.53.568c-.692.77-1.47,1.457-2.22,2.162-1.553,1.36-3.154,2.639-4.781,3.889a53.864,53.864,0,0,1-5.035,3.58c-.447.258-.9.516-1.354.754s-.923.464-1.4.672c-.941.426-1.9.814-2.874,1.152a30.08,30.08,0,0,1-2.963.888,20.625,20.625,0,0,1-3.044.543Z" transform="translate(1.194 0.014)" fill="#fff"/><path d="M7.839,36.195q3.136-1,6.128-2.284c.249-.107.5-.207.747-.32l.741-.337c.249-.107.495-.221.739-.339l.736-.347,1.458-.717c.481-.247.964-.495,1.452-.731A38.694,38.694,0,0,0,25.46,27.8a29.173,29.173,0,0,0,4.759-4.471l1.033-1.261c.176-.207.325-.436.49-.651l.489-.651.244-.324c.082-.108.165-.214.239-.328l.46-.668.462-.667c.077-.111.157-.22.229-.334l.214-.344.849-1.378c.271-.467.52-.946.781-1.418l.387-.71.353-.729c.234-.485.482-.964.711-1.452s.427-.991.648-1.484c.106-.247.226-.49.322-.742l.29-.758L39,7.915l.51-1.545.259-.773c.087-.258.149-.521.225-.783.144-.524.3-1.048.448-1.573l.114-.393.094-.4.19-.8c.131-.531.265-1.064.407-1.6l.122.016c-.035.549-.079,1.1-.127,1.648l-.075.825-.04.413-.065.408c-.087.546-.176,1.092-.271,1.638-.05.271-.087.548-.149.818l-.195.808-.4,1.617c-.163.531-.337,1.059-.505,1.589l-.256.794c-.088.264-.2.519-.3.778-.2.519-.417,1.033-.627,1.549-.106.258-.24.5-.359.754l-.369.75-.374.747c-.134.244-.281.481-.421.722-.285.479-.559.964-.854,1.435l-.936,1.384-.234.345c-.079.114-.167.222-.25.334l-.508.662-.509.66c-.165.224-.361.423-.541.634-.369.415-.73.837-1.116,1.235L30.71,23.794c-1.61,1.52-3.286,2.946-5.006,4.323a51.587,51.587,0,0,1-5.362,3.9c-.48.279-.961.554-1.45.817-.5.247-.991.5-1.5.727-1.01.459-2.036.878-3.084,1.241-.519.195-1.051.35-1.579.515s-1.064.308-1.6.432a21.768,21.768,0,0,1-3.269.565Z" transform="translate(1.978 0.014)" fill="#fff"/><path d="M1.092,30.117c1.757-.706,3.489-1.428,5.2-2.186q1.281-.573,2.551-1.168l2.536-1.2A43.893,43.893,0,0,0,16.393,23a27.81,27.81,0,0,0,4.4-3.5,44.239,44.239,0,0,0,7.017-8.629l.367-.589.185-.294c.059-.1.113-.2.17-.3.224-.4.447-.809.678-1.211.121-.2.212-.411.317-.618l.3-.626.313-.622c.1-.21.185-.426.278-.639.178-.428.368-.854.557-1.281q.236-.658.485-1.315l.249-.658.21-.672c.143-.447.29-.9.446-1.347l.122.023q-.075.709-.171,1.417l-.1.71c-.044.235-.1.466-.149.7-.1.467-.2.935-.317,1.4-.139.457-.278.917-.426,1.373-.075.227-.139.46-.224.685l-.264.67-.273.668c-.093.221-.175.45-.285.663-.207.433-.421.864-.636,1.3-.054.108-.106.217-.163.323l-.181.312-.367.623-.371.619c-.124.206-.268.4-.4.6-.278.393-.546.793-.838,1.175l-.9,1.123-.227.28-.241.268-.484.533-.482.534c-.163.175-.337.34-.506.509l-.511.5c-.171.167-.339.338-.523.491-.361.315-.722.628-1.087.935s-.752.589-1.127.884c-1.52,1.148-3.069,2.236-4.624,3.32s-3.1,2.2-4.757,3.149c-.411.244-.834.461-1.26.675s-.859.413-1.294.607-.877.373-1.317.555-.892.334-1.337.5-.9.31-1.355.451l-.683.209-.688.186a21.817,21.817,0,0,1-2.8.572Z" transform="translate(0.25 0.178)" fill="#fff"/><path d="M26.849,1.878a23.194,23.194,0,0,1-1.675,3.978c-.17.319-.347.633-.521.948s-.373.616-.564.921-.379.614-.6.9-.428.579-.652.862c-.452.563-.946,1.092-1.435,1.619-.505.516-.99,1.044-1.482,1.565-.962,1.059-1.9,2.134-2.859,3.212-.477.539-.969,1.068-1.482,1.575s-1.054.987-1.609,1.448A30.4,30.4,0,0,1,10.494,21.5c-.614.383-1.24.747-1.884,1.077s-1.3.646-1.961.931c-.332.143-.668.278-1.007.4-.17.063-.338.128-.51.187l-.514.171a14.6,14.6,0,0,1-2.1.526l-.035-.119a67.306,67.306,0,0,0,7.3-4.284c1.17-.776,2.338-1.555,3.47-2.393.569-.413,1.117-.855,1.681-1.28q.415-.33.838-.651c.283-.215.551-.445.829-.666a20.538,20.538,0,0,0,3.025-2.986,19.619,19.619,0,0,0,1.247-1.726c.2-.3.379-.6.568-.9s.387-.593.567-.9c.374-.6.776-1.177,1.165-1.765.193-.294.4-.579.594-.874s.384-.592.584-.884l.3-.438.288-.446c.195-.3.392-.59.593-.884C25.92,3,26.3,2.4,26.737,1.824Z" transform="translate(0.605 0.467)" fill="#fff"/><path d="M10.312,39.194c.568-.133,1.131-.283,1.687-.452s1.112-.337,1.661-.526c1.1-.377,2.188-.773,3.252-1.23a49.916,49.916,0,0,0,6.2-3.082,45.388,45.388,0,0,0,10.708-8.61c.379-.431.776-.847,1.144-1.286l1.082-1.339c.186-.219.348-.456.516-.688l.5-.7.5-.7.467-.724.469-.722.235-.362.118-.181.107-.187.853-1.5.214-.376c.072-.124.129-.256.195-.384l.384-.773L41,14.606l.195-.386.172-.4A59.147,59.147,0,0,0,45.445.565a45.87,45.87,0,0,1-3.191,13.641,40.328,40.328,0,0,1-7.518,11.919,43.157,43.157,0,0,1-5.211,4.792L28.1,31.967l-1.467.987c-.5.318-1,.621-1.5.928s-1.029.573-1.543.859-1.049.534-1.572.8-1.067.5-1.6.737c-.545.221-1.083.456-1.632.665s-1.094.423-1.653.6q-1.664.569-3.37.992a27.993,27.993,0,0,1-3.443.652" transform="translate(2.612 0.145)" fill="#fff"/><path d="M12.682,42.523c.594-.157,1.183-.329,1.766-.523s1.163-.386,1.737-.6c1.148-.426,2.288-.871,3.4-1.377a55.651,55.651,0,0,0,6.483-3.377,50.767,50.767,0,0,0,11.237-9.188,44.752,44.752,0,0,0,4.475-5.721c.33-.508.67-1.011.994-1.524l.912-1.575c.148-.265.315-.52.445-.794l.412-.813.418-.81c.138-.27.285-.538.4-.818A62.822,62.822,0,0,0,49.855,1.48,49.234,49.234,0,0,1,46.243,15.8c-.108.291-.247.569-.377.85l-.394.843c-.266.562-.524,1.127-.835,1.666l-.9,1.634c-.319.533-.654,1.056-.981,1.587-.167.261-.323.533-.5.785l-.541.76-.543.76-.27.381-.29.364L39.45,26.892c-.4.472-.82.936-1.232,1.4a48.2,48.2,0,0,1-5.466,5.07l-1.489,1.122-1.531,1.059c-.519.342-1.045.67-1.57,1s-1.074.622-1.609.933-1.094.583-1.641.874-1.112.546-1.671.813c-.568.246-1.129.505-1.7.74s-1.143.472-1.726.678q-1.737.644-3.522,1.142a30.47,30.47,0,0,1-3.608.8" transform="translate(3.219 0.379)" fill="#fff"/><path d="M38,27.312c1.114-1.953,2.276-3.855,3.344-5.8a61.351,61.351,0,0,0,2.892-5.948,48.856,48.856,0,0,0,2.113-6.248c.562-2.134.97-4.313,1.33-6.534a27.666,27.666,0,0,1-.389,6.741,30.588,30.588,0,0,1-1.914,6.516,35.129,35.129,0,0,1-3.21,5.971A41.786,41.786,0,0,1,38,27.312" transform="translate(9.706 0.713)" fill="#fff"/><path d="M14.511,38.034c1.27-.418,2.5-.845,3.717-1.3s2.421-.922,3.6-1.441,2.36-1.045,3.517-1.632c.289-.148.592-.274.876-.432s.579-.3.873-.447c.592-.288,1.157-.621,1.775-.894-.225.247-.46.485-.7.72a9.644,9.644,0,0,1-.737.678c-.258.214-.518.425-.781.631l-.2.156-.206.143-.413.284a20.537,20.537,0,0,1-3.52,1.928A20.746,20.746,0,0,1,18.5,37.664a14.438,14.438,0,0,1-3.989.371" transform="translate(3.688 8.171)" fill="#fff"/><path d="M43.563,14.468a29.284,29.284,0,0,0,2.519,2.023,31.058,31.058,0,0,0,2.678,1.74,26.146,26.146,0,0,0,5.79,2.494,24.221,24.221,0,0,0,3.074.649,24.774,24.774,0,0,0,3.146.212,29.825,29.825,0,0,0,6.354-.8,18.074,18.074,0,0,1-6.309,1.773c-.553.029-1.107.082-1.662.062-.278-.006-.557.008-.833-.02l-.833-.06c-.278-.024-.551-.07-.828-.106-.138-.02-.276-.035-.413-.06l-.41-.078c-.549-.1-1.087-.244-1.626-.382a20.5,20.5,0,0,1-5.971-2.864,21.126,21.126,0,0,1-2.545-2.093c-.4-.381-.775-.776-1.132-1.191a12.57,12.57,0,0,1-1-1.3" transform="translate(11.132 3.707)" fill="#fff"/><path d="M41.349,17.372c1,.806,1.99,1.594,2.995,2.353.126.094.251.188.376.285l.378.28c.249.191.508.369.759.557.51.364,1.018.729,1.52,1.108a22.345,22.345,0,0,0,3.138,2.126,13.793,13.793,0,0,0,3.578,1.244c.308.069.622.114.931.172s.621.1.93.144c.618.1,1.239.165,1.855.241a35.744,35.744,0,0,0,3.721.094,43.652,43.652,0,0,0,7.482-.9l.043.117c-.285.151-.575.3-.867.436a9.353,9.353,0,0,1-.891.393,15.93,15.93,0,0,1-1.85.623c-.315.082-.628.181-.948.247l-.965.181a9.025,9.025,0,0,1-.974.134l-.49.05c-.163.014-.327.034-.491.035A18.555,18.555,0,0,1,53.9,25.971c-1.207-.481-2.372-1.021-3.553-1.53a37.693,37.693,0,0,1-3.531-1.626,13.123,13.123,0,0,1-1.614-1.09c-.258-.2-.51-.4-.755-.616s-.49-.427-.724-.653a15.807,15.807,0,0,1-1.333-1.418,10.934,10.934,0,0,1-1.133-1.588Z" transform="translate(10.54 4.451)" fill="#fff"/><path d="M44.4,10.458c.722.579,1.458,1.121,2.21,1.634s1.512,1,2.291,1.458a30.445,30.445,0,0,0,4.843,2.316c.206.084.42.149.629.224s.422.146.637.206.425.136.639.193l.646.172a24.088,24.088,0,0,0,2.628.511c.221.036.443.058.667.08s.447.053.671.068c.448.024.9.068,1.352.068.908.041,1.818-.014,2.746-.044A14.282,14.282,0,0,1,61.644,18c-.462.077-.93.1-1.4.138-.234.018-.469.01-.7.016s-.471.009-.706-.009L58.13,18.1c-.234-.021-.467-.05-.7-.075s-.469-.058-.7-.1-.466-.073-.7-.126a19.043,19.043,0,0,1-2.72-.779,20.561,20.561,0,0,1-4.946-2.666,20.571,20.571,0,0,1-2.143-1.8c-.334-.324-.658-.658-.964-1.01a11.475,11.475,0,0,1-.863-1.092" transform="translate(11.345 2.68)" fill="#fff"/><path d="M45.429,6.222c.637.45,1.227.9,1.808,1.358s1.167.9,1.713,1.394c.136.126.269.258.4.393s.27.26.406.392a5.842,5.842,0,0,0,.867.721,7.417,7.417,0,0,0,.979.55c.345.148.7.269,1.059.387s.731.188,1.084.3c.18.052.356.108.53.168s.356.1.534.151c.356.1.712.2,1.063.3.361.08.716.173,1.069.276.176.055.353.106.528.167s.357.094.534.147c.356.1.712.206,1.068.323a22.3,22.3,0,0,1,2.171.712l-.01.123a10.943,10.943,0,0,1-1.159.114c-.195.011-.388.021-.583.025l-.291.005c-.1,0-.193-.011-.289-.018-.386-.028-.773-.064-1.157-.112-.192-.024-.386-.043-.577-.082s-.377-.085-.567-.129c-.376-.094-.75-.2-1.118-.317-.362-.141-.72-.291-1.078-.441-.178-.075-.359-.144-.534-.226s-.345-.178-.514-.275-.338-.191-.5-.291-.333-.2-.49-.314c-.319-.221-.636-.44-.966-.631s-.646-.406-.987-.575-.685-.344-1.043-.5c-.177-.082-.361-.155-.533-.245S48.5,9.9,48.33,9.8a4.659,4.659,0,0,1-.486-.323c-.152-.119-.3-.245-.446-.373a9.432,9.432,0,0,1-.824-.823c-.131-.144-.249-.3-.369-.453l-.176-.234-.162-.245a5.222,5.222,0,0,1-.3-.508,4,4,0,0,1-.24-.545Z" transform="translate(11.584 1.594)" fill="#fff"/><path d="M50.323,23.18c-.667,1.006-1.281,2-1.844,3.01a24.033,24.033,0,0,0-1.463,3.1A16.316,16.316,0,0,0,46.48,30.9c-.043.136-.079.273-.111.41s-.072.274-.1.412c-.055.278-.121.555-.165.835a19.362,19.362,0,0,0-.254,3.486,8.189,8.189,0,0,1-.712-3.574,9.582,9.582,0,0,1,.2-1.843c.058-.3.142-.6.222-.9s.187-.59.3-.877a12.493,12.493,0,0,1,1.81-3.19,10.6,10.6,0,0,1,2.649-2.475" transform="translate(11.534 5.939)" fill="#fff"/><path d="M54.675,24.583a10.968,10.968,0,0,0-1.407,1.769,16.947,16.947,0,0,0-1.1,1.93A22,22,0,0,0,50.7,32.439c-.085.359-.185.715-.261,1.077l-.2,1.094c-.034.182-.078.363-.1.548l-.073.554c-.049.369-.1.74-.161,1.11s-.07.746-.113,1.121l-.124,1.127c-.045.756-.1,1.515-.2,2.285-.168-.75-.291-1.511-.407-2.276-.034-.383-.058-.769-.08-1.154l-.029-.58a5.606,5.606,0,0,1-.015-.58q.017-.582.046-1.165l.03-.582c.015-.195.048-.387.072-.58l.166-1.158c.074-.384.175-.764.261-1.146a14.767,14.767,0,0,1,1.827-4.326A11.3,11.3,0,0,1,52.8,25.969a8.048,8.048,0,0,1,.881-.775,5.283,5.283,0,0,1,.992-.611" transform="translate(12.505 6.299)" fill="#fff"/><path d="M58.407,25.189c-.472.931-.917,1.842-1.343,2.76-.217.457-.42.92-.631,1.378s-.408.921-.633,1.376A19.941,19.941,0,0,0,54.529,33.5,12.212,12.212,0,0,0,54,36.52l-.123,3.058c-.019,1.016-.015,2.029-.014,3.041-.018,1.014-.009,2.03-.016,3.054-.005.511.01,1.024-.006,1.541,0,.516,0,1.035-.03,1.561l-.122.02c-.181-.494-.338-.995-.475-1.5s-.249-1.019-.339-1.534-.178-1.034-.221-1.556-.1-1.045-.109-1.57a21.214,21.214,0,0,1,.168-3.143,18.3,18.3,0,0,1,.622-3.084c.3-1.007.577-2,.81-3.016s.382-2.061.7-3.07c.075-.252.172-.5.268-.744s.215-.481.328-.719a14.415,14.415,0,0,1,.783-1.376,11.349,11.349,0,0,1,.943-1.274,7.189,7.189,0,0,1,1.149-1.1Z" transform="translate(13.43 6.433)" fill="#fff"/><path d="M62.955,24.092a32.156,32.156,0,0,0-1.584,3.316c-.474,1.123-.891,2.267-1.271,3.419a50.885,50.885,0,0,0-1.732,7.055c-.058.3-.1.6-.146.9s-.093.6-.128.9l-.121.9-.094.9c-.036.3-.063.6-.085.906l-.075.907-.051.91-.031.456-.016.456c-.093,2.432-.045,4.877.062,7.345a34.321,34.321,0,0,1-1.025-7.348c-.038-.622-.021-1.244-.025-1.865.008-.312.019-.622.031-.933s.025-.622.05-.932a36.56,36.56,0,0,1,.438-3.712A33.91,33.91,0,0,1,59.2,30.5a29.119,29.119,0,0,1,1.632-3.355c.315-.536.634-1.068.989-1.578a14.022,14.022,0,0,1,1.136-1.471" transform="translate(14.48 6.173)" fill="#fff"/><path d="M61.911,52.16a23.679,23.679,0,0,1-.751-3.247c-.175-1.1-.307-2.206-.374-3.318a36.075,36.075,0,0,1,.178-6.688,31.411,31.411,0,0,1,1.482-6.535c.089-.265.181-.529.284-.789s.2-.524.3-.781l.339-.768.17-.382.185-.376.379-.745c.137-.242.27-.487.412-.726.269-.486.589-.945.9-1.406-.094.263-.2.519-.3.778l-.152.384-.139.389c-.089.26-.188.516-.283.774l-.258.781-.133.388-.119.392-.237.783c-.136.53-.307,1.046-.427,1.579a51.67,51.67,0,0,0-1.18,6.407c-.264,2.158-.394,4.333-.445,6.517-.015,1.092-.016,2.187.015,3.284s.077,2.2.151,3.3" transform="translate(15.524 6.764)" fill="#fff"/><path d="M44.742,22.955c-.16-1.2-.829-.577-1.619-1.235s-.494-.775-1.531-.462-1.353-.237-1.353-.237c-.266-1.072-.687-1.344-1.784-1.122a1.756,1.756,0,0,1-1.245-.008c-.582-.315-3.146.866-3.146.866C32.338,22.347,28,22.913,28,22.913c-1.771-.193-3.088-.333-3.088-.333.2-.23-.03-.371-.254-.377a7.964,7.964,0,0,1-3.467-1.271,12.037,12.037,0,0,0-6.674-1.08,5.031,5.031,0,0,0-2.132.558c-.827.469-.935,1.088-.29,1.845.183.216.354.443.52.673.2.273.392.582.176.916a29.346,29.346,0,0,1,3.218,2.574,10.848,10.848,0,0,0,5.305,2,4.493,4.493,0,0,1,2.713.812,3.383,3.383,0,0,1,.139,2.536,87.9,87.9,0,0,0-3.638,8.375,3.339,3.339,0,0,0,.548,1.823l.808,1.116c-.16-.181-.253-.28-.253-.28.062.157-.244-.27-.555-.835l-.3.383c.293.178.605.339.557.769a7.1,7.1,0,0,0,.279,2.592,2.56,2.56,0,0,0,1.374,1.749,4.923,4.923,0,0,0,2.514.616,18.671,18.671,0,0,1,1.338,2.815c-.005.053-.01.106-.014.158-.108,1.506.433,2.981.235,4.486-.108.814.187,1.612.09,2.4-.2,1.627-.5,3.241-.77,4.859a26.2,26.2,0,0,0-.412,6,6.449,6.449,0,0,0,.265,2,9.945,9.945,0,0,1,.759,4.338s20.666,6.692,38.087-8.986a35.021,35.021,0,0,0,7.575-8.958c.465-.785.291-.211.1-2.1s-2.561-2.386-2.561-2.386c-1.658.894-2.4-5.434-3.427-6.1-.932-.6-1.677-1.482-2.965-.987-.337.129-.83-.04-.891-.339-.222-1.089-1.244-1.3-1.941-1.775-1-.69-1.941-1.477-3-2.08a.356.356,0,0,1-.219-.416c.053-.2.216-.246.4-.26l.678-.053a7.857,7.857,0,0,1-2.607-2.237,2.266,2.266,0,0,1-.549-1.413,1.71,1.71,0,0,0-.715-1.479c-.144-.093-.289-.234-.237-.422.294-1.072-.412-1.766-.941-2.526-.112-.161-.364-.343-.221-.5.654-.732-.113-.923-.432-1.325A14.651,14.651,0,0,1,51.6,28.768a.594.594,0,0,1,.041-.707c.742-1.036,1.82-1.869,2.3-3.063a2.854,2.854,0,0,0,.038-1.886,4.159,4.159,0,0,1-.146-.608c-.147-.964-.964-1.324-1.771-1.631a7.517,7.517,0,0,0-4.946.062c-.995.305-1.615,1.3-2.365,2.02" transform="translate(2.962 5.07)" fill="#fff"/><path d="M37.908,76.278c.492-.167.474-.572.436-.989-.025-.266-.422-.506-.127-.775a5.928,5.928,0,0,1,1.211-.894c.21-.109.6.112.658-.32a1.1,1.1,0,0,0-.254-1.036,2.521,2.521,0,0,1-.474-.481.654.654,0,0,1,.092-.8.407.407,0,0,1,.609-.031c.171.124.363.41.569.144a.548.548,0,0,0-.144-.766c-.843-.35-.49-.842-.265-1.371.244-.572.031-.884-.6-.874-.392.006-.853-.038-.863-.484-.01-.472.46-.562.876-.619.528-.073,1.045-.25,1.546.122.467.348.722.661.286,1.256-.469.637.28.928.543,1.329a.365.365,0,0,0,.681-.064c.2-.428.972-.837.227-1.344-.682-.465-.8-1.4-1.58-1.739-.181-.079-.34-.289-.513-.29-.776-.01-1.03-.408-1.173-1.137-.108-.553-.648-.668-1.173-.374-.383.214-.573.122-.445-.314.133-.457-.254-1.24.735-1.214.251.008.269-.251.193-.466s-.221-.34-.457-.252c-.214.079-.415.192-.626.28-.392.162-.646.069-.558-.4s-.05-.589-.516-.557c-.29.021-.752-.014-.784-.364-.054-.6.652-.515.961-.824.251-.254.436.052.575.279.118.192.222.445.4.536.337.173.842.518,1.073.224.268-.338-.291-.5-.535-.7a1.216,1.216,0,0,1-.411-1.077c.025-.307,0-.719.342-.818.481-.143.275.466.543.622.345-.162.24-.459.222-.732-.015-.241-.259-.611.329-.511.251.041.191-.225.152-.379-.058-.234-.192-.5-.461-.348-.4.224-.858.266-1.251.528a1.456,1.456,0,0,1-1.707.186c-1.028-.48-2.212-1.3-3.534-.611a.6.6,0,0,1-.578.04.589.589,0,0,1-.284-.288c-.048-.181.134-.236.273-.237a1.1,1.1,0,0,0,1.1-.893c.09-.275.317-.476.588-.26.389.309.741.1,1.09-.028.049.1.1.147.093.193-.023.369-.785.446-.465.853.264.337.658-.147,1.018-.177.6-.05,1.126-.231,1.291-.91.308-.038.634-.026.813-.366s.309-.823-.038-1.006c-.423-.222-.369.356-.536.569a1.448,1.448,0,0,0-.231.81,4.976,4.976,0,0,1-1.363-1.325c-.224-.377-.49-.673-.932-.236-.525.519-1.161-.387-1.778.413.123-.763.2-1.234.273-1.706.024-.167.045-.372-.187-.406-.165-.024-.227.141-.288.266a.518.518,0,0,0-.089.239c.113,1.235-.874,1.3-1.667,1.572-.2.069-.447.241-.579-.083a.346.346,0,0,1,.264-.466c.96-.264,1.116-1.255,1.626-1.892.415-.518-.026-1.289-.451-1.85-.2-.261-.549-.464-.32-.878l-.008.008a7.1,7.1,0,0,1-.309-1.755.288.288,0,0,0-.27-.363c-1.034-.035-1.2-.894-1.525-1.6-.2-.432-.374-.877-.614-1.446-.314.448-.573.727-1.055.765-.6.045-.967.559-1.387.937a4.2,4.2,0,0,1-5.318.75A2.553,2.553,0,0,1,19.5,45.331a7.074,7.074,0,0,1-.28-2.592c.049-.43-.264-.59-.555-.769-.119-.187-.237-.374-.357-.563.052-.177-.023-.5.236-.479a3.331,3.331,0,0,0,2.311-.808c.315-.234.761-.2,1.148-.394a7.957,7.957,0,0,0,1.941-1.159c.245-.221.594-.126.906-.1,1.648.112,2.185.555,2.628,2.147.055.2.178.378-.036.535-.967.709-1.83,1.619-3.154,1.651a3.776,3.776,0,0,0-.425.055c-.155.023-.305.1-.3.252a.262.262,0,0,0,.377.224c.741-.269,1.406.134,2.085.256a1.832,1.832,0,0,0,1.968-.847,6.356,6.356,0,0,1,.391-.56c.26-.279.3-.906.887-.7.323.113.432,1.465.128,1.725-.327.28-.548.55-.235.925a.783.783,0,0,0,1.153.052,3.467,3.467,0,0,1,1.741-.647.6.6,0,0,0,.539-.387c.211-.392.407-.8.631-1.188.379-.656.216-1.048-.475-1.33-.474-.193-.933-.381-.22-.989.633-.539-.291-.649-.443-1a.693.693,0,0,1,.065-.1,1.112,1.112,0,0,0,1.634-.68c.093-.2.289-.149.445-.2.082.033.106.006.077-.073.048-.162.045-.378.152-.476.9-.834,1.45-1.957,2.339-2.8.092-.085.26-.089.392-.132l.005-.005a.988.988,0,0,1,.146-.732,5.525,5.525,0,0,0,1.232-4.187c-.367-.072-.367.28-.484.465a3.165,3.165,0,0,1-2.605,1.788c-.289.011-.432.045-.619-.211a.809.809,0,0,0-1.476.059c-.4.688-1.231.788-1.636,1.433-.123.2-.455.111-.611-.074-.239-.283-.72-.412-.608-.936a2.552,2.552,0,0,1,1.192-1.755,4.6,4.6,0,0,0,2.257-2.457c.161-.479.617-.5.964-.614A4.639,4.639,0,0,1,37.7,26.8c1.577.494,2.231.088,2.186-1.565-.006-.241-.138-.56.226-.638.284-.06.362.21.461.417.141.294.162.912.422.822a2.463,2.463,0,0,0,1.1-.97c.641-.96,1.166-2,1.8-2.963a1.825,1.825,0,0,1,1.5-.879,17.953,17.953,0,0,1,3.913.013c.286.053.474.117.34.41-.372.82-.445,1.824-1.392,2.305a.884.884,0,0,0-.358,1.409.667.667,0,0,1-.236,1.06,2,2,0,0,0-.8,1.448l-.252.3a5.038,5.038,0,0,0-2.438.089c-.408.043-.325.291-.163.551a1.172,1.172,0,0,0,.95.508c.82.075,1.025.716,1.256,1.3a.689.689,0,0,1-.47,1.01c-.392.133-.858.343-.168.761.132.08.239.225.09.347-.413.338-.111.529.129.731.407.344.371.584-.178.6s-.789.373-1.02.778a.377.377,0,0,0-.06.387c.358.82.344.834-.629.8a2.627,2.627,0,0,0-.339.045,2.167,2.167,0,0,0,1.383.729c.7.1,1.27.715,2.015.848.166.03.348.2.476.165,1.227-.392,1.6.952,2.5,1.221.138.041.206.322.308.491a1.2,1.2,0,0,0-.995-.006c-.235.147-.605.342-.324.647.617.672.319.99-.529,1.182.794.437,1.445.794,2.327,1.278a3.709,3.709,0,0,1-.476-3.1.8.8,0,0,1,1.033.494c-.768.033-.775.3-.46.941s.99,1.262.452,2.11c-.038.058.036.235.109.307.553.546.533.819-.32.951-.43.067-.523.654-.516.99.005.307.481.172.74.146.438-.045.9-.122,1.188.265.334.442-.3.666-.342,1.069.752.242,1.6-.073,2.314.4-.149.212-.352.049-.491.121-.2.1-.757-.144-.534.342.123.266-.261.976.6.848.676-.1,1.3.34,1.941.538a4.755,4.755,0,0,0,2.151.438c-.129.455-.438.4-.712.415a1.6,1.6,0,0,0-1.226,1.42.385.385,0,0,0,.45.31c.29-.014.665.1.769-.343.062-.264,0-.633.417-.629s.445.366.557.658.129.281,1.279.8c-.442.363-.943.168-1.388.244-.323.054-.79-.028-.5.564.059.122.049.237-.07.29-1.26.554-.177.719.178,1.013-.058.313-.361.195-.534.3-.2.119-.446,1.284-.255,1.407.317.2.518.018.519-.294,0-.637.486-.862.908-1.139a.687.687,0,0,1,.872.084c.177.147.3.378-.024.423-1.108.156-.276.509-.069.731a.952.952,0,0,0,1.075.337c.123-.045.279-.17.359.034a.261.261,0,0,1-.241.367c-.456.062-.785.475-1.281.431a.306.306,0,0,0-.344.309c0,.242.21.2.377.226a2.99,2.99,0,0,0,1.908-.084.7.7,0,0,1,1.044.546c.079.448.4.672.6,1l0-.005a4.362,4.362,0,0,1-1.422-.519c-.155-.059-.34-.138-.443.064-.073.146.048.264.144.368a6.844,6.844,0,0,0,1.25,1.136,6.862,6.862,0,0,1,.714.621c-.427.139-.653-.113-.928-.129l-.016.016c.188.526.077.848-.706.687.436.7,1.1.739,1.567,1.048-.043.087-.055.163-.093.178-.254.1-.735-.207-.744.3-.006.378.437.417.729.46.427.062.853-.088.864.665,0,.279,1.007.974.724,1.347A41.211,41.211,0,0,1,37.908,76.278M32.091,50.346c.045-.059.137-.161.128-.171-.123-.134-.163,0-.221.079-.03.092,0,.123.093.092m20.549.465c.171.274.364.514.737.382a.226.226,0,0,0,.065-.209c-.2-.358-.506-.268-.809-.165-.171-.521-.53-.7-1.251-.7a3.649,3.649,0,0,0,1.257.687M40.8,45.156l.005,0c.371.508.74,1.015,1.128,1.545a.651.651,0,0,0-.217-1.108c-.29-.17-.609-.29-.916-.433m6.178,7.2,0-.005A1.935,1.935,0,0,0,48.255,53.4c.284-1,.242-1.065-.768-1.084a5.031,5.031,0,0,0-.513.041M61.058,65.2c-.028-.046-.057-.093-.085-.138l-.078.079.144.079c-.344.781-.912-.318-1.36.258.549.319.407.59-.078.932-.271.192.031.457.254.583a1.669,1.669,0,0,0,1,.132c.347-.033.966.033.9-.371-.079-.53.477-1.487-.7-1.554M43.72,36.918l-.22-.21-.045.057.256.162c.09.294.347.447.553.641-.025.03-.053.059-.079.089l-1.412-.246c.4.417-.4,1.19.5,1.208.632.013,1.134-.06,1.455.611a.434.434,0,0,0,.6.127c.053-.279-.362-.4-.162-.791a5.691,5.691,0,0,1,1.453.771c.227.141.261.5-.08.461a4.032,4.032,0,0,0-1.947.446c-.182.067-.494-.166-.568.166-.064.291.191.472.41.594.67.372,1.354.716,2.031,1.072l.015-.014c.062-.19.2-.393.171-.567-.149-.839.464-1.27.9-1.8.155-.187.619-.1.524-.445a.8.8,0,0,0-.8-.549.833.833,0,0,1-.835-.6,1.645,1.645,0,0,0-1.2-.882c-.491-.143-1.006-.2-1.511-.3m-5.161-1.567c-.378.149-.617-.239-.952-.249-.237-.006-.52-.033-.59.22-.1.378.256.256.442.317.244.079.49.152.729.245,1.05.41,1.073.4,1.335-.663a.708.708,0,0,1,.269-.417.257.257,0,0,0,.035-.431c-.24-.275-1.5-.592-1.686-.373-.511.59.161.814.4,1.172.026.04.011.108.016.18m4.957-1.337c.274-.019.3-.217.274-.475a5.177,5.177,0,0,0-1.83-2.132c-.438-.112-.651.288-.979.423-.153.064-.116.232-.058.373a8.868,8.868,0,0,0,2.593,1.81M57.647,66.654c-.06.033-.185.064-.192.113-.069.461-.41.937-.092,1.384a2.582,2.582,0,0,0,1.572,1.073c.052.011.19-.112.182-.131-.158-.4.4-.793.013-1.195-.445-.464-.77-1.065-1.482-1.245M40.994,60.141c.276-.142,1.025.074.758-.677a10.721,10.721,0,0,0-1-1.767.362.362,0,0,0-.425-.2.4.4,0,0,0-.323.442c.068.616.245,1.211.26,1.84.008.315.33.427.727.366m16.58,2.2c.607.553.368,1.5,1.35,1.48.8-.018.9-.873,1.518-1.144-.958.318-1.737-.457-2.868-.335M36.433,37.11c-.029.345.045.651.446.67.3.015.309-.275.34-.492a.577.577,0,0,0-.453-.7c-.43-.08-.236.337-.333.525M53.616,52.885c-.255-.634-1.064-1-1.445-.784a.257.257,0,0,0-.109.2c.013.172.156.232.3.226a2.809,2.809,0,0,1,1.252.361M59.942,59.1c.09-.917-.217-1.343-.881-1.334-.151,0-.3.023-.352.173-.062.177.085.271.217.3.476.085.722.461,1.015.866M21.428,44.075a2.563,2.563,0,0,1-.464-.259c-.352-.317-.572.025-.827.153a.221.221,0,0,0-.089.357.648.648,0,0,0,.8.048c.176-.087.35-.178.584-.3M59.169,59.8a.887.887,0,0,0-.793-.315c-.146-.005-.31.069-.225.251a.756.756,0,0,0,.691.4.3.3,0,0,0,.327-.339M48.312,45.95c-.376-.436-.376-.436-.776-.334a.586.586,0,0,0,.776.334m-10.719-9.29c.266.285.455.467.887.4a.623.623,0,0,0-.887-.4m1.469,23.911-.067-.048-.041.122c.026,0,.06.01.079,0s.02-.048.029-.073" transform="translate(4.661 5.357)" fill="#282725"/></g></g></svg>