<svg xmlns="http://www.w3.org/2000/svg" xmlns:xlink="http://www.w3.org/1999/xlink" width="212.4" height="65" viewBox="0 0 212.4 65"><defs><clipPath id="a"><path d="M32.525,0a32.5,32.5,0,1,0,32.5,32.5A32.5,32.5,0,0,0,32.525,0Z" transform="translate(-0.026)" fill="none"/></clipPath></defs><g transform="translate(-142 -40)"><path d="M83.053,19.952V5.791h2.61a3.007,3.007,0,0,1,2.133.636,2.971,2.971,0,0,1,.721,2.1q.038,1.132.037,2.044t-.037,1.886a2.971,2.971,0,0,1-.721,2.1,3.022,3.022,0,0,1-2.142.636h-.982v4.767a.809.809,0,1,1-1.619,0m1.619-6.226h.982a1.239,1.239,0,0,0,.907-.29,1.316,1.316,0,0,0,.319-.9q.028-.673.037-1.366t0-1.375q-.008-.683-.037-1.357a1.328,1.328,0,0,0-.314-.9,1.223,1.223,0,0,0-.9-.29h-.992Z" transform="translate(136.073 39.587)" fill="#f9fafb"/><path d="M90.489,19.952V5.791H93.1a3.007,3.007,0,0,1,2.133.636,2.971,2.971,0,0,1,.721,2.1q.028.748.037,1.4t0,1.277q-.01.623-.037,1.278a3.647,3.647,0,0,1-.342,1.581,1.857,1.857,0,0,1-.959.87l1.3,4.808a.81.81,0,0,1-.782,1.021h-.06a.81.81,0,0,1-.786-.614L93.09,15.2h-.982v4.748a.809.809,0,1,1-1.619,0m1.619-6.208h.982a1.239,1.239,0,0,0,.907-.29,1.316,1.316,0,0,0,.319-.9q.028-.664.037-1.361t0-1.389q-.01-.692-.037-1.366a1.326,1.326,0,0,0-.314-.9,1.223,1.223,0,0,0-.9-.291h-.992Z" transform="translate(135.542 39.587)" fill="#f9fafb"/><path d="M100.9,20.9a2.992,2.992,0,0,1-2.147-.645,2.964,2.964,0,0,1-.688-2.124q-.02-1.236-.033-2.447t-.014-2.423q0-1.213.014-2.419t.033-2.452A2.945,2.945,0,0,1,98.75,6.27a3.922,3.922,0,0,1,4.294,0,3,3,0,0,1,.688,2.119q.028,1.254.042,2.466t.014,2.419q0,1.206-.014,2.414t-.042,2.442a3.024,3.024,0,0,1-.688,2.124,2.972,2.972,0,0,1-2.147.645m0-1.375a1.3,1.3,0,0,0,.907-.262,1.159,1.159,0,0,0,.291-.861q.046-1.272.06-2.569t.014-2.6q0-1.3-.019-2.587t-.056-2.531a1.151,1.151,0,0,0-.3-.856A1.288,1.288,0,0,0,100.9,7a1.272,1.272,0,0,0-.893.267,1.18,1.18,0,0,0-.3.856q-.038,1.244-.06,2.531t-.019,2.587q0,1.3.028,2.6T99.7,18.4a1.176,1.176,0,0,0,.3.861,1.29,1.29,0,0,0,.893.262" transform="translate(135.005 39.598)" fill="#f9fafb"/><path d="M108.837,20.9a3.9,3.9,0,0,1-1.623-.285,1.8,1.8,0,0,1-.9-.9,4.026,4.026,0,0,1-.3-1.6q-.038-1.169-.046-2.386t-.009-2.442q0-1.224.009-2.427t.046-2.362a4.149,4.149,0,0,1,.314-1.661,1.831,1.831,0,0,1,.9-.917,3.8,3.8,0,0,1,1.6-.286,2.835,2.835,0,0,1,2.063.646,3.173,3.173,0,0,1,.725,2.142q.028.646.028,1.324c0,.178,0,.356,0,.531A.819.819,0,0,1,110,10.242c0-.208,0-.42,0-.635q0-.768-.028-1.46a1.256,1.256,0,0,0-.313-.875A1.161,1.161,0,0,0,108.827,7a1.218,1.218,0,0,0-.875.277,1.261,1.261,0,0,0-.314.875q-.038,1.263-.056,2.54t-.019,2.569q0,1.291.019,2.573t.056,2.544a1.194,1.194,0,0,0,.3.871,1.251,1.251,0,0,0,.9.28,1.325,1.325,0,0,0,.912-.28,1.164,1.164,0,0,0,.332-.871c.013-.286.02-.586.023-.9s0-.625,0-.94-.01-.617-.023-.9h-.467a.72.72,0,1,1,0-1.44h2.067q.028.748.019,1.731t-.037,2.189a3.106,3.106,0,0,1-.711,2.134,2.9,2.9,0,0,1-2.115.655" transform="translate(134.438 39.598)" fill="#f9fafb"/><path d="M113.854,19.952V5.791h2.61a3.007,3.007,0,0,1,2.133.636,2.971,2.971,0,0,1,.721,2.1q.028.748.037,1.4t0,1.277q-.01.623-.037,1.278a3.647,3.647,0,0,1-.342,1.581,1.857,1.857,0,0,1-.959.87l1.3,4.808a.81.81,0,0,1-.782,1.021h-.06a.81.81,0,0,1-.786-.614L116.455,15.2h-.982v4.748a.809.809,0,1,1-1.619,0m1.619-6.208h.982a1.239,1.239,0,0,0,.907-.29,1.316,1.316,0,0,0,.319-.9q.028-.664.037-1.361t0-1.389q-.01-.692-.037-1.366a1.326,1.326,0,0,0-.314-.9,1.223,1.223,0,0,0-.9-.291h-.992Z" transform="translate(133.875 39.587)" fill="#f9fafb"/><path d="M121.009,19.849,122.454,7.2a1.595,1.595,0,0,1,3.168,0l1.454,12.644a.82.82,0,0,1-.814.914h-.006a.82.82,0,0,1-.816-.746l-.3-3.3h-2.2l-.306,3.3a.819.819,0,1,1-1.63-.169m2.094-4.589h1.88l-.308-3.284L124.3,7.25h-.525l-.355,4.735Z" transform="translate(133.365 39.587)" fill="#f9fafb"/><path d="M129.047,19.947V7.321a1.531,1.531,0,0,1,1.531-1.53h0a1.53,1.53,0,0,1,1.511,1.283l.773,4.723.5,7.458h.4l.477-7.458.8-4.73a1.531,1.531,0,0,1,3.04.254V19.947a.814.814,0,0,1-.814.814h-.008a.815.815,0,0,1-.814-.814V16.336l.3-9.086H136.3l-.945,9.18-.7,3.767a.633.633,0,0,1-.623.518h-.947a.633.633,0,0,1-.623-.519l-.691-3.766-.945-9.18h-.43l.28,9.086v3.611a.814.814,0,1,1-1.628,0" transform="translate(132.791 39.587)" fill="#f9fafb"/><path d="M140.263,19.849,141.708,7.2a1.595,1.595,0,0,1,3.169,0l1.454,12.644a.82.82,0,0,1-.814.914h-.007a.82.82,0,0,1-.816-.746l-.3-3.3h-2.2l-.3,3.3a.819.819,0,1,1-1.63-.169m2.094-4.589h1.88l-.309-3.284-.373-4.726h-.525l-.355,4.735Z" transform="translate(131.99 39.587)" fill="#f9fafb"/><path d="M152.543,20.762V5.791h2.741a2.986,2.986,0,0,1,2.156.659,3.038,3.038,0,0,1,.7,2.167q.028,1.665.037,3.157t0,2.989q-.008,1.5-.037,3.154a3.068,3.068,0,0,1-.7,2.185,3,3,0,0,1-2.166.659Zm1.619-1.46h1.113a1.258,1.258,0,0,0,.921-.294,1.273,1.273,0,0,0,.3-.913q.028-1.206.042-2.414t.014-2.414q0-1.206-.014-2.409T156.5,8.439a1.24,1.24,0,0,0-.3-.9,1.256,1.256,0,0,0-.912-.29h-1.123Z" transform="translate(131.114 39.587)" fill="#f9fafb"/><path d="M160.482,20.761V5.79h4.052a.73.73,0,0,1,0,1.46H162.1v5.221h2.245a.73.73,0,1,1,0,1.46H162.1V19.3h2.433a.73.73,0,0,1,0,1.46Z" transform="translate(130.547 39.587)" fill="#f9fafb"/><path d="M86.081,42.064a3.333,3.333,0,0,1-2.424-.725,3.419,3.419,0,0,1-.758-2.39q-.018-1.047-.028-2.2t-.009-2.339q0-1.188.009-2.344t.028-2.2a3.3,3.3,0,0,1,.767-2.283,3.151,3.151,0,0,1,2.405-.805,3.361,3.361,0,0,1,2.395.716,3.325,3.325,0,0,1,.776,2.381c.007.225.011.488.015.787s0,.6-.006.893v.009a.79.79,0,0,1-.789.773h-.444a.788.788,0,0,1-.789-.8c0-.035,0-.072,0-.109.006-.327.008-.658,0-.992s-.007-.641-.014-.921a1.074,1.074,0,0,0-.29-.81,1.245,1.245,0,0,0-.861-.257,1.232,1.232,0,0,0-.847.257,1.09,1.09,0,0,0-.3.81q-.029,1.2-.043,2.427t-.014,2.479q0,1.249.014,2.479t.043,2.41a1.121,1.121,0,0,0,.3.818,1.212,1.212,0,0,0,.856.267,1.324,1.324,0,0,0,.912-.267,1.075,1.075,0,0,0,.3-.818q.008-.421.014-.941c0-.346,0-.691,0-1.034l0-.142a.788.788,0,0,1,.789-.8h.452a.79.79,0,0,1,.79.779c0,.167,0,.336.006.508q.006.659-.023,1.277a3.322,3.322,0,0,1-.79,2.39,3.444,3.444,0,0,1-2.447.725" transform="translate(136.086 38.089)" fill="#f9fafb"/><path d="M94.562,42.054a3.428,3.428,0,0,1-2.423-.715,3.3,3.3,0,0,1-.787-2.382q-.018-1.123-.028-2.264t-.009-2.287q0-1.146.009-2.284t.028-2.269a3.28,3.28,0,0,1,.787-2.372,3.423,3.423,0,0,1,2.423-.716,3.385,3.385,0,0,1,2.424.716,3.367,3.367,0,0,1,.776,2.372q.028,1.141.042,2.283t.014,2.279q0,1.137-.014,2.278t-.042,2.264a3.386,3.386,0,0,1-.776,2.382,3.389,3.389,0,0,1-2.424.715m0-1.674a1.285,1.285,0,0,0,.889-.257,1.075,1.075,0,0,0,.291-.81q.036-1.159.051-2.409t.014-2.522q0-1.272-.019-2.507T95.741,29.5a1.043,1.043,0,0,0-.3-.805,1.311,1.311,0,0,0-.879-.253,1.3,1.3,0,0,0-.87.253,1.066,1.066,0,0,0-.308.805q-.038,1.142-.057,2.376t-.019,2.507q0,1.273.019,2.522t.057,2.409a1.08,1.08,0,0,0,.308.81,1.276,1.276,0,0,0,.87.257" transform="translate(135.483 38.09)" fill="#f9fafb"/><path d="M100.061,40.9V28.783a1.846,1.846,0,0,1,3.662-.329l.792,4.378.421,7.251h.431l.393-7.251.808-4.385a1.843,1.843,0,0,1,3.655.333V40.9a1.01,1.01,0,1,1-2.021,0V37.426l.384-8.692h-.468l-.889,8.814-.8,3.731a.761.761,0,0,1-.744.6h-1.1a.761.761,0,0,1-.744-.6l-.781-3.728-.889-8.814h-.459l.365,8.692V40.9a1.01,1.01,0,0,1-2.021,0" transform="translate(134.859 38.078)" fill="#f9fafb"/><path d="M112.876,40.9V26.937h4.444a.9.9,0,0,1,0,1.8H114.9v4.7h2.236a.9.9,0,1,1,0,1.8H114.9v4.885h2.424a.9.9,0,0,1,0,1.8h-3.434a1.01,1.01,0,0,1-1.01-1.01" transform="translate(133.945 38.078)" fill="#f9fafb"/><path d="M120.02,40.9V26.937h2.947a3.476,3.476,0,0,1,2.428.707,3.236,3.236,0,0,1,.81,2.325q.028.683.037,1.249t0,1.113c-.007.366-.019.75-.037,1.156a4.22,4.22,0,0,1-.365,1.717,2.068,2.068,0,0,1-1.021.978l1.269,4.438a1.01,1.01,0,0,1-.971,1.288h-.032a1.011,1.011,0,0,1-.978-.755L122.9,36.528h-.861V40.9a1.01,1.01,0,0,1-2.021,0m2.021-6.166h.917a1.256,1.256,0,0,0,.9-.285,1.231,1.231,0,0,0,.322-.856q.028-.6.038-1.23t0-1.263q-.01-.632-.038-1.23a1.212,1.212,0,0,0-.322-.852,1.254,1.254,0,0,0-.894-.281h-.926Z" transform="translate(133.435 38.078)" fill="#f9fafb"/><path d="M131.43,42.064a3.333,3.333,0,0,1-2.424-.725,3.419,3.419,0,0,1-.758-2.39q-.018-1.047-.028-2.2t-.009-2.339q0-1.188.009-2.344t.028-2.2a3.292,3.292,0,0,1,.768-2.283,3.147,3.147,0,0,1,2.4-.805,3.36,3.36,0,0,1,2.395.716,3.321,3.321,0,0,1,.776,2.381c.007.225.011.488.015.787s0,.6,0,.893v.009a.789.789,0,0,1-.789.773h-.443a.789.789,0,0,1-.79-.8c0-.036,0-.072,0-.109.007-.327.008-.658,0-.992s-.007-.641-.014-.921a1.074,1.074,0,0,0-.29-.81,1.245,1.245,0,0,0-.861-.257,1.232,1.232,0,0,0-.847.257,1.09,1.09,0,0,0-.3.81q-.028,1.2-.043,2.427t-.014,2.479q0,1.249.014,2.479t.043,2.41a1.121,1.121,0,0,0,.3.818,1.212,1.212,0,0,0,.856.267,1.324,1.324,0,0,0,.912-.267,1.075,1.075,0,0,0,.3-.818c.007-.28.01-.594.014-.941s0-.691,0-1.034l0-.141a.79.79,0,0,1,.79-.8h.451a.79.79,0,0,1,.79.779c0,.167,0,.336.006.508q.006.659-.023,1.277a3.318,3.318,0,0,1-.79,2.39,3.444,3.444,0,0,1-2.447.725" transform="translate(132.85 38.089)" fill="#f9fafb"/><path d="M136.785,40.9V27.947a1.01,1.01,0,0,1,2.021,0V40.9a1.01,1.01,0,0,1-2.021,0" transform="translate(132.238 38.078)" fill="#f9fafb"/><path d="M140.37,40.77l1.49-12.161a1.9,1.9,0,0,1,3.778,0l1.49,12.161a1.014,1.014,0,1,1-2.016.219l-.268-2.815h-2.189l-.261,2.813a1.015,1.015,0,0,1-1.01.92h-.007a1.014,1.014,0,0,1-1.007-1.138m2.48-4.4h1.8l-.309-3.285-.328-4.351h-.524l-.318,4.36Z" transform="translate(131.983 38.078)" fill="#f9fafb"/><path d="M149.057,41.908V27.835a.9.9,0,0,1,.9-.9h.225a.9.9,0,0,1,.9.9V40.111h2.442a.9.9,0,0,1,0,1.8Z" transform="translate(131.363 38.078)" fill="#f9fafb"/><path d="M156.019,40.9V27.947a1.01,1.01,0,1,1,2.021,0V40.9a1.01,1.01,0,1,1-2.021,0" transform="translate(130.866 38.078)" fill="#f9fafb"/><path d="M159.475,41.908V40.233l3.892-11.5h-2.778a.9.9,0,0,1,0-1.8h4.94v1.712L161.5,40.111h2.817a.9.9,0,0,1,0,1.8Z" transform="translate(130.619 38.078)" fill="#f9fafb"/><path d="M166.546,40.77l1.49-12.161a1.9,1.9,0,0,1,3.779,0L173.3,40.77a1.014,1.014,0,1,1-2.016.219l-.268-2.815h-2.19l-.26,2.813a1.015,1.015,0,0,1-1.01.92h-.007a1.014,1.014,0,0,1-1.007-1.138m2.48-4.4h1.8l-.309-3.285-.328-4.351h-.524l-.318,4.36Z" transform="translate(130.115 38.078)" fill="#f9fafb"/><path d="M178.17,42.064a3.333,3.333,0,0,1-2.424-.725,3.419,3.419,0,0,1-.758-2.39q-.018-1.047-.028-2.2t-.009-2.339q0-1.188.009-2.344t.028-2.2a3.3,3.3,0,0,1,.767-2.283,3.151,3.151,0,0,1,2.405-.805,3.36,3.36,0,0,1,2.395.716,3.325,3.325,0,0,1,.776,2.381c.006.225.011.488.014.787s0,.6,0,.893v.009a.789.789,0,0,1-.789.773h-.443a.789.789,0,0,1-.79-.8c0-.036,0-.072,0-.109.007-.327.008-.658,0-.992s-.007-.641-.014-.921a1.078,1.078,0,0,0-.29-.81,1.245,1.245,0,0,0-.861-.257,1.232,1.232,0,0,0-.847.257,1.09,1.09,0,0,0-.3.81q-.029,1.2-.043,2.427t-.014,2.479q0,1.249.014,2.479t.043,2.41a1.121,1.121,0,0,0,.3.818,1.212,1.212,0,0,0,.856.267,1.324,1.324,0,0,0,.912-.267,1.075,1.075,0,0,0,.3-.818q.008-.421.014-.941c0-.346,0-.691,0-1.034l0-.142a.789.789,0,0,1,.79-.8h.451a.79.79,0,0,1,.79.779c0,.167,0,.336.006.508q.006.659-.023,1.277a3.322,3.322,0,0,1-.79,2.39,3.445,3.445,0,0,1-2.447.725" transform="translate(129.515 38.089)" fill="#f9fafb"/><path d="M183.525,40.9V27.947a1.01,1.01,0,1,1,2.021,0V40.9a1.01,1.01,0,1,1-2.021,0" transform="translate(128.903 38.078)" fill="#f9fafb"/><path d="M190.7,41.827a3.426,3.426,0,0,1-2.424-.716,3.294,3.294,0,0,1-.787-2.381q-.018-1.123-.028-2.264t-.009-2.287q0-1.146.009-2.284t.028-2.269a3.284,3.284,0,0,1,.787-2.373,3.43,3.43,0,0,1,2.424-.715,3.39,3.39,0,0,1,2.424.715,3.367,3.367,0,0,1,.775,2.373q.029,1.141.044,2.283t.014,2.278q0,1.138-.014,2.279T193.9,38.73a3.377,3.377,0,0,1-.775,2.381,3.386,3.386,0,0,1-2.424.716m0-1.674a1.288,1.288,0,0,0,.889-.257,1.08,1.08,0,0,0,.291-.81q.036-1.16.05-2.409t.014-2.522c0-.848,0-1.684-.019-2.507s-.028-1.616-.046-2.376a1.04,1.04,0,0,0-.3-.805,1.309,1.309,0,0,0-.878-.253,1.294,1.294,0,0,0-.87.253,1.063,1.063,0,0,0-.308.805q-.039,1.141-.058,2.376t-.019,2.507q0,1.273.019,2.522t.058,2.409a1.078,1.078,0,0,0,.308.81,1.275,1.275,0,0,0,.87.257M190.68,25.1l.842-1.276a.544.544,0,0,1,.454-.245h.036a.545.545,0,0,1,.449.854l-.877,1.276a.545.545,0,0,1-.9-.609" transform="translate(128.622 38.317)" fill="#f9fafb"/><path d="M196.2,40.944V28.479a1.541,1.541,0,0,1,1.541-1.542h.29a1.542,1.542,0,0,1,1.51,1.232l.721,3.521,1.151,8.421h.449l-.365-7.318-.124-4.868a.964.964,0,0,1,.964-.989h.011a.964.964,0,0,1,.965.964V40.367a1.541,1.541,0,0,1-1.542,1.541h-.424a1.542,1.542,0,0,1-1.511-1.238l-.781-3.9-.917-8.047h-.487L198,36.237l.131,4.679a.964.964,0,1,1-1.928.027" transform="translate(127.998 38.078)" fill="#f9fafb"/><path d="M82.983,63.055V48.084h3.1a2.756,2.756,0,0,1,3.247,3.162q.028,1.543.037,2.934t0,2.774q-.01,1.385-.037,2.92a2.77,2.77,0,0,1-3.257,3.182ZM85,61.258H86.07a1.287,1.287,0,0,0,.917-.285,1.173,1.173,0,0,0,.309-.865q.028-1.142.037-2.274t.009-2.269q0-1.137-.009-2.273T87.3,51.012a1.144,1.144,0,0,0-.309-.852,1.288,1.288,0,0,0-.907-.28H85Z" transform="translate(136.078 36.569)" fill="#f9fafb"/><path d="M91.6,63.054V48.083h4.444a.9.9,0,1,1,0,1.8H93.618v4.7h2.236a.9.9,0,1,1,0,1.8H93.618v4.884h2.424a.9.9,0,0,1,0,1.8Z" transform="translate(135.463 36.569)" fill="#f9fafb"/><path d="M103.043,63.054V48.981a.9.9,0,0,1,.9-.9h.225a.9.9,0,0,1,.9.9V61.257h2.442a.9.9,0,0,1,0,1.8Z" transform="translate(134.646 36.569)" fill="#f9fafb"/><path d="M109.539,61.917l1.49-12.161a1.9,1.9,0,0,1,3.778,0l1.49,12.161a1.014,1.014,0,1,1-2.016.219l-.268-2.815h-2.189l-.261,2.813a1.015,1.015,0,0,1-1.01.92h-.007a1.014,1.014,0,0,1-1.007-1.138m2.48-4.4h1.8l-.309-3.285-.328-4.351h-.524l-.318,4.36Z" transform="translate(134.183 36.569)" fill="#f9fafb"/><path d="M118.226,62.09V49.783a1.7,1.7,0,0,1,3.366-.341l.695,3.394,1.151,8.421h.449l-.365-7.318-.124-4.868a.964.964,0,0,1,.964-.989h.011a.964.964,0,0,1,.965.964V61.353a1.7,1.7,0,0,1-1.7,1.7H123.5a1.7,1.7,0,0,1-1.667-1.366l-.756-3.77-.917-8.047h-.487l.346,7.513.131,4.679a.964.964,0,1,1-1.928.027" transform="translate(133.563 36.569)" fill="#f9fafb"/><path d="M127.292,61.917l1.49-12.161a1.9,1.9,0,0,1,3.778,0l1.49,12.161a1.014,1.014,0,1,1-2.016.219l-.268-2.815h-2.19l-.26,2.812a1.015,1.015,0,0,1-1.01.921H128.3a1.014,1.014,0,0,1-1.007-1.138m2.48-4.4h1.8l-.309-3.285-.328-4.351h-.524l-.318,4.36Z" transform="translate(132.916 36.569)" fill="#f9fafb"/><path d="M140.281,62.043V49.926a1.844,1.844,0,0,1,1.843-1.843h0a1.843,1.843,0,0,1,1.814,1.516l.792,4.379.422,7.251h.43l.393-7.251.808-4.386a1.843,1.843,0,0,1,3.655.334V62.043a1.01,1.01,0,1,1-2.021,0V58.572l.384-8.692h-.468l-.889,8.814-.791,3.7a.8.8,0,0,1-.78.631H144.84a.8.8,0,0,1-.78-.634l-.775-3.7L142.4,49.88h-.458l.364,8.692v3.471a1.01,1.01,0,1,1-2.021,0" transform="translate(131.989 36.569)" fill="#f9fafb"/><path d="M152.622,61.989l1.5-12.234a1.9,1.9,0,0,1,3.779,0l1.5,12.234a.95.95,0,0,1-.943,1.065h-.131a.95.95,0,0,1-.945-.86l-.274-2.873h-2.189l-.267,2.871a.95.95,0,0,1-.945.862h-.139a.95.95,0,0,1-.943-1.065m2.49-4.474h1.8l-.309-3.285-.328-4.351h-.524l-.318,4.36Z" transform="translate(131.109 36.569)" fill="#f9fafb"/><path d="M164.284,63.2a4.5,4.5,0,0,1-1.834-.313,1.977,1.977,0,0,1-1.01-1,4.578,4.578,0,0,1-.346-1.791q-.038-1.039-.046-2.185t-.009-2.32q0-1.174.009-2.307t.046-2.153a4.934,4.934,0,0,1,.365-1.88,2.011,2.011,0,0,1,1.015-1.024,4.383,4.383,0,0,1,1.8-.314,3.267,3.267,0,0,1,2.339.716,3.447,3.447,0,0,1,.814,2.381q.028.581.028,1.226c0,.081,0,.16,0,.239a1.007,1.007,0,1,1-2.013-.024c0-.126,0-.255,0-.387q0-.772-.028-1.408a1.138,1.138,0,0,0-.308-.805,1.182,1.182,0,0,0-.833-.262,1.214,1.214,0,0,0-.847.262,1.124,1.124,0,0,0-.313.805q-.047,1.169-.066,2.4t-.019,2.489q0,1.254.019,2.489t.066,2.414a1.109,1.109,0,0,0,.3.809,1.226,1.226,0,0,0,.865.267,1.353,1.353,0,0,0,.9-.267,1.081,1.081,0,0,0,.342-.809q.01-.365.014-.8t0-.865c0-.287-.007-.545-.014-.776h-.253a.889.889,0,0,1,0-1.777h2.218q.038.786.033,1.777t-.042,2.087a3.42,3.42,0,0,1-.81,2.381,3.329,3.329,0,0,1-2.39.725" transform="translate(130.508 36.581)" fill="#f9fafb"/><path d="M169.115,61.917l1.49-12.161a1.9,1.9,0,0,1,3.779,0l1.49,12.161a1.014,1.014,0,1,1-2.016.219l-.268-2.815H171.4l-.26,2.813a1.015,1.015,0,0,1-1.01.92h-.007a1.014,1.014,0,0,1-1.007-1.138m2.48-4.4h1.8l-.309-3.285-.328-4.351h-.524l-.318,4.36Z" transform="translate(129.932 36.569)" fill="#f9fafb"/><path d="M177.8,63.054V48.981a.9.9,0,0,1,.9-.9h.225a.9.9,0,0,1,.9.9V61.257h2.442a.9.9,0,0,1,0,1.8Z" transform="translate(129.311 36.569)" fill="#f9fafb"/><path d="M184.764,63.054V48.981a.9.9,0,0,1,.9-.9h.225a.9.9,0,0,1,.9.9V61.257h2.442a.9.9,0,0,1,0,1.8Z" transform="translate(128.814 36.569)" fill="#f9fafb"/><path d="M191.261,61.677l1.49-12.161a1.9,1.9,0,0,1,3.779,0l1.49,12.161A1.014,1.014,0,1,1,196,61.9l-.268-2.816h-2.19l-.26,2.813a1.015,1.015,0,0,1-1.01.92h-.007a1.014,1.014,0,0,1-1.007-1.138m2.48-4.4h1.8l-.309-3.284L194.9,49.64h-.525L194.06,54Zm.867-11.026.842-1.276a.545.545,0,0,1,.455-.245h.036a.545.545,0,0,1,.449.854l-.878,1.276a.545.545,0,0,1-.9-.609" transform="translate(128.351 36.808)" fill="#f9fafb"/><path d="M199.948,62.09V49.783a1.7,1.7,0,0,1,3.366-.341l.695,3.394,1.151,8.421h.449l-.365-7.318-.124-4.862a.97.97,0,1,1,1.94-.024v12.3a1.7,1.7,0,0,1-1.7,1.7h-.135a1.7,1.7,0,0,1-1.667-1.366l-.756-3.77-.917-8.047H201.4l.346,7.513.131,4.679a.964.964,0,1,1-1.928.027" transform="translate(127.731 36.569)" fill="#f9fafb"/><path d="M209.479,62.043V49.093a1.01,1.01,0,1,1,2.021,0v12.95a1.01,1.01,0,1,1-2.021,0" transform="translate(127.051 36.569)" fill="#f9fafb"/><path d="M216.627,63.21a3.333,3.333,0,0,1-2.424-.725,3.419,3.419,0,0,1-.758-2.39q-.018-1.048-.028-2.2t-.009-2.339q0-1.188.009-2.344t.028-2.2a3.3,3.3,0,0,1,.767-2.284,3.151,3.151,0,0,1,2.405-.805,3.36,3.36,0,0,1,2.395.716,3.325,3.325,0,0,1,.776,2.381c.006.225.011.488.015.787s0,.6,0,.893v.009a.789.789,0,0,1-.789.773h-.443a.789.789,0,0,1-.79-.8c0-.036,0-.072,0-.109.006-.327.008-.658,0-.992s-.007-.641-.014-.921a1.078,1.078,0,0,0-.29-.81,1.245,1.245,0,0,0-.861-.257,1.232,1.232,0,0,0-.847.257,1.089,1.089,0,0,0-.3.81q-.029,1.2-.043,2.427t-.014,2.479q0,1.249.014,2.479t.043,2.41a1.121,1.121,0,0,0,.3.818,1.212,1.212,0,0,0,.856.267,1.324,1.324,0,0,0,.912-.267,1.075,1.075,0,0,0,.3-.818q.008-.421.014-.941c0-.346,0-.691,0-1.034l0-.142a.789.789,0,0,1,.79-.8h.451a.79.79,0,0,1,.79.779c0,.167,0,.336.006.508q.006.659-.023,1.277a3.322,3.322,0,0,1-.79,2.39,3.445,3.445,0,0,1-2.447.725" transform="translate(126.77 36.58)" fill="#f9fafb"/><path d="M221.437,61.917l1.49-12.161a1.9,1.9,0,0,1,3.779,0l1.49,12.161a1.014,1.014,0,1,1-2.016.219l-.268-2.815h-2.19l-.26,2.813a1.015,1.015,0,0,1-1.01.92h-.007a1.014,1.014,0,0,1-1.007-1.138m2.48-4.4h1.8l-.309-3.285-.328-4.351h-.524l-.318,4.36Z" transform="translate(126.198 36.569)" fill="#f9fafb"/><line x1="0.466" transform="translate(305.944 54.354)" fill="#937651"/><path d="M65.026,32.5A32.5,32.5,0,1,0,32.526,65a32.5,32.5,0,0,0,32.5-32.5" transform="translate(141.998 40)" fill="#cdc0b3"/><rect width="212.4" height="65" transform="translate(142 40)" fill="none"/><g transform="translate(142.024 40)"><g clip-path="url(#a)"><path d="M.048,33.966a11.532,11.532,0,0,1,1.826,1.008,18.323,18.323,0,0,1,1.672,1.244c.267.223.53.45.785.687s.506.477.75.724a16.439,16.439,0,0,1,1.381,1.562c.852,1.1,1.554,2.3,2.286,3.469s1.472,2.328,2.17,3.524a25.89,25.89,0,0,1,1.84,3.729c.137.319.256.645.375.971s.241.653.35.982.208.663.309,1c.05.167.1.333.145.5l.125.506c.08.338.163.675.238,1.014s.128.683.186,1.025.124.682.164,1.027l.123,1.033c.048.343.066.689.088,1.035s.043.691.059,1.036c.021.691.01,1.384-.011,2.074l-.1.007c-.15-.676-.263-1.352-.39-2.024-.15-.669-.256-1.342-.411-2.006l-.221-1c-.063-.333-.154-.661-.234-.991s-.161-.659-.241-.988-.177-.654-.267-.981l-.126-.492c-.043-.163-.1-.324-.141-.488-.094-.325-.188-.651-.275-.978s-.2-.646-.3-.97l-.15-.486c-.048-.163-.111-.319-.165-.48l-.336-.96c-.118-.318-.246-.631-.361-.952s-.241-.635-.367-.952l-.189-.475c-.061-.159-.125-.318-.2-.472-.139-.311-.274-.626-.418-.935s-.307-.61-.466-.912-.335-.6-.512-.888l-.269-.436c-.094-.143-.193-.281-.29-.423a27.809,27.809,0,0,0-2.646-3.113L4.454,38.239c-.234-.245-.463-.494-.7-.732s-.477-.479-.717-.72c-.485-.473-.976-.941-1.479-1.4S.533,34.484,0,34.051Z" transform="translate(-0.024 -2.424)" fill="#937651"/><path d="M.412,39.559a5.761,5.761,0,0,1,1.325.651c.2.137.4.279.6.423s.379.311.566.471a6.56,6.56,0,0,1,.535.505c.171.176.345.349.51.529s.313.375.463.568c.075.1.15.193.222.292l.109.148.1.155c.253.419.5.838.724,1.27s.43.871.671,1.287c.433.861.959,1.667,1.433,2.511L8.039,49l.184.315.16.326c.212.435.41.877.608,1.32s.364.9.538,1.348.329.911.479,1.371c.129.467.244.937.352,1.409s.219.941.3,1.417c.141.957.267,1.917.317,2.884l-.1.02c-.378-.9-.682-1.805-.969-2.713-.323-.9-.629-1.8-.906-2.7-.158-.446-.311-.893-.449-1.347l-.208-.68c-.064-.229-.146-.45-.227-.673-.33-.887-.6-1.8-.94-2.691a13.2,13.2,0,0,0-1.22-2.581c-.265-.4-.557-.774-.85-1.149-.072-.095-.151-.184-.231-.272l-.237-.267c-.156-.178-.31-.358-.461-.54s-.311-.352-.458-.535-.3-.363-.44-.548l-.458-.531L2.6,41.909c-.075-.091-.159-.172-.236-.26L1.9,41.128c-.164-.166-.326-.337-.488-.511-.339-.323-.671-.668-1.041-.97Z" transform="translate(-0.05 -2.823)" fill="#937651"/><path d="M.413,29.544a13.817,13.817,0,0,1,2.258,1.181l.537.345.522.366c.175.123.342.253.514.379s.339.258.5.394A25.025,25.025,0,0,1,6.656,33.9c.306.3.6.607.891.916s.56.641.83.969a43.39,43.39,0,0,1,2.856,4.206c.9,1.43,1.768,2.872,2.6,4.347.393.749.814,1.489,1.157,2.265.372.764.67,1.559.986,2.349a37.73,37.73,0,0,1,1.49,4.87l.14.621c.047.207.1.413.129.623.073.418.148.836.215,1.255l.1.628.079.631.144,1.263c.058.419.066.844.1,1.266s.05.845.071,1.268c.02.845.013,1.692-.007,2.535l-.1.006c-.15-.833-.268-1.664-.395-2.492-.157-.826-.275-1.653-.433-2.474l-.242-1.229-.116-.615-.138-.61c-.095-.406-.183-.813-.271-1.219s-.2-.808-.3-1.212c-.385-1.619-.84-3.218-1.345-4.8-.275-.785-.534-1.577-.839-2.352l-.217-.587c-.068-.2-.147-.391-.225-.584l-.47-1.163a26.226,26.226,0,0,0-2.387-4.41c-.242-.342-.482-.685-.738-1.015s-.525-.653-.793-.973l-.83-.938-.849-.917A46.868,46.868,0,0,0,.369,29.632Z" transform="translate(-0.05 -2.108)" fill="#937651"/><path d="M1.189,26.021A25.2,25.2,0,0,1,6.2,28.958a35.087,35.087,0,0,1,4.38,3.856,36.554,36.554,0,0,1,3.705,4.527c.139.2.287.4.419.6l.393.618.393.618c.133.2.247.421.371.631l.366.634c.121.213.248.421.357.64l.675,1.3c.216.437.408.887.613,1.33.1.223.205.443.3.669l.272.68.272.68c.09.227.184.451.26.683.16.461.323.92.478,1.383a44.209,44.209,0,0,1,1.427,5.663,49.325,49.325,0,0,1,.756,11.586A68.885,68.885,0,0,0,20.13,53.626a48.468,48.468,0,0,0-3.753-10.807,42.119,42.119,0,0,0-2.857-4.954,40.719,40.719,0,0,0-3.5-4.53,40.456,40.456,0,0,0-4.118-4,30.606,30.606,0,0,0-4.715-3.314" transform="translate(-0.109 -1.857)" fill="#937651"/><path d="M5.144,26.356c1.54-.53,3.047-1.11,4.523-1.751.185-.081.371-.158.554-.241l.549-.251c.37-.159.727-.343,1.093-.509s.72-.358,1.084-.528.718-.361,1.082-.534a30.908,30.908,0,0,0,4.213-2.386,22.329,22.329,0,0,0,3.614-3.222l.79-.917.2-.229c.065-.076.124-.158.188-.237l.375-.472c.124-.158.25-.315.377-.469s.24-.322.36-.482c.235-.325.483-.64.711-.969a41.429,41.429,0,0,0,2.467-4.11c.187-.353.351-.718.533-1.074l.268-.538c.086-.18.163-.365.244-.548l.483-1.1c.154-.37.291-.748.437-1.122s.3-.747.42-1.133.255-.764.388-1.147.239-.774.357-1.162.235-.778.36-1.167l.1.017q-.063.609-.14,1.219c-.058.4-.092.816-.186,1.216s-.163.8-.251,1.206-.2.8-.309,1.193S29.8,5.7,29.672,6.1l-.425,1.162c-.074.192-.137.39-.219.579l-.253.566c-.169.377-.335.756-.518,1.126a24.518,24.518,0,0,1-1.235,2.15l-.336.521-.168.26-.182.251-.732,1c-.252.327-.519.643-.78.961-.134.157-.26.32-.4.473s-.281.3-.423.451c-.551.613-1.17,1.16-1.767,1.721-1.236,1.084-2.511,2.1-3.806,3.1a42.814,42.814,0,0,1-4.008,2.85c-.357.205-.713.411-1.078.6s-.735.37-1.111.535c-.749.339-1.512.648-2.288.917a23.807,23.807,0,0,1-2.359.707,16.459,16.459,0,0,1-2.424.432Z" transform="translate(-0.391 -0.004)" fill="#937651"/><path d="M8.441,28.828q2.495-.8,4.878-1.817c.2-.085.4-.165.6-.255l.59-.267c.2-.085.394-.176.588-.271l.586-.275,1.161-.571c.384-.2.767-.395,1.156-.583a30.9,30.9,0,0,0,4.473-2.642,23.237,23.237,0,0,0,3.788-3.559l.823-1c.138-.164.258-.346.389-.517l.389-.518.194-.258c.065-.085.131-.17.19-.261l.366-.532.368-.53c.06-.089.125-.175.182-.266l.17-.275.676-1.1c.215-.371.414-.752.622-1.128l.308-.565.28-.58c.186-.386.384-.767.566-1.156s.34-.788.516-1.18c.085-.2.18-.391.256-.592l.23-.6.463-1.206.406-1.23.206-.615c.07-.205.119-.416.179-.624.115-.417.235-.834.357-1.251l.091-.314.075-.317.151-.635Q34.866.7,35.034.06l.1.014c-.028.436-.062.874-.1,1.312l-.06.657-.033.329-.052.325q-.1.652-.216,1.3c-.04.216-.069.436-.118.651l-.155.643-.316,1.288c-.13.422-.268.842-.4,1.264l-.2.632c-.071.21-.161.412-.241.619-.162.412-.332.822-.5,1.232-.085.205-.191.4-.286.6l-.293.6-.3.594c-.108.194-.224.384-.335.575-.228.381-.446.767-.681,1.143l-.744,1.1-.187.275c-.063.091-.133.177-.2.266l-.4.527-.406.526c-.131.177-.287.336-.431.5-.294.33-.58.667-.888.982l-.938.934c-1.282,1.211-2.616,2.346-3.986,3.442A40.8,40.8,0,0,1,18.393,25.5c-.381.222-.764.441-1.153.65s-.789.4-1.191.579c-.8.365-1.621.7-2.455.988-.413.154-.837.279-1.257.41s-.847.245-1.276.345a17.258,17.258,0,0,1-2.6.449Z" transform="translate(-0.627 -0.004)" fill="#937651"/><path d="M1.176,24.169c1.4-.562,2.778-1.137,4.141-1.739q1.021-.457,2.031-.93l2.02-.952A35.014,35.014,0,0,0,13.356,18.5a22.071,22.071,0,0,0,3.506-2.787,35.191,35.191,0,0,0,5.587-6.869l.292-.468.147-.234c.047-.079.09-.161.136-.241.177-.322.356-.644.54-.964.1-.158.169-.328.253-.492l.242-.5.249-.5c.08-.166.146-.339.22-.509.143-.341.293-.68.443-1.021q.188-.524.386-1.047l.2-.524.167-.535q.17-.535.355-1.072l.1.018q-.06.563-.136,1.128l-.078.565c-.034.187-.079.371-.119.557-.081.371-.163.744-.253,1.114-.111.364-.22.73-.338,1.093-.059.182-.111.366-.178.545l-.211.533-.216.532c-.073.176-.138.358-.227.527-.164.345-.335.688-.506,1.032-.044.085-.085.173-.13.257l-.145.248-.291.495-.3.494c-.1.163-.212.319-.32.476-.221.313-.436.631-.667.935l-.72.894-.18.223-.192.213-.384.424-.384.424c-.13.139-.268.271-.4.406l-.408.4c-.136.134-.269.269-.416.391q-.429.377-.865.745c-.293.242-.6.469-.9.7-1.211.914-2.444,1.78-3.681,2.643s-2.469,1.752-3.788,2.507c-.326.193-.664.367-1,.537s-.683.329-1.03.483-.7.3-1.048.442-.71.267-1.065.4-.716.247-1.078.358l-.543.166-.549.149a17.423,17.423,0,0,1-2.229.454Z" transform="translate(-0.108 -0.054)" fill="#937651"/><path d="M22.068,2.007a18.384,18.384,0,0,1-1.333,3.168c-.135.254-.275.5-.414.754s-.3.49-.45.734-.3.488-.474.718-.342.462-.52.686c-.359.448-.752.868-1.142,1.289s-.788.83-1.179,1.245c-.766.843-1.516,1.7-2.276,2.557-.381.429-.772.85-1.18,1.254s-.839.786-1.281,1.153A24.26,24.26,0,0,1,9.05,17.624c-.489.3-.988.594-1.5.857s-1.032.514-1.56.741c-.265.114-.532.22-.8.32-.135.05-.269.1-.4.15l-.41.136a11.373,11.373,0,0,1-1.676.419l-.028-.094A53.524,53.524,0,0,0,8.48,16.741c.93-.618,1.861-1.238,2.762-1.9.453-.33.89-.681,1.338-1.02q.33-.262.667-.517c.225-.171.439-.354.66-.53a16.286,16.286,0,0,0,2.409-2.377,15.883,15.883,0,0,0,.994-1.373c.156-.235.3-.479.451-.717s.307-.473.45-.714c.3-.478.618-.937.928-1.405.154-.234.32-.462.473-.7s.306-.471.465-.7l.238-.349.228-.356c.153-.236.312-.47.472-.7.314-.471.618-.95.965-1.411Z" transform="translate(-0.215 -0.14)" fill="#937651"/><path d="M11.1,31.359c.452-.107.9-.225,1.343-.359s.886-.269,1.322-.42c.874-.3,1.742-.615,2.589-.979A39.865,39.865,0,0,0,21.3,27.148a36.109,36.109,0,0,0,8.524-6.854c.3-.342.617-.673.91-1.023l.861-1.066c.149-.174.278-.362.411-.548l.4-.555.4-.556.371-.577.373-.575.187-.288.094-.144.085-.149.68-1.193.171-.3c.056-.1.1-.2.155-.306l.306-.615.309-.614.156-.307.137-.315A47.159,47.159,0,0,0,39.072.609a36.552,36.552,0,0,1-2.541,10.859,32.118,32.118,0,0,1-5.985,9.488A34.325,34.325,0,0,1,26.4,24.771l-1.135.835-1.168.786c-.395.254-.8.495-1.2.739s-.82.456-1.229.684-.835.424-1.252.638-.848.395-1.274.587c-.434.176-.863.362-1.3.529s-.871.336-1.316.48q-1.325.454-2.683.79a22.275,22.275,0,0,1-2.741.519" transform="translate(-0.817 -0.043)" fill="#937651"/><path d="M13.656,34.266c.474-.125.943-.262,1.406-.416s.926-.306,1.383-.476c.915-.339,1.822-.693,2.707-1.1a44.143,44.143,0,0,0,5.161-2.687,40.412,40.412,0,0,0,8.945-7.314,35.7,35.7,0,0,0,3.562-4.554c.263-.4.533-.805.791-1.213l.726-1.255c.118-.211.251-.413.354-.632l.328-.646.333-.645c.11-.215.227-.427.319-.651A50.028,50.028,0,0,0,43.247,1.6a39.206,39.206,0,0,1-2.875,11.4c-.086.232-.2.453-.3.677l-.314.671c-.212.447-.417.9-.665,1.325l-.713,1.3c-.254.424-.521.841-.782,1.263-.133.208-.256.423-.4.625l-.431.605-.432.6-.215.3-.231.291-.925,1.163c-.323.376-.654.745-.982,1.116a38.464,38.464,0,0,1-4.351,4.036l-1.185.892-1.22.843c-.412.272-.832.533-1.249.8s-.855.495-1.282.743-.871.464-1.306.7-.885.435-1.33.646c-.452.2-.9.4-1.355.59s-.91.376-1.374.54q-1.383.514-2.8.909a24.191,24.191,0,0,1-2.871.634" transform="translate(-0.999 -0.114)" fill="#937651"/><path d="M40.918,22.523c.887-1.555,1.812-3.069,2.662-4.614a49.108,49.108,0,0,0,2.3-4.735A38.863,38.863,0,0,0,47.564,8.2c.447-1.7.772-3.434,1.059-5.2a22.056,22.056,0,0,1-.309,5.366,24.443,24.443,0,0,1-1.525,5.186A27.957,27.957,0,0,1,44.234,18.3a33.368,33.368,0,0,1-3.316,4.219" transform="translate(-2.944 -0.214)" fill="#937651"/><path d="M15.626,39.231c1.011-.332,1.989-.673,2.96-1.034s1.926-.734,2.867-1.147,1.88-.832,2.8-1.3c.23-.118.471-.218.7-.345s.461-.239.695-.356c.471-.229.921-.494,1.412-.712-.178.2-.366.385-.555.573a7.687,7.687,0,0,1-.588.54c-.2.169-.411.337-.621.5l-.157.124-.163.113-.33.227a16.28,16.28,0,0,1-2.8,1.534,16.493,16.493,0,0,1-3.039.983,11.447,11.447,0,0,1-3.175.3" transform="translate(-1.139 -2.451)" fill="#937651"/><path d="M46.91,15.579a23.479,23.479,0,0,0,2,1.61,24.953,24.953,0,0,0,2.132,1.385,20.8,20.8,0,0,0,4.609,1.985,19.29,19.29,0,0,0,2.447.516,19.742,19.742,0,0,0,2.5.169,23.7,23.7,0,0,0,5.057-.639,14.372,14.372,0,0,1-5.022,1.411c-.439.024-.88.066-1.323.049-.22,0-.443.007-.663-.016L57.994,22c-.221-.019-.439-.056-.659-.084-.11-.016-.22-.028-.329-.047l-.327-.062c-.436-.078-.865-.194-1.294-.3a16.308,16.308,0,0,1-4.753-2.28,16.8,16.8,0,0,1-2.026-1.666c-.314-.3-.617-.618-.9-.948a9.9,9.9,0,0,1-.8-1.031" transform="translate(-3.372 -1.112)" fill="#937651"/><path d="M44.5,18.707c.8.642,1.583,1.269,2.384,1.873.1.074.2.15.3.227l.3.223c.2.152.4.294.6.443.406.291.81.581,1.21.882a17.748,17.748,0,0,0,2.5,1.693,11.007,11.007,0,0,0,2.848.99c.245.055.495.09.74.137s.494.079.741.114c.491.084.985.131,1.477.193a29.215,29.215,0,0,0,2.961.075,34.927,34.927,0,0,0,5.956-.716l.034.092q-.341.18-.691.347a7.393,7.393,0,0,1-.709.313,12.947,12.947,0,0,1-1.473.5c-.251.064-.5.143-.755.2l-.768.144a7.238,7.238,0,0,1-.775.107l-.389.04c-.131.011-.261.028-.391.029a14.757,14.757,0,0,1-6.115-1.053c-.961-.383-1.889-.813-2.829-1.218a29.678,29.678,0,0,1-2.811-1.294,10.632,10.632,0,0,1-1.285-.867c-.2-.159-.406-.32-.6-.49s-.39-.34-.576-.52a12.576,12.576,0,0,1-1.06-1.13,8.639,8.639,0,0,1-.9-1.263Z" transform="translate(-3.194 -1.335)" fill="#937651"/><path d="M47.807,11.261c.576.461,1.161.892,1.759,1.3s1.2.8,1.824,1.161a24.28,24.28,0,0,0,3.855,1.844c.165.067.335.119.5.178s.335.115.506.163.338.109.509.155l.514.137a19.339,19.339,0,0,0,2.091.407c.176.029.354.046.531.064s.356.042.534.054c.358.019.716.054,1.076.054.723.033,1.447-.01,2.186-.035a11.429,11.429,0,0,1-2.157.517c-.369.061-.74.082-1.113.11-.187.015-.373.009-.561.013s-.374.007-.562-.007l-.562-.029c-.187-.018-.372-.04-.559-.06s-.373-.046-.557-.079-.372-.059-.555-.1a15.183,15.183,0,0,1-2.164-.619,16.382,16.382,0,0,1-3.938-2.123,16.242,16.242,0,0,1-1.7-1.433c-.266-.258-.524-.524-.767-.8a9.079,9.079,0,0,1-.687-.869" transform="translate(-3.436 -0.804)" fill="#937651"/><path d="M48.891,6.7c.507.358.977.717,1.439,1.081s.929.713,1.364,1.11q.162.15.317.314c.1.11.215.206.322.311a4.617,4.617,0,0,0,.691.574,5.677,5.677,0,0,0,.779.438c.275.119.56.215.843.308s.581.15.863.24c.142.041.282.086.422.134s.283.08.425.121c.283.078.566.155.846.241.287.063.57.137.851.22.14.044.281.084.42.132s.284.075.425.117c.283.078.566.164.85.257a18.1,18.1,0,0,1,1.728.566l-.008.1a8.8,8.8,0,0,1-.923.091c-.154.009-.309.017-.463.02l-.232,0c-.077,0-.153-.009-.23-.014-.307-.022-.614-.051-.92-.089-.153-.019-.307-.034-.459-.064s-.3-.069-.451-.1c-.3-.075-.6-.157-.891-.253-.288-.112-.573-.232-.858-.351-.141-.06-.285-.115-.424-.18s-.275-.141-.41-.218-.268-.152-.4-.233-.265-.157-.389-.25c-.254-.176-.507-.35-.769-.5s-.514-.322-.787-.458-.544-.274-.83-.4c-.14-.065-.287-.123-.423-.2s-.274-.146-.407-.226a3.713,3.713,0,0,1-.386-.256c-.122-.095-.239-.2-.355-.3a7.414,7.414,0,0,1-.657-.656c-.1-.114-.2-.239-.294-.36l-.139-.186-.13-.2a4.348,4.348,0,0,1-.238-.4,3.14,3.14,0,0,1-.19-.435Z" transform="translate(-3.508 -0.478)" fill="#937651"/><path d="M52.733,24.961c-.531.8-1.021,1.591-1.467,2.4A19.217,19.217,0,0,0,50.1,29.822a13.019,13.019,0,0,0-.427,1.281c-.033.108-.062.216-.087.326s-.057.218-.081.329c-.045.22-.1.441-.131.665a15.447,15.447,0,0,0-.2,2.774,6.5,6.5,0,0,1-.566-2.844,7.658,7.658,0,0,1,.162-1.467c.046-.242.113-.479.177-.717s.149-.47.239-.7a9.976,9.976,0,0,1,1.441-2.539,8.438,8.438,0,0,1,2.109-1.97" transform="translate(-3.493 -1.781)" fill="#937651"/><path d="M57.261,26.472a8.739,8.739,0,0,0-1.12,1.408,13.588,13.588,0,0,0-.872,1.536,17.468,17.468,0,0,0-1.173,3.31c-.068.286-.148.569-.208.857l-.163.871c-.027.146-.061.29-.083.436l-.059.441c-.039.294-.083.589-.127.883s-.056.594-.09.892l-.1.9c-.037.6-.081,1.205-.16,1.818-.134-.6-.232-1.2-.324-1.813-.027-.3-.046-.611-.063-.918L52.7,36.63c0-.154-.023-.309-.012-.462q.014-.462.037-.927l.024-.463c.012-.154.038-.307.057-.462l.133-.923c.059-.3.138-.607.208-.911A11.785,11.785,0,0,1,54.6,29.038a9.052,9.052,0,0,1,1.172-1.464,6.394,6.394,0,0,1,.7-.617,4.333,4.333,0,0,1,.79-.486" transform="translate(-3.784 -1.889)" fill="#937651"/><path d="M61.246,27.1c-.376.741-.73,1.466-1.07,2.2-.172.364-.333.732-.5,1.1s-.326.734-.505,1.1a15.859,15.859,0,0,0-1.011,2.224,9.693,9.693,0,0,0-.42,2.406l-.1,2.435c-.015.808-.011,1.614-.011,2.421s-.007,1.615-.013,2.43c0,.408.008.815,0,1.228s0,.823-.024,1.243l-.1.016c-.143-.393-.268-.792-.377-1.2s-.2-.811-.27-1.221-.142-.823-.176-1.239-.079-.832-.087-1.25a16.827,16.827,0,0,1,.135-2.5,14.533,14.533,0,0,1,.495-2.454c.236-.8.459-1.6.644-2.4s.3-1.641.556-2.444c.059-.2.137-.4.214-.592s.17-.384.261-.573a11.265,11.265,0,0,1,.623-1.095,9.047,9.047,0,0,1,.75-1.014,5.727,5.727,0,0,1,.915-.878Z" transform="translate(-4.061 -1.929)" fill="#937651"/><path d="M66.016,25.943a25.416,25.416,0,0,0-1.26,2.64c-.378.894-.709,1.8-1.013,2.722a40.587,40.587,0,0,0-1.379,5.616c-.046.237-.076.476-.115.714s-.075.476-.1.716l-.095.717-.076.72c-.029.241-.049.481-.067.722l-.06.722-.042.724-.024.362-.013.363c-.074,1.936-.036,3.882.049,5.848A27.291,27.291,0,0,1,61,42.68c-.03-.495-.018-.99-.02-1.485.007-.248.015-.495.025-.743s.02-.495.04-.742a29.033,29.033,0,0,1,.349-2.955,27.022,27.022,0,0,1,1.631-5.715,23.3,23.3,0,0,1,1.3-2.67c.251-.427.505-.851.787-1.257a11.248,11.248,0,0,1,.9-1.17" transform="translate(-4.376 -1.851)" fill="#937651"/><path d="M66.329,48.934a18.752,18.752,0,0,1-.6-2.584c-.139-.875-.245-1.756-.3-2.642a28.734,28.734,0,0,1,.141-5.323,24.979,24.979,0,0,1,1.18-5.2c.072-.211.143-.421.226-.628s.157-.416.241-.622l.269-.61.135-.3.148-.3.3-.592c.11-.193.215-.388.328-.579.215-.387.47-.752.713-1.119-.075.209-.157.413-.234.619l-.123.306-.11.31c-.072.207-.15.411-.226.616l-.2.622-.106.309-.1.312-.189.623c-.108.422-.243.833-.34,1.256a41.2,41.2,0,0,0-.939,5.1c-.21,1.717-.314,3.448-.354,5.187-.012.869-.014,1.741.012,2.614s.061,1.749.12,2.63" transform="translate(-4.689 -2.029)" fill="#937651"/><path d="M38.9,23.829c-.126-.956-.66-.459-1.289-.982s-.394-.617-1.219-.369-1.076-.189-1.076-.189c-.213-.853-.547-1.071-1.42-.893a1.4,1.4,0,0,1-.991-.007c-.463-.251-2.505.69-2.505.69-1.373,1.266-4.828,1.715-4.828,1.715-1.411-.153-2.459-.265-2.459-.265.163-.183-.023-.3-.2-.3a6.327,6.327,0,0,1-2.76-1.012,9.591,9.591,0,0,0-5.314-.86,4.007,4.007,0,0,0-1.7.444c-.658.373-.744.866-.231,1.469.146.172.282.353.414.536.155.217.312.463.139.729a23.489,23.489,0,0,1,2.563,2.049,8.639,8.639,0,0,0,4.222,1.59,3.581,3.581,0,0,1,2.16.645,2.7,2.7,0,0,1,.111,2.019,69.76,69.76,0,0,0-2.9,6.669,2.642,2.642,0,0,0,.436,1.45l.642.888c-.126-.143-.2-.222-.2-.222.048.125-.194-.215-.442-.666l-.242.306c.233.142.482.27.442.612a5.646,5.646,0,0,0,.223,2.063,2.036,2.036,0,0,0,1.094,1.392,3.916,3.916,0,0,0,2,.489,14.761,14.761,0,0,1,1.065,2.241c0,.043-.007.085-.01.126-.087,1.2.345,2.373.187,3.571-.085.649.15,1.283.072,1.912-.16,1.295-.4,2.58-.613,3.867a20.929,20.929,0,0,0-.328,4.774,5.106,5.106,0,0,0,.211,1.589,7.919,7.919,0,0,1,.6,3.454S41.211,70.68,55.079,58.2a27.835,27.835,0,0,0,6.03-7.131c.371-.625.233-.167.083-1.671s-2.038-1.9-2.038-1.9c-1.321.712-1.911-4.326-2.728-4.855-.742-.481-1.335-1.18-2.36-.786-.268.1-.661-.033-.709-.271-.176-.866-.99-1.031-1.544-1.412-.8-.549-1.545-1.176-2.391-1.656a.283.283,0,0,1-.174-.332c.042-.156.172-.2.316-.207l.54-.042a6.241,6.241,0,0,1-2.075-1.781,1.8,1.8,0,0,1-.437-1.125,1.364,1.364,0,0,0-.568-1.178c-.115-.073-.231-.186-.189-.335.234-.852-.329-1.406-.748-2.01-.089-.129-.291-.274-.176-.4.521-.582-.09-.735-.345-1.054a11.681,11.681,0,0,1-1.21-1.6.472.472,0,0,1,.032-.563,12.615,12.615,0,0,0,1.828-2.439,2.272,2.272,0,0,0,.031-1.5,3.218,3.218,0,0,1-.116-.484c-.118-.768-.767-1.055-1.411-1.3a5.984,5.984,0,0,0-3.936.048c-.792.243-1.286,1.032-1.883,1.608" transform="translate(-0.921 -1.521)" fill="#fff"/><path d="M35.317,66.592c.392-.134.377-.455.347-.787-.02-.212-.335-.4-.1-.618a4.673,4.673,0,0,1,.963-.71c.167-.087.475.088.524-.255a.877.877,0,0,0-.2-.826,2.039,2.039,0,0,1-.377-.383.521.521,0,0,1,.073-.633.324.324,0,0,1,.485-.025c.137.1.289.326.453.115a.438.438,0,0,0-.115-.61c-.67-.279-.39-.67-.211-1.091.193-.454.025-.7-.479-.7-.312,0-.679-.03-.687-.384-.008-.376.366-.448.7-.493.421-.059.832-.2,1.23.1.372.277.576.527.228,1-.371.507.224.739.433,1.059a.29.29,0,0,0,.541-.051c.163-.341.775-.666.182-1.07-.543-.37-.634-1.111-1.258-1.385-.144-.063-.271-.229-.408-.231-.618-.007-.82-.324-.934-.9-.086-.44-.515-.533-.934-.3-.306.171-.456.1-.354-.25.106-.364-.2-.987.585-.966.2.006.214-.2.154-.371s-.176-.272-.365-.2c-.17.063-.33.153-.5.223-.312.128-.514.055-.444-.316s-.041-.469-.411-.443c-.231.017-.6-.011-.625-.291-.043-.477.52-.41.765-.656.2-.2.347.041.459.222.094.153.177.354.319.427.268.137.67.411.854.178.214-.27-.232-.4-.426-.562a.97.97,0,0,1-.327-.857c.02-.243,0-.571.272-.651.384-.113.218.371.433.495.274-.128.19-.365.176-.582-.012-.192-.206-.486.262-.408.2.033.151-.178.122-.3-.046-.187-.153-.4-.368-.279-.318.179-.683.213-1,.421a1.159,1.159,0,0,1-1.36.149c-.818-.382-1.762-1.032-2.813-.487a.477.477,0,0,1-.46.032.468.468,0,0,1-.226-.228c-.039-.145.107-.189.216-.189a.876.876,0,0,0,.878-.711c.072-.218.253-.379.468-.207.31.246.591.079.868-.022.039.077.077.117.074.154-.018.294-.625.356-.371.679.211.268.525-.116.81-.14.475-.04.9-.184,1.028-.724.246-.031.506-.021.647-.292s.246-.655-.03-.8c-.336-.177-.294.283-.426.453a1.144,1.144,0,0,0-.185.645A3.952,3.952,0,0,1,33.394,49.5c-.178-.3-.39-.536-.743-.188-.418.413-.923-.308-1.414.329.1-.607.163-.982.217-1.359.019-.132.035-.3-.15-.322-.131-.019-.181.111-.229.213a.414.414,0,0,0-.071.189c.09.983-.7,1.036-1.327,1.251-.161.055-.356.192-.462-.066a.276.276,0,0,1,.211-.371c.764-.211.888-1,1.294-1.506.33-.412-.02-1.027-.359-1.474-.157-.207-.436-.369-.254-.7L30.1,45.5a5.6,5.6,0,0,1-.246-1.4.229.229,0,0,0-.215-.289c-.823-.028-.955-.712-1.215-1.269-.16-.345-.3-.7-.488-1.152-.251.357-.457.579-.84.608-.477.037-.77.446-1.105.746a3.339,3.339,0,0,1-4.233.6,2.034,2.034,0,0,1-1.094-1.392,5.644,5.644,0,0,1-.223-2.063c.04-.342-.209-.47-.442-.612l-.283-.448c.041-.141-.019-.4.188-.382a2.651,2.651,0,0,0,1.841-.643c.251-.186.605-.163.913-.314a6.311,6.311,0,0,0,1.545-.923c.2-.176.474-.1.722-.083A1.886,1.886,0,0,1,27.017,38.2c.044.157.141.3-.029.426a4.512,4.512,0,0,1-2.512,1.313,3.041,3.041,0,0,0-.338.046c-.123.017-.242.08-.242.2a.209.209,0,0,0,.3.178c.59-.214,1.119.108,1.659.2a1.459,1.459,0,0,0,1.568-.673,4.779,4.779,0,0,1,.311-.447c.207-.223.235-.722.706-.556.257.09.345,1.166.1,1.373-.26.223-.436.437-.188.736a.624.624,0,0,0,.918.04,2.759,2.759,0,0,1,1.386-.514.481.481,0,0,0,.429-.308c.169-.312.324-.637.5-.946.3-.522.172-.834-.378-1.059-.377-.154-.744-.3-.175-.787.5-.429-.232-.516-.353-.8a.577.577,0,0,1,.051-.081.886.886,0,0,0,1.3-.541c.074-.157.23-.118.355-.155.065.026.084,0,.06-.059.038-.128.036-.3.121-.379.717-.663,1.155-1.557,1.863-2.224.072-.068.206-.072.312-.1l0,0a.785.785,0,0,1,.116-.583,4.395,4.395,0,0,0,.981-3.333c-.292-.058-.292.223-.384.37a2.52,2.52,0,0,1-2.074,1.423c-.23.009-.345.036-.493-.168a.644.644,0,0,0-1.176.047c-.318.548-.98.627-1.3,1.14-.1.157-.361.088-.486-.059-.19-.226-.574-.328-.484-.745a2.031,2.031,0,0,1,.949-1.4,3.661,3.661,0,0,0,1.8-1.956c.127-.381.49-.4.766-.488a3.7,3.7,0,0,1,2.186-.127c1.256.393,1.776.07,1.74-1.246,0-.191-.11-.447.18-.507.226-.048.288.166.367.331.112.234.129.727.336.655a1.958,1.958,0,0,0,.876-.772c.509-.764.927-1.59,1.428-2.36a1.454,1.454,0,0,1,1.191-.7,14.2,14.2,0,0,1,3.115.01c.228.042.377.092.271.325-.3.654-.354,1.452-1.108,1.835a.7.7,0,0,0-.286,1.123.529.529,0,0,1-.188.843,1.594,1.594,0,0,0-.638,1.153l-.2.241a4.023,4.023,0,0,0-1.94.072c-.325.034-.259.232-.13.439a.934.934,0,0,0,.756.4c.653.059.816.569,1,1.034a.548.548,0,0,1-.373.8c-.312.106-.683.273-.135.606.1.064.19.179.073.276-.331.269-.088.421.1.582.324.274.3.464-.142.475s-.628.3-.813.619a.3.3,0,0,0-.047.307c.285.654.274.664-.5.636a2.206,2.206,0,0,0-.27.036,1.721,1.721,0,0,0,1.1.579c.554.081,1.01.569,1.6.676.131.023.277.163.378.13.977-.312,1.273.758,1.99.972.111.033.165.256.245.391a.955.955,0,0,0-.792-.006c-.186.118-.481.272-.258.515.492.536.254.787-.42.942l1.851,1.017a2.954,2.954,0,0,1-.378-2.466.636.636,0,0,1,.822.394c-.611.026-.617.241-.367.748s.789,1,.36,1.68c-.03.046.03.188.087.244.44.436.423.652-.254.757-.343.054-.416.522-.411.788,0,.244.383.137.589.116.349-.036.713-.1.946.211.266.352-.236.53-.272.851.6.193,1.276-.059,1.841.319-.119.169-.28.039-.39.1-.16.081-.6-.116-.425.271.1.212-.208.777.476.675.539-.08,1.033.27,1.545.428a3.774,3.774,0,0,0,1.711.348c-.1.363-.348.321-.566.331a1.275,1.275,0,0,0-.975,1.13.306.306,0,0,0,.357.247c.232-.011.529.081.613-.274.049-.21,0-.5.332-.5s.355.291.443.524.1.224,1.019.635c-.353.289-.751.135-1.105.194-.257.043-.63-.021-.4.449.046.1.039.189-.057.23-1,.442-.14.572.142.806-.046.249-.287.155-.424.236-.163.1-.355,1.022-.2,1.12.253.163.412.015.413-.233,0-.507.387-.685.723-.907a.546.546,0,0,1,.694.067c.141.117.239.3-.019.337-.883.124-.22.4-.056.582a.756.756,0,0,0,.856.267c.1-.035.222-.135.286.027a.208.208,0,0,1-.192.293c-.363.048-.624.378-1.02.343a.244.244,0,0,0-.274.246c0,.193.166.162.3.18a2.388,2.388,0,0,0,1.518-.067.556.556,0,0,1,.831.435c.063.358.317.535.475.8l0,0a3.466,3.466,0,0,1-1.132-.413c-.124-.047-.271-.111-.353.051-.059.116.038.21.115.293a5.451,5.451,0,0,0,.995.9,5.378,5.378,0,0,1,.568.493c-.34.111-.521-.09-.739-.1l-.013.012c.15.42.061.675-.562.548.346.56.873.588,1.247.834-.034.069-.045.13-.074.142-.2.082-.585-.165-.592.236,0,.3.348.332.58.366.34.048.68-.071.688.528,0,.223.8.775.576,1.073a32.806,32.806,0,0,1-21.091,9.03m-4.63-20.643c.035-.047.109-.129.1-.137-.1-.107-.129,0-.176.063-.023.073,0,.1.075.073m16.357.37c.137.218.291.409.588.3a.18.18,0,0,0,.051-.167c-.16-.284-.4-.213-.644-.131-.137-.414-.422-.56-1-.553a2.907,2.907,0,0,0,1,.547m-9.428-4.5,0,0,.9,1.231a.518.518,0,0,0-.173-.882c-.23-.136-.485-.231-.729-.345m4.918,5.732,0,0a1.537,1.537,0,0,0,1.015.834c.227-.8.193-.848-.611-.864-.136,0-.272.021-.408.033M53.746,57.776c-.023-.037-.046-.074-.068-.111l-.062.064.114.063c-.273.621-.725-.254-1.083.2.436.254.324.47-.061.743-.216.152.024.364.2.463a1.333,1.333,0,0,0,.8.1c.277-.026.769.026.721-.294-.064-.423.38-1.185-.558-1.237M39.944,35.26l-.176-.167-.036.046.205.129c.072.234.275.356.44.51l-.064.071-1.124-.2c.315.332-.319.946.395.961.5.01.9-.047,1.158.487a.346.346,0,0,0,.475.1c.042-.222-.288-.321-.129-.631a4.516,4.516,0,0,1,1.157.615c.18.111.208.4-.064.367a3.212,3.212,0,0,0-1.551.356c-.144.053-.392-.132-.45.132-.052.231.151.375.326.473.532.3,1.076.57,1.617.853l.011-.012c.049-.15.161-.312.136-.45-.119-.668.37-1.011.717-1.435.123-.149.493-.083.416-.355a.634.634,0,0,0-.632-.436.663.663,0,0,1-.665-.479,1.307,1.307,0,0,0-.959-.7c-.39-.115-.8-.161-1.2-.237m-4.108-1.246c-.3.118-.49-.19-.758-.2-.189-.006-.414-.026-.47.175-.084.3.2.2.352.253.194.063.39.121.58.194.836.327.853.322,1.062-.527a.564.564,0,0,1,.214-.332.2.2,0,0,0,.028-.344c-.19-.218-1.191-.471-1.342-.3-.407.47.128.649.32.934.021.031.009.085.013.143m3.946-1.065c.219-.015.24-.173.218-.378a4.117,4.117,0,0,0-1.457-1.7c-.348-.089-.518.228-.779.337-.122.051-.092.185-.046.3a7.016,7.016,0,0,0,2.063,1.44M51.031,58.931c-.048.027-.148.051-.153.09-.055.367-.326.747-.072,1.1a2.053,2.053,0,0,0,1.251.853c.041.009.15-.089.144-.1-.125-.319.317-.631.01-.95-.353-.37-.613-.848-1.179-.992M37.773,53.745c.22-.112.816.06.6-.539a8.594,8.594,0,0,0-.794-1.407.289.289,0,0,0-.339-.162.319.319,0,0,0-.256.352c.054.489.2.963.207,1.464.006.252.263.34.579.291m13.2,1.75c.483.44.293,1.2,1.074,1.178.638-.013.714-.695,1.208-.911-.763.254-1.384-.364-2.283-.267M34.143,35.412c-.022.276.036.518.355.534.238.011.247-.219.271-.392A.458.458,0,0,0,34.408,35c-.341-.065-.188.267-.265.417M47.821,47.97c-.2-.505-.847-.8-1.15-.624a.2.2,0,0,0-.087.157c.01.137.124.185.241.179a2.256,2.256,0,0,1,1,.288m5.036,4.946c.072-.731-.173-1.069-.7-1.062-.119,0-.237.018-.28.138-.049.14.068.216.174.235.379.068.575.367.807.689M22.2,40.957a2.034,2.034,0,0,1-.37-.206c-.28-.252-.456.02-.658.122a.176.176,0,0,0-.071.284.517.517,0,0,0,.633.038c.14-.069.279-.142.465-.238M52.242,53.471a.7.7,0,0,0-.631-.252c-.117,0-.248.056-.179.2a.6.6,0,0,0,.55.32.234.234,0,0,0,.26-.269M43.6,42.45c-.3-.347-.3-.347-.618-.267a.468.468,0,0,0,.618.267m-8.532-7.4c.211.228.361.372.706.319a.5.5,0,0,0-.706-.319m1.168,19.034-.053-.037-.033.1c.021,0,.048.008.063,0s.016-.038.023-.058" transform="translate(-1.431 -1.607)" fill="#5f5527"/></g></g></g></svg>