<svg xmlns="http://www.w3.org/2000/svg" width="534" height="66.378" viewBox="0 0 534 66.378"><g transform="translate(-142 -4463)"><g transform="translate(244.275 4463)"><path d="M75.345,53.751c-.516-.037-1.045-.061-1.567-.061C61.977,53.69,52.42,63,52.42,74.464c0,.67.037,1.334.1,2a22.974,22.974,0,0,0,22.827-22.71" transform="translate(-29.366 -30.525)" fill="#fff"/><path d="M37.741,69.913c-2.76-9.373-11.008-16.226-20.762-16.226A14.092,14.092,0,0,0,15,53.78,22.974,22.974,0,0,0,37.335,76.453c-.068-.682-.1-1.364-.1-2.065a20.651,20.651,0,0,1,.5-4.474" transform="translate(-14.945 -30.523)" fill="#fff"/><path d="M15.734,99.575v1.088H17l-.055.682H15.734v1.543H14.96V98.93H17.4v.645Z" transform="translate(-14.929 -47.96)" fill="#fff"/><path d="M21.249,103.57l-.117-.356a1.112,1.112,0,0,1-.9.412c-.725,0-1.045-.393-1.045-1.186V100.7h.762v1.745c0,.436.16.615.5.615a.91.91,0,0,0,.516-.172v-2.163h.781v2.883Z" transform="translate(-16.559 -48.642)" fill="#fff"/><path d="M26.309,103.532v-1.709c0-.436-.166-.615-.516-.615a.928.928,0,0,0-.5.178v2.163H24.52v-2.889h.529l.117.326a1.229,1.229,0,0,1,.9-.387c.725,0,1.02.43,1.02,1.162v1.77Z" transform="translate(-18.614 -48.604)" fill="#fff"/><path d="M31.554,100.622a.965.965,0,0,0-.516-.148c-.363,0-.615.246-.615.916s.221.947.578.947a.731.731,0,0,0,.535-.246Zm.074-.443a1.924,1.924,0,0,1-.074-.529v-.86h.793v4.044h-.615l-.086-.32a.928.928,0,0,1-.762.375c-.658,0-1.174-.467-1.174-1.493s.541-1.5,1.229-1.5a.965.965,0,0,1,.719.283" transform="translate(-20.614 -47.906)" fill="#fff"/><path d="M36.8,102.259h-.473c-.32,0-.461.148-.461.363a.381.381,0,0,0,.332.43h.074a.922.922,0,0,0,.51-.2Zm.215,1.229-.1-.338a1.026,1.026,0,0,1-.842.393.885.885,0,0,1-.959-.811.615.615,0,0,1,0-.1c0-.535.387-.848,1.082-.848h.615v-.154c0-.369-.209-.486-.5-.486a2.206,2.206,0,0,0-.867.2l-.184-.547a2.962,2.962,0,0,1,1.131-.24c.811,0,1.168.375,1.168,1.112v1.844Z" transform="translate(-22.697 -48.584)" fill="#fff"/><path d="M42.643,103.336a2.231,2.231,0,0,1-.99.252c-.854,0-1.371-.479-1.371-1.494a1.321,1.321,0,0,1,1.143-1.487,1.372,1.372,0,0,1,.227,0,1.936,1.936,0,0,1,.977.24l-.191.516a1.488,1.488,0,0,0-.725-.172c-.393,0-.615.27-.615.916s.246.916.658.916a1.672,1.672,0,0,0,.781-.215Z" transform="translate(-24.684 -48.605)" fill="#fff"/><path d="M45.328,98.79h.781v.744h-.781Zm0,4.044v-2.323l-.338-.074v-.473h1.1v2.883Z" transform="translate(-26.502 -47.906)" fill="#fff"/><path d="M49.916,101.308c0-.719-.2-.928-.565-.928s-.553.246-.553.928.178.94.553.94.565-.252.565-.94m-1.272-1.844-.074-.436,1.481-.418.1.559Zm2.065,1.844c0,.983-.5,1.5-1.358,1.5s-1.358-.5-1.358-1.5a1.358,1.358,0,1,1,2.7-.2,1.051,1.051,0,0,1,0,.2" transform="translate(-27.655 -47.837)" fill="#fff"/><path d="M55.379,103.532v-1.709c0-.436-.166-.615-.516-.615a.977.977,0,0,0-.5.178v2.163H53.59v-2.889h.529l.117.326a1.192,1.192,0,0,1,.9-.387c.725,0,1.02.43,1.02,1.162v1.77Z" transform="translate(-29.817 -48.604)" fill="#fff"/><path d="M62.161,102.735a.615.615,0,0,0,.5.289c.344,0,.615-.246.615-.94s-.215-.922-.559-.922a.731.731,0,0,0-.529.227Zm0,1.045v.867H61.38v-3.989h.664l.055.307a1.026,1.026,0,0,1,.762-.375c.67,0,1.149.486,1.149,1.494s-.615,1.5-1.229,1.5a.793.793,0,0,1-.719-.332,2.225,2.225,0,0,1,.1.529" transform="translate(-32.819 -48.6)" fill="#fff"/><path d="M68.241,102.259h-.473c-.32,0-.461.148-.461.363a.387.387,0,0,0,.344.43h.086a.885.885,0,0,0,.5-.2Zm.215,1.229-.1-.338a1.026,1.026,0,0,1-.842.393.879.879,0,0,1-.959-.811.3.3,0,0,1,0-.1c0-.535.387-.848,1.076-.848h.615v-.154c0-.369-.209-.486-.5-.486a2.1,2.1,0,0,0-.86.2l-.191-.547a2.962,2.962,0,0,1,1.131-.24c.811,0,1.168.375,1.168,1.112v1.844Z" transform="translate(-34.812 -48.584)" fill="#fff"/><path d="M73.415,101.294a1.426,1.426,0,0,0-.363-.043.824.824,0,0,0-.522.209v2.084h-.75v-2.889h.529l.08.387h0a.787.787,0,0,1,.688-.443,1.229,1.229,0,0,1,.332.043Z" transform="translate(-36.827 -48.604)" fill="#fff"/><path d="M76.816,102.286h-.479c-.313,0-.461.148-.461.363a.381.381,0,0,0,.332.43h.068a.922.922,0,0,0,.516-.2Zm.215,1.229-.111-.338a1.008,1.008,0,0,1-.836.393.9.9,0,0,1-.965-.817V102.7c0-.535.393-.848,1.088-.848h.615V101.7c0-.369-.209-.486-.51-.486a2.2,2.2,0,0,0-.86.2l-.2-.547a3.073,3.073,0,0,1,1.137-.24c.817,0,1.162.375,1.162,1.112v1.844Z" transform="translate(-38.114 -48.611)" fill="#fff"/><path d="M82.78,102.066V98.79h.75v3.245c0,.234.154.27.467.27v.541a2.421,2.421,0,0,1-.424.043c-.615,0-.793-.307-.793-.824" transform="translate(-41.066 -47.906)" fill="#fff"/><path d="M87.293,102.259h-.473c-.32,0-.461.148-.461.363a.381.381,0,0,0,.332.43h.092a.922.922,0,0,0,.51-.2Zm.215,1.229-.1-.338a1.026,1.026,0,0,1-.842.393.885.885,0,0,1-.959-.811.616.616,0,0,1,0-.1c0-.535.387-.848,1.082-.848H87.3v-.154c0-.369-.209-.486-.5-.486a2.207,2.207,0,0,0-.867.2l-.191-.547a2.962,2.962,0,0,1,1.131-.24c.817,0,1.168.375,1.168,1.112v1.844Z" transform="translate(-42.155 -48.584)" fill="#fff"/><rect width="0.762" height="3.958" transform="translate(0.012 56.182)" fill="#fff"/><path d="M19.1,112.008V110.3c0-.436-.166-.615-.522-.615a.934.934,0,0,0-.5.172v2.163H17.31v-2.889h.535l.111.326a1.229,1.229,0,0,1,.916-.387c.725,0,1.014.43,1.014,1.162V112Z" transform="translate(-15.835 -51.868)" fill="#fff"/><path d="M24.193,112.008V110.3c0-.436-.166-.615-.516-.615a.922.922,0,0,0-.5.172v2.163H22.38v-2.889h.529l.117.326a1.229,1.229,0,0,1,.91-.387c.719,0,1.014.43,1.014,1.162V112Z" transform="translate(-17.789 -51.868)" fill="#fff"/><path d="M29.248,110.639c0-.719-.209-.928-.572-.928s-.553.246-.553.928.184.94.553.94.572-.252.572-.94m.787,0c0,.983-.492,1.5-1.358,1.5s-1.346-.51-1.346-1.5a1.358,1.358,0,0,1,2.7-.2v.2" transform="translate(-19.696 -51.943)" fill="#fff"/><path d="M34.049,112.05H32.93l-.86-2.87h.86l.608,2.4h.018l.6-2.4h.768Z" transform="translate(-21.523 -51.91)" fill="#fff"/><path d="M38.721,110.754h-.492c-.313,0-.467.148-.467.369a.393.393,0,0,0,.35.424h.117a.922.922,0,0,0,.516-.2Zm.215,1.229-.092-.313a1.008,1.008,0,0,1-.836.393A.9.9,0,0,1,37,111.246v-.1c0-.535.393-.848,1.088-.848H38.7v-.154c0-.369-.221-.479-.516-.479a2.041,2.041,0,0,0-.854.191l-.2-.547a2.987,2.987,0,0,1,1.131-.24c.817,0,1.168.375,1.168,1.112v1.844Z" transform="translate(-23.423 -51.868)" fill="#fff"/><path d="M44.224,111.816a2.182,2.182,0,0,1-.983.252c-.854,0-1.377-.479-1.377-1.494a1.334,1.334,0,0,1,1.143-1.487,1.414,1.414,0,0,1,.227,0,1.979,1.979,0,0,1,.99.24l-.2.522a1.4,1.4,0,0,0-.719-.178c-.406,0-.658.27-.658.916s.246.916.658.916a1.7,1.7,0,0,0,.787-.215Z" transform="translate(-25.293 -51.873)" fill="#fff"/><path d="M46.582,107.27h.781v.719h-.781Zm0,4.044v-2.323l-.332-.074v-.473h1.076v2.883Z" transform="translate(-26.988 -51.174)" fill="#fff"/><path d="M50.791,109.808c0-.719-.209-.928-.559-.928s-.565.246-.565.928.191.94.565.94.559-.252.559-.94m-1.272-1.844-.074-.436,1.481-.418.1.559Zm2.059,1.844c0,.983-.492,1.5-1.346,1.5s-1.352-.51-1.352-1.5a1.358,1.358,0,1,1,2.7-.277,1.045,1.045,0,0,1,0,.277" transform="translate(-27.995 -51.113)" fill="#fff"/><path d="M55.929,112.008V110.3c0-.436-.166-.615-.516-.615a.922.922,0,0,0-.5.172v2.163H54.14v-2.889h.529l.117.326a1.229,1.229,0,0,1,.91-.387c.719,0,1.014.43,1.014,1.162V112Z" transform="translate(-30.029 -51.868)" fill="#fff"/><path d="M62.353,108.086l-.443,1.77h1.082l-.406-1.77Zm-.811,3.282H60.81l1.082-3.958h1.229l1.039,3.958h-.836l-.209-.885h-1.34Z" transform="translate(-32.599 -51.228)" fill="#fff"/><path d="M68.535,110.063c0-.344-.289-.43-.51-.43s-.522.086-.522.43.283.449.522.449.51-.086.51-.449m-.615,1.795a.406.406,0,0,0-.443.418.486.486,0,0,0,.541.436.5.5,0,0,0,.572-.479c0-.3-.221-.344-.67-.375m1.567-2.71v.559a1.58,1.58,0,0,1-.535-.092.768.768,0,0,1,.277.449,1.088,1.088,0,0,1-1.18.99h0a1.912,1.912,0,0,1-.369-.055.148.148,0,0,0-.141.16c0,.313,1.844-.055,1.844,1.026,0,.676-.615,1.045-1.364,1.045-.615,0-1.229-.264-1.229-.793,0-.369.3-.565.762-.615-.363-.043-.719-.154-.719-.486s.221-.418.541-.436a.9.9,0,0,1-.516-.817,1.057,1.057,0,0,1,1.131-.983h.055c.307,0,.959.061,1.438.068" transform="translate(-34.904 -51.878)" fill="#fff"/><path d="M73.5,109.8a1.143,1.143,0,0,0-.35-.043.817.817,0,0,0-.522.191v2.084H71.87v-2.883H72.4l.086.381h0a.781.781,0,0,1,.682-.455,2.035,2.035,0,0,1,.338.043Z" transform="translate(-36.862 -51.868)" fill="#fff"/><path d="M76.573,110.739h-.479c-.313,0-.461.148-.461.369a.387.387,0,0,0,.338.424h.092a.922.922,0,0,0,.51-.2Zm.215,1.229-.1-.338a1.014,1.014,0,0,1-.842.393.879.879,0,0,1-.953-.811.56.56,0,0,1,0-.1c0-.535.393-.848,1.082-.848h.615v-.154c0-.369-.209-.479-.5-.479a2.1,2.1,0,0,0-.867.191l-.2-.547a3.018,3.018,0,0,1,1.137-.24c.811,0,1.168.375,1.168,1.112v1.844Z" transform="translate(-38.024 -51.852)" fill="#fff"/><path d="M81.464,109.807a1.118,1.118,0,0,0-.35-.043.817.817,0,0,0-.522.191v2.084H79.86v-2.883h.535l.086.381h0a.756.756,0,0,1,.695-.436,1.229,1.229,0,0,1,.338.043Z" transform="translate(-39.941 -51.879)" fill="#fff"/><path d="M83.272,107.27h.774v.719h-.774Zm0,4.044v-2.323l-.332-.074v-.473h1.1v2.883Z" transform="translate(-41.128 -51.174)" fill="#fff"/><path d="M87.273,110.739h-.479c-.313,0-.461.148-.461.369a.381.381,0,0,0,.332.424.3.3,0,0,0,.1,0,.885.885,0,0,0,.5-.2Zm.215,1.229-.1-.338a1.026,1.026,0,0,1-.848.393.879.879,0,0,1-.953-.811.558.558,0,0,1,0-.1c0-.535.393-.848,1.082-.848h.615v-.154c0-.369-.209-.479-.5-.479a2.065,2.065,0,0,0-.86.191l-.2-.547a3.073,3.073,0,0,1,1.143-.24c.811,0,1.168.375,1.168,1.112v1.844Z" transform="translate(-42.148 -51.852)" fill="#fff"/><rect width="1.696" height="23.159" transform="translate(22.095 0)" fill="#fff"/><path d="M62.8,29.421V19.514a21.278,21.278,0,0,1,11.377,9.908ZM61.09,17V39.544h1.7V31.136H74.968a20.9,20.9,0,0,1,1.678,8.23v.111h1.9v-.111A23.073,23.073,0,0,0,61.09,17" transform="translate(-32.707 -16.385)" fill="#fff"/><path d="M32.086,19.153V17.18A23.079,23.079,0,0,0,15,39.435v.111h1.9v-.111a20.893,20.893,0,0,1,1.689-8.227l13.523,0V29.491H19.394A21.284,21.284,0,0,1,32.086,19.153" transform="translate(-14.945 -16.455)" fill="#fff"/><rect width="27.209" height="2.575" transform="translate(18.752 63.508)" fill="#fff"/><rect width="18.746" height="2.575" transform="translate(0 63.508)" fill="#fff"/></g><g transform="translate(142 4463)"><path d="M43.56,37.92v1a1.229,1.229,0,0,0,0-1" transform="translate(-25.392 -24.153)" fill="#fff"/><path d="M46.8,27.561c-.037.092-.166.092-.184.209-.111-.1.092-.32.184-.209m.688-.037c.092-.061.184-.252.326-.154s.135.1.215.16a.652.652,0,0,1,.2.172c.043.086-.074.3-.2.111s-.209-.387-.4-.289-.27.191-.307.086.111-.055.172-.086m0,.16c.061-.074.08.246.332.154-.178.215-.418,0-.332-.154m-.842.332s0-.135.117-.148a.338.338,0,0,1,.313.209c0,.123-.08.436.326.479v.129h0a.7.7,0,0,1-.055.215h.068c.547,0,.848,0,1.008-.178a1.02,1.02,0,0,0,.135-.2.971.971,0,0,0,.086-.75h0v-.043l-.037-.074a1.567,1.567,0,0,0-.83-.615h0a1.229,1.229,0,0,1,.885.615.535.535,0,0,0,.2-.363.885.885,0,0,1,.061-.363.086.086,0,0,0-.037-.117h0a.086.086,0,0,0-.123.043c-.068.148-.24.068-.172-.086a.086.086,0,0,0-.037-.117h0a.086.086,0,0,0-.117.037h0c-.074.148-.234.061-.172-.08a.092.092,0,0,0,0-.123h0a.092.092,0,0,0-.117.043c-.074.154-.24.068-.172-.08a.092.092,0,1,0-.16-.08.737.737,0,0,1-.141.227,1.782,1.782,0,0,1,.885.473l.1.117h0l-.1-.1a1.844,1.844,0,0,0-.947-.467c-.172,0-.123.221-.1.344a.436.436,0,0,0-.529.332.265.265,0,0,0,0,.031.565.565,0,0,0,.055.24h0a.209.209,0,0,1-.08-.086.792.792,0,0,1-.037-.154c-.24,0-.461.141-.443.363a.393.393,0,0,0,.221.3" transform="translate(-26.517 -19.675)" fill="#fff"/><path d="M51.1,44.522c-.172-.2-.615-.1-.615-.1a.664.664,0,0,0-.344-.867h-.074a.547.547,0,0,0-.486.049h0l-.043.037a.326.326,0,0,0-.1.234.338.338,0,0,0,.338.338h0a.412.412,0,0,0,.191-.061.35.35,0,0,0,.16-.215.332.332,0,0,1,.129.16c.184.615-.492.817-.492.817a2.655,2.655,0,0,1-2.4-.32l.258-.141a.529.529,0,0,1,.24-.055v.049a.307.307,0,1,0,.615,0,.264.264,0,0,0-.037-.135h0V44.27c-.178-.264-.781-.086-.781-.086a1.088,1.088,0,0,0,0-.854c-.111-.178-.092-.246-.092-.246,0-.178-.043-.2-.043-.2-.086-.123-.252-.055-.252-.055-.24.055-.3-.043-.3-.043-.2-.141-.289-.055-.289-.055v.209c-.209,0-.277.27-.277.27-.086.455.289.492.289.492a.234.234,0,0,0,.264-.184h0c.037-.2-.264-.215-.264-.215.055-.129.141-.123.141-.123.313-.08.455.277.455.277a.67.67,0,0,1-.068.768.086.086,0,0,1-.1,0,4.977,4.977,0,0,1-.43-.258h-.1a.86.86,0,0,0-.326.068c.123.129.516.461.516.461-.3.227-.467.074-.467.074a.615.615,0,0,1-.086-.516h0l-.412.172c.135.24.356.615.356.615-.338.123-.412-.332-.43-.584-.068,0-.129.055-.2.074s0,.1,0,.1a1.358,1.358,0,0,0,.252.559.443.443,0,0,0-.535.486.172.172,0,0,0,.172.16.178.178,0,0,0,.172-.172.166.166,0,0,0-.166-.172c.074-.191.258-.037.258-.037.258.234-.154.5-.154.5-.3.2-.572-.184-.572-.184a2.206,2.206,0,0,0,.356-1.168l-.326.1a.744.744,0,0,1-.2.781c-.1-.068-.111-.338-.111-.338a.977.977,0,0,0-.1-.32l-.283.074a4.475,4.475,0,0,1,.154.768.565.565,0,0,1-.221.08c-.246,0-.117-.117-.117-.117.117-.1.092-.172.092-.172-.074-.166-.338,0-.338,0-.356.2-.246.406-.246.406.043.123.4.252.4.252a.885.885,0,0,1-.615.074.24.24,0,0,0-.184-.209h0a.2.2,0,0,0-.227.092.215.215,0,0,0-.043.074l-.221-.043c-.148,0-.234-.461-.283-.842h-.184c.061.406.135.768.135.768a2.262,2.262,0,0,1-.393-.227.891.891,0,0,0-.688-.16.43.43,0,1,0,.5.436,1.7,1.7,0,0,1,.3.16,1.721,1.721,0,0,0,.842.283.32.32,0,0,0,.307.252.3.3,0,0,0,.27-.166,1.549,1.549,0,0,0,1.131-.455c.086-.117.111-.049.111-.049.3.436.879.172.879.172.117-.055.141,0,.141,0a.227.227,0,0,0,.3.086c.234-.117.1-.264.1-.264v-.068c.27.037.326-.117.326-.117.055-.129-.141-.234-.141-.234l.049-.123c.166-.1.141-.191.141-.191.2,0,.184-.086.184-.086l-.246-.08c-.2,0-.16-.123-.16-.123a5.217,5.217,0,0,0,.725-.154,3.811,3.811,0,0,0,1.641.67.578.578,0,0,1,0,.252h0a.16.16,0,0,0,0,.313h.049c.313-.086.338-.547.338-.547a1.961,1.961,0,0,0,1.506-.615c.092-.074.135-.049.154,0h0a.264.264,0,0,0,.363.049l.049-.049a.418.418,0,0,0,.043-.141h0a.221.221,0,0,0-.049-.166" transform="translate(-24.394 -25.998)" fill="#fff"/><path d="M39.252,47.208a.221.221,0,0,0,.1-.141.418.418,0,0,0-.166-.356h-.645a.387.387,0,0,0-.166.356.221.221,0,0,0,.1.141s-.227.1-.234.252c0,0,0,.117.178.283a.867.867,0,0,1,.184.283s0,.178.252.178.252-.178.252-.178a1,1,0,0,1,.191-.283c.2-.166.178-.283.178-.283,0-.154-.234-.252-.234-.252" transform="translate(-23.346 -27.54)" fill="#fff"/><path d="M42.6,45.808l.123-.012-.08-.135Z" transform="translate(-25.022 -27.136)" fill="#fff"/><path d="M36.16,45.825l.117.006-.049-.141Z" transform="translate(-22.54 -27.147)" fill="#fff"/><path d="M34,45.509l.111.025-.031-.154Z" transform="translate(-21.708 -27.028)" fill="#fff"/><path d="M48.19,44.546l.1-.043-.1-.123Z" transform="translate(-27.176 -26.642)" fill="#fff"/><path d="M40.792,44.346v-.037h0l-.135.055v.074H40.7l-.148.055v-.037a.187.187,0,0,0,.049-.1v-.4h.037l.277.3s.043.049.061.049h.037v.037Zm-.725.246h0l.129-.473h-.074a.209.209,0,0,0-.092.043.2.2,0,0,0,0,.086h-.037v-.129L40.381,44h0l-.135.473.1-.037h.061l.031-.043a.123.123,0,0,0,0-.068h.074l.037.135Zm-.227.068-.1-.1a.123.123,0,0,0-.055-.055h-.049v.154h.055V44.7l-.252.074v-.043h.043v-.049l-.043-.24V44.4h-.055v-.037l.184-.055h.2a.037.037,0,1,1,.055.049.117.117,0,0,1-.061.141.32.32,0,0,1,.1.08.437.437,0,0,0,.086.061h.037v.037Zm-.9.227v-.043h.043a.068.068,0,0,0,0-.049l-.068-.277a.049.049,0,0,0,0-.043h-.061v-.037l.4-.092.031.092h-.08a.086.086,0,0,0-.037-.043H39l.043.16h.08a.086.086,0,0,0,0-.055h.08l.043.16h-.135l.031.117v.043h.141a.068.068,0,0,0,0-.049V44.7h0v.16Zm-.221-.332.031.16a.2.2,0,0,1,0,.086.123.123,0,0,1,0,.068.172.172,0,0,1-.055.061l-.092.037h-.178a.172.172,0,0,1-.043-.055.148.148,0,0,1,0-.074l-.037-.184V44.6h-.055v-.037l.252-.049v.037H38.5a.068.068,0,0,0,0,.049l.037.184v.08a.166.166,0,0,0,.049.043h.086a.24.24,0,0,0,.068-.037.1.1,0,0,0,0-.061v-.092l-.068-.184c0-.049-.037-.068-.086-.061v-.037l.178-.037v.037h0v.043M38.2,44.6v-.049h-.148v.16h.074a.068.068,0,0,0,0-.049h.037v.16h-.049v-.043h-.135v.129a.049.049,0,0,0,0,.043h.074V45l-.258.037V45h.049a.049.049,0,0,0,0-.043l-.043-.283a.049.049,0,0,0,0-.043.037.037,0,0,0-.049,0h0v-.037l.4-.068v.129Zm-.836.449h-.061v.037h-.16v-.037a.147.147,0,0,0,.068-.086l.1-.393h.043l.191.35a.172.172,0,0,0,.049.068h.037v.061Zm-.738.074v-.012h.049a.068.068,0,0,0,0-.049v-.283a.049.049,0,0,0,0-.043h-.049V44.7h.258v.043h-.061a.068.068,0,0,0,0,.049v.313h.049a.123.123,0,0,0,.092-.037.289.289,0,0,0,.037-.092h.037v.16Zm-.418-.012a.332.332,0,0,1-.344.049.2.2,0,0,1-.1-.092.215.215,0,0,1-.037-.117.221.221,0,0,1,.031-.129.215.215,0,0,1,.1-.1.252.252,0,0,1,.129,0,.227.227,0,0,1,.2.061.234.234,0,0,1,.08.178.246.246,0,0,1-.061.178m-.805-.356h-.037a.049.049,0,0,0,0,.043v.375h-.043l-.313-.356v.2a.123.123,0,0,0,0,.068h.049v.037H34.88v-.037h.043v-.3a.061.061,0,0,0-.061-.074h0v-.043h.166l.264.3v-.178c0-.055,0-.08-.068-.08v-.037H35.4Zm-.713.375a.252.252,0,0,1-.2.061.332.332,0,0,1-.154-.037.338.338,0,0,1-.086-.1.369.369,0,0,1,0-.117.234.234,0,0,1,.043-.129.166.166,0,0,1,.1-.086.252.252,0,0,1,.135,0,.246.246,0,0,1,.2.08.221.221,0,0,1,.068.184.277.277,0,0,1-.08.172m-.572-.412-.307.387h.221L34.1,45.1h.043v.141h-.43l.3-.387h-.074a.135.135,0,0,0-.1,0,.117.117,0,0,0-.049.068h-.111V44.8h.406Zm-.522.412h-.24v-.037h.037v-.1h-.148a.037.037,0,0,0,0,.037h.037v.043H33.14V45.1a.1.1,0,0,0,.086-.074l.184-.356h.043l.111.387c0,.037,0,.061.037.068h.037Zm-.535-.055h-.148L32.882,45a.228.228,0,0,0-.031-.068H32.8v.111a.068.068,0,0,0,0,.049h.043v.037h-.258v-.074h.049a.049.049,0,0,0,0-.043l.037-.283v-.043H32.63v-.037h.387a.061.061,0,0,1,.037.049.123.123,0,0,1,0,.068c0,.055-.043.086-.111.1a.528.528,0,0,1,.068.117l.049.086H33.1Zm-.811-.111-.24-.043v-.043h.037v-.068l-.166-.031h.037v.043h-.154v-.037a.1.1,0,0,0,.086-.061l.215-.344h.043l.08.4a.129.129,0,0,0,.031.074h0Zm-.529-.1L31.3,44.8v-.037h.049v-.037l.061-.283V44.4h-.049v-.037l.252.055v.025h-.061v.043l-.055.27v.043h.049a.135.135,0,0,0,.1,0,.141.141,0,0,0,.061-.074h.037Zm-.8-.32a.344.344,0,0,0,.043.1h0v.043l-.148-.043a.731.731,0,0,1-.043-.141.123.123,0,0,0,0-.068h-.049V44.6a.068.068,0,0,0,0,.049H30.8v.037l-.252-.068v-.037H30.6v-.043l.074-.27a.068.068,0,0,0,0-.049h.006v-.037l.184.049H31l.055.037a.117.117,0,0,1,.031.055.1.1,0,0,1,0,.061.123.123,0,0,1-.123.092.332.332,0,0,1,.049.117m-.486-.24a.246.246,0,0,1-.123.148.307.307,0,0,1-.209,0,.375.375,0,0,1-.135-.08A.246.246,0,0,1,30,44.3a.209.209,0,0,1,0-.123.178.178,0,0,1,.074-.111.2.2,0,0,1,.123-.055.3.3,0,0,1,.3.141.258.258,0,0,1,0,.191m-.559-.3a.191.191,0,0,1-.055.068h-.246l-.037.1v.049h.037v.037l-.246-.086v-.037h.061l.031-.043.092-.27V43.83l-.037-.031h0l.191.061.1.043.061.043a.191.191,0,0,1,.031.061.123.123,0,0,1,0,.068m4.622.541H34.7l-.172.1h0Zm6.441-1.069a.332.332,0,0,0-.111,0,17.129,17.129,0,0,1-11.327,0,.332.332,0,0,0-.111,0,.264.264,0,0,0-.166.049l-.695.547h0a1.063,1.063,0,0,1,.436.111,17.51,17.51,0,0,0,12.4,0,1.063,1.063,0,0,1,.436-.111h0l-.781-.467a.234.234,0,0,0-.166-.049" transform="translate(-19.619 -26.319)" fill="#fff"/><path d="M35.138,32.415l-.258.141H35.4l-.264-.166" transform="translate(-22.047 -22.021)" fill="#fff"/><path d="M39.562,32.533l-.215-.1h-.031a1.543,1.543,0,0,0-.283-.1H37.964a1.6,1.6,0,0,0-.289.1h0l-.215.1h2.1" transform="translate(-23.041 -21.998)" fill="#fff"/><path d="M42.957,32.45h0l-.227.154h.461c-.08-.055-.166-.111-.215-.154" transform="translate(-25.072 -22.045)" fill="#fff"/><path d="M34.8,38.815V37.66a1.346,1.346,0,0,0,0,1.131" transform="translate(-21.969 -24.052)" fill="#fff"/><path d="M37.339,32.94H34.554a.08.08,0,0,0,0,.074l.111.141H37.24Z" transform="translate(-21.918 -22.233)" fill="#fff"/><path d="M37.338,33.55H34.88a1.278,1.278,0,0,1,.123.221h2.249Z" transform="translate(-22.047 -22.469)" fill="#fff"/><path d="M37.321,34.377l.068-.227H35.25l.074.227Z" transform="translate(-22.189 -22.7)" fill="#fff"/><path d="M37.341,34.76H35.43v.227h1.844Z" transform="translate(-22.259 -22.935)" fill="#fff"/><path d="M35.41,36.191h1.014l-.307-.221h-.664a.43.43,0,0,1-.043.221" transform="translate(-22.251 -23.401)" fill="#fff"/><path d="M35.5,35.345h0v.2h.443l-.313-.227Z" transform="translate(-22.286 -23.151)" fill="#fff"/><path d="M40.155,35.4H40.3v1.4l-.148-.436Zm-1.1-.3,1.229,1.764v.873h.221v-2.3h.154v2.274h.221V35.374h.148v2.243l.227-.092V35.374H41.4v2.065l.209-.166h0v-1.53c-.068-.123-.123-.24-.172-.344h0c0-.08-.061-.154-.086-.227H40.076l-.289.209-.559-.209L39,35.1l2.1-.67H39.541l-.043-.141h1.844a.418.418,0,0,1,.043-.227H39.43l-.043-.148h2a.615.615,0,0,1,.08-.227H39.277l-.043-.148h2.3a1.3,1.3,0,0,1,.129-.221h-2.5l-.049-.154h2.637a1.124,1.124,0,0,1,.148-.191V32.94h-2.87V35.1Z" transform="translate(-23.635 -22.233)" fill="#fff"/><path d="M39.93,40.074a.762.762,0,0,1,.221-.117v-1.4l-.221-.166Z" transform="translate(-23.993 -24.334)" fill="#fff"/><path d="M39.3,40.379c0-.055.068-.1.086-.135h0a.529.529,0,0,1,.129-.178V38.148L39.29,38Z" transform="translate(-23.746 -24.183)" fill="#fff"/><path d="M38.673,39.919a.805.805,0,0,1,.184.221h0V37.78l-.227.166Z" transform="translate(-23.492 -24.099)" fill="#fff"/><path d="M38.1,39.893a.916.916,0,0,1,.221.1V38.27l-.221.166Z" transform="translate(-23.288 -24.288)" fill="#fff"/><path d="M40.53,40.083a.94.94,0,0,1,.227-.049V39.026l-.227-.166Z" transform="translate(-24.224 -24.515)" fill="#fff"/><path d="M37.49,39.974a.941.941,0,0,1,.221.043v-1.3l-.221.172Z" transform="translate(-23.053 -24.461)" fill="#fff"/><path d="M36.406,36.335h.148v.651l-.148.436Zm-1.119,2.034V36.335h.148v2.127l.227.1V36.335h.148v2.286l.221.043V36.372h.148v2.317H36.4v-.965l-.129.1,1.272-1.782h0l-.461-.67H35.447l2.09.67-.762.283-.283-.209H35.226a.744.744,0,0,1-.086.227c0,.08-.055.111-.08.172v1.653a1.026,1.026,0,0,0,.221.209" transform="translate(-22.116 -23.17)" fill="#fff"/><path d="M41.15,36.191h1.063a1.406,1.406,0,0,0-.043-.221h-.676Z" transform="translate(-24.463 -23.401)" fill="#fff"/><path d="M42.467,35.36h-.154L42,35.587h.461a.615.615,0,0,1,0-.154V35.36" transform="translate(-24.791 -23.166)" fill="#fff"/><path d="M33.361,24.4a.8.8,0,0,1,.811.166.885.885,0,0,1,.08,1.229h0c.111-.3.166-.744-.3-.86a1.008,1.008,0,0,0-.867.332.787.787,0,0,1,.965-.443c-.1-.283-.461-.4-.879-.166a1.137,1.137,0,0,0-.246.178.719.719,0,0,1,.449-.436m0,1.69c.258-.068.479-.2.418-.449a.178.178,0,0,0-.178-.129.344.344,0,0,0-.313.2.338.338,0,0,1,.326-.35h.061a.363.363,0,0,1,.307.252c.074.356-.252.5-.615.473m1.721-.854a2.606,2.606,0,0,0,1.407.965c.227.068.344.811.154,1.18-.215,0-.24-.141-.277-.307.092.08.227.178.215,0-.08-.068-.559-.191-.436-.406.08-.111.338.35.412.2.043-.313-.922-.406-.891-.676,0-.141.762.369.867.356,0-.166-1.125-.615-1.463-1.229,0-.043-.037-.086,0-.092h0m1.881,1.407a1.623,1.623,0,0,1-.049.9c-.068,0-.031-.148-.031-.209a3.325,3.325,0,0,0-.086-.891,5.531,5.531,0,0,0-.424-1.088,3.276,3.276,0,0,1,.615,1.285m.3-1c.2.086-.1.492-.129.572s.215-.2.283-.148-.221.51-.3.541c-.455-.615.123-.768.148-.965m.615-2.28c0,.234-.111.307-.135.3h0a.578.578,0,0,0-.08-.547.922.922,0,0,0-.258-.178.615.615,0,0,1,.486.455m-.738,3.589c-.086-.154.148-.344.2-.5.283-.043-.074.455-.2.5m.055.424c-.061-.031-.061-.154-.055-.209,0-.148.2-.215.277-.3a.707.707,0,0,1-.221.51M40,24.168a.658.658,0,0,1,.381.387.535.535,0,0,1,0,.455h0a.781.781,0,0,0-.074-.412.381.381,0,0,0-.215-.24,1.629,1.629,0,0,1,.148.246.393.393,0,0,1,.043.191.756.756,0,0,1-.191.522h0a.817.817,0,0,0,0-.658V24.6a.455.455,0,0,0-.406-.289.713.713,0,0,1,.178.959h0v-.117a.67.67,0,0,0,0-.27c-.1-.455-.479-.615-.756-.344a.793.793,0,0,1,.953-.369m-6.976,2.163A1.948,1.948,0,0,0,34.2,26.5a.94.94,0,0,0,.313-.129h.043a.787.787,0,0,0,.252-.615h0a.332.332,0,0,1,.037.172,1.014,1.014,0,0,1-.068.35v.055a.277.277,0,0,0,.043.111.436.436,0,0,0,.424.055h0a.375.375,0,0,1-.289.129.332.332,0,0,1-.111,0,.787.787,0,0,0,.695.283h0a.277.277,0,0,1-.172.043,1.125,1.125,0,0,1-.424-.1,1.229,1.229,0,0,0,.805.387c0,.049-.313,0-.412,0,.2.762.615.676.615.725a.234.234,0,0,0-.135.307v.043a2.508,2.508,0,0,1,.848-.166,2.458,2.458,0,0,1,.873.172.191.191,0,0,0,0-.2c-.068-.184-.651-.338-1.229-.172a.209.209,0,0,0-.074.037h0a.16.16,0,0,1,.068-.043,1.321,1.321,0,0,1,1.063-.092h0a.289.289,0,0,0,.363-.178.264.264,0,0,0,0-.154.283.283,0,0,0,.313-.24h0l-.092.043h0a.209.209,0,0,1-.123,0h0l.074-.037a.86.86,0,0,0,.449-.664.283.283,0,0,1-.221.123h-.086a.326.326,0,0,0,.1-.049.873.873,0,0,0,.264-.35,1.887,1.887,0,0,1-.381-.707.32.32,0,0,0-.3-.246h-.092c.154-.129.32,0,.418.068,0-.283.117-.356.129-.35h0a1.186,1.186,0,0,0,.492,1.3,1.555,1.555,0,0,0,1.616-.166h0a1.229,1.229,0,0,1-.258.043c-.1,0-.178,0-.178-.043h0a.922.922,0,0,0,.184,0,.873.873,0,0,0,.615-1.069h0l-.055.148c0,.043-.1.141-.117.135h0a.867.867,0,0,0,.074-.738.762.762,0,0,0-.27-.375,1.377,1.377,0,0,0-1.438,0,1.34,1.34,0,0,0-.5-.3,1.4,1.4,0,0,1-.5.651.83.83,0,0,1-.209.1s-.049,0,0-.043a1.045,1.045,0,0,0,.565-.873h0a1.291,1.291,0,0,0-.27-.744,1.432,1.432,0,0,0-1.678-.068.8.8,0,0,0-.215.43.479.479,0,0,1,.338-.32c.184-.055.541,0,.615.2-.313-.32-.885-.08-.965.467h0v.037h0s-.037,0,0-.246a1.555,1.555,0,0,1,.123-.5,1.229,1.229,0,0,0-1.5.873,1.315,1.315,0,0,0-.037.381.713.713,0,0,0,.2.436v.043a.535.535,0,0,1-.16-.092,1.033,1.033,0,0,1-.16-.344,2.077,2.077,0,0,0-.965-.141,1.3,1.3,0,0,0-.719.412,1.389,1.389,0,0,0-.16.258,1.106,1.106,0,0,0-.123.615,1.131,1.131,0,0,0,.535.916" transform="translate(-21.142 -18.341)" fill="#fff"/><path d="M24.421,37.913h0l-.135-.08c-.049.068.037.135.08.2s-.031.031-.055.037h-.092c-.086-.037-.1-.16-.1-.227a.27.27,0,0,0-.148-.227c.166-.1.424.16.449.184h0c.037,0,.086.055.123.092h0c0,.049-.068.043-.129,0m1.973-8.6a2.8,2.8,0,0,1,1.026.172h0a.965.965,0,0,1,.369.522,2.784,2.784,0,0,0-.707-.375c-.27-.1-.584-.141-.695-.356m-.473-.707c.246.092.27-.227.332-.154s-.154.369-.332.154m-.215.043c-.092-.209.24-.5.32-.522.191-.068.332.049.541.08a3.215,3.215,0,0,0,.344,0c.227,0,.166.184.129.209-.184.049-.3-.092-.449-.117s-.24.055-.356.043-.178-.074-.27,0-.141.1-.111.227a.092.092,0,0,1-.092.092.2.2,0,0,1-.055,0M29.067,31.9c-.08,0-.092-.32-.5-.24a.615.615,0,0,1-.522,0c.578-.332,1.069,0,1.026.258m.055.615a.578.578,0,0,1,.1.332v.449a.049.049,0,0,0,0,.043.049.049,0,0,0,0,.043v.289h0l-.037.043h-.344a.049.049,0,0,1,0-.043c0-.061.061-.117.092-.191s0-.1.055-.154.117,0,.135-.043a.252.252,0,0,1,0-.344h0c.172-.178,0-.553,0-.615m.24.848a2.041,2.041,0,0,0,.344-1.229,2.243,2.243,0,0,0-.522-1.377.172.172,0,0,1-.055-.148.16.16,0,0,1,.08-.117c.1-.074.332-.215.43-.277h.08a.133.133,0,0,1,.092.049.885.885,0,0,0,.572.209h.166a1.9,1.9,0,0,0,.418-.16c.08-.043.178-.08.227-.1h0a2.311,2.311,0,0,1,.885-.191,2.391,2.391,0,0,1,.879.184h0a.866.866,0,0,1,.227.1,1.9,1.9,0,0,0,.418.16h.166a.885.885,0,0,0,.572-.209c.043,0,.068-.049.092-.049h.092l.43.277a.154.154,0,0,1,.068.111.172.172,0,0,1-.055.148,2.268,2.268,0,0,0-.522,1.328,2.041,2.041,0,0,0,.344,1.229,1.407,1.407,0,0,1-.479,1.936,1.432,1.432,0,0,1-.91.2c-.086,0-.854,0-1.119.5h0c0,.055-.129.209-.172.3a.055.055,0,0,1-.068,0h0c-.043-.086-.141-.24-.172-.3h0c-.264-.492-1.033-.5-1.119-.5a1.414,1.414,0,0,1-1.58-1.229,1.371,1.371,0,0,1,.172-.9m5.568-.5h0a.314.314,0,0,1,.148-.061h.172a.375.375,0,0,1,.1.215h0a.615.615,0,0,0,.111.246c.049.049,0,.16-.1.141h0a.387.387,0,0,1-.24-.467h-.154a.111.111,0,0,1-.092.086.246.246,0,0,1,.123-.209m.615.688h0v.264h0v.123a.5.5,0,0,1-.061.3v.037h-.111s-.061-.1.037-.117h.074V33.8h0a1.555,1.555,0,0,1,.055-.479h.061m1.254.965a.848.848,0,0,0,.719-.092h.043s0,.2-.3.258a.971.971,0,0,1-.805-.406,1.917,1.917,0,0,0,.344.24m-.443-4.444a.615.615,0,0,1-.32.3.67.67,0,0,1-.578-.2c0-.037.234.117.467.1a.768.768,0,0,0,.418-.221h0m-1.082-1.377h-.037a.848.848,0,0,0-.713.037,1.69,1.69,0,0,0-.326.27,1.033,1.033,0,0,1,.768-.5c.3,0,.332.16.307.184M39,29.923l.2-.037c.061,0,.1-.08.172-.08s0,.055-.049.068a1.051,1.051,0,0,1-.332.166.479.479,0,0,1-.486-.148c.154-.049.289.055.5.031m.572-.842c.043-.178.289-.4.289-.5s-.123-.234-.135-.381a.35.35,0,0,1,.289-.406.264.264,0,0,1,.1,0,.572.572,0,0,1,.332.264c.037.043.092.08.117.117a3.976,3.976,0,0,1,.615,1.377,13.946,13.946,0,0,1,.1,5.943,5.477,5.477,0,0,1-.16.707c.436-3.952.2-4.917.123-4.917s-.135.486-.356.344.492-1.008.215-1.494c-.068-.074-.123.111-.24.08-.289-.1.16-.848.074-.928s-.283-.1-.289-.381c0-.129.086-.234,0-.338s-.068.074-.154.037c-.135-.141,0-.307-.074-.418s-.135.092-.209,0,.043-.191-.055-.24a.32.32,0,0,0-.277.363h0c0,.111.148.184.135.307s-.135.234-.16.289c-.191.424.129.516.086.664a.2.2,0,0,1-.246.08c-.111-.049-.141-.43-.1-.584m-2.458,7.338h0v.037a1.469,1.469,0,0,1-.356-.172.277.277,0,0,0-.227-.049h0c-.092.043-.135.141-.191.191v-.055h0v-.031h0v-.037h0v-.043h0a.32.32,0,0,1,.184-.037h0a.43.43,0,0,1,.252.1.615.615,0,0,0,.338.1.615.615,0,0,0-.068.123m-9-.516h0a.178.178,0,0,1-.08,0h-.16a.086.086,0,0,0,.043.086h.111c0,.055-.086.092-.135.092s-.154-.1-.184-.172h0a.688.688,0,0,0-.332-.068c0-.215.615-.068.615-.068a.67.67,0,0,1,.191.049h0m2.741,3.221a.891.891,0,0,0-.688.16,2.262,2.262,0,0,1-.393.227s.074-.363.135-.768h-.184c-.049.381-.135.817-.289.842l-.215.043a.215.215,0,0,0-.043-.074.221.221,0,0,0-.227-.092h0a.24.24,0,0,0-.184.209.885.885,0,0,1-.615-.074s.356-.129.4-.252c0,0,.1-.209-.246-.406,0,0-.264-.154-.338,0a.283.283,0,0,0,.092.172s.129.141-.117.117a.565.565,0,0,1-.221-.08,3.546,3.546,0,0,1,.154-.768l-.283-.074c-.037.1-.074.209-.1.32,0,0,0,.27-.111.338a.744.744,0,0,1-.2-.781l-.326-.1a2.243,2.243,0,0,0,.356,1.168s-.277.375-.572.178c0,0-.418-.27-.154-.5,0,0,.184-.154.258.037a.166.166,0,0,0-.166.172.178.178,0,0,0,.172.172.172.172,0,0,0,.172-.16.443.443,0,0,0-.535-.486,1.358,1.358,0,0,0,.252-.559v-.08c0-.055-.129-.049-.2-.074,0,.252-.092.707-.43.615l.363-.615-.412-.166h-.037a.615.615,0,0,1-.086.516s-.172.154-.467-.074c0,0,.393-.332.516-.461a.86.86,0,0,0-.326-.068h-.1a4.979,4.979,0,0,1-.43.258.086.086,0,0,1-.1,0,.688.688,0,0,1-.074-.768s.148-.356.461-.277c0,0,.086,0,.141.123,0,0-.3,0-.264.215,0,0,0,.221.27.209,0,0,.375-.037.289-.492,0,0-.068-.27-.283-.27,0,0,.123-.154.037-.209s-.092-.086-.289.055c0,0-.055.1-.3.043,0,0-.166-.068-.252.055,0,0-.043,0-.043.2a.664.664,0,0,1-.092.246.811.811,0,0,0-.068.326.5.5,0,0,0-.252-.117c-.123-.129-.135-.725-.258-1.02,0-.068.055-.369.055-.695a1.758,1.758,0,0,0,1.34-1.242,2.3,2.3,0,0,0-.068-1.137h0s.068.154.1.234a2.458,2.458,0,0,0,.94-.111h.08l.1-.055h.037a2.686,2.686,0,0,0,1.057-.99.916.916,0,0,1-.455-.246c.234,0,.412.117.615.123.338,0,.572-.191.947-.148a.492.492,0,0,0,.3.283,1.623,1.623,0,0,0,.086.565l.031.074s-.283.215-.209.4c0,.049.043.1.055.141H28.92c-.043,0-.092.055-.154.154s-.184.363-.074.387h.074a1.457,1.457,0,0,0,.209,1.125h0a1.752,1.752,0,0,0,1.524.695h0c.1,0,1.069,0,1.414.658a.24.24,0,0,0,.184.148c.086,0,.16-.111.178-.141.344-.645,1.309-.664,1.42-.664h0a1.752,1.752,0,0,0,1.524-.695h0a1.414,1.414,0,0,0,.227-.615c.215-.117.2-.615.2-.688a.867.867,0,0,0,.455.393c-.043.227,0,.615.221.658.074,0,.135-.1.117-.191.215.615.037.977.2,1.026s.215-.363.227-.369a.615.615,0,0,1,.092.3c0,.191,0,.375.061.406.283.049.148-.781.369-.695-.055.369,0,.572.148.615,0,.166,0,.332-.092.332-.406.092-.781-.234-1.131-.135H36.3a1.371,1.371,0,0,0-1.106-.117c-.184-.172-.252.08-.307.055-.338-.2-.529.129-.615.148s-.227-.172-.381.215c-.074.172-.455.24-.486.252a.16.16,0,0,1-.184-.086l-.043-.111a.277.277,0,0,0-.061-.08.16.16,0,0,0-.154-.049.209.209,0,0,0-.154.344.166.166,0,0,1,.092-.037.154.154,0,0,1,.154.154h0c0,.172-.252.344-.252.344-.16.141-.35-.049-.35-.049a.393.393,0,0,0-.178-.1.172.172,0,0,1-.326,0,.449.449,0,0,0-.184.1s-.2.191-.35.049c0,0-.264-.172-.252-.344h0a.154.154,0,0,1,.154-.154c.049,0,.086.049.092.037a.209.209,0,0,0-.154-.344.16.16,0,0,0-.154.049.184.184,0,0,0-.055.08.461.461,0,0,0-.049.111.16.16,0,0,1-.184.086s-.412-.08-.486-.252c-.16-.387-.307-.2-.381-.215s-.277-.344-.615-.148c-.055,0-.123-.227-.307-.055a1.451,1.451,0,0,0-.885,0c0-.061-.191-.092-.24-.111a2.3,2.3,0,0,1-.27-.148,1.678,1.678,0,0,0-.553-.049.861.861,0,0,1-.209-.08,2.065,2.065,0,0,1-.615-.492l-.092-.117a.891.891,0,0,1-.148-.283,2.059,2.059,0,0,1,.08-.824v-.234a1.536,1.536,0,0,1-.817-.037,1.979,1.979,0,0,1,.068.83.615.615,0,0,1,.221.332c0,.135-.049.283,0,.387a2.391,2.391,0,0,0,.535.424c.055,0,.793.615.885.615s.172-.055.264-.037a.16.16,0,0,1,.08.049,1.038,1.038,0,0,0,.154.123c-.221.141-.5.307-.707.412,0,0-.332.178-.178.184,0,0,.234,0,.252.043l-.246.1c.344.123.7.234,1.063.332a2.538,2.538,0,0,1,.817-.578s.412,0,.547-.289c.043-.092.221.178.615,0a.486.486,0,0,0,.191.1c.1.025-.148.037-.111.2,0,0-.3,0-.4.172a2.76,2.76,0,0,0-1.229.516,2.79,2.79,0,0,0,.326.074.983.983,0,0,1,.682-.221.615.615,0,0,1,.5.436c.221.031.443.061.664.08h0c.061,0,.369-.178.227-.356,0,0-.074-.092-.2,0,0,0-.086.074-.117-.037a.264.264,0,0,0-.043-.123s-.061-.086.061-.049a.615.615,0,0,0,.215,0,.221.221,0,0,0,0-.436h0a.1.1,0,0,1,0,.061c0,.037-.037.086-.074.074s-.092-.283.08-.289A.406.406,0,0,1,30.7,37s.289.436.559.529a.172.172,0,0,0,.123.215s0,.135.172.123a.836.836,0,0,1,.08.148h.922a.565.565,0,0,1,.08-.148c.178,0,.154-.123.172-.123.172-.055.1-.209.123-.215.27-.092.559-.529.559-.529a.406.406,0,0,1,.283-.16c.172,0,.209.252.08.289s-.074-.037-.074-.074a.1.1,0,0,1,0-.061h0a.221.221,0,0,0,0,.436.615.615,0,0,0,.215,0c.123-.037.061.049.061.049a.264.264,0,0,0-.043.123c-.031.111-.117.037-.117.037-.129-.117-.2,0-.2,0-.141.178.166.332.227.356h0a4.665,4.665,0,0,0,.664-.08.615.615,0,0,1,.5-.436.983.983,0,0,1,.682.221,2.79,2.79,0,0,0,.326-.074,2.76,2.76,0,0,0-1.229-.516c-.1-.166-.406-.148-.4-.172.037-.16-.141-.184-.111-.2s.16-.123.191-.1c.363.2.541-.068.615,0,.135.307.547.289.547.289a2.538,2.538,0,0,1,.817.578c.332-.092.658-.191.971-.3h0v-.055h0a.375.375,0,0,0-.043-.086h0a2.1,2.1,0,0,0-.246-.32h0s.24-.363.387-.117c0,.031,0,.117-.166.117a2.04,2.04,0,0,1,.221.467h0l.154-.055h.043c-.1-.184-.234-.289-.2-.35s.166.055.24-.055a1.407,1.407,0,0,0,.055-.307.762.762,0,0,0,.24.061c.246,0,.338-.381.27-.5.037,0,.184-.141.2-.111.074.178.479.369.443-.031.061.191.111.412.332.393s.061-.313.117-.313.117.4.356.32a.191.191,0,0,0,.129-.191c0-.3-.86-1.9-.934-2.588h-.043c-.086-.043-.092-.178-.08-.277h0c-.1,0-.27-.117-.3-.406s.111-.387.135-.387h0a.615.615,0,0,0,0,.615.332.332,0,0,0,.154.055.252.252,0,0,1,.123-.129h0a.406.406,0,0,0,0,.424.3.3,0,0,0,.16.074c.24-.086.363-.553.418-.695.16,0-.258.971.068,1.168.135,0,.209-.166.258-.3.1.277-.344.854,0,.99.2.049.27-.461.27-.393.055.774-.35,1.149-.086,1.266s.3-.529.3-.449c0,.83-.424,1.057-.246,1.229s.35-.418.344-.3c0,.738-.387.934-.221,1.174s.547-.486.565-.344-.406,1.026-.16,1.088.277-.24.3-.3a15.839,15.839,0,0,0,.615-4.917,13.718,13.718,0,0,0-.449-2.981c-.16-.553-.473-1.678-1.229-1.844a.522.522,0,0,0-.615.418.67.67,0,0,0,0,.111c0,.246.178.369.1.615a1.844,1.844,0,0,0-.227.51c-.043.178.111.246.061.436-.221,0-.338.148-.664.086a1.057,1.057,0,0,1-.615.055h0a.824.824,0,0,0,.725-.258.7.7,0,0,0-.141-.67,1.666,1.666,0,0,1-.928.16c-.541-.031-.67.068-.744.393a.172.172,0,0,1,0-.154c0-.178.2-.289.418-.307a.436.436,0,0,0,.049-.227.953.953,0,0,0-.264,0,.885.885,0,0,0-.7.436V29.7a.172.172,0,0,1,0,.08c.08.178.283.277.713.3h0a.3.3,0,0,1-.2,0,.9.9,0,0,1-.578-.209V29.9a.8.8,0,0,1-.486.227.664.664,0,0,1-.486-.215c-.258-.35.074-.953.068-1.174,0-.615-.83-.332-1.125-.172a2.889,2.889,0,0,0-.879.781,2.33,2.33,0,0,0-.344.522,1.985,1.985,0,0,0,.651.184h.055a.86.86,0,0,0,.529-.166.283.283,0,0,1,.184-.068.3.3,0,0,1,.209.086c.043.037.553.443.725.559a.2.2,0,0,1,.08.129.227.227,0,0,1-.068.178,3.006,3.006,0,0,0-.43.762,1.284,1.284,0,0,0-.068.184c-.061.215-.1.565.2.676,0,0,.338.086.313-.473,0,0,.055.356.313.344.117,0,.215-.111.2-.356h0a3.368,3.368,0,0,1,0-.787h0a.541.541,0,0,1,0,.141A2.926,2.926,0,0,0,37,33.58a2.034,2.034,0,0,1-.762-.768.682.682,0,0,0-.313.817.824.824,0,0,0,.264.369h0s-.055.068-.154,0h0l-.043-.055a1.014,1.014,0,0,1-.086-.16c-.123-.111-.234-.221-.344-.338h0c-.08-.172-.037-.688-.541-.695h-.135a1.807,1.807,0,0,1-.092-.848,2.741,2.741,0,0,1,.615-1.229s.043-.055.037-.086a.117.117,0,0,1,0-.049h0c-.172-.117-.676-.522-.731-.565h0a.154.154,0,0,0-.123-.055.148.148,0,0,0-.111.043.965.965,0,0,1-.615.2h-.1a2.194,2.194,0,0,1-.731-.221,2.231,2.231,0,0,0-1.918,0,2.342,2.342,0,0,1-.731.221h-.1a.965.965,0,0,1-.615-.2h0a.141.141,0,0,0-.1-.043.154.154,0,0,0-.123.055h0c-.055.043-.559.449-.738.565h0l-.031.049a.154.154,0,0,0,.037.086,2.71,2.71,0,0,1,.615,1.229,1.088,1.088,0,0,1,0,.283c-.043-.135-.086-.258-.117-.344a.473.473,0,0,0-.074-.191h0a.651.651,0,0,0-.289-.258l-.277-.1a1.026,1.026,0,0,1-.363-.363,1.143,1.143,0,0,0-.178-.584c.049,0,.252.123.27.486a2.12,2.12,0,0,0,.449-1.02c.178-.252.688-.154.885-.123a.436.436,0,0,1,.172.055c.055.043.068.129.141.16a.67.67,0,0,0,.27,0,.442.442,0,0,1,.074.129h.074a1.936,1.936,0,0,0,.688-.2h.043a.615.615,0,0,0-.43-.2c-.184,0-.289-.191-.473-.227a.615.615,0,0,0-.258,0,5.187,5.187,0,0,1-1.063-.129c-.356,0-.369.215-.5.418a1.487,1.487,0,0,1-.166.221c-.1.092-.209.1-.332.191h0a1.475,1.475,0,0,0-.166-.461h0a.049.049,0,0,1,0-.043,1.272,1.272,0,0,0-.848-.615.461.461,0,0,1-.154-.08.086.086,0,0,1,0-.117h0c.129-.068.338-.043.479-.111.338-.16.221-.449.086-.473a4.229,4.229,0,0,1-.547-.148c-.086-.055-.135-.2-.27-.246a.553.553,0,0,0-.283,0c-.086,0-.135.074-.2.061a.5.5,0,0,1,.387-.178c-.154-.043-.1-.283-.24-.338a.387.387,0,0,0-.246.061.615.615,0,0,0-.2-.418c-.141-.086-.154.037-.154.1s.178.129.209.4a.277.277,0,0,0-.086.061.522.522,0,0,0-.191-.344c-.111-.068-.154.031-.148.1s.154.123.2.35l-.111.1c-.234-.061-.283-.227-.344-.24s-.172,0-.117.141a.565.565,0,0,0,.332.221l-.068.08c-.27-.049-.326-.234-.387-.246s-.172,0-.117.141.338.221.406.24a.252.252,0,0,0-.055.191c-.209,0-.578.086-.51.332.074.049.32-.154.541-.043a.811.811,0,0,0,.449.283.615.615,0,0,1,.129.3,2.692,2.692,0,0,0,.326.541c.129.2.258.4.393.565a.258.258,0,0,1,0,.166,5.476,5.476,0,0,1-.8.707c-.191.178-1.979,1.537-2.206,2.133a1.149,1.149,0,0,0-.068.479.369.369,0,0,1-.356-.037c-.117-.141.123-.27.061-.461a.148.148,0,0,0-.221-.117c-.135.043-.16.313-.092.473,0,.043.086.1.037.135s-.111-.037-.111-.135a.141.141,0,0,0-.055.154c.037.135.191.135.246.172s-.092.086-.154,0c-.1.141,0,.2.037.2s.221-.08.289-.086,0,.1-.135.129c.178.215.338-.16.541-.111.061,0,.615.541.529.94a.289.289,0,0,1-.037.092c-.154.148-.313.283-.479.418-.3.191.283,1.371.24,1.973-.037.234.2.191.338.578a.412.412,0,0,0-.363.141v.037h0a.3.3,0,1,0,.516.283.283.283,0,0,0,.037-.135v-.049a.529.529,0,0,1,.24.055l.258.141a2.655,2.655,0,0,1-2.4.32s-.676-.215-.492-.817a.32.32,0,0,1,.129-.154.338.338,0,0,0,.135.2.412.412,0,0,0,.191.061.338.338,0,0,0,.338-.326h0a.32.32,0,0,0-.092-.234l-.043-.037h0a.615.615,0,0,0-.492-.049.651.651,0,0,0-.443.805.479.479,0,0,0,0,.086s-.436-.1-.615.1a.221.221,0,0,0-.049.166h0a.418.418,0,0,0,.043.141.258.258,0,0,0,.412,0h0a.158.158,0,0,1,.154,0,1.961,1.961,0,0,0,1.506.615s0,.461.338.547h.117a.16.16,0,0,0,0-.313h0a.578.578,0,0,1,0-.252,3.8,3.8,0,0,0,1.647-.67,5.218,5.218,0,0,0,.75.148s.043.1-.154.123c0,0-.258,0-.252.08s0,.092.184.086c0,0,0,.092.135.191,0,0,.111.055.055.123s-.2.1-.141.234c0,0,.055.154.326.117,0,0,.1,0,0,.074s-.135.148.092.264a.227.227,0,0,0,.3-.086s0-.074.135,0c0,0,.615.264.885-.172,0,0,0-.068.111.049a1.549,1.549,0,0,0,1.119.387.307.307,0,0,0,.412.135.32.32,0,0,0,.166-.221A1.647,1.647,0,0,0,30,39.972a1.844,1.844,0,0,1,.289-.154.443.443,0,0,0,.43.418.43.43,0,0,0,.436-.424.418.418,0,0,0-.356-.43" transform="translate(-16.627 -19.93)" fill="#fff"/><path d="M70.281,114.141a2.692,2.692,0,0,1-1.174.289c-.934,0-1.377-.664-1.377-1.653s.473-1.6,1.457-1.6a1.739,1.739,0,0,1,1.026.277l-.258.461a1.364,1.364,0,0,0-.768-.234c-.559,0-.817.43-.817,1.051,0,.738.27,1.143.8,1.143a1.383,1.383,0,0,0,.547-.111v-.578h-.43l-.031-.449h1.026Z" transform="translate(-34.707 -52.385)" fill="#fff"/><path d="M74.04,113.772c0-.547-.16-.738-.443-.738s-.443.2-.443.738.148.744.443.744.443-.2.443-.744m.615,0c0,.774-.393,1.192-1.069,1.192s-1.069-.412-1.069-1.192a1.076,1.076,0,1,1,2.139-.234,1.48,1.48,0,0,1,0,.234" transform="translate(-36.549 -52.925)" fill="#fff"/><path d="M77.346,113.739a.572.572,0,0,0,.418.234c.264,0,.455-.191.455-.744s-.172-.731-.449-.731a.645.645,0,0,0-.424.178Zm-.037-1.407a.768.768,0,0,1,.615-.283c.535,0,.916.381.916,1.18s-.461,1.192-.99,1.192a.762.762,0,0,1-.664-.326l-.111.277H76.75v-3.2h.615v.793Z" transform="translate(-38.183 -52.382)" fill="#fff"/><path d="M80.994,111.17h.615v.553h-.615Zm0,3.2v-1.844l-.264-.055v-.387H81.6v2.274Z" transform="translate(-39.717 -52.382)" fill="#fff"/><path d="M83.964,113.053c-.3,0-.418.27-.418.541h.83c0-.289-.092-.541-.412-.541m-.418.9a.522.522,0,0,0,.455.572.694.694,0,0,0,.16,0,1.666,1.666,0,0,0,.664-.2l.117.43a1.887,1.887,0,0,1-.854.227A1.063,1.063,0,0,1,82.956,114a.793.793,0,0,1,0-.209c0-.7.332-1.18,1.063-1.18s.959.51.959,1.082v.264Z" transform="translate(-40.572 -52.937)" fill="#fff"/><path d="M88.249,113.144a.762.762,0,0,0-.289-.037.615.615,0,0,0-.406.154v1.653H86.94v-2.286h.418a1.844,1.844,0,0,0,.068.307h0a.615.615,0,0,1,.541-.35.971.971,0,0,1,.264,0v.516" transform="translate(-42.11 -52.924)" fill="#fff"/><path d="M91.11,114.915v-1.352c0-.344-.129-.5-.406-.5a.615.615,0,0,0-.4.141v1.715H89.69v-2.286h.418l.092.258a.922.922,0,0,1,.719-.307c.578,0,.805.344.805.916V114.9Z" transform="translate(-43.17 -52.925)" fill="#fff"/><path d="M95.136,113.8c0-.547-.166-.738-.449-.738s-.436.2-.436.738.141.744.436.744.449-.2.449-.744m.615,0c0,.774-.387,1.192-1.069,1.192s-1.063-.412-1.063-1.192a1.07,1.07,0,0,1,2.133-.166.751.751,0,0,1,0,.166" transform="translate(-44.682 -52.951)" fill="#fff"/><path d="M100.87,112.62a.7.7,0,0,0-.412-.117c-.289,0-.467.2-.467.725s.172.75.461.75a.615.615,0,0,0,.418-.2Zm.061-.344a1.23,1.23,0,0,1-.061-.418v-.688h.615v3.2h-.5l-.074-.252a.75.75,0,0,1-.615.3c-.516,0-.928-.375-.928-1.186s.424-1.186.977-1.186a.719.719,0,0,1,.572.227" transform="translate(-46.9 -52.382)" fill="#fff"/><path d="M104.567,113.049c-.3,0-.418.27-.418.541h.817c0-.289-.092-.541-.412-.541m-.418.9a.516.516,0,0,0,.461.565.817.817,0,0,0,.123,0,1.665,1.665,0,0,0,.664-.2l.117.43a1.887,1.887,0,0,1-.854.227,1.063,1.063,0,0,1-1.131-.983.793.793,0,0,1,0-.209c0-.7.332-1.18,1.063-1.18s.959.51.959,1.082v.264Z" transform="translate(-48.495 -52.933)" fill="#fff"/><path d="M110.492,114.42c-.879,0-1.352-.615-1.352-1.641s.467-1.61,1.352-1.61a1.924,1.924,0,0,1,1.069.264l-.234.479a1.309,1.309,0,0,0-.768-.209c-.522,0-.781.387-.781,1.069s.258,1.112.768,1.112a1.487,1.487,0,0,0,.83-.289l.2.486a1.881,1.881,0,0,1-1.082.338" transform="translate(-50.666 -52.381)" fill="#fff"/><path d="M113.78,114.372v-3.2h.615v.842a1.4,1.4,0,0,1-.061.35.774.774,0,0,1,.615-.313c.658,0,.842.344.842.916v1.407h-.615V113.02a.2.2,0,0,0-.031-.111.332.332,0,0,0-.375-.369.615.615,0,0,0-.4.141V114.4Z" transform="translate(-52.454 -52.382)" fill="#fff"/><path d="M118,111.17h.615v.553H118Zm0,3.2v-1.844l-.258-.055v-.387h.867v2.274Z" transform="translate(-53.98 -52.382)" fill="#fff"/><path d="M120.08,113.77v-2.6h.615v2.563c0,.2.117.221.369.221v.43a3.157,3.157,0,0,1-.338.037c-.461,0-.615-.246-.615-.651" transform="translate(-54.882 -52.382)" fill="#fff"/><path d="M123.244,113.052c-.3,0-.418.27-.418.541h.83c0-.289-.092-.541-.412-.541m-.418.9a.522.522,0,0,0,.455.572.7.7,0,0,0,.16,0,1.666,1.666,0,0,0,.664-.2l.117.43a1.887,1.887,0,0,1-.854.227,1.063,1.063,0,0,1-1.131-.983.793.793,0,0,1,0-.209c0-.7.332-1.18,1.063-1.18a.94.94,0,0,1,.971.928.658.658,0,0,1,0,.154v.264Z" transform="translate(-55.71 -52.937)" fill="#fff"/><path d="M85.664,80.755H44.583v-64.1H85.67Zm-70.558-64.1H43.428v64.1H15.094ZM85.664,15.52H14V81.9H86.795V15.52Z" transform="translate(-14 -15.52)" fill="#fff"/><path d="M71.545,31.94l-.086-3.325h0c-.074.424-.141.731-.2.959l-.565,2.4H69.56l-.541-2.4c-.049-.227-.123-.535-.2-.959h0l-.055,3.356H68.06L68.214,28h1.328s.436,2,.664,3.282h0c.277-1.309.781-3.282.781-3.282h1.266l.154,3.97Z" transform="translate(-34.834 -20.33)" fill="#fff"/><path d="M76.35,27.81h.805V28.5h-.774Zm0,4.056v-2.3L76,29.488v-.479h1.143v2.883Z" transform="translate(-37.894 -20.256)" fill="#fff"/><path d="M80.77,32.594V30.9c0-.43-.166-.615-.516-.615a.879.879,0,0,0-.5.178v2.176H79V29.761h.553l.123.332a1.149,1.149,0,0,1,.91-.393c.731,0,1.02.43,1.02,1.162v1.782Z" transform="translate(-39.05 -20.984)" fill="#fff"/><path d="M84.332,27.81h.781V28.5h-.781Zm0,4.056v-2.3L84,29.488v-.479h1.155v2.883Z" transform="translate(-40.977 -20.256)" fill="#fff"/><path d="M87.564,30.472c0,.449,1.229.313,1.229,1.229,0,.522-.387.928-1.137.928a1.936,1.936,0,0,1-.867-.209l.16-.535a1.414,1.414,0,0,0,.682.2c.252,0,.424-.141.424-.313,0-.522-1.229-.35-1.229-1.334,0-.418.326-.805,1.1-.805a2.151,2.151,0,0,1,.811.141l-.1.559a1.7,1.7,0,0,0-.695-.148c-.264,0-.393.1-.393.264" transform="translate(-42.052 -20.958)" fill="#fff"/><path d="M92,32.222c-.516,0-.848-.24-.848-.965v-1.4h-.43v-.547h.43v-.473l.756-.252v.75h.756v.547h-.774V31.3a.289.289,0,0,0,.246.32H92.2a1.229,1.229,0,0,0,.443-.1l.117.565a1.776,1.776,0,0,1-.774.191" transform="translate(-43.567 -20.557)" fill="#fff"/><path d="M95.759,30.2c-.387,0-.541.35-.541.688h1.051c0-.369-.111-.688-.51-.688m-.541,1.143a.664.664,0,0,0,.615.713h.141a2.047,2.047,0,0,0,.848-.246l.148.541a2.385,2.385,0,0,1-1.088.283A1.34,1.34,0,0,1,94.456,31.4a1.23,1.23,0,0,1,0-.258c0-.885.43-1.494,1.352-1.494s1.229.651,1.229,1.371v.338Z" transform="translate(-45.004 -20.966)" fill="#fff"/><path d="M101.191,30.324a1,1,0,0,0-.356-.043.8.8,0,0,0-.516.191v2.1H99.55V29.685h.535l.086.387h0a.762.762,0,0,1,.688-.443,1.026,1.026,0,0,1,.332.043Z" transform="translate(-46.97 -20.957)" fill="#fff"/><path d="M103.112,27.81h.781V28.5h-.781Zm0,4.056v-2.3l-.332-.074v-.479h1.1v2.883Z" transform="translate(-48.215 -20.256)" fill="#fff"/><path d="M107.462,31.094c0-.695-.2-.934-.559-.934s-.559.246-.559.934.178.94.559.94.559-.252.559-.94m.793,0c0,.983-.5,1.506-1.352,1.506s-1.358-.516-1.358-1.506a1.365,1.365,0,0,1,2.71-.32,1.389,1.389,0,0,1,0,.32" transform="translate(-49.276 -20.934)" fill="#fff"/><path d="M114.7,29.642a1.039,1.039,0,0,0-.522-.141c-.363,0-.615.246-.615.916s.221.947.615.947a.768.768,0,0,0,.535-.246Zm.074-.436a1.549,1.549,0,0,1-.074-.529V27.81h.768v4.056h-.615l-.086-.32a.94.94,0,0,1-.768.375c-.651,0-1.174-.467-1.174-1.5s.541-1.5,1.229-1.5a.934.934,0,0,1,.719.283" transform="translate(-52.088 -20.256)" fill="#fff"/><path d="M119.429,30.2c-.381,0-.541.35-.541.688h1.051c0-.369-.111-.688-.51-.688m-.541,1.143a.664.664,0,0,0,.615.713h.141a2.047,2.047,0,0,0,.848-.246l.148.541a2.385,2.385,0,0,1-1.088.283,1.34,1.34,0,0,1-1.426-1.229,1.229,1.229,0,0,1,0-.258c0-.885.43-1.494,1.352-1.494s1.229.651,1.229,1.371v.338Z" transform="translate(-54.126 -20.966)" fill="#fff"/><path d="M69.168,37.658l-.436,1.8h1.082l-.406-1.77Zm-.762,3.288H67.65L68.726,37H70.01l1.039,3.964h-.86l-.209-.891H68.59Z" transform="translate(-34.676 -23.798)" fill="#fff"/><path d="M75.446,39.62c0-.344-.289-.43-.51-.43s-.516.086-.516.43.277.449.516.449.51-.086.51-.449m-.615,1.8a.412.412,0,0,0-.443.387v.031c0,.258.227.436.541.436s.578-.172.578-.473-.227-.35-.676-.381M76.4,38.7v.565a2.268,2.268,0,0,1-.541-.1.75.75,0,0,1,.289.455,1.088,1.088,0,0,1-1.18.99h0a1.911,1.911,0,0,1-.369-.055.148.148,0,0,0-.141.16c0,.307,1.844-.055,1.844,1.026,0,.676-.615,1.045-1.371,1.045-.615,0-1.229-.264-1.229-.793,0-.369.3-.565.768-.615-.363-.043-.719-.154-.719-.486s.221-.418.547-.443a.891.891,0,0,1-.516-.811,1.051,1.051,0,0,1,1.106-1h.08c.313,0,.959.055,1.457.061" transform="translate(-37.008 -24.433)" fill="#fff"/><path d="M80.527,39.344a1.032,1.032,0,0,0-.344-.049.805.805,0,0,0-.516.2v2.09H78.88V38.7h.535l.08.387h0a.756.756,0,0,1,.688-.443,1.045,1.045,0,0,1,.338.043Z" transform="translate(-39.004 -24.434)" fill="#fff"/><path d="M82.448,36.82h.75v.725h-.774Zm0,4.056V38.566L82.11,38.5v-.479h1.1v2.876Z" transform="translate(-40.249 -23.729)" fill="#fff"/><path d="M87.322,41.388a2.379,2.379,0,0,1-.983.252c-.86,0-1.377-.492-1.377-1.5a1.321,1.321,0,0,1,1.131-1.494,1.561,1.561,0,0,1,.24,0,1.893,1.893,0,0,1,.983.234l-.2.522a1.364,1.364,0,0,0-.725-.172c-.4,0-.651.27-.651.916s.24.916.658.916a1.807,1.807,0,0,0,.781-.215Z" transform="translate(-41.343 -24.431)" fill="#fff"/><path d="M91.585,41.616l-.117-.35a1.155,1.155,0,0,1-.9.412c-.713,0-1.045-.4-1.045-1.192V38.74h.762v1.752c0,.436.16.615.51.615a.959.959,0,0,0,.516-.172V38.758h.781v2.876Z" transform="translate(-43.104 -24.469)" fill="#fff"/><path d="M94.788,40.114V36.82h.738v3.251c0,.24.148.277.467.277v.541a3.32,3.32,0,0,1-.424.049c-.615,0-.8-.313-.8-.824" transform="translate(-45.128 -23.729)" fill="#fff"/><path d="M98.548,41.239c-.51,0-.817-.24-.817-.934V38.866H97.3v-.547h.43v-.473l.756-.246v.75h.768V38.9h-.793V40.3c0,.2.1.332.307.332a1.229,1.229,0,0,0,.443-.1l.117.559a1.653,1.653,0,0,1-.781.2" transform="translate(-46.103 -24.029)" fill="#fff"/><path d="M103.375,41.616l-.117-.35a1.149,1.149,0,0,1-.9.412c-.719,0-1.051-.4-1.051-1.192V38.74h.768v1.752c0,.436.16.615.5.615a.91.91,0,0,0,.516-.172V38.758h.787v2.876Z" transform="translate(-47.648 -24.469)" fill="#fff"/><path d="M108.171,39.344a1,1,0,0,0-.356-.049.805.805,0,0,0-.516.2v2.09h-.768V38.7h.535l.086.387h0a.75.75,0,0,1,.682-.443,1.045,1.045,0,0,1,.338.043Z" transform="translate(-49.66 -24.434)" fill="#fff"/><path d="M111.336,40.316h-.479c-.313,0-.461.148-.461.369a.387.387,0,0,0,.344.424h.086a.922.922,0,0,0,.51-.2Zm.215,1.229-.1-.338a1.063,1.063,0,0,1-.842.4.9.9,0,0,1-.965-.817V40.7c0-.535.393-.854,1.088-.854h.615V39.7c0-.369-.215-.486-.5-.486a2,2,0,0,0-.867.191l-.2-.547a2.9,2.9,0,0,1,1.137-.234c.817,0,1.174.375,1.174,1.112v1.844Z" transform="translate(-50.858 -24.422)" fill="#fff"/></g><g transform="translate(319.634 4472.833)"><path d="M23.81,36V63.86A18.2,18.2,0,0,0,42,82.1h.854A18.2,18.2,0,0,0,61.037,63.86V36ZM58.075,66.792a6.019,6.019,0,0,0,.209-3.184,1.278,1.278,0,0,0,.793-.486,4.6,4.6,0,0,1-1,3.669Zm-6.607,4.567a11.141,11.141,0,0,1,4.665.338,9.219,9.219,0,0,1-4.653,2.249A4.3,4.3,0,0,0,51.468,71.359Zm4.591-6.146A6.208,6.208,0,0,0,58,63.916a4.276,4.276,0,0,1-1.475,4.3,9.582,9.582,0,0,0-.467-2.987Zm.9-5.439a5.772,5.772,0,0,1,.811,3.116,8.463,8.463,0,0,0-3.688,3.983,5.378,5.378,0,0,1,.486-4.259,3.35,3.35,0,0,0,1.137,1.6,6.048,6.048,0,0,1,1.254-4.419ZM56.4,68.925a8.562,8.562,0,0,0,1.844-1.936A4.225,4.225,0,0,1,56.3,71.168a4.763,4.763,0,0,0,.1-2.225ZM55.7,40.167l.615-1.875.615,1.875h1.967L57.3,41.323l.615,1.881-1.6-1.168L54.737,43.2l.615-1.881-1.6-1.155Zm0,8.574.615-1.881.615,1.881h1.967L57.3,49.9l.615,1.875-1.6-1.162-1.6,1.162.615-1.875-1.6-1.162Zm-.32,17.449a4.917,4.917,0,0,1,.3,4.161,3.835,3.835,0,0,1-1.967.3c-.031-.947.535-2.44,1.672-4.462Zm-2.047,4.3a2.84,2.84,0,0,1-1.4.221,7.1,7.1,0,0,1,.971-2.753c.4.32.522,1.149.424,2.514ZM48.757,40.167l.615-1.875.615,1.875h1.967l-1.6,1.155L50.97,43.2l-1.592-1.168L47.786,43.2l.615-1.881-1.61-1.155Zm-6.933,0,.615-1.875.615,1.875H45.02l-1.592,1.155.615,1.881-1.586-1.168-1.6,1.168.615-1.881-1.592-1.155Zm-6.939,0,.615-1.875.615,1.875h1.948l-1.6,1.155.615,1.881-1.592-1.168L33.9,43.2l.615-1.881-1.592-1.155Zm-2.034,4.917H51.99V63.111a9.57,9.57,0,1,1-19.133,0ZM50.4,74.96a3.528,3.528,0,0,0-2.09-.516,9.219,9.219,0,0,1,2.5-3.583A3.136,3.136,0,0,1,50.4,74.96Zm-13.6-.8a3.227,3.227,0,0,0-2.274.172,3.5,3.5,0,0,1-.645-2.458A4.048,4.048,0,0,1,36.8,74.161Zm-2.52-3.3a3.141,3.141,0,0,0-1.309.393,5.7,5.7,0,0,1-1.088-2.809,3.4,3.4,0,0,1,2.4,2.415Zm-5.353-2.79a5.169,5.169,0,0,0-.08,2.612,7.449,7.449,0,0,1-2.68-3.608,6.859,6.859,0,0,1,2.76,1Zm-1.389-3.964a5.243,5.243,0,0,1,2.17,1.033,4.376,4.376,0,0,1,.983-3.012,6.664,6.664,0,0,1,.246,3.651,3.024,3.024,0,0,0-1.149-.246c-.277.135-.578.762-.916,1.844a6.841,6.841,0,0,1-1.334-3.27Zm5.341,7.375a4.339,4.339,0,0,0,.5,2.415,8.463,8.463,0,0,1-4.819-2.7,13.368,13.368,0,0,1,4.315.283ZM30.2,70.418a8.414,8.414,0,0,1-.283-4.395,10.492,10.492,0,0,1,1.7,4.5A4.88,4.88,0,0,0,30.2,70.418ZM27.94,40.167l.615-1.875.615,1.875h1.967l-1.592,1.155.615,1.881-1.592-1.168-1.6,1.168.615-1.881-1.592-1.155Zm0,8.574.615-1.881.615,1.881h1.967L29.544,49.9l.615,1.875-1.592-1.162-1.6,1.162.615-1.875-1.592-1.162ZM25.961,61.574A3.35,3.35,0,0,1,27.614,62.8a5.232,5.232,0,0,1,.535-2.729,5.067,5.067,0,0,1,1.168,3.983,6.109,6.109,0,0,0-2.047-.615,3.479,3.479,0,0,0-.695,2.256A3.664,3.664,0,0,1,25.961,61.574Zm4.087,12.292a5.532,5.532,0,0,1,3.073.824,1.77,1.77,0,0,0-1.1,1.094,4.377,4.377,0,0,1-1.948-1.942Zm7.5,1.7a2.674,2.674,0,0,0-.86.738,5.206,5.206,0,0,1-4.37-.32,5.033,5.033,0,0,1,5.23-.443Zm7.787,2.225a3.946,3.946,0,0,0-1.5.326,3.522,3.522,0,0,1,1.524.9,2.692,2.692,0,0,0-.805.651,4.616,4.616,0,0,0-2.041-1.143,6.9,6.9,0,0,0-2,1.494,3.823,3.823,0,0,0-1.18-.313,7.375,7.375,0,0,1,2.1-1.666,2.784,2.784,0,0,0-1.014-.135,5.015,5.015,0,0,1-5.851-.578,7.769,7.769,0,0,1,4.351-.326,4.984,4.984,0,0,1-1.616-3.516,4.874,4.874,0,0,1,3.393,3.86,3.952,3.952,0,0,1,1.844.356,10.037,10.037,0,0,1,2.581-.676c.541-1.967,1.481-3.178,2.8-3.645.381,1,.074,2.231-.9,3.688,1.739.111,2.852.615,3.331,1.407A4.806,4.806,0,0,1,45.34,77.794Zm2.71-.824.123-1.666a6.724,6.724,0,0,1,3.86,1.155c-.713.455-2.047.621-3.983.492ZM50.8,74.991a5.7,5.7,0,0,1,4.186-1.278,3.94,3.94,0,0,1-2.237,2.674A4.646,4.646,0,0,0,50.8,74.973Z" transform="translate(-23.81 -36)" fill="#fff"/><path d="M50.269,58.322h4.419c.983-1.506,0-2.071.178-2.919-.565.191-.615.947-.94,1.315-.842-1.229.658-3.221-.344-4.438.043,1.174-1.069,1.659-1.4,3.313-.35-1.033.436-1.979-.307-3-.148.94-1.229,1.616-1.051,3.233-.418-.363-.615-1.149-1-1.168.3.934-.91,2.28.443,3.688" transform="translate(-33.755 -42.274)" fill="#fff"/><path d="M57.51,52.45a4.364,4.364,0,0,1,0,2.5,1.6,1.6,0,0,0,0-2.5" transform="translate(-36.797 -42.34)" fill="#fff"/><path d="M51.435,64.12l-.215.436h3.737l-.209-.436Z" transform="translate(-34.373 -46.837)" fill="#fff"/><path d="M54.9,66.54H50.775l-.215.449h4.554Z" transform="translate(-34.119 -47.77)" fill="#fff"/><path d="M54.426,70.731l.467-1.991H51.55l.467,1.991Z" transform="translate(-34.501 -48.618)" fill="#fff"/><path d="M49.78,74.221a.32.32,0,0,0,.252-.111h4.794a.357.357,0,0,0,.264.111.35.35,0,0,0,0-.7.412.412,0,0,0-.264.111H50.032a.369.369,0,0,0-.252-.111.35.35,0,0,0,0,.7" transform="translate(-33.684 -50.46)" fill="#fff"/><path d="M53.52,76.33a1.186,1.186,0,0,0-1.18,1.186l1.02,8.93a.42.42,0,1,0,.6.375.4.4,0,0,0-.24-.363l1-8.943a1.186,1.186,0,0,0-1.186-1.186" transform="translate(-34.805 -51.543)" fill="#fff"/><path d="M98.014,49.4H96.17v7.252c0,1.34-.522,2.1-1.77,2.1-.86,0-1.573-.676-1.573-2.206V49.4H90.983v7.3a4.677,4.677,0,0,0,.621,2.667,3.35,3.35,0,0,0,2.79,1.334c2.219,0,3.608-1.229,3.608-4.13Z" transform="translate(-49.693 -41.164)" fill="#fff" fill-rule="evenodd"/><path d="M109.821,56.413c0-1.789-.983-2.723-2.262-2.723a2.108,2.108,0,0,0-1.954,1.42h0V53.881H103.97v8.181h1.709V57.384c0-1.229.615-1.887,1.352-1.887,1.082,0,1.106,1.008,1.106,1.6v4.96h1.715Z" transform="translate(-54.703 -42.817)" fill="#fff" fill-rule="evenodd"/><path d="M115,60.338h1.715V52.158H115Zm1.715-11.118H115v2h1.715Z" transform="translate(-58.953 -41.095)" fill="#fff" fill-rule="evenodd"/><path d="M125.594,54.03h-1.825l-1.383,6.017h-.025l-1.34-6.017H119.11l2.336,8.162h1.8Z" transform="translate(-60.537 -42.949)" fill="#fff" fill-rule="evenodd"/><path d="M133.805,59.67a1.112,1.112,0,0,1-1.094.891c-1.383,0-1.481-1.383-1.53-2h4.468v-.381c0-3.725-1.776-4.493-3.073-4.493-2.846,0-3.116,3.141-3.116,4.124,0,3.362,1.407,4.462,3.245,4.462a2.915,2.915,0,0,0,2.864-2.606Zm-2.575-2.5c.1-1.076.522-1.727,1.334-1.727.547,0,1.229.406,1.315,1.727Z" transform="translate(-64.526 -42.817)" fill="#fff" fill-rule="evenodd"/><path d="M140.66,62.061h1.715V57.814c0-.9.246-1.948,1.58-1.948a2.514,2.514,0,0,1,.486.031V53.721a2.01,2.01,0,0,0-.326-.031c-1.045,0-1.438.8-1.795,1.623h0V53.881h-1.635Z" transform="translate(-68.842 -42.817)" fill="#fff" fill-rule="evenodd"/><path d="M152.874,56.388a2.576,2.576,0,0,0-2.926-2.7,2.5,2.5,0,0,0-2.637,2.729c0,3.073,4.044,2.028,4.044,3.387,0,.307-.2.848-1.094.848-1.069,0-1.42-.51-1.42-1.2H147.09c.043,2.176,1.647,2.821,3.122,2.821a2.631,2.631,0,0,0,2.864-2.809c0-3.005-4.087-2.065-4.087-3.356,0-.356.123-.8,1.057-.8s1.076.553,1.149,1.076Z" transform="translate(-71.32 -42.817)" fill="#fff" fill-rule="evenodd"/><path d="M157.82,60.338h1.7V52.158h-1.7Zm1.7-11.118h-1.7v2h1.7Z" transform="translate(-75.456 -41.095)" fill="#fff" fill-rule="evenodd"/><path d="M168.05,49.4h-1.709v3.9h0a2.071,2.071,0,0,0-1.887-1.266c-1.438,0-2.7,1.371-2.7,4.2,0,2.243.805,4.388,2.735,4.388a1.991,1.991,0,0,0,1.893-1.229h0V60.42h1.672Zm-4.56,6.988c0-1.285.363-2.5,1.45-2.5s1.469,1.328,1.469,2.631c0,1.229-.424,2.342-1.512,2.342s-1.407-1.5-1.407-2.458" transform="translate(-76.97 -41.164)" fill="#fff" fill-rule="evenodd"/><path d="M178.738,56.05a2.312,2.312,0,0,0-2.588-2.36c-1.34,0-2.723.35-2.913,2.852h1.647c.049-.473.2-1.137,1.051-1.137.443,0,1.131.043,1.131.947a.615.615,0,0,1-.615.651l-1.537.289A2.341,2.341,0,0,0,173.01,59.9c0,1.684,1.014,2.379,1.985,2.379a2.458,2.458,0,0,0,2.1-1.18,4.3,4.3,0,0,0,.166.965h1.844v-.32c-.215-.092-.387-.307-.387-1.272Zm-1.672,3.073a1.561,1.561,0,0,1-1.537,1.616c-.326,0-.787-.234-.787-.983,0-.891.516-1.088,1.162-1.229a2.194,2.194,0,0,0,1.162-.443Z" transform="translate(-81.31 -42.817)" fill="#fff" fill-rule="evenodd"/><path d="M189.44,49.4h-1.715v3.9h0a2.053,2.053,0,0,0-1.875-1.266c-1.438,0-2.71,1.371-2.71,4.2,0,2.243.805,4.388,2.735,4.388a2,2,0,0,0,1.893-1.229h0V60.42h1.678ZM184.9,56.388c0-1.285.363-2.5,1.45-2.5s1.475,1.328,1.475,2.631c0,1.229-.43,2.342-1.518,2.342s-1.407-1.5-1.407-2.458" transform="translate(-85.214 -41.164)" fill="#fff" fill-rule="evenodd"/><path d="M97.246,71.78H95.531V75.7h0a2.077,2.077,0,0,0-1.887-1.266c-1.438,0-2.7,1.377-2.7,4.2,0,2.237.8,4.382,2.741,4.382a1.973,1.973,0,0,0,1.881-1.229h0v1.026h1.672Zm-4.567,7c0-1.285.369-2.5,1.457-2.5s1.475,1.328,1.475,2.631-.436,2.342-1.524,2.342-1.407-1.5-1.407-2.458" transform="translate(-49.681 -49.789)" fill="#fff" fill-rule="evenodd"/><path d="M106.038,82.07a1.119,1.119,0,0,1-1.088.891c-1.389,0-1.487-1.389-1.53-2h4.462v-.381c0-3.731-1.77-4.493-3.073-4.493-2.858,0-3.128,3.141-3.128,4.124,0,3.362,1.414,4.462,3.251,4.462a2.905,2.905,0,0,0,2.858-2.606Zm-2.581-2.5c.1-1.076.529-1.715,1.334-1.715.547,0,1.229.393,1.328,1.715Z" transform="translate(-53.82 -51.45)" fill="#fff" fill-rule="evenodd"/><path d="M122.66,75.217a3.886,3.886,0,0,0-3.8-3.9c-2.256,0-4.032,1.961-4.032,5.808s1.672,5.79,4.013,5.79c2.194,0,3.448-1.672,3.817-4.069h-1.844c-.221,1.352-.928,2.077-1.948,2.077-1.555,0-2.176-1.782-2.176-3.761,0-3.116,1.3-3.854,2.176-3.854,1.518,0,1.8,1.229,1.948,1.905Z" transform="translate(-58.888 -49.612)" fill="#fff" fill-rule="evenodd"/><path d="M135.056,80.382c0-2.944-1.586-4.3-3.331-4.3s-3.325,1.352-3.325,4.3,1.573,4.3,3.325,4.3,3.331-1.346,3.331-4.3m-1.758,0c0,1.039-.252,2.458-1.573,2.458s-1.567-1.444-1.567-2.458.252-2.458,1.567-2.458,1.573,1.444,1.573,2.458" transform="translate(-64.118 -51.446)" fill="#fff" fill-rule="evenodd"/><path d="M145.906,78.809c0-1.789-.99-2.729-2.262-2.729a2.127,2.127,0,0,0-1.961,1.414h0V76.3H140v8.162h1.709V79.78c0-1.229.615-1.887,1.352-1.887,1.088,0,1.106,1.014,1.106,1.61v4.954h1.715Z" transform="translate(-68.588 -51.446)" fill="#fff" fill-rule="evenodd"/><path d="M154.891,81.482c0,.381-.289,1.426-1.162,1.426-1.291,0-1.315-1.764-1.315-2.655,0-1,.27-2.36,1.352-2.36.8-.061,1.069.781,1.137,1.321h1.746c-.16-2.545-1.844-3.135-2.883-3.135-2.2,0-3.116,1.887-3.116,4.53,0,1.721.559,4.063,3.012,4.063s2.907-2.342,2.969-3.19Z" transform="translate(-72.692 -51.446)" fill="#fff" fill-rule="evenodd"/><path d="M165.341,82.07a1.106,1.106,0,0,1-1.094.891c-1.383,0-1.487-1.389-1.537-2h4.474v-.381c0-3.731-1.782-4.493-3.073-4.493-2.858,0-3.122,3.141-3.122,4.124,0,3.362,1.407,4.462,3.245,4.462A2.915,2.915,0,0,0,167.1,82.07Zm-2.581-2.5c.08-1.076.529-1.69,1.34-1.69.553,0,1.229.393,1.321,1.715Z" transform="translate(-76.677 -51.45)" fill="#fff" fill-rule="evenodd"/><path d="M173.791,80.547c0-1.3.283-2.631,1.457-2.631s1.463,1.229,1.463,2.5c0,.971-.307,2.458-1.414,2.458s-1.506-1.131-1.506-2.342m0-4.272H172.15v11.37h1.715V83.387h.037a1.887,1.887,0,0,0,1.844,1.229c1.936,0,2.735-2.145,2.735-4.382,0-2.827-1.266-4.2-2.71-4.2a2.059,2.059,0,0,0-1.936,1.4H173.8Z" transform="translate(-80.978 -51.427)" fill="#fff" fill-rule="evenodd"/><path d="M187.333,81.482c0,.381-.3,1.426-1.162,1.426-1.3,0-1.321-1.764-1.321-2.655,0-1,.277-2.36,1.358-2.36.8-.061,1.057.781,1.137,1.321h1.739c-.16-2.545-1.844-3.135-2.876-3.135-2.206,0-3.128,1.887-3.128,4.53,0,1.721.572,4.063,3.012,4.063s2.919-2.342,2.975-3.19Z" transform="translate(-85.19 -51.446)" fill="#fff" fill-rule="evenodd"/><path d="M193.68,82.738H195.4V74.576H193.68ZM195.4,71.62H193.68v1.991H195.4Z" transform="translate(-89.276 -49.727)" fill="#fff" fill-rule="evenodd"/><path d="M203.212,71h-1.887l-1.149,2.237h1.229Zm1.014,7.425c0-2.944-1.573-4.3-3.331-4.3s-3.325,1.352-3.325,4.3,1.58,4.3,3.325,4.3,3.331-1.346,3.331-4.3m-1.752,0c0,1.039-.246,2.458-1.58,2.458s-1.561-1.444-1.561-2.458.24-2.458,1.561-2.458,1.58,1.444,1.58,2.458" transform="translate(-90.775 -49.489)" fill="#fff" fill-rule="evenodd"/><path d="M215.32,78.809c0-1.789-1-2.729-2.268-2.729a2.127,2.127,0,0,0-1.961,1.414h0V76.3H209.45v8.162h1.715V79.78c0-1.229.584-1.887,1.346-1.887,1.088,0,1.112,1.014,1.112,1.61v4.954h1.7Z" transform="translate(-95.353 -51.446)" fill="#fff" fill-rule="evenodd"/></g><g transform="translate(470.794 4470.375)"><path d="M120.279,104.687l.658-1.328a5.04,5.04,0,0,0,2.741.817,2.17,2.17,0,0,0,2.458-2.36V101.2a3.227,3.227,0,0,1-2.71,1.407,3.454,3.454,0,0,1-3.5-3.6h0a3.473,3.473,0,0,1,3.5-3.614,3.319,3.319,0,0,1,2.692,1.3V95.553h1.764v6.115a3.952,3.952,0,0,1-.977,2.9,4.345,4.345,0,0,1-3.184,1.033A6.668,6.668,0,0,1,120.279,104.687Zm5.845-5.667v-.031a2.145,2.145,0,0,0-2.256-2.114,2.077,2.077,0,0,0-2.188,2.114v.031a2.09,2.09,0,0,0,2.188,2.108,2.145,2.145,0,0,0,2.249-2.108Z" transform="translate(-65.401 -53.975)" fill="#fff"/><path d="M136.43,95.555h1.764v1.733a2.71,2.71,0,0,1,2.723-1.881v1.844h-.1c-1.543,0-2.618,1.008-2.618,3.073v2.926H136.43Z" transform="translate(-71.762 -53.977)" fill="#fff"/><path d="M146.07,100.527V95.61h1.764v4.37c0,1.192.615,1.844,1.647,1.844a1.7,1.7,0,0,0,1.733-1.893v-4.3h1.776v7.689h-1.776v-1.192a2.778,2.778,0,0,1-2.4,1.352A2.644,2.644,0,0,1,146.07,100.527Z" transform="translate(-75.477 -54.056)" fill="#fff"/><path d="M160.895,95.546h1.764v1.278a3.073,3.073,0,0,1,2.594-1.444,3.684,3.684,0,0,1,3.571,3.995v.031a3.679,3.679,0,0,1-3.571,3.989,3.135,3.135,0,0,1-2.618-1.352v3.552H160.87Zm6.146,3.86v-.031a2.274,2.274,0,0,0-2.194-2.458,2.323,2.323,0,0,0-2.243,2.458v.031a2.317,2.317,0,0,0,2.243,2.458,2.252,2.252,0,0,0,2.206-2.458Z" transform="translate(-81.18 -53.967)" fill="#fff"/><path d="M176.12,99.475h0a4.1,4.1,0,0,1,8.205-.031v.031a4.02,4.02,0,0,1-4.124,4,3.977,3.977,0,0,1-4.081-4Zm6.441,0h0a2.379,2.379,0,0,0-2.36-2.458,2.311,2.311,0,0,0-2.317,2.458v.031a2.366,2.366,0,0,0,2.348,2.458,2.3,2.3,0,0,0,2.329-2.489Z" transform="translate(-87.058 -53.993)" fill="#fff"/><circle cx="1.524" cy="1.524" r="1.524" transform="translate(10.324 3.042)" fill="#fff"/><circle cx="1.524" cy="1.524" r="1.524" transform="translate(21.277 7.91)" fill="#fff"/><circle cx="1.524" cy="1.524" r="1.524" transform="translate(13.975 35.9)" fill="#fff"/><circle cx="0.916" cy="0.916" r="0.916" transform="translate(18.843 0)" fill="#fff"/><circle cx="0.916" cy="0.916" r="0.916" transform="translate(20.668 13.995)" fill="#fff"/><circle cx="0.307" cy="0.307" r="0.307" transform="translate(12.758 40.159)" fill="#fff"/><circle cx="0.307" cy="0.307" r="0.307" transform="translate(17.017 38.942)" fill="#fff"/><circle cx="0.307" cy="0.307" r="0.307" transform="translate(12.15 11.561)" fill="#fff"/><circle cx="0.307" cy="0.307" r="0.307" transform="translate(21.277 4.868)" fill="#fff"/><circle cx="0.307" cy="0.307" r="0.307" transform="translate(9.716 13.995)" fill="#fff"/><circle cx="0.307" cy="0.307" r="0.307" transform="translate(11.541 18.862)" fill="#fff"/><circle cx="0.307" cy="0.307" r="0.307" transform="translate(9.716 37.117)" fill="#fff"/><circle cx="0.307" cy="0.307" r="0.307" transform="translate(19.451 11.561)" fill="#fff"/><circle cx="1.524" cy="1.524" r="1.524" transform="translate(15.8 7.302)" fill="#fff"/><path d="M96.945,67.481a4.714,4.714,0,0,0-.983,3.073,4.554,4.554,0,0,0,.953,3.159,2.809,2.809,0,0,0,2.213.916,5.175,5.175,0,0,0,3-.891V67.672a4.917,4.917,0,0,0-2.907-1.143A2.926,2.926,0,0,0,96.945,67.481Z" transform="translate(-56.16 -42.848)" fill="none"/><path d="M159.288,76.751a1.346,1.346,0,0,0,.615,1.229,2.532,2.532,0,0,0,1.518.412,4.241,4.241,0,0,0,2.213-.615V74.76a10.891,10.891,0,0,0-2.815.35C159.952,75.393,159.288,75.9,159.288,76.751Z" transform="translate(-80.569 -46.02)" fill="none"/><path d="M40.135,67.691c-1.063-.51-2.182-.793-3.165-1.192-.756-.313-1.3-.664-1.3-1.3a.965.965,0,0,1,.412-.817,2.674,2.674,0,0,1,1.328-.289,6.472,6.472,0,0,1,3.2.916c.252.129.473.1.565-.154l1.076-2.213a.406.406,0,0,0-.191-.615,9.293,9.293,0,0,0-4.831-1.106,6.81,6.81,0,0,0-4.265,1.229,3.89,3.89,0,0,0-1.389,3.073,3.94,3.94,0,0,0,2.5,3.86c1.137.473,2.213.756,3.159,1.168.793.35,1.3.664,1.3,1.358a1.229,1.229,0,0,1-.535,1.045,2.6,2.6,0,0,1-1.389.32A6.281,6.281,0,0,1,32.962,71.8a.406.406,0,0,0-.615.191l-1.076,2.213c-.123.221-.061.443.221.615a9.908,9.908,0,0,0,5.157,1.2,7.068,7.068,0,0,0,4.2-1.168A4.167,4.167,0,0,0,42.7,71.373,3.817,3.817,0,0,0,40.135,67.691Z" transform="translate(-31.212 -40.685)" fill="#fff"/><path d="M55.835,66.122a.91.91,0,0,1,.848-.91v-3.35a.467.467,0,0,0-.473-.473H54.6a.91.91,0,0,1-1.795,0,.455.455,0,0,0-.3.443V74.309a1.518,1.518,0,0,1,1.53,1.549h2.206a.486.486,0,0,0,.473-.473V67.026a.91.91,0,0,1-.885-.9ZM54.919,71.9A1.518,1.518,0,1,1,56,71.453a1.524,1.524,0,0,1-1.082.447Z" transform="translate(-39.42 -40.868)" fill="#fff"/><path d="M54.4,51.9a2.4,2.4,0,1,0-2.4-2.4,2.379,2.379,0,0,0,2.4,2.4Z" transform="translate(-39.223 -35.357)" fill="#fff"/><path d="M71.874,60.925a6,6,0,0,0-2.846.695,5.777,5.777,0,0,0-1.45,1.266h-.1V61.656a.467.467,0,0,0-.473-.473H63.933a.449.449,0,0,0-.473.473V75.177a.467.467,0,0,0,.473.473H67.16a.486.486,0,0,0,.473-.473V68.8a6.288,6.288,0,0,1,.664-3.005,2.981,2.981,0,0,1,2.686-1.426,2.458,2.458,0,0,1,1.93.731,3.969,3.969,0,0,1,.695,2.717V75.19a.486.486,0,0,0,.473.473h3.233a.492.492,0,0,0,.5-.473V66.9a5.873,5.873,0,0,0-1.678-4.554,6.146,6.146,0,0,0-4.265-1.42Z" transform="translate(-43.64 -40.685)" fill="#fff"/><path d="M103.141,61.21h-3.073a.467.467,0,0,0-.473.473V62.1H99.5a6.318,6.318,0,0,0-3.577-1.168,6.484,6.484,0,0,0-4.917,1.991,8.119,8.119,0,0,0-1.991,5.532,7.867,7.867,0,0,0,2.151,5.691,6.656,6.656,0,0,0,4.776,1.844,6.761,6.761,0,0,0,3.509-.879v1.457a3.46,3.46,0,0,1-.817,2.458,3.2,3.2,0,0,1-2.372.793,6.816,6.816,0,0,1-3.983-1.3.467.467,0,0,0-.725.123l-1.229,2.342a.535.535,0,0,0,.221.615,10.326,10.326,0,0,0,5.661,1.58,8.02,8.02,0,0,0,5.28-1.549c1.45-1.229,2.145-3.19,2.145-5.661V61.683a.467.467,0,0,0-.492-.473ZM99.453,71.579a5.175,5.175,0,0,1-3,.916,2.809,2.809,0,0,1-2.213-.916,4.554,4.554,0,0,1-.934-3.159,4.714,4.714,0,0,1,.983-3.073,2.926,2.926,0,0,1,2.274-.953,4.917,4.917,0,0,1,2.889,1.119Z" transform="translate(-53.487 -40.688)" fill="#fff"/><path d="M130.34,61.39H127.12a.449.449,0,0,0-.473.473v7.621a4.032,4.032,0,0,1-.412,1.961,2.747,2.747,0,0,1-2.594,1.328,2.661,2.661,0,0,1-2.52-1.328,4.038,4.038,0,0,1-.406-1.961V61.863a.473.473,0,0,0-.479-.473h-3.221a.467.467,0,0,0-.473.473v7.781a6.632,6.632,0,0,0,1.229,4.265c1.229,1.549,3.319,2.274,5.882,2.274s4.677-.725,5.913-2.274a6.6,6.6,0,0,0,1.266-4.265V61.863a.467.467,0,0,0-.492-.473Z" transform="translate(-64.093 -40.868)" fill="#fff"/><path d="M147.2,49.92h-3.227a.467.467,0,0,0-.473.473V70.977a.467.467,0,0,0,.473.473H147.2a.486.486,0,0,0,.473-.473V50.393A.486.486,0,0,0,147.2,49.92Z" transform="translate(-74.486 -36.448)" fill="#fff"/><path d="M159.476,60.93a11.432,11.432,0,0,0-5.882,1.58.43.43,0,0,0-.191.615l.916,1.961c.129.344.381.344.7.154a7.99,7.99,0,0,1,3.952-1.168,2.1,2.1,0,0,1,1.739.664,2.545,2.545,0,0,1,.443,1.678v.313a18.7,18.7,0,0,0-5.722,1.137,3.914,3.914,0,0,0-2.624,3.688,4.112,4.112,0,0,0,1.42,3.288,5.034,5.034,0,0,0,3.35,1.168,6.564,6.564,0,0,0,3.86-1.039h.123v.252a.492.492,0,0,0,.51.473h2.778a.486.486,0,0,0,.479-.473V66.431a5.39,5.39,0,0,0-1.266-3.86A6.111,6.111,0,0,0,159.476,60.93Zm1.678,11.506a4.241,4.241,0,0,1-2.213.615,2.532,2.532,0,0,1-1.518-.412,1.346,1.346,0,0,1-.615-1.229c0-.848.664-1.358,1.549-1.641a10.89,10.89,0,0,1,2.815-.35Z" transform="translate(-78.072 -40.691)" fill="#fff"/><path d="M188.156,62.38a4.96,4.96,0,0,0-1.346-.977,5.353,5.353,0,0,0-2.213-.473,3.909,3.909,0,0,0-2.4.787,4.6,4.6,0,0,0-1.137,1.229h-.1V61.716a.467.467,0,0,0-.473-.473h-3.073a.449.449,0,0,0-.473.473V75.238a.467.467,0,0,0,.473.473h3.221a.486.486,0,0,0,.479-.473V68.7a5.54,5.54,0,0,1,.787-3.319,2.28,2.28,0,0,1,1.961-.947,2.194,2.194,0,0,1,1.106.283,3.78,3.78,0,0,1,.824.572c.313.313.535.154.664-.037l1.8-2.084a.535.535,0,0,0-.1-.793Z" transform="translate(-87.373 -40.691)" fill="#fff"/><circle cx="1.524" cy="1.524" r="1.524" transform="translate(7.282 38.942)" fill="#fff"/></g><g transform="translate(601.742 4471.604)"><path d="M27.8,108.235v1.844a1.033,1.033,0,0,0,.252.725.983.983,0,0,0,.713.258.934.934,0,0,0,.713-.3,1.088,1.088,0,0,0,.277-.738v-1.844H30.5v3.43h-.67l-.043-.473a1.592,1.592,0,0,1-1.229.553,1.4,1.4,0,0,1-1.088-.443,1.69,1.69,0,0,1-.412-1.229V108.18Z" transform="translate(-26.682 -62.704)" fill="#fff"/><path d="M37,111.639v-1.844a1.069,1.069,0,0,0-.246-.725.94.94,0,0,0-.713-.277.959.959,0,0,0-.725.3,1.131,1.131,0,0,0-.27.744v1.795H34.3V108.2h.682l.043.5a1.58,1.58,0,0,1,1.229-.565,1.438,1.438,0,0,1,1.094.443,1.672,1.672,0,0,1,.43,1.229v1.844Z" transform="translate(-29.475 -62.685)" fill="#fff"/><path d="M41.461,106.662a.424.424,0,0,1-.141-.326.412.412,0,0,1,.141-.32.51.51,0,0,1,.651,0,.406.406,0,0,1,.135.32.418.418,0,0,1-.135.326A.492.492,0,0,1,41.461,106.662Zm.695.67v3.448h-.738v-3.448Z" transform="translate(-32.181 -61.825)" fill="#fff"/><path d="M47.8,105.92v4.868H47.09v-.516a1.371,1.371,0,0,1-1.229.615,1.844,1.844,0,0,1-1.309-.467,1.967,1.967,0,0,1,0-2.637,1.764,1.764,0,0,1,1.3-.473,1.893,1.893,0,0,1,.731.16,1.125,1.125,0,0,1,.522.455v-1.973Zm-1.936,2.034a1.088,1.088,0,0,0-.805.3,1.2,1.2,0,0,0,0,1.629,1.094,1.094,0,0,0,.805.307,1.125,1.125,0,0,0,.805-.32,1.039,1.039,0,0,0,.332-.8,1.063,1.063,0,0,0-.332-.805,1.143,1.143,0,0,0-.805-.313Z" transform="translate(-33.231 -61.834)" fill="#fff"/><path d="M54.54,108.209h.719v3.43h-.707v-.553a1.094,1.094,0,0,1-.516.479,1.794,1.794,0,0,1-.713.166A1.881,1.881,0,0,1,52,111.257a1.752,1.752,0,0,1-.5-1.334,1.684,1.684,0,0,1,.516-1.315,1.844,1.844,0,0,1,1.315-.479,1.672,1.672,0,0,1,.725.16,1.137,1.137,0,0,1,.5.461Zm-1.18.578a1.143,1.143,0,0,0-.817.307,1.174,1.174,0,0,0,0,1.659,1.143,1.143,0,0,0,.817.307,1.113,1.113,0,0,0,.86-.338,1.229,1.229,0,0,0,0-1.6,1.112,1.112,0,0,0-.86-.338Z" transform="translate(-36.102 -62.684)" fill="#fff"/><path d="M62.729,105.92v4.868h-.67l-.049-.541a1.371,1.371,0,0,1-1.229.615,1.844,1.844,0,0,1-1.3-.467,1.948,1.948,0,0,1,0-2.637,1.739,1.739,0,0,1,1.3-.473,1.893,1.893,0,0,1,.731.16,1.112,1.112,0,0,1,.516.455v-1.973Zm-1.9,2.034a1.119,1.119,0,1,0,0,2.237,1.131,1.131,0,0,0,.805-.32,1.057,1.057,0,0,0,.326-.8,1.082,1.082,0,0,0-.326-.805A1.155,1.155,0,0,0,60.83,107.954Z" transform="translate(-38.98 -61.834)" fill="#fff"/><path d="M73.11,105.92v4.868h-.7l-.049-.541a1.334,1.334,0,0,1-1.229.615,1.881,1.881,0,0,1-1.315-.467,1.985,1.985,0,0,1,0-2.637,1.8,1.8,0,0,1,1.3-.473,1.844,1.844,0,0,1,.725.16,1.07,1.07,0,0,1,.522.455v-1.973Zm-1.93,2.034a1.131,1.131,0,0,0-.811.3,1.229,1.229,0,0,0,0,1.629,1.137,1.137,0,0,0,.811.307,1.112,1.112,0,0,0,.805-.32,1.033,1.033,0,0,0,.326-.8,1.057,1.057,0,0,0-.326-.805,1.131,1.131,0,0,0-.805-.313Z" transform="translate(-42.97 -61.834)" fill="#fff"/><path d="M77.529,110.194a.867.867,0,0,0,.363.615,1.229,1.229,0,0,0,.793.234,1.752,1.752,0,0,0,.615-.1,1.106,1.106,0,0,0,.455-.27l.473.455a1.672,1.672,0,0,1-.676.436,2.575,2.575,0,0,1-.854.148,1.936,1.936,0,0,1-1.4-.492,1.733,1.733,0,0,1-.522-1.321A1.678,1.678,0,0,1,77.3,108.6a1.844,1.844,0,0,1,1.34-.5,1.887,1.887,0,0,1,1.328.449,1.733,1.733,0,0,1,.486,1.321v.307Zm2.163-.615a.805.805,0,0,0-.3-.615,1.186,1.186,0,0,0-.744-.215,1.229,1.229,0,0,0-.731.215.99.99,0,0,0-.375.615Z" transform="translate(-45.845 -62.672)" fill="#fff"/><path d="M86.918,106.662a.4.4,0,0,1-.129-.326.387.387,0,0,1,.129-.32.51.51,0,0,1,.332-.117.467.467,0,0,1,.32.117.393.393,0,0,1,.141.32.406.406,0,0,1-.141.326.473.473,0,0,1-.32.123.516.516,0,0,1-.332-.123Zm.695.67v3.448h-.762v-3.448Z" transform="translate(-49.703 -61.826)" fill="#fff"/><path d="M92.444,111.623v-1.844a.965.965,0,0,0-1.672-.725,1.057,1.057,0,0,0-.289.744v1.795H89.74v-3.436h.682l.043.5a1.567,1.567,0,0,1,1.192-.565,1.45,1.45,0,0,1,1.106.443,1.641,1.641,0,0,1,.43,1.229V111.6Z" transform="translate(-50.841 -62.669)" fill="#fff"/><path d="M99.62,111.639v-1.844a1.051,1.051,0,0,0-.264-.725.91.91,0,0,0-.707-.277.965.965,0,0,0-.719.3,1.1,1.1,0,0,0-.27.744v1.795h-.75V108.2h.67l.049.5a1.537,1.537,0,0,1,1.192-.565,1.457,1.457,0,0,1,1.1.443,1.672,1.672,0,0,1,.43,1.229v1.844Z" transform="translate(-53.604 -62.685)" fill="#fff"/><path d="M104.221,108.679a1.8,1.8,0,0,1,1.328-.51,1.844,1.844,0,0,1,1.334.51,1.764,1.764,0,0,1,.522,1.285,1.7,1.7,0,0,1-.516,1.278,1.844,1.844,0,0,1-1.34.51,1.8,1.8,0,0,1-1.334-.51,1.887,1.887,0,0,1,0-2.563Zm1.328.154a1.02,1.02,0,0,0-.793.326,1.137,1.137,0,0,0-.3.805,1.1,1.1,0,0,0,.3.793,1.045,1.045,0,0,0,.793.326,1.026,1.026,0,0,0,.793-.326,1.1,1.1,0,0,0,.3-.793,1.125,1.125,0,0,0-.3-.8,1.045,1.045,0,0,0-.793-.35Z" transform="translate(-56.226 -62.7)" fill="#fff"/><path d="M113.967,108.25l-1.506,3.454h-.817l-1.524-3.454h.83l.479,1.106.615,1.592.559-1.457.535-1.229Z" transform="translate(-58.695 -62.731)" fill="#fff"/><path d="M119.92,108.209h.719v3.43h-.707v-.553a1.125,1.125,0,0,1-.516.479,1.794,1.794,0,0,1-.713.166,1.844,1.844,0,0,1-1.315-.473,1.733,1.733,0,0,1-.51-1.334,1.684,1.684,0,0,1,.516-1.315,1.881,1.881,0,0,1,1.321-.479,1.6,1.6,0,0,1,.719.16,1.229,1.229,0,0,1,.5.461Zm-1.18.578a1.138,1.138,0,1,0,0,2.274,1.069,1.069,0,0,0,.854-.338,1.192,1.192,0,0,0,0-1.6A1.069,1.069,0,0,0,118.74,108.787Z" transform="translate(-61.299 -62.684)" fill="#fff"/><path d="M127.516,111.208a2.053,2.053,0,0,1-2.686.055,1.905,1.905,0,0,1,0-2.661,1.93,1.93,0,0,1,1.34-.473,1.789,1.789,0,0,1,1.285.51l-.467.461a1.26,1.26,0,0,0-.811-.289,1.131,1.131,0,0,0-.817.313,1.076,1.076,0,0,0-.326.817,1.063,1.063,0,0,0,.326.811,1.192,1.192,0,0,0,.811.289,1.174,1.174,0,0,0,.848-.32Z" transform="translate(-64.156 -62.684)" fill="#fff"/><path d="M130.615,106.662a.418.418,0,0,1-.135-.326.406.406,0,0,1,.135-.32.479.479,0,0,1,.326-.117.5.5,0,0,1,.332.117.406.406,0,0,1,.129.32.418.418,0,0,1-.129.326.5.5,0,0,1-.332.123A.486.486,0,0,1,130.615,106.662Zm.695.67v3.448h-.744v-3.448Z" transform="translate(-66.541 -61.826)" fill="#fff"/><path d="M133.611,108.679a1.8,1.8,0,0,1,1.328-.51,1.844,1.844,0,0,1,1.328.51,1.721,1.721,0,0,1,.522,1.285,1.684,1.684,0,0,1-.516,1.278,1.8,1.8,0,0,1-1.334.51,1.782,1.782,0,0,1-1.334-.51,1.844,1.844,0,0,1,0-2.563Zm1.328.154a1.02,1.02,0,0,0-.793.326,1.137,1.137,0,0,0-.3.805,1.1,1.1,0,0,0,.3.793,1.045,1.045,0,0,0,.793.326,1.057,1.057,0,0,0,.8-.326,1.162,1.162,0,0,0,.307-.793,1.137,1.137,0,0,0-.32-.8,1.014,1.014,0,0,0-.787-.35Z" transform="translate(-67.546 -62.7)" fill="#fff"/><path d="M143.082,111.639v-1.844a1.063,1.063,0,0,0-.24-.725.94.94,0,0,0-.713-.277.983.983,0,0,0-.731.3,1.162,1.162,0,0,0-.27.744v1.795h-.738V108.2h.676l.043.5a1.549,1.549,0,0,1,1.2-.565,1.444,1.444,0,0,1,1.1.443,1.672,1.672,0,0,1,.436,1.229v1.844Z" transform="translate(-70.361 -62.684)" fill="#fff"/><path d="M136.782,105.755l-.768.953h-.664v-.037l.535-.94h.9Z" transform="translate(-68.419 -61.76)" fill="#fff"/><path d="M99.591,49.385a2.913,2.913,0,0,1,2.016.805,2.655,2.655,0,0,1,.842,1.936v22.36a2.7,2.7,0,0,1-.836,1.936,2.889,2.889,0,0,1-2.016.805,2.846,2.846,0,0,1-2-.805,2.7,2.7,0,0,1-.836-1.936V52.126a2.655,2.655,0,0,1,.836-1.936,2.87,2.87,0,0,1,2-.805m0-1.506a4.339,4.339,0,0,0-4.407,4.247v22.36a4.407,4.407,0,1,0,8.814,0V52.126A4.3,4.3,0,0,0,99.6,47.879" transform="translate(-52.941 -39.465)" fill="#fff"/><path d="M137.331,49.385a2.926,2.926,0,0,1,2.022.805,2.68,2.68,0,0,1,.836,1.936v22.36a2.723,2.723,0,0,1-.836,1.936,2.9,2.9,0,0,1-2.022.805,2.87,2.87,0,0,1-2-.805,2.729,2.729,0,0,1-.842-1.936V52.126a2.686,2.686,0,0,1,.842-1.936,2.9,2.9,0,0,1,2-.805m0-1.506a4.3,4.3,0,0,0-4.4,4.247v22.36a4.407,4.407,0,0,0,8.814,0V52.126a4.339,4.339,0,0,0-4.413-4.247" transform="translate(-67.486 -39.465)" fill="#fff"/><path d="M99.439,49.393a2.9,2.9,0,0,1,2.01.805l23.177,22.36a2.674,2.674,0,0,1,0,3.884,2.883,2.883,0,0,1-2.01.793,2.919,2.919,0,0,1-2.016-.793L97.43,54.119a2.68,2.68,0,0,1,0-3.891,2.883,2.883,0,0,1,2.01-.805m0-1.494a4.474,4.474,0,0,0-3.116,1.229,4.161,4.161,0,0,0,0,6.017L119.5,77.542a4.542,4.542,0,0,0,6.238,0,4.167,4.167,0,0,0,0-6.011L102.562,49.159a4.5,4.5,0,0,0-3.122-1.229" transform="translate(-52.882 -39.485)" fill="#fff"/><path d="M61.843,49.373a2.913,2.913,0,0,1,2.022.805l23.177,22.36a2.7,2.7,0,0,1,0,3.884,2.95,2.95,0,0,1-4.026,0L59.833,54.1a2.7,2.7,0,0,1,0-3.891,2.913,2.913,0,0,1,2.01-.805m0-1.494a4.45,4.45,0,0,0-3.11,1.229,4.161,4.161,0,0,0,0,6.017L81.9,77.523a4.548,4.548,0,0,0,6.244,0,4.155,4.155,0,0,0,0-6.011l-23.183-22.4a4.487,4.487,0,0,0-3.122-1.229" transform="translate(-38.396 -39.466)" fill="#fff"/><path d="M49.947,48.833a2.889,2.889,0,0,1,2.041.805,2.692,2.692,0,0,1,.842,1.948v14.48c0,3.62-1.106,6.386-3.282,8.224a10.756,10.756,0,0,1-3.835,1.985,18.543,18.543,0,0,1-5.249.682,18.383,18.383,0,0,1-5.23-.682,10.762,10.762,0,0,1-3.847-1.985c-2.194-1.844-3.307-4.61-3.307-8.224V51.587a2.667,2.667,0,0,1,.842-1.948,2.9,2.9,0,0,1,4.013,0,2.661,2.661,0,0,1,.836,1.948v2.526h0v12.01c0,4.1,2.618,6.761,6.675,6.761a6.675,6.675,0,0,0,4.917-1.9,6.761,6.761,0,0,0,1.709-4.862V54.113h0V51.587a2.735,2.735,0,0,1,.836-1.948,2.9,2.9,0,0,1,2.01-.805m0-1.506a4.339,4.339,0,0,0-4.4,4.259V52.6h0V66.122c0,3.19-1.942,5.243-5.157,5.243s-5.1-2.071-5.1-5.243V52.6h0V51.587a4.407,4.407,0,1,0-8.814,0V66.1c0,8.426,5.618,12.4,13.946,12.4s13.933-3.97,13.933-12.4V63.277a4.137,4.137,0,0,0,.037-.559V51.587a4.345,4.345,0,0,0-4.407-4.259" transform="translate(-26.45 -39.196)" fill="#fff"/><path d="M62.142,35.714a1.549,1.549,0,1,1,0,3.073h0a1.549,1.549,0,1,1,0-3.073h0m0-1.5H62.1a3.073,3.073,0,1,0,.043,6.091h.049a3.038,3.038,0,1,0-.049-6.066m3.227,2.907Zm-6.441.092v.055a.172.172,0,0,1,0-.055" transform="translate(-38.854 -34.19)" fill="#fff"/></g></g></svg>